<svg id="Layer_1" data-name="Layer 1" xmlns="http://www.w3.org/2000/svg" viewBox="0 0 1242 2208"><defs><style>.cls-1{fill:#96aabc;}.cls-2{fill:#6b6b70;}.cls-2,.cls-31,.cls-32,.cls-33{opacity:0.6;}.cls-3{fill:#717267;}.cls-4{fill:#2e4660;}.cls-5,.cls-6,.cls-9{fill:#1a2b3a;}.cls-5{opacity:0.8;}.cls-7{fill:#3d556b;}.cls-8{fill:#97a9b7;opacity:0.1;}.cls-9{opacity:0.7;}.cls-10{fill:#3a4249;}.cls-10,.cls-25,.cls-30{opacity:0.5;}.cls-11{fill:#b59888;stroke:#6a5d53;stroke-miterlimit:10;stroke-width:3px;}.cls-12{fill:#eacec7;opacity:0.2;}.cls-13{fill:#877163;opacity:0.3;}.cls-14{fill:#15100e;}.cls-15{fill:#b7afac;}.cls-16{fill:#5f534d;}.cls-17{fill:#403d3b;}.cls-18{fill:#dbd6d1;}.cls-19{fill:#bbb3ab;}.cls-20{fill:#bcb8b1;}.cls-21{fill:#4d443d;}.cls-22{fill:#655f5d;}.cls-23,.cls-34{fill:#fff;}.cls-24{fill:#54504d;}.cls-25{fill:#a3a2a2;}.cls-26{fill:#a89d98;}.cls-27{fill:#524440;}.cls-28{fill:#bfbbba;}.cls-29{fill:#7f7673;}.cls-30{fill:#584a43;}.cls-31,.cls-35{fill:#1a1a1a;}.cls-32{fill:#3bad58;}.cls-34{font-size:83px;font-family:RoundedMplus1c-Medium, "Rounded Mplus 1c";font-weight:500;}.cls-35{opacity:0.9;}</style></defs><g id="מסך_שאלות3" data-name="מסך שאלות3"><rect class="cls-1" x="-17" y="-20" width="1275" height="2239"/><path class="cls-2" d="M637,1734.05,435.51,1835.39c10.54-15.68,21.37-33.06,32-52.09,64-114.38,81.88-217,91.8-278.12,53.63-329.85,80.44-494.78,71.09-667.76-10.76-199.12-44.83-276.58-1.55-427.07q1.75-6.09,3.59-12.06Z"/><g id="וילון"><polygon class="cls-3" points="-9.91 211.97 505.59 344.9 505.59 376.92 -9.91 241.02 -9.91 211.97"/><path class="cls-4" d="M517,1443.06a101.48,101.48,0,0,0-14.77-4.5,95.47,95.47,0,0,0-32.55-1.46,112.82,112.82,0,0,0-30.39,8.41c-.67.29-1.35.57-2,.89l-1.43.64a101.34,101.34,0,0,0-15.9,9c-9.35,6.48-15.78,13.36-30.49,23.26-3.19,2.15-6.78,4.45-10.88,6.92a218.17,218.17,0,0,1-23.1,12.27c-.75.34-1.49.67-2.22,1a139,139,0,0,1-19,6.68c-11.92,3.23-22.15,4.29-34.31,6.94a187.13,187.13,0,0,0-37.32,12.43c-.85.37-1.72.76-2.6,1.17-3.74,1.7-7.7,3.61-11.91,5.75q-4.92,2.5-9.39,4.95a275,275,0,0,0-47.92,33.08c-11,9.23-18.51,16-28.92,19.39l-.75.24-.51.15c-.28.09-.57.17-.86.24s-.63.18-1,.25-.38.1-.57.14l-.7.16c-.3.07-.6.14-.91.19-.61.13-1.23.25-1.86.35-1.61.26-3.3.46-5.08.59l-1.69.11c-1,0-2.15.08-3.27.09a109.49,109.49,0,0,1-18.58-1.63c-11.27-1.85-21.78-4.72-32.11-5.49-14.4-1.09-28.47,1.9-43.87,17.35-.82.82-1.84,1.89-3,3.12a180,180,0,0,1-16,14.73,119.18,119.18,0,0,1-27,16.65l0,0a83.68,83.68,0,0,1-28.85,7C-36.26,779-37.55,421-33,371.25c1.09-11.89,6.35-48,1.08-94.77-.16-1.5-.34-3-.54-4.54-4.51-36-11.51-47.45-8.77-63,3.73-21.16,21.5-27.47,40.57-23.56A63,63,0,0,1,10,188.57a75.16,75.16,0,0,1,12.16,6.17c16.28,10.24,22.47,22.8,30,34.26,1.5,2.29,3,4.54,4.74,6.72l1,1.27.78.93c.24.28.48.57.74.86l.65.72c.21.25.44.48.66.72.08.08.16.18.24.25.25.27.5.53.77.8s.68.68,1,1l1.09,1,.84.75q.42.38.87.72c.29.24.59.49.89.72l.92.71c.57.42,1.15.84,1.74,1.25l.92.61,0,0,.89.57.85.52,1.39.8q.42.24.84.45l.19.1.51.26a.67.67,0,0,0,.12.06l.59.29a31.57,31.57,0,0,0,3,1.29c.5.19,1,.35,1.48.5l.77.22.37.1a5.73,5.73,0,0,0,.69.16l.08,0,.14,0h.06l.52.11,1,.17.27,0c.31.05.61.09.91.11l.26,0,1,.06h.83c.29,0,.58,0,.86,0a.22.22,0,0,0,.14,0,4.41,4.41,0,0,0,.52,0h.2l.36,0,1.11-.13a22.17,22.17,0,0,0,2.43-.47l1.2-.31c8-2.31,15.71-7.81,28.13-9.18a54.22,54.22,0,0,1,9.72-.18,70.66,70.66,0,0,1,8.17,1.07c9,1.72,14.25,4.37,18.5,7.1l.9.59c2.24,1.49,4.26,3,6.5,4.34l.43.26c.47.27.95.54,1.44.8l.68.36c.24.13.49.25.75.37l.51.23.52.24.54.23.18.07a.92.92,0,0,0,.23.09l.23.09.09,0,.63.23c.21.08.42.16.64.22.65.24,1.33.45,2,.64l.53.14.47.12.07,0,.42.1h0l.47.11.48.11,1,.19c1,.19,2.09.35,3.24.49a44.67,44.67,0,0,0,14.9-.48q1.6-.35,3.09-.78l.73-.24c.26-.08.52-.16.78-.26l.77-.28.65-.24,1.27-.52.58-.26c.36-.15.71-.32,1.05-.49a52.3,52.3,0,0,0,4.81-2.63l.81-.5,1-.62.82-.54c1.1-.71,2.16-1.42,3.2-2.1l.8-.53.79-.52c5.48-3.51,10.69-6,17.88-4.14a27,27,0,0,1,4.66,1.71,35,35,0,0,1,3.32,1.79c5.63,3.47,9.75,8.33,13.25,13.71.45.69.89,1.39,1.33,2.1.17.26.33.54.49.81,1.37,2.28,2.66,4.63,3.94,7l.81,1.49.4.74,1.22,2.21.07.12c.45.83.91,1.63,1.37,2.42.17.31.35.61.52.9,1,1.69,2,3.32,3.08,4.89l.26.38.05.08c.4.57.8,1.12,1.21,1.66.2.27.41.55.62.81s.58.73.89,1.1.52.61.79.91.48.54.73.8a2.09,2.09,0,0,0,.14.17l.38.38.29.3.69.66a3.08,3.08,0,0,0,.27.25c.24.24.5.46.75.68s.35.32.53.45a3.57,3.57,0,0,0,.38.3.7.7,0,0,0,.16.14,2.37,2.37,0,0,0,.3.23l.46.35h0s0,0,0,0l.64.46c.22.16.45.31.69.47l.66.43,0,0q.36.22.72.42l.43.24.48.26,0,0,.12.06.14.08.3.14a4,4,0,0,0,.51.24c.17.09.35.17.52.24s.36.16.54.24l1,.39a17.79,17.79,0,0,0,1.89.6l.54.14c.35.09.71.17,1.06.23l.54.09.13,0c.38.06.75.1,1.12.13,0,0,0,0,0,0l.53,0a4.34,4.34,0,0,0,.51,0,5.42,5.42,0,0,0,.57,0l.48,0c.22,0,.43,0,.64-.05a2.2,2.2,0,0,0,.37-.05,3.85,3.85,0,0,0,.49-.07l.25,0h.08l.7-.16a3,3,0,0,0,.43-.11l.19-.06.28-.07.68-.23.24-.09.45-.18.63-.28.33-.16.07,0,.29-.15.09-.05.52-.28a1.65,1.65,0,0,0,.25-.15l.43-.25.08-.05.33-.21c.17-.1.34-.22.5-.33l.33-.23.41-.29,0,0a3.09,3.09,0,0,0,.37-.26h0c.73-.56,1.44-1.15,2.15-1.78L305,295c.74-.68,1.47-1.39,2.2-2.11l.63-.64.45-.45L309,291l.9-.92.55-.57c.74-.75,1.48-1.49,2.23-2.21.12-.11.23-.23.35-.33l.41-.39c4.74-4.43,10.1-8.05,17.6-7.73a23.4,23.4,0,0,1,3.4.4,24.48,24.48,0,0,1,3.68,1c8.59,3,14,10.24,19,17.85,1.29,1.95,2.55,3.92,3.83,5.85l.77,1.15a3,3,0,0,1,.2.29l.91,1.31a1.77,1.77,0,0,0,.16.22c.3.43.6.85.91,1.27s.67.91,1,1.35.48.62.72.92.49.61.74.9a5.46,5.46,0,0,0,.38.44c.12.15.25.3.38.44l.38.43c.2.21.4.43.6.63l.08.1.5.51c.13.13.26.27.4.39a.62.62,0,0,0,.14.14,1.29,1.29,0,0,0,.17.16c.11.11.22.22.34.32l.58.53c.61.54,1.24,1.05,1.9,1.54l.08.06.5.35c.21.15.41.29.62.42s.31.2.46.3l.42.25.27.16.41.23.42.22.37.19.05,0,.32.15.6.28.62.26.8.3a21.77,21.77,0,0,0,3.36.91l.45.07.38.07.73.09.45.05.44,0,.45,0c.22,0,.44,0,.65,0H386c.28,0,.56,0,.83-.06l.45,0h0l.22,0,.19,0,.4-.06.14,0,.32-.05.17,0h.08c.18,0,.36-.06.53-.11a8.52,8.52,0,0,0,.84-.2l.41-.11h0c.22-.06.44-.12.66-.2l.45-.15.76-.28c.28-.11.57-.23.85-.37l.22-.08.08,0,.24-.13c.27-.11.54-.25.81-.39l.89-.5c8.87-5.13,15.06-15.81,21.34-20.83,2.1-1.68,4.21-2.72,6.42-2.7,2.43,0,5,1.28,7.79,4.37,7.43,8.17,10.55,22.27,13.78,34.68q.26,1,.51,1.95c.16.58.31,1.16.47,1.72,0,.06,0,.13,0,.19q.46,1.71,1,3.33l.26.86c.62,2,1.26,3.83,2,5.55.11.27.22.54.34.8s.32.75.49,1.1c.06.11.11.23.16.33.14.3.28.57.42.84s.13.25.19.36l.18.34.06.09,0,0c.1.19.2.36.31.54s.21.35.32.51a1.28,1.28,0,0,0,.14.23c.11.19.23.36.35.53l.07.1c.19.27.39.53.59.78a.76.76,0,0,0,.08.11l.21.25,0,0a.61.61,0,0,0,.07.1l.15.17.11.12a2,2,0,0,0,.2.21l0,0,.33.34.46.43a.69.69,0,0,0,.13.11l.21.18h0s.05,0,.07.06l.38.29s0,0,0,0l.17.13.45.29c6.73,4.17,10.94-4.6,17.32-14.22l.35-.51c.46-.68.92-1.37,1.4-2.05l.48-.68c.49-.68,1-1.35,1.51-2,.16-.22.33-.44.5-.65.36-.46.74-.92,1.11-1.37l.53-.61c.39-.46.79-.9,1.2-1.34.17-.19.34-.37.52-.55.4-.41.81-.83,1.23-1.23l.6-.55c.77-.7,1.57-1.37,2.41-2l.22-.17a27.48,27.48,0,0,1,6.84-3.76c.53-.19,1.07-.38,1.63-.54,2.73-.8,16.45-4.85,19.39,9.63,1.7,8.41-1.48,16.79-3.26,38.18a306.19,306.19,0,0,0-.77,35.74c.16,5.22.39,10.08.56,14.67,6.37,169.87,4.15,339.65,9.36,508C522.74,1050.12,524.82,1220.68,517,1443.06Z"/><path class="cls-5" d="M509.91,372.76a306.19,306.19,0,0,0-.77,35.74,11.72,11.72,0,0,1-7,1.33c-3.53-.47-6.05-2.51-8.51-5.15-2.26-2.41-4.46-5.33-7.33-8-.51-.47-1-.91-1.51-1.32-5-4-8.95-4.52-12.7-3.6l-.24.06c-.32.08-.64.18-1,.29h-.06a35.52,35.52,0,0,0-4.13,1.73l-.05,0c-5,2.41-10.2,5.44-17.48,3.64a24.3,24.3,0,0,1-5.28-2l-1-.53c-11.46-6.38-10.86-14.72-18.05-19a16.07,16.07,0,0,0-3.17-1.43,16.7,16.7,0,0,0-5.34-.88c-10.68.07-17.52,11.24-26.72,11.06a7.42,7.42,0,0,1-.94-.06,7.27,7.27,0,0,1-.92-.13l-.55-.11a16.42,16.42,0,0,1-6.07-3c-8.34-6.3-6.07-12.83-15.07-21l-1-.87a19.06,19.06,0,0,0-9.55-4.69c-5.44-.78-10.47,1.55-15.89,4.08a72.76,72.76,0,0,1-9.31,3.81,28.63,28.63,0,0,1-16.59.36,34.71,34.71,0,0,1-4.82-1.72,19.82,19.82,0,0,1-7.23-4.88l-.28-.27a23.48,23.48,0,0,0-4.43-3.28c-.81-.48-1.75-1-2.86-1.52a45.65,45.65,0,0,0-15.21-4.56c-9.37-1-17.19,1.35-24.8,2.55a42.77,42.77,0,0,1-8.95.63,27,27,0,0,1-10.87-2.82,41.72,41.72,0,0,1-10.21-7.35c-6.78-6.43-5.79-8.43-10.24-13.3-.68-.75-1.5-1.56-2.49-2.48-6-5.53-11.46-8-16.7-8.83a28.94,28.94,0,0,0-6.43-.26h0c-7.24.47-14.41,3.09-22.62,4.06a45.71,45.71,0,0,1-27.34-5A35.77,35.77,0,0,1,133,310.9c-3.6-2.63-3.84-4.38-10.64-7.71l-1.08-.52a44.49,44.49,0,0,0-25.46-4h0c-1,.12-1.94.25-2.9.41l-.51.08c-.89.14-1.77.31-2.65.47h-.06c-8.37,1.6-16.56,3.89-26.28,3A53.76,53.76,0,0,1,44,296.77c-.69-.34-1.28-.66-1.79-.93-4.09-2.26-3.61-2.91-10.92-7a112.46,112.46,0,0,0-19.06-8.61,90.23,90.23,0,0,0-13.65-3.49c-12.56-2.17-22.66-1.07-30.47-.24-.16-1.5-.34-3-.54-4.54-4.51-36-11.51-47.45-8.77-63,3.73-21.16,21.5-27.47,40.57-23.56A63,63,0,0,1,10,188.57a75.16,75.16,0,0,1,12.16,6.17c16.28,10.24,22.47,22.8,30,34.26,1.5,2.29,3,4.54,4.74,6.72l1,1.27.78.93c.24.28.48.57.74.86l.65.72c.21.25.44.48.66.72.08.08.16.18.24.25.25.27.5.53.77.8s.68.68,1,1l1.09,1,.84.75q.42.38.87.72c.29.24.59.49.89.72l.92.71c.57.42,1.15.84,1.74,1.25l.92.61,0,0,.89.57.85.52c1,.62,2.07,1.19,3,1.67l.59.29,0,0,.57.27c.82.38,1.63.71,2.41,1,.5.19,1,.35,1.48.5l.77.22.37.1a23.27,23.27,0,0,0,2.45.51l.27,0c.31.05.61.09.91.11l.26,0,1,.06a7.69,7.69,0,0,0,.83,0,6.14,6.14,0,0,0,.86,0,.22.22,0,0,0,.14,0,4.41,4.41,0,0,0,.52,0h.2l.36,0,1.11-.13c.82-.11,1.63-.28,2.43-.47l1.2-.31c8-2.31,15.71-7.81,28.13-9.18a54.22,54.22,0,0,1,9.72-.18,70.66,70.66,0,0,1,8.17,1.07c9,1.72,14.25,4.37,18.5,7.1l.9.59c2.24,1.49,4.26,3,6.5,4.34l.43.26.78.44.66.36.68.36c.24.13.49.25.75.37l.51.23.52.24.54.23.73.29.63.23c.21.08.42.16.64.22.65.24,1.33.45,2,.64l.53.14c.62.17,1.28.32,2,.47l1,.19c.51.1,1,.18,1.57.26l.55.08c.36.06.74.11,1.12.15a44.67,44.67,0,0,0,14.9-.48q1.6-.35,3.09-.78l.73-.24c.26-.08.52-.16.78-.26l.77-.28.65-.24,1.27-.52.58-.26c.36-.15.71-.32,1.05-.49a52.3,52.3,0,0,0,4.81-2.63l.81-.5,1-.62.82-.54c1.1-.71,2.16-1.42,3.2-2.1l.8-.53.79-.52c5.48-3.51,10.69-6,17.88-4.14a27,27,0,0,1,4.66,1.71,35,35,0,0,1,3.32,1.79c5.63,3.47,9.75,8.33,13.25,13.71.45.69.89,1.39,1.33,2.1.17.26.33.54.49.81,1.37,2.28,2.66,4.63,3.94,7l.81,1.49.4.74,1.22,2.21.07.12c.45.83.91,1.63,1.37,2.42.17.31.35.61.52.9,1,1.69,2,3.32,3.08,4.89.1.16.21.31.31.46.4.57.8,1.12,1.21,1.66.2.27.41.55.62.81s.58.73.89,1.1.52.61.79.91.48.54.73.8.34.37.52.55l.29.3.69.66a3.08,3.08,0,0,0,.27.25c.24.24.5.46.75.68s.6.51.91.75.61.49.92.72l.68.49c.22.16.45.31.69.47.46.3.94.59,1.42.87l.43.24.48.26.6.3a4,4,0,0,0,.51.24c.17.09.35.17.52.24s.36.16.54.24a21.94,21.94,0,0,0,4.48,1.36l.54.09a15,15,0,0,0,9.13-1.4l.72-.37.09,0,.72-.42.12-.08.41-.26c.17-.1.34-.22.5-.33.38-.26.76-.53,1.14-.82.73-.56,1.44-1.15,2.15-1.78L305,295c.74-.68,1.47-1.39,2.2-2.11l.63-.64.45-.45L309,291l.9-.92.55-.57c.74-.75,1.48-1.49,2.23-2.21.12-.11.23-.23.35-.33l.41-.39c4.74-4.43,10.1-8.05,17.6-7.73a23.4,23.4,0,0,1,3.4.4,24.48,24.48,0,0,1,3.68,1c8.59,3,14,10.24,19,17.85,1.29,1.95,2.55,3.92,3.83,5.85l.77,1.15a3,3,0,0,1,.2.29l.91,1.31a1.77,1.77,0,0,0,.16.22c.3.43.6.85.91,1.27s.67.91,1,1.35.46.6.69.89.51.63.77.93c.12.15.25.3.38.44.37.45.76.87,1.15,1.29l.61.64c.47.49.95.95,1.45,1.4l.72.64.77.63.6.46a.72.72,0,0,0,.15.11c.4.3.8.58,1.22.85a.67.67,0,0,0,.14.09l.32.21.69.41c.27.16.55.31.83.45s.49.26.74.37l.19.09.79.35.24.1c.53.21,1.06.4,1.61.58a25,25,0,0,0,2.55.63c.45.08.9.15,1.34.2.22,0,.45.06.67.08s.59.05.89.06h.27c.26,0,.51,0,.76,0a7.32,7.32,0,0,0,.94,0c.31,0,.61,0,.91-.07h0l.8-.11a16.79,16.79,0,0,0,1.9-.37l.63-.17a4.68,4.68,0,0,0,.53-.17,5.58,5.58,0,0,0,.58-.18,21.55,21.55,0,0,0,3-1.29l.89-.5c8.87-5.13,15.06-15.81,21.34-20.83,2.1-1.68,4.21-2.72,6.42-2.7,2.43,0,5,1.28,7.79,4.37,7.43,8.17,10.55,22.27,13.78,34.68q.26,1,.51,1.95c.16.58.31,1.16.47,1.72,0,.06,0,.13,0,.19q.46,1.71,1,3.33l.26.86c.62,2,1.26,3.83,2,5.55.11.27.22.54.34.8s.21.49.32.73.27.59.41.86.22.45.33.66l0,0q.14.29.3.57l.14.25.31.54c.1.18.21.34.32.51a1.64,1.64,0,0,0,.16.26,4,4,0,0,0,.23.34c.1.17.22.33.33.49s.19.25.28.37l.39.48a4,4,0,0,0,.31.37q.17.19.33.36l.33.34.46.43a10,10,0,0,0,1.47,1.1c6.73,4.17,10.94-4.6,17.32-14.22l.35-.51c.46-.68.92-1.37,1.4-2.05l.48-.68c.49-.68,1-1.35,1.51-2,.16-.22.33-.44.5-.65.36-.46.74-.92,1.11-1.37l.53-.61c.39-.46.79-.9,1.2-1.34.17-.19.34-.37.52-.55.4-.41.81-.83,1.23-1.23l.6-.55c.77-.7,1.57-1.37,2.41-2l.22-.17a27.48,27.48,0,0,1,6.84-3.76c.53-.19,1.07-.38,1.63-.54,2.73-.8,16.45-4.85,19.39,9.63C514.87,343,511.69,351.37,509.91,372.76Z"/><path class="cls-6" d="M93.64,253c0,14.29-.25,30-.74,46.09v.22C90.69,373,83.89,455.82,77.84,455c-5.76-.83-15.92-78.4-14.44-152.32,0-.33,0-.67,0-1a504.38,504.38,0,0,1,4-55.45,51.21,51.21,0,0,0,4.44,3,32.45,32.45,0,0,0,11.74,4.58C87.52,255.88,90.62,255.06,93.64,253Z"/><path class="cls-6" d="M196.1,261.41c-.2,17.26-.71,35.58-1.43,53.85l-.42,10.07c-3.14,70.79-9.48,138.07-14.63,136.22-4.79-1.72-11.51-64.46-13.72-132.45-.11-3.34-.2-6.69-.29-10.05-.55-21.15-.62-42.49-.05-62.32a36.59,36.59,0,0,0,15.64,5.16A44.67,44.67,0,0,0,196.1,261.41Z"/><path class="cls-6" d="M301.71,356.49l-.12,2.73c-3,64.49-3.79,149.2-10.78,147.58s-8.5-87.07-11.54-152.37c-.12-2.6-.24-5.12-.34-7.57-.89-20.3-1.24-35.54-.46-50.59a27.88,27.88,0,0,0,5.87,3.35c7.66,3.19,13.08,1.37,17.85-2.27C303.32,316.25,302.8,332.79,301.71,356.49Z"/><path class="cls-6" d="M394.71,319.09c-.62,6.53-1.28,13-1.87,19q-2.14,22-3.69,40.93c-.15,1.91-.31,3.78-.45,5.64-6.67,83.16-5.4,118.76-9,118.77-5.34,0-12.65-78.6-14.61-143.93-.09-3-.17-6.06-.24-9-.34-15.08-.36-29.15,0-41,4.35,5.65,9.4,10.21,16.61,11.56A19.73,19.73,0,0,0,394.71,319.09Z"/><path class="cls-6" d="M472.38,383.06v0c-.17,3-.33,5.87-.5,8.75-6.21,109.69-9.4,164.85-11.74,164.27-5.34-1.33-9.91-87.32-10.94-158.58,0-3-.08-5.92-.11-8.84-.16-14.85-.15-28.84.06-41,1.77,4.33,3.91,7.72,6.78,9.49,6.73,4.17,10.94-4.6,17.32-14.22l.35-.51C473.73,358.67,472.74,376.8,472.38,383.06Z"/><path class="cls-7" d="M95.82,298.67c5.21,67.19,7.1,378.72-1.77,1286.53-14.4-1.09-28.47,1.9-43.87,17.35-.82.82-1.84,1.89-3,3.12-3-42,10.28-111.89,18.18-165.73,17-115.74,1.44-107.36,2.06-533.47.33-225.4,4.85-329.93,7.17-377.57.36-7.4,1.83-37.45,3.89-74.13,3.07-54.84,7.42-124.34,11.24-155.13Z"/><path class="cls-7" d="M190.82,1570.42c-11,9.23-18.51,16-28.92,19.39l-.75.24-.51.15c-.28.09-.57.17-.86.24s-.63.18-1,.25-.38.1-.57.14l-.7.16c-.3.07-.6.14-.91.19-.61.13-1.23.25-1.86.35-1.61.26-3.3.46-5.08.59l-1.69.11c.36-11.8,1.39-24.79,2.82-38.37h0c3.56-33.87,9.56-71.25,13.84-103,15.32-114,1.29-105.84,1.85-525.91.3-222.21,4.39-325.33,6.48-372.35.38-8.72,2.21-49.26,4.63-94.76h0c3.13-58.44,7.24-124.93,10.6-142.81h0l6.13.85c.06.45.13.94.19,1.47h0c.67,5.46,1.28,14.84,1.84,28.9C200.23,443,198,762.53,190.82,1570.42Z"/><path class="cls-7" d="M301.43,356.22c0,.51.07,1,.1,1.56,4.1,63.58,5.52,345.84-1.57,1155.26a187.13,187.13,0,0,0-37.32,12.43c-2.8-37.43,8-100.41,14.4-148.92,13.56-103,1.14-95.89,1.64-476.62.26-201.4,3.88-294.87,5.73-337.48.27-6.18,1.31-29.94,2.78-59.71,2.59-52.55,6.5-123.68,9.81-149.8Z"/><path class="cls-7" d="M389.42,1479.25c-3.19,2.15-6.78,4.45-10.88,6.92a218.17,218.17,0,0,1-23.1,12.27c-1.2-36,7.8-91.78,13.24-135.32,12.21-97.64,1-90.94,1.48-452,.24-191,3.49-279.72,5.15-320.17.73-17.55,7.69-184.65,12.47-206.37.35-1.64.7-2.45,1-2.32s.56.92.83,2.51C394.1,411,396.27,650.87,389.42,1479.25Z"/><path class="cls-7" d="M470.92,392.11c.17,2.75.32,6,.48,9.68h0c3,72.57,3.8,336.78-1.74,1035.3a112.82,112.82,0,0,0-30.39,8.41c-2.2-33.88,6.55-90.07,11.73-133.48,11-92.54.93-86.46,1.33-429.9.22-181.68,3.16-266,4.66-304.48.13-3.14.45-11.31.92-22.66,1.75-41.9,5.52-126.91,8.77-161.11Z"/><path class="cls-8" d="M437.24,1446.4l-1.43.64a101.34,101.34,0,0,0-15.9,9c.64-226-4.9-785.82-3.55-1082.3.13-27.82.32-53.3.58-75.93,2.1-1.68,4.21-2.72,6.42-2.7.39,23.17.91,50.41,1.51,80.94C430.42,655.18,443.38,1205,437.24,1446.4Z"/><path class="cls-8" d="M353.22,1499.42a139,139,0,0,1-19,6.68c.8-234.65-5.42-829.09-3.92-1143.37.15-30.9.38-59.06.69-83.85a23.4,23.4,0,0,1,3.4.4,24.48,24.48,0,0,1,3.68,1c.41,22.75.93,49.19,1.54,78.66C345.79,654.05,360.63,1248.19,353.22,1499.42Z"/><path class="cls-8" d="M260,1526.64c-3.74,1.7-7.7,3.61-11.91,5.75q-4.92,2.5-9.39,4.95c.8-246.7-5.86-856.62-4.43-1190.12.16-37.3.42-71.09.8-100.46a27,27,0,0,1,4.66,1.71,35,35,0,0,1,3.32,1.79c.53,28.39,1.25,62,2.09,99.78C252.19,665.13,267.65,1263.56,260,1526.64Z"/><path class="cls-8" d="M150.83,1553.85h0q-.5,20.15-1.13,38.26l-1.69.11c-1,0-2.15.08-3.27.09a109.49,109.49,0,0,1-18.58-1.63c.94-267.37-7-939.39-4.88-1288,.13-20.84.29-40.51.49-58.86a54.22,54.22,0,0,1,9.72-.18c.44,20.43.94,42.95,1.51,67.27C140.47,631.15,157.92,1258.53,150.83,1553.85Z"/><path class="cls-8" d="M31.1,1620.4a119.18,119.18,0,0,1-27,16.65C5.39,1362.76-3.44,655.89-1.45,276.72c.18-33.18.43-63.79.79-91.34L10,188.57c.59,27.07,1.34,57.82,2.18,91.64C21.1,636.19,41.27,1324.37,31.1,1620.4Z"/><path class="cls-8" d="M502.21,1438.56a95.72,95.72,0,0,0-14.24-2c1.55-170.44-3.88-726.16-3.15-1041.17.05-23.43.14-45.5.27-65.95l.22-.17a27.48,27.48,0,0,1,6.84-3.76c.43,23.83.94,50.4,1.51,79.19C499.61,708.85,511.4,1256.42,502.21,1438.56Z"/><path class="cls-9" d="M517.08,1442.63c-1.92,9.56-10.64-.2-32,9.86-24.26,11.4-26,29.68-47.21,38-25.89,10.15-29.06-14.2-48.33,4.57-17.76,17.3-18.88,41.23-35.37,50.56-16.14,9.13-17.54-12-39.67-7.73-11.24,2.15-21.36,10.54-42,27.59-24.13,20-22.21,24-33.26,29.55-22,11-27-6.09-51.61,2.74-17.37,6.22-15.32,14.66-35.6,24.91-25,12.61-29.2.73-69.85,7.82-21.22,3.7-21.39,7.07-45.6,11.47-39.57,7.2-59.94,10.91-61.18,2.31a11.59,11.59,0,0,1-.09-2.26,84,84,0,0,0,28.56-7l0,0a118.85,118.85,0,0,0,27-16.62,180.24,180.24,0,0,0,16-14.71c1.2-1.24,2.22-2.3,3.05-3.12,15.4-15.43,29.46-18.41,43.87-17.3,10.34.78,20.85,3.66,32.12,5.52a109.48,109.48,0,0,0,18.58,1.64c1.12,0,2.22,0,3.27-.09.57,0,1.14-.06,1.69-.1,1.78-.13,3.47-.33,5.08-.59.63-.1,1.25-.22,1.86-.34l.92-.19.69-.16.58-.14c.32-.07.64-.16.95-.25s.58-.15.86-.24l.52-.15.74-.24c10.42-3.4,17.94-10.15,28.93-19.36a274.46,274.46,0,0,1,47.93-33c3-1.62,6.1-3.27,9.39-4.94,4.21-2.13,8.17-4,11.91-5.74.88-.41,1.75-.79,2.6-1.17a187.46,187.46,0,0,1,37.32-12.39c12.17-2.64,22.4-3.69,34.33-6.91a139.2,139.2,0,0,0,18.95-6.66c.73-.31,1.47-.64,2.22-1a215.82,215.82,0,0,0,23.1-12.25c4.1-2.46,7.69-4.76,10.88-6.9,14.71-9.89,21.14-16.77,30.5-23.24a101,101,0,0,1,15.9-8.93l1.43-.64c.68-.31,1.36-.6,2-.89a113.51,113.51,0,0,1,30.39-8.38,97,97,0,0,1,18.32-.54,95.65,95.65,0,0,1,14.24,2,101.44,101.44,0,0,1,14.77,4.51c.1-2.63.19-5.23.28-7.84A30.85,30.85,0,0,1,517.08,1442.63Z"/><path class="cls-9" d="M517.24,1431.77c0,.36-.1.72-.16,1l0,.06c-.58,2.81-1.75,3.92-3.67,4.36a100.8,100.8,0,0,0-11.3-3.26,95.58,95.58,0,0,0-14.24-2.06,96.87,96.87,0,0,0-18.32.5,113.23,113.23,0,0,0-30.39,8.32c-.67.29-1.35.57-2,.89-.48.2-1,.42-1.43.64a100.3,100.3,0,0,0-15.9,8.89c-9.36,6.46-15.79,13.33-30.5,23.18-3.19,2.14-6.78,4.43-10.88,6.89a218.18,218.18,0,0,1-23.1,12.2l-2.22,1a138.74,138.74,0,0,1-18.95,6.63c-11.93,3.2-22.16,4.23-34.33,6.84a186.52,186.52,0,0,0-37.32,12.32l-2.6,1.16c-3.74,1.69-7.7,3.59-11.91,5.72-3.29,1.66-6.41,3.3-9.39,4.92a274,274,0,0,0-47.93,32.94c-11,9.2-18.51,15.93-28.93,19.31l-.74.23a4.44,4.44,0,0,1-.52.15c-.28.09-.57.17-.86.24s-.63.18-.95.25-.38.1-.58.14l-.69.16-.92.19c-.61.12-1.23.24-1.86.34-1.61.26-3.3.45-5.08.57-.55,0-1.12.08-1.69.1-1.05.05-2.15.08-3.27.08A108.42,108.42,0,0,1,126,1585c-11.27-1.88-21.78-4.78-32.12-5.58-14.41-1.13-28.47,1.82-43.87,17.22-.83.82-1.85,1.88-3.05,3.11a179.14,179.14,0,0,1-16,14.68,118.78,118.78,0,0,1-27,16.58l0,0a89.55,89.55,0,0,1-15,5c-8.43.27-12.89-1.14-13.44-5a11.51,11.51,0,0,1-.09-2.26A83.22,83.22,0,0,0,3.87,1622l0,0a117.86,117.86,0,0,0,27-16.46,178.6,178.6,0,0,0,16-14.61c1.2-1.22,2.22-2.28,3.05-3.1,15.4-15.33,29.46-18.21,43.87-17,10.34.85,20.85,3.8,32.12,5.73a109.34,109.34,0,0,0,18.58,1.76c1.12,0,2.22,0,3.27-.07.57,0,1.14-.06,1.69-.09,1.78-.12,3.47-.3,5.08-.55.63-.1,1.25-.22,1.86-.34.31,0,.62-.12.92-.18l.69-.15.58-.14c.32-.07.64-.15.95-.24s.58-.15.86-.24.35-.09.52-.15l.74-.23c10.42-3.33,17.94-10,28.93-19.18a272.5,272.5,0,0,1,47.93-32.73c3-1.6,6.1-3.23,9.39-4.88,4.21-2.1,8.17-4,11.91-5.67.88-.39,1.75-.78,2.6-1.14a186.35,186.35,0,0,1,37.32-12.16c12.17-2.56,22.4-3.54,34.33-6.69a137.37,137.37,0,0,0,18.95-6.54c.73-.3,1.47-.63,2.22-1a215.57,215.57,0,0,0,23.1-12.1c4.1-2.44,7.69-4.71,10.88-6.84,14.71-9.79,21.14-16.63,30.5-23a99.72,99.72,0,0,1,15.9-8.83c.47-.22.95-.43,1.43-.63.68-.31,1.36-.59,2-.87a112.25,112.25,0,0,1,30.39-8.19,96,96,0,0,1,32.56,1.7,102.34,102.34,0,0,1,14.77,4.61c.1-2.63.19-5.23.28-7.84A34.06,34.06,0,0,1,517.24,1431.77Z"/><path class="cls-10" d="M452.19,1628.81c-.05.39-.11.76-.19,1.12,0,0,0,0,0,.07,0-.77.05-1.54.08-2.3Z"/></g><g id="אריח"><path class="cls-11" d="M829.44,1778.22l-155,106.3c-7.46,5.11-19.56,7.23-27,4.67l-178.58-61.7c-7.68-2.65-6.72-8.75,2.06-13.56l182-99.73c6.73-3.69,17.42-4.73,23.92-2.37L828.41,1767C834.7,1769.26,835.19,1774.28,829.44,1778.22Z"/><path class="cls-12" d="M829.44,1778.22l-46.23,31.72c3.06-7.67,4.5-16.53-.64-25.59-9.89-17.42-34-17-59.76-35.64-11.63-8.4-22.5-19.93-27.85-30.31L828.41,1767C834.7,1769.26,835.19,1774.28,829.44,1778.22Z"/><path class="cls-13" d="M694,1871.14l-19.5,13.38c-7.46,5.11-19.56,7.23-27,4.67l-178.58-61.7c-7.68-2.65-6.72-8.75,2.06-13.56l58.41-32c-8.29,9.87-13.88,20.92-10,32.13,6.94,20.26,40.57,30.11,70.63,38.92C640.74,1867.85,677.74,1864.89,694,1871.14Z"/></g><g id="אריח-2" data-name="אריח"><path class="cls-11" d="M1327.05,1958.78l-83.77,123c-4,5.88-12.62,8.85-19.21,6.57l-158.82-54.88c-6.82-2.35-8.21-8.89-3.15-14.54l105.73-118c3.94-4.39,11.87-6.2,17.73-4.06l136.83,49.8C1328.08,1948.82,1330.18,1954.19,1327.05,1958.78Z"/><path class="cls-12" d="M1327.05,1958.78l-25.11,36.88c-.25-8.4-2.16-18-9.27-27.39-13.67-18.08-32.24-16.12-58.71-34.55-11.93-8.3-24.36-20-32.11-30.84l120.54,43.87C1328.08,1948.82,1330.18,1954.19,1327.05,1958.78Z"/><path class="cls-13" d="M1253.76,2066.43l-10.48,15.4c-4,5.88-12.62,8.85-19.21,6.57l-158.82-54.88c-6.82-2.35-8.21-8.89-3.15-14.54l33.77-37.69c-2.93,11.06-3.39,23.18,3.47,34.89,12.39,21.14,41.69,29.6,67.9,37.16C1211.49,2066.11,1239.06,2060.75,1253.76,2066.43Z"/></g><g id="אריח-3" data-name="אריח"><path class="cls-11" d="M1482.12,2015.05,1419,2142.79a14.3,14.3,0,0,1-17,7.1l-153-52.85c-6.57-2.27-8.63-8.92-4.63-14.81l83.63-123.07c3.12-4.6,10.23-6.61,15.91-4.55l132.41,48.19C1481.92,2004.8,1484.48,2010.27,1482.12,2015.05Z"/></g><g id="אריח-4" data-name="אריח"><path class="cls-11" d="M1001,1840.47,871.42,1952.83c-6.22,5.4-17.08,7.82-24.2,5.36l-171.6-59.29c-7.37-2.55-7.26-8.81.19-13.92l154.78-106.34c5.74-3.94,15.44-5.26,21.72-3l146.35,53.26C1004.74,1831.14,1005.8,1836.29,1001,1840.47Z"/><path class="cls-12" d="M1001,1840.47l-38.72,33.58c1.87-7.94,2.12-17.06-3.73-26.25-11.24-17.67-33.37-16.69-59.42-35.27-11.74-8.38-23.17-20-29.38-30.52l128.92,46.92C1004.74,1831.14,1005.8,1836.29,1001,1840.47Z"/><path class="cls-13" d="M887.69,1938.72l-16.27,14.11c-6.22,5.4-17.08,7.82-24.2,5.36l-171.6-59.29c-7.37-2.55-7.26-8.81.19-13.92l49.59-34.07c-6.37,10.3-10.12,21.74-5.19,33.14,8.91,20.59,41,30,69.7,38.32C838.35,1936.49,872,1932.67,887.69,1938.72Z"/></g><g id="אריח-5" data-name="אריח"><path class="cls-11" d="M1166.76,1900.62l-105.88,117.93c-5.07,5.65-14.77,8.36-21.62,6l-165-57c-7.09-2.44-7.76-8.85-1.55-14.25l129.4-112.4c4.81-4.18,13.6-5.74,19.67-3.54l141.47,51.49C1169.11,1891,1170.71,1896.23,1166.76,1900.62Z"/><path class="cls-12" d="M1166.76,1900.62l-31.69,35.3c.78-8.19-.1-17.55-6.59-26.85-12.5-17.89-32.8-16.4-59.08-34.91-11.84-8.34-23.79-20-30.8-30.69l124.63,45.35C1169.11,1891,1170.71,1896.23,1166.76,1900.62Z"/><path class="cls-13" d="M1074.15,2003.77l-13.27,14.78c-5.07,5.65-14.77,8.36-21.62,6l-165-57c-7.09-2.44-7.76-8.85-1.55-14.25l41.4-36c-4.6,10.7-6.64,22.5-.7,34.06,10.72,20.89,41.37,29.78,68.79,37.74C1028.46,2002.53,1059,1997.91,1074.15,2003.77Z"/></g><g id="אריח-6" data-name="אריח"><path class="cls-11" d="M646.73,1903.56,434.9,2048.87c-10.42,7.14-26.24,10.68-35.22,7.79l-217.29-69.82c-9.37-3-6.84-11,5.52-17.79l250.4-137.21c9.05-5,22.55-6.78,30.23-4.13l178.64,61.72C654.58,1892,654.42,1898.29,646.73,1903.56Z"/><path class="cls-12" d="M646.73,1903.56l-62.27,42.71c5-9.93,8.25-21.27,3.32-32.48-9.47-21.52-39.44-19.72-68.41-42-13.05-10-24.62-24-29.5-36.75l157.31,54.35C654.58,1892,654.42,1898.29,646.73,1903.56Z"/><path class="cls-13" d="M462.06,2030.24l-27.16,18.63c-10.42,7.14-26.24,10.68-35.22,7.79l-217.29-69.82c-9.37-3-6.84-11,5.52-17.79l81.56-44.69c-12.57,13.19-22,27.77-19.3,42.08,4.82,25.93,46,36.77,82.84,46.45C395,2029.2,442.57,2023.1,462.06,2030.24Z"/></g><g id="אריח-7" data-name="אריח"><path class="cls-11" d="M1228.39,2103.7,1115.9,2268.93c-5.48,8.05-16.31,12.61-24.15,10.1l-189.21-60.8c-8.15-2.62-9-11.13-2.07-18.92L1043.26,2040c5.21-5.82,14.94-8.58,21.76-6.22l158.86,54.89C1230.48,2090.94,1232.51,2097.65,1228.39,2103.7Z"/><path class="cls-12" d="M1228.39,2103.7l-33.27,48.87c.46-10.79-1-23-8.62-34.55-14.7-22.25-37.13-18.57-67.1-40.43-13.49-9.84-27.23-24-35.43-37.26l139.91,48.34C1230.48,2090.94,1232.51,2097.65,1228.39,2103.7Z"/><path class="cls-13" d="M1130.21,2247.91l-14.31,21c-5.48,8.05-16.31,12.61-24.15,10.1l-189.21-60.8c-8.15-2.62-9-11.13-2.07-18.92l46.22-51.57c-4.94,14.59-7,30.44.07,45.29,12.73,26.88,47.8,35.9,79.13,44C1078.7,2250.58,1112.88,2241.52,1130.21,2247.91Z"/></g><g id="אריח-8" data-name="אריח"><path class="cls-11" d="M1407.83,2165.44,1323.55,2336c-4.1,8.29-13.53,13.14-21,10.73l-181.07-58.18c-7.79-2.5-9.63-11.14-4.16-19.19l112.29-165.27c4.12-6.05,12.75-9.07,19.32-6.8l153,52.86C1408.26,2152.36,1410.92,2159.17,1407.83,2165.44Z"/></g><g id="אריח-9" data-name="אריח"><path class="cls-11" d="M848.27,1972.91l-176,152.65c-8.63,7.49-22.65,11.4-31.22,8.64l-207.28-66.6c-8.93-2.87-7.65-11.07,2.76-18.22L648.08,1904c7.68-5.27,19.83-7.43,27.2-4.88l171.66,59.3C854.06,1960.9,854.68,1967.35,848.27,1972.91Z"/><path class="cls-12" d="M848.27,1972.91l-51.86,45c3.39-10.26,4.93-21.91-1-33.26-11.36-21.8-38.64-19.32-68-41.44-13.22-10-25.58-24-31.66-37l151.17,52.23C854.06,1960.9,854.68,1967.35,848.27,1972.91Z"/><path class="cls-13" d="M694.75,2106.05l-22.51,19.51c-8.63,7.49-22.65,11.4-31.22,8.64l-207.28-66.6c-8.93-2.87-7.65-11.07,2.76-18.22l68.77-47.24c-9.81,13.71-16.53,28.77-12.27,43.29,7.71,26.3,46.73,36.49,81.58,45.59C633.27,2106.35,676,2099.17,694.75,2106.05Z"/></g><g id="אריח-10" data-name="אריח"><path class="cls-11" d="M1042,2039.57,899,2198.84c-7,7.79-19.35,12-27.54,9.41l-197.94-63.6c-8.53-2.74-8.38-11.11.24-18.6l175.8-152.7c6.4-5.56,17.29-8,24.39-5.58l165.07,57C1045.88,2027.17,1047.23,2033.75,1042,2039.57Z"/><path class="cls-12" d="M1042,2039.57l-42.21,47c1.86-10.54,1.86-22.47-5-34-13.1-22-37.87-18.94-67.55-40.93-13.37-9.9-26.46-24-33.64-37.13L1039,2024.8C1045.88,2027.17,1047.23,2033.75,1042,2039.57Z"/><path class="cls-13" d="M917.25,2178.53,899,2198.84c-7,7.79-19.35,12-27.54,9.41l-197.94-63.6c-8.53-2.74-8.38-11.11.24-18.6l57-49.52c-7.27,14.17-11.54,29.65-5.83,44.35,10.34,26.62,47.31,36.2,80.34,44.77C860.94,2180.07,899.24,2171.9,917.25,2178.53Z"/></g><g id="אריח-11" data-name="אריח"><path class="cls-11" d="M396,2075.55,89,2286.16c-15.58,10.68-37.62,16.83-49,13.55L-236.79,2220c-12-3.46-6.37-14.69,12.31-24.93l366.23-200.67c12.82-7,30.7-10.21,40.08-7.19L399.2,2057C408.18,2059.87,406.8,2068.14,396,2075.55Z"/><path class="cls-12" d="M396,2075.55l-88.37,60.62c8.49-13.56,14.86-28.81,10.69-43.33-8-27.77-47-23.5-79.94-51-14.81-12.35-26.87-30-30.53-46.37L399.2,2057C408.18,2059.87,406.8,2068.14,396,2075.55Z"/><path class="cls-13" d="M129.37,2258.45,89,2286.16c-15.58,10.68-37.62,16.83-49,13.55L-236.79,2220c-12-3.46-6.37-14.69,12.31-24.93l121.81-66.74c-20.21,18.74-36.58,39.26-36.65,58.61-.12,35.23,52.91,47.06,100.14,57.59C40.13,2262.17,105.07,2250.15,129.37,2258.45Z"/></g><g id="אריח-12" data-name="אריח"><path class="cls-11" d="M640,2153.49,387.12,2372.83c-12.78,11.08-32,17.68-42.74,14.59L83.15,2312.14c-11.32-3.26-7.71-14.71,7.85-25.4l306.64-210.66c10.79-7.41,26.69-11,35.63-8.15l207.35,66.62C649.19,2137.3,649,2145.74,640,2153.49Z"/><path class="cls-12" d="M640,2153.49l-73,63.34c6-13.94,9.91-29.55,4.27-44.21-10.79-28.06-45.87-22.93-79.41-50.17-15.09-12.25-28.34-29.93-33.77-46.54l182.53,58.64C649.19,2137.3,649,2145.74,640,2153.49Z"/></g><g id="אריח-13" data-name="אריח"><path class="cls-11" d="M872.94,2227.88,669.18,2454.83c-10.24,11.41-26.9,18.42-37.07,15.49l-247-71.16c-10.69-3.08-8.88-14.7,3.88-25.78L641.6,2154c8.93-7.75,23-11.74,31.54-9l198,63.61C879.34,2211.24,880.17,2219.83,872.94,2227.88Z"/><path class="cls-12" d="M872.94,2227.88l-59,65.73c3.78-14.25,5.41-30.17-1.56-45-13.34-28.29-44.79-22.39-78.85-49.41-15.32-12.15-29.65-29.85-36.69-46.64l174.32,56C879.34,2211.24,880.17,2219.83,872.94,2227.88Z"/></g><g id="לוקרים"><path class="cls-14" d="M1485.35,2006.66l18,61.74L634.7,1729.17s-23.42-31.79-15.42-28.71S1485.35,2006.66,1485.35,2006.66Z"/><polygon class="cls-15" points="617.46 1703.54 1486.38 2006.43 1486.55 -38.59 624.56 8.42 617.46 1703.54"/><polygon class="cls-16" points="625.27 1693.77 1470.82 1986.01 1471.13 -20.36 632.21 22.5 625.27 1693.77"/><g id="לוקר"><polygon class="cls-15" points="1170.79 -5.01 1169.3 928.84 1468.41 972.28 1468.58 -20.23 1170.79 -5.01"/><g id="תריסים"><g id="תריס"><path class="cls-17" d="M1270.77,102.1c.12-1.48-2.3-3.24-3.84-4a7.85,7.85,0,0,0-6.28-.21c-8.48,3.21-36.16-2.62-42.83,2.39a5.54,5.54,0,0,0-2.4,3.73c-.24,1.81.39,3.77.67,3.85,5.37,1.46,9.47,1.63,21.68-.51,2.39-.42,4.31-.74,7-1,6.44-.69,8.29-.21,14.1-.79C1264.47,105,1270.58,104.39,1270.77,102.1Z"/><path class="cls-18" d="M1270.77,97.15c-.13-5.38-2-11.2-5-13.88a6.48,6.48,0,0,0-2.25-1.32c-6.62-2.23-16.14.75-22.8,1.8-9.33,1.48-10.19-1.29-15.1,2-1.51,1-8.3,5.6-9.33,14.53-.18,1.5-.09.33,0,1.23,18-1.45,36.14-.42,54.45-1.88C1270.74,99.13,1270.79,98.24,1270.77,97.15Z"/><path class="cls-19" d="M1271.62,99.56c0-.27-.62-1-1.87-2.48a30.49,30.49,0,0,0-2.72-2.82,24.11,24.11,0,0,0-7-4.08c-5-1.77-17.87.38-27.31.41-8,0-11.83-1.52-14.78,3.35a21.68,21.68,0,0,0-2.52,8.82C1260.39,102.36,1271.58,101,1271.62,99.56Z"/></g><g id="תריס-2" data-name="תריס"><path class="cls-17" d="M1269.94,142c.12-1.49-2.3-3.27-3.84-4a7.9,7.9,0,0,0-6.28-.26c-8.48,3.14-36.15-2.91-42.83,2a5.52,5.52,0,0,0-2.4,3.72c-.24,1.8.4,3.76.68,3.84,5.36,1.51,9.46,1.72,21.68-.32,2.38-.4,4.3-.71,7-1,6.44-.64,8.28-.14,14.09-.67C1263.64,144.83,1269.75,144.27,1269.94,142Z"/><path class="cls-18" d="M1269.93,137c-.12-5.38-1.94-11.22-5-13.92a6.32,6.32,0,0,0-2.26-1.33c-6.61-2.3-16.13.61-22.79,1.61-9.33,1.39-10.19-1.38-15.09,1.89-1.51,1-8.3,5.52-9.34,14.44-.17,1.51-.08.34,0,1.24,18-1.3,36.15-.12,54.45-1.43A24.21,24.21,0,0,0,1269.93,137Z"/><path class="cls-19" d="M1270.79,139.45c0-.26-.62-1-1.87-2.49a28.6,28.6,0,0,0-2.73-2.84,23.86,23.86,0,0,0-7-4.14c-5-1.82-17.86.23-27.3.19-8,0-11.82-1.63-14.77,3.22a21.58,21.58,0,0,0-2.53,8.8C1259.55,142.16,1270.75,140.84,1270.79,139.45Z"/></g><g id="תריס-3" data-name="תריס"><path class="cls-17" d="M1269.89,181.87c.13-1.49-2.3-3.29-3.84-4.05a7.88,7.88,0,0,0-6.28-.32c-8.48,3.07-36.16-3.21-42.83,1.69a5.46,5.46,0,0,0-2.4,3.7c-.24,1.8.39,3.77.67,3.85,5.37,1.56,9.47,1.8,21.68-.14,2.39-.38,4.31-.67,7-.92,6.44-.59,8.28-.07,14.09-.56C1263.59,184.66,1269.7,184.15,1269.89,181.87Z"/><path class="cls-18" d="M1269.89,176.91c-.13-5.39-1.94-11.24-5-14a6.38,6.38,0,0,0-2.25-1.35c-6.61-2.35-16.14.48-22.8,1.42-9.33,1.32-10.19-1.46-15.09,1.77-1.52,1-8.31,5.45-9.34,14.37-.18,1.51-.09.34,0,1.24,18-1.15,36.15.17,54.46-1C1269.87,178.89,1269.91,178,1269.89,176.91Z"/><path class="cls-19" d="M1270.74,179.34c0-.27-.61-1-1.87-2.51a30.78,30.78,0,0,0-2.72-2.87,24.46,24.46,0,0,0-7-4.2c-5-1.86-17.87.09-27.31,0-8-.11-11.82-1.72-14.77,3.1a21.45,21.45,0,0,0-2.53,8.79C1259.51,182,1270.71,180.73,1270.74,179.34Z"/></g><g id="תריס-4" data-name="תריס"><path class="cls-17" d="M1269.85,221.76c.12-1.48-2.3-3.31-3.84-4.08a7.88,7.88,0,0,0-6.28-.37c-8.48,3-36.17-3.51-42.84,1.34a5.41,5.41,0,0,0-2.41,3.68c-.24,1.8.4,3.78.68,3.86,5.36,1.6,9.47,1.87,21.68,0,2.39-.36,4.32-.63,7-.86,6.44-.53,8.29,0,14.09-.44C1263.54,224.5,1269.66,224,1269.85,221.76Z"/><path class="cls-18" d="M1269.84,216.8c-.12-5.39-1.94-11.26-5-14a6.63,6.63,0,0,0-2.26-1.37c-6.61-2.4-16.13.35-22.8,1.24-9.33,1.25-10.19-1.54-15.1,1.64-1.51,1-8.3,5.39-9.34,14.31-.17,1.5-.08.33,0,1.23,18-1,36.16.48,54.47-.53A24.21,24.21,0,0,0,1269.84,216.8Z"/><path class="cls-19" d="M1270.7,219.24c0-.27-.62-1-1.87-2.53a30.06,30.06,0,0,0-2.73-2.89,24.56,24.56,0,0,0-7-4.25c-5-1.91-17.87-.06-27.31-.27-8-.17-11.83-1.82-14.78,3a21.15,21.15,0,0,0-2.52,8.77C1259.46,221.76,1270.66,220.63,1270.7,219.24Z"/></g><g id="תריס-5" data-name="תריס"><path class="cls-17" d="M1269.81,261.67c.12-1.48-2.31-3.33-3.85-4.12a7.87,7.87,0,0,0-6.28-.41c-8.48,2.93-36.17-3.81-42.85,1a5.33,5.33,0,0,0-2.4,3.66c-.24,1.8.39,3.79.68,3.87,5.36,1.65,9.46,2,21.68.21,2.39-.34,4.32-.6,7-.8,6.44-.48,8.29.06,14.1-.33C1263.5,264.36,1269.61,264,1269.81,261.67Z"/><path class="cls-18" d="M1269.8,256.71c-.12-5.4-1.94-11.28-5-14.07a6.88,6.88,0,0,0-2.25-1.39c-6.62-2.45-16.14.22-22.81,1.05-9.33,1.17-10.19-1.62-15.1,1.52-1.51,1-8.3,5.33-9.34,14.24-.18,1.5-.09.33,0,1.23,18-.85,36.16.77,54.48-.08A24.21,24.21,0,0,0,1269.8,256.71Z"/><path class="cls-19" d="M1270.66,259.15a10.62,10.62,0,0,0-1.87-2.54,30.73,30.73,0,0,0-2.73-2.91,25.08,25.08,0,0,0-7-4.32c-5-1.94-17.88-.21-27.32-.48-8-.24-11.83-1.92-14.78,2.86a21.23,21.23,0,0,0-2.53,8.75C1259.42,261.58,1270.62,260.54,1270.66,259.15Z"/></g><g id="תריס-6" data-name="תריס"><path class="cls-17" d="M1269.76,301.6c.13-1.49-2.3-3.35-3.84-4.16a7.87,7.87,0,0,0-6.28-.46c-8.49,2.86-36.18-4.11-42.86.63a5.25,5.25,0,0,0-2.4,3.64c-.25,1.8.39,3.79.67,3.88,5.37,1.69,9.47,2,21.69.38,2.39-.32,4.32-.56,7-.74,6.44-.43,8.29.13,14.1-.21C1263.45,304.23,1269.57,303.87,1269.76,301.6Z"/><path class="cls-18" d="M1269.76,296.63c-.13-5.4-2-11.3-5-14.11a6.88,6.88,0,0,0-2.26-1.41c-6.61-2.51-16.14.08-22.81.86-9.33,1.1-10.19-1.71-15.1,1.4-1.51,1-8.31,5.26-9.34,14.16-.18,1.51-.09.34,0,1.24,18-.71,36.16,1.07,54.48.36C1269.73,298.61,1269.78,297.73,1269.76,296.63Z"/><path class="cls-19" d="M1270.61,299.08c0-.26-.62-1-1.87-2.56a30,30,0,0,0-2.73-2.93,25.27,25.27,0,0,0-7-4.38c-5-2-17.88-.35-27.32-.71-8-.3-11.83-2-14.79,2.75a20.9,20.9,0,0,0-2.52,8.73C1259.37,301.42,1270.57,300.47,1270.61,299.08Z"/></g></g><path class="cls-20" d="M1170.78-5l-.39,251.5c7.95-32.73,12.21-31.86,23.18-68.85,25.28-85.26,15.94-134,39.79-160.37,11.35-12.56,22.87-12,36.82-12.1,31.82-.3,79-4.4,144.46-22l-.92-.62Z"/></g><g id="לוקר-2" data-name="לוקר"><polygon class="cls-15" points="1169.29 935.18 1167.8 1877.43 1468.24 1981.03 1468.41 979.03 1169.29 935.18"/><g id="תריסים-2" data-name="תריסים"><g id="תריס-7" data-name="תריס"><path class="cls-17" d="M1269.7,1063.18c.13-1.47-2.31-3.74-3.85-4.79a8.29,8.29,0,0,0-6.31-1.46c-8.52,1.55-36.31-9.83-43-6.1a4.29,4.29,0,0,0-2.42,3.29c-.24,1.77.4,3.88.68,4,5.39,2.55,9.51,3.53,21.77,3.8,2.4.06,4.33.12,7.06.36,6.47.58,8.33,1.44,14.16,2C1263.37,1064.85,1269.51,1065.45,1269.7,1063.18Z"/><path class="cls-18" d="M1269.7,1058.18c-.13-5.46-2-11.69-5-15a8.37,8.37,0,0,0-2.26-1.77c-6.64-3.58-16.21-2.46-22.89-2.72-9.38-.37-10.24-3.33-15.17-1a16,16,0,0,0-9.37,12.8c-.18,1.48-.09.32,0,1.24,18.11,2.12,36.3,6.76,54.69,8.94C1269.68,1060.17,1269.72,1059.28,1269.7,1058.18Z"/><path class="cls-19" d="M1270.56,1060.78a12.89,12.89,0,0,0-1.88-2.87,40.34,40.34,0,0,0-2.74-3.39,31.56,31.56,0,0,0-7-5.5c-5-2.79-17.94-3.17-27.42-5-8-1.57-11.88-3.89-14.84.44-1.66,2.42-2.28,5.81-2.54,8.4C1259.27,1061.37,1270.52,1062.18,1270.56,1060.78Z"/></g><g id="תריס-8" data-name="תריס"><path class="cls-17" d="M1268.87,1103.28c.12-1.48-2.31-3.76-3.86-4.83a8.35,8.35,0,0,0-6.3-1.51c-8.52,1.48-36.31-10.13-43-6.46a4.27,4.27,0,0,0-2.42,3.28c-.24,1.77.4,3.88.68,4,5.39,2.59,9.51,3.61,21.77,4,2.39.07,4.33.14,7.06.41,6.47.64,8.32,1.51,14.15,2.13C1262.54,1104.89,1268.68,1105.54,1268.87,1103.28Z"/><path class="cls-18" d="M1268.86,1098.27c-.12-5.46-1.95-11.71-5-15a8.36,8.36,0,0,0-2.27-1.79c-6.64-3.63-16.2-2.59-22.89-2.91-9.37-.45-10.23-3.41-15.16-1.1a15.85,15.85,0,0,0-9.37,12.73c-.18,1.48-.09.32,0,1.24,18.11,2.28,36.3,7.07,54.68,9.39A24.24,24.24,0,0,0,1268.86,1098.27Z"/><path class="cls-19" d="M1269.72,1100.88a13,13,0,0,0-1.88-2.89,37.86,37.86,0,0,0-2.73-3.41,32.15,32.15,0,0,0-7-5.56c-5-2.83-17.94-3.32-27.42-5.24-8-1.64-11.88-4-14.84.32-1.65,2.41-2.28,5.79-2.53,8.38C1258.44,1101.38,1269.68,1102.28,1269.72,1100.88Z"/></g><g id="תריס-9" data-name="תריס"><path class="cls-17" d="M1268.82,1143.52c.13-1.47-2.31-3.78-3.85-4.85a8.34,8.34,0,0,0-6.31-1.57c-8.52,1.41-36.32-10.44-43-6.82a4.24,4.24,0,0,0-2.41,3.26,6.68,6.68,0,0,0,.68,4c5.38,2.64,9.5,3.69,21.77,4.17,2.39.09,4.33.18,7.06.47,6.47.69,8.33,1.57,14.16,2.24C1262.49,1145.08,1268.63,1145.79,1268.82,1143.52Z"/><path class="cls-18" d="M1268.82,1138.52c-.13-5.47-2-11.74-5-15.1a8.86,8.86,0,0,0-2.26-1.82c-6.64-3.68-16.21-2.72-22.9-3.1-9.37-.52-10.23-3.49-15.16-1.22a15.67,15.67,0,0,0-9.38,12.66c-.17,1.48-.08.32,0,1.24,18.12,2.42,36.31,7.37,54.7,9.84C1268.8,1140.51,1268.84,1139.62,1268.82,1138.52Z"/><path class="cls-19" d="M1269.68,1141.13a13.63,13.63,0,0,0-1.88-2.9,40.71,40.71,0,0,0-2.74-3.44,32.42,32.42,0,0,0-7-5.62c-5-2.87-17.94-3.47-27.43-5.47-8.05-1.7-11.87-4.09-14.83.19-1.66,2.4-2.28,5.78-2.54,8.37C1258.39,1141.54,1269.64,1142.53,1269.68,1141.13Z"/></g><g id="תריס-10" data-name="תריס"><path class="cls-17" d="M1268.78,1183.78c.12-1.47-2.31-3.8-3.86-4.89a8.43,8.43,0,0,0-6.31-1.62c-8.51,1.35-36.32-10.74-43-7.17a4.16,4.16,0,0,0-2.42,3.23,6.76,6.76,0,0,0,.68,4c5.39,2.68,9.51,3.77,21.78,4.34,2.39.11,4.33.22,7.06.53,6.47.75,8.33,1.65,14.16,2.36C1262.45,1185.29,1268.59,1186,1268.78,1183.78Z"/><path class="cls-18" d="M1268.77,1178.77c-.12-5.47-2-11.75-5-15.14a8.91,8.91,0,0,0-2.27-1.84c-6.64-3.74-16.21-2.86-22.9-3.28-9.37-.6-10.24-3.59-15.16-1.35a15.48,15.48,0,0,0-9.38,12.58c-.18,1.48-.09.32,0,1.24,18.12,2.58,36.31,7.67,54.7,10.3A24.24,24.24,0,0,0,1268.77,1178.77Z"/><path class="cls-19" d="M1269.63,1181.4c0-.27-.62-1.15-1.88-2.92A40.11,40.11,0,0,0,1265,1175a32.59,32.59,0,0,0-7-5.68c-5-2.92-17.94-3.62-27.43-5.7-8-1.77-11.87-4.19-14.84.07-1.65,2.38-2.27,5.76-2.53,8.35C1258.35,1181.71,1269.59,1182.79,1269.63,1181.4Z"/></g><g id="תריס-11" data-name="תריס"><path class="cls-17" d="M1268.73,1224.06c.13-1.48-2.31-3.82-3.85-4.93a8.48,8.48,0,0,0-6.31-1.67c-8.52,1.27-36.33-11-43-7.53a4.14,4.14,0,0,0-2.41,3.22,6.78,6.78,0,0,0,.68,4c5.39,2.72,9.51,3.85,21.78,4.52,2.39.13,4.33.26,7.06.59,6.48.8,8.33,1.72,14.16,2.48C1262.4,1225.51,1268.54,1226.32,1268.73,1224.06Z"/><path class="cls-18" d="M1268.73,1219.05c-.13-5.48-2-11.78-5-15.2a9,9,0,0,0-2.27-1.85c-6.64-3.8-16.21-3-22.9-3.48-9.37-.68-10.24-3.67-15.16-1.47a15.32,15.32,0,0,0-9.39,12.51c-.17,1.48-.08.32,0,1.24,18.12,2.73,36.32,8,54.72,10.75C1268.71,1221,1268.75,1220.15,1268.73,1219.05Z"/><path class="cls-19" d="M1269.59,1221.68c0-.27-.62-1.16-1.88-2.94a40.69,40.69,0,0,0-2.74-3.48,33.31,33.31,0,0,0-7-5.74c-5-3-18-3.77-27.44-5.93-8-1.84-11.88-4.29-14.84,0-1.66,2.37-2.28,5.74-2.54,8.33C1258.3,1221.9,1269.55,1223.08,1269.59,1221.68Z"/></g><g id="תריס-12" data-name="תריס"><path class="cls-17" d="M1268.69,1264.35c.12-1.48-2.31-3.84-3.86-5a8.47,8.47,0,0,0-6.31-1.72c-8.52,1.2-36.33-11.35-43-7.89a4.06,4.06,0,0,0-2.41,3.19c-.25,1.77.39,3.9.68,4,5.38,2.77,9.5,3.93,21.78,4.71,2.39.15,4.33.29,7.06.65,6.48.85,8.33,1.78,14.17,2.59C1262.35,1265.75,1268.5,1266.61,1268.69,1264.35Z"/><path class="cls-18" d="M1268.68,1259.34c-.12-5.48-2-11.8-5-15.25a8.86,8.86,0,0,0-2.26-1.87c-6.64-3.85-16.21-3.13-22.91-3.67-9.37-.75-10.24-3.75-15.17-1.6a15.17,15.17,0,0,0-9.38,12.44c-.18,1.48-.09.32,0,1.24,18.12,2.88,36.32,8.28,54.72,11.21A24,24,0,0,0,1268.68,1259.34Z"/><path class="cls-19" d="M1269.54,1262a13.2,13.2,0,0,0-1.88-3,42.13,42.13,0,0,0-2.73-3.51,34.16,34.16,0,0,0-7-5.8c-5-3-18-3.91-27.44-6.15-8.06-1.91-11.88-4.39-14.84-.18-1.66,2.36-2.28,5.73-2.54,8.32C1258.25,1262.1,1269.51,1263.37,1269.54,1262Z"/></g></g><path class="cls-20" d="M1169.29,935.18l-.4,253.76c8-31.44,12.27-29.72,23.29-64.87,25.38-81,16-132.1,40-154,11.4-10.42,23-7.52,37-4.9,32,6,79.39,11.29,145.11,6.54l-.92-.8Z"/></g><g id="לוקר-3" data-name="לוקר"><polygon class="cls-15" points="888.01 8.25 885.44 886.41 1148.91 924.61 1150.48 -5.23 888.01 8.25"/><g id="מנעול"><path class="cls-21" d="M1119.78,504.17c3.21,5.49,3.49,13.42,3.68,19,0,1.41.06,3.08,0,5-.12,3.06-.67,17.88-6.72,24.6-1.19,1.32-2.9,3.22-4.44,2.2-1.87-1.24-1.94-5.75-3.67-12.73-2-7.91-3.32-7.93-4.4-12.76-2.46-11,.55-28.44,6.69-30.81C1114.3,497.37,1117.9,500.94,1119.78,504.17Z"/><path class="cls-22" d="M1117.56,504a6.32,6.32,0,0,0-8.13-1.7,5.43,5.43,0,0,0-1.48,1.16c-3.22,3.62-3,12-3,13.55.06,2.5.28,11.53,4.39,15.25a5.26,5.26,0,0,0,6.66.41c4.58-3.15,5.15-12.35,5.21-13.44S1121.69,508.9,1117.56,504Z"/><path class="cls-23" d="M1117.57,496.54c.56,2.15.24,5.4-.75,6.21-.22.18-.45.23-1.48-.08-2.27-.69-2.64-1.39-3.69-1.46-1.77-.11-2.41,1.75-3,1.09-.8-1-.43-6.32,1.5-8.66C1112.48,490.85,1116.59,492.77,1117.57,496.54Z"/><path class="cls-24" d="M1117.5,535.31c-1.33-3.13-7.39-.47-7.39-.47h0s-.49,5.21.72,7.54a3,3,0,0,0,5.18.33C1117.51,540.86,1118.27,537.1,1117.5,535.31Z"/><path class="cls-25" d="M1114.57,520.12c-.29-7.19-5.85-11.69-5.15-14,.31-1,1.5-.81,1.48-1.16s-1.78-1.24-3-.17c-1.94,1.78-2.11,8.71-.76,13.68,1.24,4.6,4.19,9,5.89,7.85C1114.18,525.54,1114.67,522.55,1114.57,520.12Z"/></g><g id="תריסים-3" data-name="תריסים"><g id="תריס-13" data-name="תריס"><path class="cls-17" d="M976.2,109.14c.11-1.39-2-3-3.38-3.75a6.6,6.6,0,0,0-5.54-.21c-7.49,3-31.93-2.5-37.83,2.19a5.28,5.28,0,0,0-2.13,3.51c-.21,1.7.35,3.54.6,3.61,4.73,1.39,8.36,1.55,19.15-.44,2.1-.39,3.8-.69,6.21-1,5.68-.65,7.31-.19,12.44-.73C970.64,111.85,976,111.29,976.2,109.14Z"/><path class="cls-18" d="M976.2,104.49c-.1-5.06-1.69-10.53-4.39-13a5.64,5.64,0,0,0-2-1.24c-5.83-2.11-14.24.68-20.13,1.65-8.24,1.38-9-1.22-13.33,1.87a19.4,19.4,0,0,0-8.27,13.64c-.16,1.41-.08.32,0,1.16,15.94-1.34,31.93-.34,48.09-1.69C976.18,106.34,976.23,105.51,976.2,104.49Z"/><path class="cls-19" d="M977,106.75a9.51,9.51,0,0,0-1.65-2.33,25.88,25.88,0,0,0-2.4-2.65,20.85,20.85,0,0,0-6.15-3.84c-4.4-1.68-15.77.33-24.11.34-7.08,0-10.44-1.45-13,3.13a21.51,21.51,0,0,0-2.25,8.29C967,109.37,976.92,108.06,977,106.75Z"/></g><g id="תריס-14" data-name="תריס"><path class="cls-17" d="M975.41,146.61c.11-1.4-2-3.07-3.38-3.78a6.55,6.55,0,0,0-5.54-.25c-7.49,2.94-31.92-2.77-37.82,1.88a5.17,5.17,0,0,0-2.13,3.49c-.21,1.69.35,3.54.59,3.61,4.74,1.43,8.36,1.62,19.15-.29,2.11-.37,3.81-.65,6.21-.9,5.69-.6,7.32-.13,12.44-.62C969.85,149.27,975.24,148.75,975.41,146.61Z"/><path class="cls-18" d="M975.42,142c-.11-5.06-1.7-10.54-4.4-13.08a5.71,5.71,0,0,0-2-1.26c-5.83-2.16-14.24.56-20.12,1.49-8.24,1.3-9-1.3-13.33,1.76a19.14,19.14,0,0,0-8.27,13.57c-.16,1.41-.08.32,0,1.16,15.93-1.21,31.92-.08,48.08-1.29C975.39,143.81,975.44,143,975.42,142Z"/><path class="cls-19" d="M976.17,144.22a9.88,9.88,0,0,0-1.65-2.34,26.45,26.45,0,0,0-2.4-2.67,21.26,21.26,0,0,0-6.15-3.9c-4.39-1.71-15.77.2-24.1.15-7.08,0-10.44-1.54-13,3a21.07,21.07,0,0,0-2.25,8.27C966.25,146.76,976.13,145.53,976.17,144.22Z"/></g><g id="תריס-15" data-name="תריס"><path class="cls-17" d="M975.32,184.07c.11-1.4-2-3.09-3.38-3.81a6.61,6.61,0,0,0-5.55-.3c-7.48,2.88-31.92-3-37.82,1.57a5.16,5.16,0,0,0-2.13,3.48c-.22,1.69.34,3.54.59,3.62,4.74,1.46,8.36,1.69,19.15-.13,2.11-.36,3.81-.63,6.21-.86,5.69-.55,7.32-.07,12.44-.52C969.75,186.69,975.15,186.21,975.32,184.07Z"/><path class="cls-18" d="M975.32,179.41c-.1-5.06-1.7-10.56-4.4-13.13a5.78,5.78,0,0,0-2-1.27c-5.84-2.21-14.25.44-20.13,1.33-8.24,1.23-9-1.38-13.34,1.64a19.05,19.05,0,0,0-8.27,13.51c-.15,1.42-.07.32,0,1.16,15.93-1.07,31.92.19,48.08-.89C975.3,181.27,975.34,180.44,975.32,179.41Z"/><path class="cls-19" d="M976.07,181.69c0-.25-.54-.95-1.64-2.36a26.94,26.94,0,0,0-2.41-2.69,21.17,21.17,0,0,0-6.14-3.95c-4.4-1.75-15.78.07-24.11-.05-7.08-.1-10.44-1.62-13.06,2.91a21.13,21.13,0,0,0-2.24,8.26C966.15,184.14,976,183,976.07,181.69Z"/></g><g id="תריס-16" data-name="תריס"><path class="cls-17" d="M975.22,221.54c.12-1.39-2-3.11-3.38-3.84a6.57,6.57,0,0,0-5.54-.34c-7.49,2.82-31.93-3.3-37.83,1.26a5.08,5.08,0,0,0-2.13,3.46c-.22,1.69.34,3.55.59,3.63,4.74,1.5,8.36,1.75,19.15,0,2.11-.33,3.81-.59,6.22-.8,5.68-.51,7.31,0,12.44-.42C969.66,224.12,975.05,223.68,975.22,221.54Z"/><path class="cls-18" d="M975.23,216.88c-.11-5.06-1.7-10.57-4.4-13.16a5.63,5.63,0,0,0-2-1.29c-5.83-2.26-14.24.32-20.13,1.15-8.24,1.17-9-1.45-13.34,1.55a18.8,18.8,0,0,0-8.27,13.44c-.15,1.41-.07.32,0,1.16,15.94-.94,31.94.45,48.1-.5C975.2,218.74,975.25,217.91,975.23,216.88Z"/><path class="cls-19" d="M976,219.17a9.7,9.7,0,0,0-1.65-2.37,26.79,26.79,0,0,0-2.4-2.72,21.82,21.82,0,0,0-6.15-4c-4.4-1.78-15.77-.05-24.11-.24-7.08-.17-10.44-1.72-13.06,2.8a21,21,0,0,0-2.24,8.24C966.06,221.54,975.94,220.47,976,219.17Z"/></g><g id="תריס-17" data-name="תריס"><path class="cls-17" d="M975.13,259c.11-1.39-2-3.13-3.38-3.87a6.61,6.61,0,0,0-5.55-.39c-7.49,2.76-31.93-3.56-37.83.95a5,5,0,0,0-2.13,3.44c-.22,1.7.34,3.56.59,3.64,4.74,1.54,8.36,1.83,19.16.18,2.1-.32,3.8-.56,6.21-.75,5.69-.46,7.32,0,12.44-.32C969.56,261.56,975,261.17,975.13,259Z"/><path class="cls-18" d="M975.13,254.37c-.1-5.07-1.7-10.6-4.4-13.21a5.85,5.85,0,0,0-2-1.31c-5.83-2.3-14.24.21-20.13,1-8.24,1.1-9-1.53-13.34,1.43A18.63,18.63,0,0,0,927,255.66c-.16,1.41-.08.32,0,1.16,15.94-.81,31.94.71,48.11-.11C975.11,256.23,975.15,255.4,975.13,254.37Z"/><path class="cls-19" d="M975.88,256.66c0-.25-.54-1-1.64-2.39a29.7,29.7,0,0,0-2.4-2.73,22,22,0,0,0-6.15-4c-4.4-1.82-15.78-.19-24.12-.45-7.08-.22-10.45-1.8-13.06,2.7a20.9,20.9,0,0,0-2.24,8.23C966,259,975.85,258,975.88,256.66Z"/></g><g id="תריס-18" data-name="תריס"><path class="cls-17" d="M975,296.53c.11-1.39-2-3.14-3.39-3.9a6.57,6.57,0,0,0-5.54-.43c-7.5,2.7-31.94-3.83-37.85.64a5,5,0,0,0-2.13,3.42c-.21,1.69.35,3.56.6,3.64,4.74,1.59,8.36,1.9,19.16.34,2.1-.3,3.81-.53,6.21-.7,5.69-.41,7.32.11,12.45-.21C969.47,299,974.86,298.67,975,296.53Z"/><path class="cls-18" d="M975,291.87c-.1-5.07-1.7-10.62-4.4-13.25a5.94,5.94,0,0,0-2-1.33c-5.83-2.35-14.25.09-20.13.83-8.25,1-9-1.6-13.35,1.33a18.44,18.44,0,0,0-8.27,13.31c-.16,1.42-.08.32,0,1.16,15.94-.68,31.94,1,48.11.29C975,293.73,975.06,292.89,975,291.87Z"/><path class="cls-19" d="M975.79,294.17c0-.25-.54-1-1.65-2.4a28,28,0,0,0-2.4-2.76,22.15,22.15,0,0,0-6.15-4.1c-4.4-1.86-15.78-.32-24.12-.65-7.08-.28-10.45-1.88-13.06,2.59a21,21,0,0,0-2.25,8.22C965.87,296.38,975.75,295.47,975.79,294.17Z"/></g></g><path class="cls-26" d="M956.49,896.71l192.42,27.9.66-391.45a534.68,534.68,0,0,1-7.31,70.91c-9.44,54.24-17.82,47.47-35.25,125.76-19.78,88.83-9.87,101.95-23.85,126.41-36.57,64-119.27,1.48-126.36,38.24C956.66,895.21,956.56,896,956.49,896.71Z"/><path class="cls-20" d="M888,8.25l-.7,236.55c7.08-30.78,10.85-30,20.6-64.74,22.45-80.13,14.26-126,35.37-150.7,10.05-11.77,20.21-11.18,32.52-11.28,28.07-.2,69.68-3.93,127.27-20.25-.27-.2-.53-.4-.8-.58Z"/></g><g id="לוקר-4" data-name="לוקר"><polygon class="cls-15" points="885.42 892.38 882.82 1777.97 1147.32 1869.1 1148.9 930.93 885.42 892.38"/><g id="מנעול-2" data-name="מנעול"><path class="cls-21" d="M1118.08,1438.94c3.22,6.19,3.49,14.24,3.69,19.9,0,1.43.06,3.12,0,5.05-.12,3.07-.67,17.91-6.75,23.49-1.2,1.1-2.91,2.68-4.46,1.34-1.88-1.63-1.94-6.19-3.68-13.58-2-8.37-3.33-8.67-4.42-13.76-2.47-11.53.55-28.59,6.72-29.75C1112.57,1431,1116.18,1435.31,1118.08,1438.94Z"/><path class="cls-22" d="M1115.85,1438.37c-3.6-5-7.82-3.47-8.17-3.34a4.06,4.06,0,0,0-1.48.88c-3.23,3-3,11.54-3,13.08.06,2.54.29,11.69,4.42,16.26,3.08,3.42,6.25,2,6.68,1.75,4.6-2.27,5.17-11.44,5.23-12.53S1120,1444.1,1115.85,1438.37Z"/><path class="cls-23" d="M1115.86,1430.8c.56,2.28.23,5.5-.76,6.12-.21.14-.45.14-1.48-.38-2.29-1.15-2.65-1.92-3.71-2.2-1.78-.47-2.42,1.28-3,.5-.8-1.15-.43-6.46,1.5-8.44C1110.74,1424,1114.88,1426.8,1115.86,1430.8Z"/><path class="cls-24" d="M1115.79,1469.91c-1.34-3.42-7.43-1.94-7.43-1.94h0s-.48,5.16.73,7.75c1,2.18,3.52,3.12,5.2,1.37A8.22,8.22,0,0,0,1115.79,1469.91Z"/><path class="cls-25" d="M1112.84,1454c-.29-7.32-5.88-13-5.16-15.19.3-1,1.5-.53,1.48-.88a2.27,2.27,0,0,0-3-.76c-2,1.41-2.13,8.36-.77,13.66,1.25,4.88,4.21,9.91,5.92,9.09C1112.45,1459.39,1112.94,1456.47,1112.84,1454Z"/></g><g id="תריסים-4" data-name="תריסים"><g id="תריס-19" data-name="תריס"><path class="cls-17" d="M973.94,1011.71c.11-1.39-2-3.49-3.4-4.46a6.91,6.91,0,0,0-5.56-1.31c-7.52,1.54-32.05-8.88-38-5.31a4.09,4.09,0,0,0-2.14,3.12,6.5,6.5,0,0,0,.6,3.76c4.75,2.34,8.39,3.22,19.22,3.36,2.11,0,3.82.06,6.23.26,5.71.48,7.35,1.27,12.49,1.75C968.35,1013.34,973.76,1013.84,973.94,1011.71Z"/><path class="cls-18" d="M973.94,1007c-.11-5.12-1.71-11-4.42-14a7.16,7.16,0,0,0-2-1.64c-5.86-3.29-14.3-2.15-20.2-2.33-8.28-.26-9-3-13.39-.77a15.11,15.11,0,0,0-8.3,12.11c-.16,1.4-.08.31,0,1.17,16,1.82,32,6,48.27,7.86C973.91,1008.88,974,1008.05,973.94,1007Z"/><path class="cls-19" d="M974.69,1009.45a11.63,11.63,0,0,0-1.65-2.68,34.44,34.44,0,0,0-2.41-3.15,27.81,27.81,0,0,0-6.17-5.1c-4.42-2.57-15.83-2.81-24.2-4.45-7.11-1.39-10.48-3.54-13.1.56-1.47,2.29-2,5.48-2.26,7.92C964.74,1010.11,974.66,1010.76,974.69,1009.45Z"/></g><g id="תריס-20" data-name="תריס"><path class="cls-17" d="M973.14,1049.36c.11-1.39-2-3.5-3.39-4.49a6.92,6.92,0,0,0-5.56-1.35c-7.52,1.48-32-9.14-38-5.63a4.06,4.06,0,0,0-2.13,3.1,6.48,6.48,0,0,0,.59,3.77c4.76,2.38,8.39,3.3,19.22,3.52,2.11,0,3.82.09,6.23.31,5.71.53,7.35,1.33,12.49,1.85C967.56,1050.94,973,1051.49,973.14,1049.36Z"/><path class="cls-18" d="M973.14,1044.66c-.1-5.12-1.7-11-4.41-14.08a7.73,7.73,0,0,0-2-1.66c-5.86-3.34-14.3-2.27-20.2-2.5-8.27-.32-9-3.1-13.38-.87a14.91,14.91,0,0,0-8.3,12c-.16,1.39-.08.3,0,1.16,16,2,32,6.27,48.26,8.26C973.12,1046.53,973.17,1045.7,973.14,1044.66Z"/><path class="cls-19" d="M973.9,1047.1a12.26,12.26,0,0,0-1.65-2.69,37.16,37.16,0,0,0-2.41-3.17,28.19,28.19,0,0,0-6.17-5.15c-4.42-2.61-15.83-2.94-24.2-4.65-7.11-1.45-10.48-3.63-13.1.45-1.47,2.28-2,5.47-2.25,7.9C963.94,1047.69,973.86,1048.41,973.9,1047.1Z"/></g><g id="תריס-21" data-name="תריס"><path class="cls-17" d="M973.05,1087.14c.11-1.38-2-3.52-3.4-4.51a6.9,6.9,0,0,0-5.56-1.4c-7.52,1.41-32-9.42-38-5.94a4,4,0,0,0-2.13,3.08,6.48,6.48,0,0,0,.59,3.77c4.75,2.42,8.39,3.37,19.22,3.68,2.11.06,3.82.12,6.24.37,5.7.57,7.34,1.39,12.48,2C967.46,1088.68,972.87,1089.27,973.05,1087.14Z"/><path class="cls-18" d="M973.05,1082.44c-.1-5.13-1.7-11-4.41-14.12a7.78,7.78,0,0,0-2-1.68c-5.85-3.38-14.3-2.38-20.2-2.66-8.27-.39-9-3.18-13.39-1a14.79,14.79,0,0,0-8.3,12c-.15,1.39-.07.3,0,1.16,16,2.09,32,6.53,48.27,8.66C973,1084.31,973.07,1083.48,973.05,1082.44Z"/><path class="cls-19" d="M973.8,1084.89a11.74,11.74,0,0,0-1.65-2.7,36.32,36.32,0,0,0-2.41-3.2,28.58,28.58,0,0,0-6.17-5.2c-4.41-2.65-15.83-3.07-24.2-4.85-7.11-1.51-10.48-3.71-13.1.34-1.47,2.27-2,5.45-2.25,7.89C963.85,1085.4,973.77,1086.2,973.8,1084.89Z"/></g><g id="תריס-22" data-name="תריס"><path class="cls-17" d="M973,1124.94c.11-1.39-2-3.54-3.39-4.55A7,7,0,0,0,964,1119c-7.52,1.35-32-9.68-38-6.26a4,4,0,0,0-2.14,3.07,6.63,6.63,0,0,0,.6,3.78c4.75,2.46,8.39,3.43,19.22,3.83,2.12.08,3.82.16,6.24.42,5.71.63,7.34,1.45,12.49,2.06C967.36,1126.43,972.78,1127.07,973,1124.94Z"/><path class="cls-18" d="M973,1120.24c-.1-5.13-1.7-11-4.41-14.16a7.57,7.57,0,0,0-2-1.7c-5.85-3.44-14.29-2.51-20.2-2.83-8.27-.46-9-3.26-13.39-1.1a14.62,14.62,0,0,0-8.3,11.92c-.16,1.4-.08.3,0,1.16,16,2.22,32,6.8,48.28,9.06C972.93,1122.11,973,1121.28,973,1120.24Z"/><path class="cls-19" d="M973.71,1122.7a12.47,12.47,0,0,0-1.65-2.73,38.85,38.85,0,0,0-2.41-3.21,28.86,28.86,0,0,0-6.17-5.26c-4.42-2.68-15.84-3.2-24.21-5-7.11-1.57-10.48-3.8-13.1.24-1.47,2.25-2,5.43-2.26,7.87C963.75,1123.12,973.67,1124,973.71,1122.7Z"/></g><g id="תריס-23" data-name="תריס"><path class="cls-17" d="M972.86,1162.75c.11-1.38-2-3.56-3.4-4.58a7,7,0,0,0-5.56-1.49c-7.52,1.29-32.06-10-38-6.57a3.89,3.89,0,0,0-2.14,3.05,6.52,6.52,0,0,0,.6,3.79c4.75,2.49,8.39,3.5,19.22,4,2.12.1,3.83.19,6.24.47,5.71.67,7.34,1.51,12.49,2.16C967.27,1164.19,972.68,1164.88,972.86,1162.75Z"/><path class="cls-18" d="M972.86,1158.05c-.1-5.14-1.71-11-4.42-14.21a7.69,7.69,0,0,0-2-1.71c-5.86-3.49-14.3-2.63-20.21-3-8.27-.53-9-3.33-13.39-1.21a14.47,14.47,0,0,0-8.3,11.86c-.16,1.39-.08.3,0,1.16,16,2.35,32.05,7.07,48.28,9.46C972.84,1159.92,972.88,1159.09,972.86,1158.05Z"/><path class="cls-19" d="M973.61,1160.51a12.18,12.18,0,0,0-1.65-2.74,37.5,37.5,0,0,0-2.41-3.23,29.26,29.26,0,0,0-6.17-5.31c-4.42-2.72-15.84-3.33-24.21-5.25-7.11-1.63-10.48-3.89-13.11.12-1.46,2.25-2,5.42-2.25,7.86C963.65,1160.85,973.58,1161.82,973.61,1160.51Z"/></g><g id="תריס-24" data-name="תריס"><path class="cls-17" d="M972.76,1200.57c.11-1.38-2-3.57-3.39-4.6a7.06,7.06,0,0,0-5.57-1.54c-7.52,1.23-32.06-10.22-38-6.89a3.89,3.89,0,0,0-2.13,3,6.65,6.65,0,0,0,.59,3.8c4.76,2.53,8.4,3.57,19.23,4.15,2.12.12,3.83.22,6.24.53,5.71.71,7.35,1.57,12.49,2.26C967.17,1202,972.59,1202.7,972.76,1200.57Z"/><path class="cls-18" d="M972.76,1195.87c-.1-5.14-1.7-11-4.41-14.25a7.9,7.9,0,0,0-2-1.73c-5.85-3.54-14.3-2.74-20.21-3.17-8.28-.59-9-3.4-13.39-1.32a14.35,14.35,0,0,0-8.3,11.8c-.16,1.39-.08.3,0,1.16,16,2.49,32.06,7.34,48.29,9.86C972.74,1197.74,972.79,1196.91,972.76,1195.87Z"/><path class="cls-19" d="M973.52,1198.34a12.84,12.84,0,0,0-1.65-2.75,38.49,38.49,0,0,0-2.42-3.26,29.66,29.66,0,0,0-6.17-5.36c-4.42-2.76-15.84-3.46-24.21-5.45-7.11-1.69-10.49-4-13.11,0-1.47,2.24-2,5.41-2.25,7.84C963.56,1198.6,973.48,1199.65,973.52,1198.34Z"/></g></g><path class="cls-26" d="M954.14,1802.54l193.18,66.56.67-395a511.38,511.38,0,0,1-7.34,70.11c-9.48,52.86-17.9,44.36-35.4,119.89-19.86,85.71-9.91,100.94-24,122.83-36.71,57.27-119.73-22.31-126.85,13.37C954.31,1801.06,954.21,1801.79,954.14,1802.54Z"/><path class="cls-20" d="M885.42,892.38l-.7,238.54c7.11-29.64,10.89-28.07,20.68-61.23,22.54-76.39,14.32-124.28,35.5-145,10.08-9.88,20.29-7.27,32.65-4.92,28.17,5.37,70,9.88,127.77,4.85l-.81-.74Z"/></g><g id="לוקר-5" data-name="לוקר"><polygon class="cls-15" points="635.78 21.21 632.36 849.72 866.07 883.6 868.72 9.24 635.78 21.21"/><g id="מנעול-3" data-name="מנעול"><path class="cls-21" d="M840.87,488.4c2.84,5.16,3.07,12.61,3.23,17.85,0,1.32,0,2.89,0,4.71-.1,2.88-.61,16.82-6,23.16-1.06,1.26-2.57,3-3.93,2.09-1.66-1.16-1.71-5.4-3.23-12-1.73-7.43-2.93-7.45-3.88-12-2.16-10.29.52-26.75,6-29C836,482,839.2,485.37,840.87,488.4Z"/><path class="cls-22" d="M838.9,488.29a5.35,5.35,0,0,0-7.19-1.58,4.81,4.81,0,0,0-1.31,1.1c-2.85,3.41-2.68,11.32-2.65,12.76,0,2.34.23,10.84,3.87,14.32a4.42,4.42,0,0,0,5.89.37c4.06-3,4.58-11.63,4.63-12.66S842.55,492.85,838.9,488.29Z"/><path class="cls-23" d="M838.93,481.23c.48,2,.2,5.08-.68,5.85-.19.17-.4.21-1.31-.08-2-.64-2.33-1.29-3.27-1.36-1.56-.1-2.13,1.66-2.61,1-.71-.92-.38-5.94,1.33-8.15C834.42,475.89,838.06,477.68,838.93,481.23Z"/><path class="cls-24" d="M838.81,517.7c-1.18-2.94-6.54-.42-6.54-.42h0s-.44,4.91.63,7.09c.89,1.84,3.1,2.25,4.58.3C838.81,522.92,839.49,519.38,838.81,517.7Z"/><path class="cls-25" d="M836.24,503.42c-.25-6.76-5.17-11-4.54-13.19.27-.94,1.33-.77,1.31-1.1s-1.58-1.16-2.61-.15c-1.72,1.69-1.89,8.2-.7,12.88,1.1,4.32,3.7,8.45,5.21,7.36C835.88,508.52,836.32,505.7,836.24,503.42Z"/></g><g id="תריסים-5" data-name="תריסים"><g id="תריס-25" data-name="תריס"><path class="cls-17" d="M714.08,116.55c.1-1.32-1.8-2.89-3-3.54a5.54,5.54,0,0,0-4.92-.21c-6.66,2.82-28.38-2.41-33.63,2a4.94,4.94,0,0,0-1.9,3.3,5.76,5.76,0,0,0,.52,3.41c4.21,1.31,7.43,1.47,17-.39,1.87-.37,3.39-.64,5.52-.9,5.06-.6,6.51-.16,11.06-.66C709.13,119.09,713.93,118.57,714.08,116.55Z"/><path class="cls-18" d="M714.09,112.16c-.08-4.77-1.49-9.92-3.89-12.31a5.11,5.11,0,0,0-1.76-1.17c-5.18-2-12.66.61-17.89,1.53-7.33,1.28-8-1.18-11.86,1.74a18.32,18.32,0,0,0-7.37,12.84c-.15,1.34-.07.3,0,1.09,14.17-1.23,28.38-.27,42.75-1.51C714.07,113.91,714.11,113.13,714.09,112.16Z"/><path class="cls-19" d="M714.75,114.3c0-.24-.48-.89-1.45-2.2a24.12,24.12,0,0,0-2.14-2.51,18.5,18.5,0,0,0-5.45-3.63c-3.91-1.59-14,.29-21.43.29-6.3,0-9.28-1.39-11.61,2.92a21,21,0,0,0-2,7.82C705.94,116.75,714.72,115.53,714.75,114.3Z"/></g><g id="תריס-26" data-name="תריס"><path class="cls-17" d="M713.33,151.86c.1-1.31-1.8-2.9-3-3.56a5.53,5.53,0,0,0-4.92-.25c-6.66,2.77-28.37-2.65-33.63,1.73a5,5,0,0,0-1.89,3.29,5.68,5.68,0,0,0,.52,3.41c4.21,1.35,7.43,1.54,17-.25,1.87-.35,3.38-.61,5.52-.85,5-.56,6.5-.11,11-.57C708.38,154.37,713.18,153.88,713.33,151.86Z"/><path class="cls-18" d="M713.34,147.47c-.08-4.77-1.49-9.93-3.89-12.34a5,5,0,0,0-1.76-1.18c-5.18-2-12.66.5-17.89,1.37-7.33,1.22-8-1.24-11.86,1.65a18.17,18.17,0,0,0-7.37,12.78c-.14,1.34-.07.3,0,1.1,14.17-1.12,28.38,0,42.74-1.17C713.32,149.22,713.36,148.44,713.34,147.47Z"/><path class="cls-19" d="M714,149.62a8.32,8.32,0,0,0-1.46-2.21,24.93,24.93,0,0,0-2.12-2.53,18.76,18.76,0,0,0-5.46-3.67c-3.91-1.63-14,.17-21.43.1-6.29-.05-9.28-1.46-11.61,2.83a21.11,21.11,0,0,0-2,7.8C705.19,152,714,150.85,714,149.62Z"/></g><g id="תריס-27" data-name="תריס"><path class="cls-17" d="M713.2,187.17c.1-1.31-1.8-2.91-3-3.59a5.52,5.52,0,0,0-4.93-.28c-6.65,2.71-28.37-2.89-33.62,1.45a4.83,4.83,0,0,0-1.9,3.27,5.72,5.72,0,0,0,.52,3.42c4.21,1.38,7.43,1.6,17-.11,1.87-.34,3.39-.59,5.52-.81,5.06-.51,6.51-.06,11.06-.48C708.25,189.64,713,189.19,713.2,187.17Z"/><path class="cls-18" d="M713.21,182.78c-.09-4.77-1.5-9.95-3.89-12.38a5.26,5.26,0,0,0-1.77-1.2c-5.18-2.08-12.66.41-17.88,1.23-7.33,1.16-8-1.3-11.86,1.55a18,18,0,0,0-7.38,12.73c-.14,1.34-.07.3,0,1.09,14.17-1,28.38.2,42.74-.81C713.18,184.53,713.22,183.75,713.21,182.78Z"/><path class="cls-19" d="M713.87,184.93a8.63,8.63,0,0,0-1.46-2.22,22.87,22.87,0,0,0-2.13-2.54,19,19,0,0,0-5.45-3.73c-3.91-1.65-14,.06-21.43-.06-6.3-.11-9.29-1.55-11.62,2.73a20.94,20.94,0,0,0-2,7.79C705.06,187.24,713.84,186.16,713.87,184.93Z"/></g><g id="תריס-28" data-name="תריס"><path class="cls-17" d="M713.07,222.49c.1-1.31-1.8-2.93-3-3.62a5.55,5.55,0,0,0-4.93-.32c-6.66,2.66-28.38-3.12-33.63,1.18a4.77,4.77,0,0,0-1.9,3.26,5.82,5.82,0,0,0,.52,3.42c4.21,1.42,7.43,1.66,17,0,1.88-.32,3.39-.56,5.53-.76,5-.48,6.5,0,11.06-.39C708.12,224.92,712.91,224.51,713.07,222.49Z"/><path class="cls-18" d="M713.07,218.1c-.08-4.77-1.49-10-3.89-12.41a5.19,5.19,0,0,0-1.76-1.22c-5.18-2.13-12.66.3-17.89,1.08-7.33,1.1-8-1.37-11.86,1.45a17.85,17.85,0,0,0-7.38,12.68c-.14,1.33-.06.3,0,1.09,14.17-.88,28.39.43,42.75-.46C713.05,219.85,713.09,219.07,713.07,218.1Z"/><path class="cls-19" d="M713.74,220.26a8.87,8.87,0,0,0-1.46-2.24,25.94,25.94,0,0,0-2.13-2.56,19.14,19.14,0,0,0-5.46-3.77c-3.91-1.69-14-.06-21.43-.24-6.3-.16-9.29-1.62-11.62,2.64a20.8,20.8,0,0,0-2,7.77C704.92,222.49,713.71,221.49,713.74,220.26Z"/></g><g id="תריס-29" data-name="תריס"><path class="cls-17" d="M712.93,257.83c.1-1.32-1.79-2.95-3-3.65a5.48,5.48,0,0,0-4.92-.36c-6.66,2.6-28.38-3.36-33.64.9a4.75,4.75,0,0,0-1.9,3.24,5.84,5.84,0,0,0,.52,3.43c4.21,1.45,7.44,1.72,17,.17,1.87-.3,3.38-.53,5.52-.72,5.06-.43,6.51.05,11.06-.3C708,260.21,712.78,259.84,712.93,257.83Z"/><path class="cls-18" d="M712.94,253.43c-.08-4.78-1.49-10-3.89-12.45a5.18,5.18,0,0,0-1.77-1.23c-5.18-2.17-12.66.2-17.89.94-7.33,1-8-1.44-11.86,1.35a17.61,17.61,0,0,0-7.37,12.62c-.15,1.33-.07.3,0,1.09,14.17-.77,28.39.66,42.76-.11C712.92,255.18,713,254.4,712.94,253.43Z"/><path class="cls-19" d="M713.61,255.59a9.83,9.83,0,0,0-1.46-2.25,26.26,26.26,0,0,0-2.13-2.57,19.61,19.61,0,0,0-5.46-3.82c-3.91-1.72-14-.18-21.44-.42-6.3-.21-9.28-1.69-11.61,2.55a20.53,20.53,0,0,0-2,7.76C704.79,257.75,713.57,256.82,713.61,255.59Z"/></g><g id="תריס-30" data-name="תריס"><path class="cls-17" d="M712.8,293.17c.1-1.31-1.8-3-3-3.67a5.58,5.58,0,0,0-4.93-.41c-6.66,2.55-28.38-3.58-33.64.63a4.72,4.72,0,0,0-1.9,3.23,5.84,5.84,0,0,0,.52,3.43c4.22,1.49,7.44,1.79,17,.31,1.87-.29,3.39-.5,5.52-.67,5.06-.39,6.51.1,11.07-.21C707.85,295.51,712.64,295.19,712.8,293.17Z"/><path class="cls-18" d="M712.81,288.78c-.09-4.78-1.5-10-3.89-12.49a5.19,5.19,0,0,0-1.77-1.25c-5.18-2.21-12.66.09-17.89.79-7.34,1-8-1.5-11.87,1.26A17.44,17.44,0,0,0,670,289.65c-.14,1.33-.07.3,0,1.1,14.18-.66,28.4.89,42.76.24C712.78,290.53,712.82,289.74,712.81,288.78Z"/><path class="cls-19" d="M713.47,290.94a9,9,0,0,0-1.46-2.26,25.57,25.57,0,0,0-2.13-2.6,19.56,19.56,0,0,0-5.46-3.86c-3.91-1.75-14-.29-21.44-.59-6.29-.26-9.28-1.78-11.61,2.45a20.44,20.44,0,0,0-2,7.74C704.65,293,713.44,292.17,713.47,290.94Z"/></g></g><path class="cls-26" d="M695.53,858.88,866.07,883.6l1.12-368a536,536,0,0,1-6.56,66.71c-8.43,51-15.84,44.72-31.37,118.45-17.63,83.69-8.87,96-21.29,119.09-32.49,60.48-105.81,2.26-112.15,36.95C695.69,857.46,695.6,858.17,695.53,858.88Z"/><path class="cls-20" d="M635.78,21.21l-.92,223.21c6.34-29,9.69-28.27,18.42-61.07,20.08-75.56,12.85-118.82,31.66-142.09,8.94-11.07,18-10.49,28.92-10.55,24.92-.12,61.85-3.52,112.91-18.73l-.71-.55Z"/></g><g id="לוקר-6" data-name="לוקר"><polygon class="cls-15" points="632.33 855.35 628.88 1690.47 863.39 1771.27 866.06 889.54 632.33 855.35"/><g id="מנעול-4" data-name="מנעול"><path class="cls-21" d="M838.1,1367.48c2.85,5.77,3.08,13.33,3.24,18.65,0,1.35,0,2.93,0,4.75-.1,2.89-.61,16.85-6,22.18-1.06,1-2.58,2.56-4,1.32-1.66-1.49-1.71-5.78-3.24-12.71-1.73-7.84-2.93-8.1-3.89-12.87-2.17-10.81.53-26.89,6-28.07C833.24,1360.08,836.43,1364.09,838.1,1367.48Z"/><path class="cls-22" d="M836.13,1367c-3.18-4.61-6.91-3.15-7.22-3a3.64,3.64,0,0,0-1.32.85c-2.86,2.87-2.69,10.89-2.66,12.34.05,2.38.24,11,3.89,15.23,2.72,3.16,5.53,1.74,5.91,1.54,4.07-2.2,4.59-10.83,4.64-11.85S839.79,1372.3,836.13,1367Z"/><path class="cls-23" d="M836.15,1359.86c.49,2.13.2,5.16-.68,5.76-.19.13-.4.14-1.31-.33-2-1-2.34-1.78-3.28-2-1.57-.41-2.15,1.25-2.63.52-.71-1.07-.37-6.07,1.34-8C831.63,1353.57,835.28,1356.11,836.15,1359.86Z"/><path class="cls-24" d="M836,1396.63c-1.18-3.2-6.56-1.72-6.56-1.72h0s-.44,4.86.63,7.28c.9,2,3.11,2.88,4.6,1.21A8.18,8.18,0,0,0,836,1396.63Z"/><path class="cls-25" d="M833.45,1381.71c-.25-6.87-5.19-12.11-4.55-14.21.27-.9,1.33-.51,1.31-.85a1.92,1.92,0,0,0-2.62-.67c-1.73,1.36-1.89,7.9-.7,12.85,1.11,4.58,3.72,9.26,5.23,8.47C833.09,1386.79,833.53,1384,833.45,1381.71Z"/></g><g id="תריסים-6" data-name="תריסים"><g id="תריס-31" data-name="תריס"><path class="cls-17" d="M710.88,967.09c.11-1.31-1.8-3.27-3-4.17a5.84,5.84,0,0,0-4.94-1.19c-6.68,1.52-28.46-8.07-33.73-4.66a3.9,3.9,0,0,0-1.91,3,6.31,6.31,0,0,0,.53,3.54c4.22,2.16,7.45,3,17.08,3,1.88,0,3.4,0,5.54.19,5.07.4,6.52,1.13,11.09,1.53C705.92,968.67,710.73,969.09,710.88,967.09Z"/><path class="cls-18" d="M710.89,962.66c-.08-4.83-1.5-10.31-3.9-13.19a6.49,6.49,0,0,0-1.77-1.53c-5.2-3.05-12.7-1.9-18-2-7.35-.16-8-2.77-11.89-.6a14.37,14.37,0,0,0-7.4,11.5c-.14,1.32-.07.28,0,1.09,14.22,1.58,28.48,5.37,42.89,7C710.87,964.42,710.91,963.64,710.89,962.66Z"/><path class="cls-19" d="M711.56,965a11.08,11.08,0,0,0-1.47-2.51,30.79,30.79,0,0,0-2.13-3,24.7,24.7,0,0,0-5.48-4.75c-3.92-2.38-14.06-2.5-21.5-4-6.31-1.25-9.31-3.24-11.65.64a18.69,18.69,0,0,0-2,7.49C702.71,965.67,711.53,966.18,711.56,965Z"/></g><g id="תריס-32" data-name="תריס"><path class="cls-17" d="M710.13,1002.56c.1-1.3-1.8-3.28-3-4.19a5.79,5.79,0,0,0-4.94-1.22c-6.68,1.46-28.46-8.32-33.73-4.94a3.82,3.82,0,0,0-1.9,2.94,6.43,6.43,0,0,0,.52,3.55c4.22,2.19,7.45,3,17.08,3.12,1.88,0,3.4.06,5.54.24,5.07.45,6.52,1.18,11.09,1.62C705.17,1004.11,710,1004.57,710.13,1002.56Z"/><path class="cls-18" d="M710.14,998.14c-.09-4.83-1.5-10.32-3.9-13.22a6.65,6.65,0,0,0-1.77-1.55c-5.2-3.09-12.7-2-18-2.17-7.35-.22-8-2.84-11.89-.7a14.22,14.22,0,0,0-7.4,11.44c-.14,1.32-.07.29,0,1.1,14.22,1.69,28.48,5.6,42.88,7.32A21.54,21.54,0,0,0,710.14,998.14Z"/><path class="cls-19" d="M710.81,1000.43a12,12,0,0,0-1.47-2.52,34.74,34.74,0,0,0-2.14-3,25,25,0,0,0-5.47-4.79c-3.92-2.41-14.06-2.62-21.5-4.15-6.31-1.3-9.31-3.32-11.64.55a18.37,18.37,0,0,0-2,7.47C702,1001.08,710.77,1001.67,710.81,1000.43Z"/></g><g id="תריס-33" data-name="תריס"><path class="cls-17" d="M710,1038.16c.1-1.31-1.81-3.3-3-4.22a5.86,5.86,0,0,0-4.94-1.27c-6.68,1.41-28.47-8.55-33.74-5.22a3.82,3.82,0,0,0-1.9,2.93,6.39,6.39,0,0,0,.52,3.55c4.22,2.24,7.45,3.09,17.08,3.27,1.88,0,3.4.09,5.54.29,5.08.48,6.53,1.23,11.1,1.71C705,1039.66,709.84,1040.17,710,1038.16Z"/><path class="cls-18" d="M710,1033.73c-.08-4.83-1.49-10.34-3.9-13.26a6.8,6.8,0,0,0-1.77-1.56c-5.19-3.13-12.7-2.11-17.94-2.31-7.36-.29-8-2.91-11.9-.8a14.06,14.06,0,0,0-7.4,11.38c-.14,1.32-.07.28,0,1.09,14.21,1.81,28.47,5.84,42.88,7.68C710,1035.49,710,1034.71,710,1033.73Z"/><path class="cls-19" d="M710.67,1036a11.38,11.38,0,0,0-1.46-2.53,34,34,0,0,0-2.14-3,25.37,25.37,0,0,0-5.47-4.84c-3.92-2.45-14.07-2.73-21.5-4.33-6.32-1.35-9.32-3.4-11.65.45a18.33,18.33,0,0,0-2,7.46C701.83,1036.61,710.64,1037.27,710.67,1036Z"/></g><g id="תריס-34" data-name="תריס"><path class="cls-17" d="M709.86,1073.77c.1-1.31-1.8-3.32-3-4.25a5.87,5.87,0,0,0-4.94-1.31c-6.68,1.36-28.47-8.78-33.74-5.5a3.78,3.78,0,0,0-1.9,2.92,6.43,6.43,0,0,0,.52,3.55c4.22,2.27,7.46,3.15,17.09,3.42,1.87.05,3.39.11,5.54.33,5.07.52,6.52,1.29,11.09,1.8C704.9,1075.23,709.71,1075.77,709.86,1073.77Z"/><path class="cls-18" d="M709.87,1069.34c-.08-4.84-1.5-10.36-3.9-13.3a7,7,0,0,0-1.77-1.58c-5.2-3.18-12.7-2.21-18-2.46-7.36-.35-8-3-11.9-.9a13.94,13.94,0,0,0-7.4,11.33c-.14,1.31-.07.28,0,1.09,14.21,1.93,28.48,6.08,42.89,8C709.85,1071.1,709.89,1070.32,709.87,1069.34Z"/><path class="cls-19" d="M710.54,1071.64a12.42,12.42,0,0,0-1.47-2.54c-.82-1.29-1.56-2.28-2.13-3a25.66,25.66,0,0,0-5.48-4.89c-3.92-2.47-14.07-2.84-21.5-4.5-6.32-1.41-9.32-3.48-11.65.35a18.24,18.24,0,0,0-2,7.45C701.69,1072.14,710.5,1072.88,710.54,1071.64Z"/></g><g id="תריס-35" data-name="תריס"><path class="cls-17" d="M709.73,1109.39c.1-1.31-1.8-3.33-3-4.28a5.87,5.87,0,0,0-4.94-1.34c-6.69,1.3-28.48-9-33.75-5.78a3.69,3.69,0,0,0-1.9,2.89,6.49,6.49,0,0,0,.52,3.57c4.22,2.3,7.46,3.21,17.09,3.55,1.88.07,3.4.14,5.54.38,5.07.57,6.53,1.34,11.1,1.9C704.76,1110.81,709.57,1111.39,709.73,1109.39Z"/><path class="cls-18" d="M709.74,1105c-.09-4.84-1.5-10.38-3.91-13.34a6.72,6.72,0,0,0-1.77-1.59c-5.19-3.22-12.7-2.32-17.95-2.61-7.35-.41-8-3.05-11.9-1a13.8,13.8,0,0,0-7.4,11.27c-.14,1.31-.07.28,0,1.1,14.22,2,28.48,6.31,42.89,8.39C709.71,1106.72,709.75,1105.94,709.74,1105Z"/><path class="cls-19" d="M710.4,1107.27a11.42,11.42,0,0,0-1.46-2.56,34.05,34.05,0,0,0-2.14-3,26.27,26.27,0,0,0-5.47-4.93c-3.92-2.51-14.07-3-21.51-4.69-6.32-1.46-9.32-3.55-11.65.26a18.11,18.11,0,0,0-2,7.43C701.56,1107.7,710.37,1108.5,710.4,1107.27Z"/></g><g id="תריס-36" data-name="תריס"><path class="cls-17" d="M709.59,1145c.11-1.31-1.8-3.35-3-4.3a5.94,5.94,0,0,0-4.94-1.39c-6.68,1.25-28.48-9.26-33.75-6.06a3.67,3.67,0,0,0-1.9,2.88,6.52,6.52,0,0,0,.52,3.57c4.22,2.34,7.46,3.28,17.09,3.7,1.88.08,3.4.16,5.54.42,5.08.61,6.53,1.4,11.1,2C704.63,1146.4,709.44,1147,709.59,1145Z"/><path class="cls-18" d="M709.6,1140.59c-.08-4.84-1.5-10.39-3.9-13.38a7,7,0,0,0-1.77-1.6c-5.2-3.27-12.71-2.43-18-2.76-7.35-.47-8-3.11-11.9-1.1a13.64,13.64,0,0,0-7.4,11.21c-.14,1.32-.07.29,0,1.1,14.22,2.16,28.48,6.55,42.9,8.75C709.58,1142.35,709.62,1141.57,709.6,1140.59Z"/><path class="cls-19" d="M710.27,1142.9a11.85,11.85,0,0,0-1.46-2.57,36.71,36.71,0,0,0-2.14-3,26.26,26.26,0,0,0-5.48-5c-3.92-2.55-14.07-3.09-21.51-4.87-6.32-1.51-9.31-3.63-11.65.17a17.94,17.94,0,0,0-2,7.41C701.42,1143.26,710.24,1144.14,710.27,1142.9Z"/></g></g><path class="cls-26" d="M692.26,1712.31l171.13,59,1.12-371.14a513.23,513.23,0,0,1-6.58,66c-8.46,49.83-15.9,42-31.48,113.27-17.7,80.94-8.91,95.07-21.37,115.92-32.61,54.54-106.17-18.82-112.53,14.92C692.42,1710.91,692.33,1711.61,692.26,1712.31Z"/><path class="cls-20" d="M632.33,855.35l-.93,225c6.37-28,9.73-26.59,18.48-57.95,20.15-72.23,12.9-117.31,31.76-137,9-9.39,18-7,29-4.9,25,4.83,62.06,8.74,113.3,3.53l-.72-.69Z"/></g><polygon class="cls-15" points="1151.85 1875.77 1165.51 1880.49 1168.52 -4.9 1154.97 -4.21 1151.85 1875.77"/><polygon class="cls-15" points="866.72 1776.02 878.78 1780.18 884.01 8.46 872.03 9.07 866.72 1776.02"/><polygon class="cls-16" points="1468.58 -20.23 632.21 22.5 632.14 39.5 1468.58 -20.23"/><polygon class="cls-27" points="1471.84 972.78 631.16 850.67 631.09 867.82 1471.84 972.78"/><polygon class="cls-28" points="628.98 1707.55 631.21 1729.94 634.28 1760.62 647.25 1765.29 650.51 1736.76 652.9 1715.89 628.98 1707.55"/><polygon class="cls-29" points="628.98 1707.55 631.21 1729.94 650.51 1736.76 652.9 1715.89 628.98 1707.55"/><polygon class="cls-15" points="614.47 22.3 1503.79 -23.38 1503.79 -73.17 614.64 -18.8 614.47 22.3"/><polygon class="cls-30" points="624.39 49.63 1486.55 -2.37 1486.55 -21.15 624.5 22.9 624.39 49.63"/></g><rect class="cls-31" x="93.8" y="395" width="1055" height="1213" rx="55.01"/><rect class="cls-32" x="474" y="608.32" width="365.8" height="105.68" rx="28.34"/><rect class="cls-33" x="425" y="1406" width="390" height="122" rx="28.34"/><text class="cls-34" transform="translate(210.91 542.84)">תא ןאכ םילשהל םכל יאדכ<tspan x="887.09" y="0"> </tspan><tspan x="-0.91" y="139" xml:space="preserve">תאז יכ       וקומש  הלימה</tspan><tspan x="887.09" y="139"> </tspan><tspan x="246.42" y="278">הלועמ ךכ לכ הלימ</tspan><tspan x="887.09" y="278"> </tspan></text><rect class="cls-35" x="-3" y="5" width="1247" height="323"/><text class="cls-34" transform="translate(19.88 123.02)">םכילע טירפב שמתשהל ולכותש ידכ<tspan x="1200.25" y="0"> </tspan><tspan x="98.56" y="139">םיאבה םיטפשמה תא םילשהל</tspan></text><text class="cls-34" transform="translate(525.5 1493.29)">הקידב</text><path class="cls-23" d="M545.77,678.18a1.56,1.56,0,0,0,2.46,0l16-20.79,15.18-19.73c.91-1.18-.22-2.66-2-2.66H516.64c-1.82,0-2.95,1.48-2,2.66l15.18,19.73Z"/></g></svg>