<svg id="Layer_1" data-name="Layer 1" xmlns="http://www.w3.org/2000/svg" viewBox="0 0 199.07 267.76"><defs><style>.cls-1{fill:#63574b;}.cls-2{fill:#6b775a;}.cls-3{fill:#586345;}.cls-4{fill:#788268;}.cls-5{fill:#4d563c;}</style></defs><g id="קסדה"><path class="cls-1" d="M17.07,138.71c24.5,56.28,41,98,53,110,2.48,2.49,5.05,6.84,10,10,10.6,6.76,22.54,5.39,26,5,23.29-2.67,37.83-29.68,46-43,9.36-15.29,25.56-43.66,29-85l8,16c-2.1,18.37-8.37,31.26-16,49-10.11,23.5-24.43,56.78-55,65-4,1.07-21.66,5.36-39-3-17.16-8.27-26-23.15-48-67-9.93-19.82-15.44-32.76-21-43Z"/><path class="cls-2" d="M197.18,139.06v.13l-7.26-.08-9.06-.09-9.71-19.3c-1.7-1-4.25-2.41-7.44-3.89A92.49,92.49,0,0,0,142.33,109c-18.64-3.86-31.7-6.56-50.22-5.84-12.57.48-21.28,2.31-33.47,4.86-10.86,2.28-17.76,4.43-25.1,8.76a66.64,66.64,0,0,0-8.37,5.84l-6.86,14.77-11.45-.12-4.94,0c0-.61,0-1.41,0-2.35,0-.48,0-1,0-1.54a120,120,0,0,1,3.72-28.23C7,100,8.54,95.7,9.36,93.44c1.88-5.17,2.62-6.37,3.72-9.73,2-6.23,1.93-10.79,2.79-14.6.14-.63,3.46-15.33,6.51-23.36C29.14,28,44.57,16.69,51.3,12.38c1.21-.79,2.15-1.35,2.69-1.67C71.78.15,88.36.07,99.55,0,108,0,119.86,0,134,5.85a82,82,0,0,1,21.16,13h0a87.8,87.8,0,0,1,9.51,9.37c5.26,6.07,10.81,12.4,14,22.39,1.82,5.79,3.72,15.65,4.65,20.44A116,116,0,0,0,186,83.71c1.69,5.71,3,8,4.65,12.65,2.57,7.19,3.45,12.76,4.65,20.44A158.21,158.21,0,0,1,197.18,139.06Z"/><path class="cls-3" d="M58.64,96.32c0,5.13-18.73,4.17-34.4,16.54-9,7.14-14.12,16.39-17.38,24.38l-4.94-.05c0-.61,0-1.41,0-2.35,0-.48,0-1,0-1.54a120,120,0,0,1,3.72-28.23C7,100,8.54,95.65,9.36,93.4,11.24,88.22,12,87,13.08,83.66c2-6.23,1.93-10.79,2.79-14.6.14-.63,3.46-15.33,6.51-23.36C29.14,27.93,44.57,16.64,51.3,12.33a4,4,0,0,1,.83,1.25C54.52,19.3,41,26,33.54,42.78c-1.17,2.61-10.14,23.41-1.86,37C39.64,92.82,58.61,91.15,58.64,96.32Z"/><path class="cls-4" d="M197.18,139.06v.13l-7.26-.08c-1.83-6.63-3.48-14.24-10.4-21.33-11.17-11.46-27.41-12.74-27-14.6s16.58,4.14,24.18-3.9a15.91,15.91,0,0,0,3.72-12.65c-.73-4.88-3.56-5.69-6.51-10.71-5.81-9.86-.58-16.46-5.58-32.11a67.48,67.48,0,0,0-4.65-10.71,108.65,108.65,0,0,0-8.58-14.24,87.8,87.8,0,0,1,9.51,9.37c5.26,6.07,10.81,12.4,14,22.39,1.82,5.79,3.72,15.65,4.65,20.44A116,116,0,0,0,186,83.71c1.69,5.71,3,8,4.65,12.65,2.57,7.19,3.45,12.76,4.65,20.44A158.21,158.21,0,0,1,197.18,139.06Z"/><path class="cls-5" d="M198.11,148.92a14.2,14.2,0,0,1-8.36,7.79q-4.45-8.85-8.89-17.69l-9.71-19.3c-1.7-1-4.25-2.41-7.44-3.89A92.49,92.49,0,0,0,142.33,109c-18.64-3.86-31.7-6.56-50.22-5.84-12.57.48-21.28,2.31-33.47,4.86-10.86,2.28-17.76,4.43-25.1,8.76a66.64,66.64,0,0,0-8.37,5.84l-6.86,14.77-8.95,19.3a25.06,25.06,0,0,1-2.79-2,25.64,25.64,0,0,1-4.65-4.86A29.49,29.49,0,0,1,.06,147a32.48,32.48,0,0,1,0-3.9,26,26,0,0,1,1.84-8.19c2.27-5.64,6.27-10.34,10.25-19.06A22.15,22.15,0,0,1,15.87,110a21,21,0,0,1,4.65-3.89A190.67,190.67,0,0,1,55.85,93.44c10.55-2.63,38.49-8.62,68.81-3.89a196.44,196.44,0,0,1,25.1,5.84c3.71,1.14,8.68,3,18.6,6.81a58,58,0,0,1,10.23,4.87,55.93,55.93,0,0,1,5.58,3.89q6.5,14.06,13,28.1c.63,1.35,1.24,2.68,1.86,4A13.6,13.6,0,0,1,198.11,148.92Z"/></g></svg>