<svg id="Layer_1" data-name="Layer 1" xmlns="http://www.w3.org/2000/svg" viewBox="0 0 218.64 129.33"><defs><style>.cls-1{fill:#6b775a;}.cls-2,.cls-3{fill:#586345;}.cls-2,.cls-7{fill-opacity:0.5;}.cls-4{fill:#4d563c;}.cls-5{fill:#616d4f;}.cls-6{fill:#545e40;fill-opacity:0.7;}.cls-7{fill:#788268;}</style></defs><g id="ברכיות"><path class="cls-1" d="M106.26,76.13c0,7.12,0,10.68-2,14-1.65,2.72-4,4.59-7,10-1.18,2.13-1.86,3.7-2,4-6.36,13.39-57.49,1.09-62,0-2-.48-3.74-.93-4-1a3.4,3.4,0,0,1-1.55-1c-1.35-1.41-2.23-3.93-4.45-6-3.26-3.07-5.7-1.73-8-4-2.94-2.9.62-6.38-1-14-.92-4.31-2.17-4.38-3-9-.71-3.94-.11-5.62,0-10s-.93-9.9-3-21c-1.35-7.2-.89-8.11-2-10-2.12-3.62-5-4.85-6-9a12.33,12.33,0,0,1,0-5c1.53-6.43,14.55-9.34,25-11C34.19,1.72,43.75.06,54.81,0A111,111,0,0,1,77.26,2.13c21.17,4.17,26.69,5.11,28,9s-2.05,5.73-2,14c0,7.25,2.61,8.24,3,16,.33,6.45-1.33,8-2,15C103.44,64.76,106.24,65.53,106.26,76.13Z"/><path class="cls-2" d="M106.26,76.13c0,7.12,0,10.68-2,14-1.65,2.72-4,4.59-7,10-1.18,2.13-1.86,3.7-2,4-6.36,13.39-57.49,1.09-62,0-2-.48-3.74-.93-4-1a3.4,3.4,0,0,1-1.55-1c11.18,1.73,36.37,3.7,47.55-11,5.87-7.72,4.58-22.48,2-52-1.7-19.5-3.8-23.83-6-27C66.89,5.83,60.77,2.23,54.81,0A111,111,0,0,1,77.26,2.13c21.17,4.17,26.69,5.11,28,9s-2.05,5.73-2,14c0,7.25,2.61,8.24,3,16,.33,6.45-1.33,8-2,15C103.44,64.76,106.24,65.53,106.26,76.13Z"/><path class="cls-3" d="M107.26,42.32c-.52,2.33-.83,2.76-1,2.89-1.27,1-3.5.16-4,0-2.89-1-11.69-1.72-28.22-2.86l-14.78-1s-5-.33-49,5.77l-.49-.47c-.25-.23-.49-.47-.51-.49-1.43-1.38-2-6.73-2-6.73-.31-2.89-.72-5.77-1-8.66v-1c0-.71,10.92-5.56,33.25-7.22a217.31,217.31,0,0,1,22.75-.47,134.43,134.43,0,0,1,23,1.9c8.2,1.34,12.62,2.9,16,2.9a4.29,4.29,0,0,1,3,1c.91.92.69,2.1,1,3.84.44,2.48,1.39,2.7,2,4.81A11.26,11.26,0,0,1,107.26,42.32Z"/><path class="cls-4" d="M107.26,42.32c-.52,2.33-.83,2.76-1,2.89-1.27,1-3.5.16-4,0-2.89-1-11.69-1.72-28.22-2.86a12.66,12.66,0,0,0-.78-2.22c-2.91-6.31-9.78-8.74-16-11-7-2.57-13-4.72-17.75-6.53a217.31,217.31,0,0,1,22.75-.47,134.43,134.43,0,0,1,23,1.9c8.2,1.34,12.62,2.9,16,2.9a4.29,4.29,0,0,1,3,1c.91.92.69,2.1,1,3.84.44,2.48,1.39,2.7,2,4.81A11.26,11.26,0,0,1,107.26,42.32Z"/><path class="cls-3" d="M107.26,82.13c-1.08,6.5-19.92,8.34-33,8.84-6,.23-10.8.18-12,.16-20.46-.29-33,1.68-47-5-.38-.18-1.42-.22-2-1-.74-1,0-2,0-4,0-.81-.09-1.24-2-7l-1-3q8.82,1.4,18.27,2.51,7.55.89,14.73,1.49s5.55.47,15.29.42c7.37,0,17.14-.36,28.71-1.42,0,0,14.82-1.36,18-7,.12-.21.58-1.07,1-1s.91.85,1,12C107.28,80.67,107.29,82,107.26,82.13Z"/><path class="cls-4" d="M107.26,82.13c-1.08,6.5-19.92,8.34-33,8.84-1-2.44-1.47-5.14-5-8.84s-6.93-4.85-10.71-6.58c7.37,0,17.14-.36,28.71-1.42,0,0,14.82-1.36,18-7,.12-.21.58-1.07,1-1s.91.85,1,12C107.28,80.67,107.29,82,107.26,82.13Z"/><path class="cls-5" d="M94.24,64.13c-.37,15.63-.7,18-7.63,24-10.92,9.51-29.38,11.3-36.32,10.14l-.76-.14c-5.57-1.27-20.22-4.62-27.27-16-1.75-2.84-2.62-7.89-4.36-18-2.23-13-3.32-19.63-2.18-27,.83-5.34,1.93-12.48,6.54-18C27.7,12.6,37.77,8.66,48.68,7.68,62,6.48,76.59,9.73,85.52,18.13,95.11,27.16,94.82,39.48,94.24,64.13Z"/><path class="cls-6" d="M94.24,64.13c-.37,15.63-.7,18-7.63,24-10.92,9.51-14.35,8-21.32,9.14,6-2.63,4.62-4.35,13-16.14,8.71-12.29,6.73-27.41,6-33-.55-4.24-2.93-22.39-17-33A40.58,40.58,0,0,0,48.68,7.68C62,6.48,76.59,9.73,85.52,18.13,95.11,27.16,94.82,39.48,94.24,64.13Z"/><path class="cls-7" d="M29.26,30.13c2.78.81-7,21.82,2,42,4.73,10.64,12.91,17.1,12,18s-7.68-3.53-13-10c-1.65-2-13.23-16.57-9-35C23.08,37.24,27.56,29.64,29.26,30.13Z"/><path class="cls-3" d="M73.8,19.75c-2.37-1.32-5.44-.73-6.16.58-1,1.79,2.24,5.26,5.16,5.37a3.31,3.31,0,0,0,3-1.55C76.59,22.74,75.67,20.8,73.8,19.75Z"/><path class="cls-3" d="M86,42.77c-.88-2.57-3.56-4.18-5-3.69-1.93.68-1.85,5.41.24,7.44a3.31,3.31,0,0,0,3.31.89C86,46.86,86.64,44.79,86,42.77Z"/><path class="cls-3" d="M85.5,66c1-2.53,0-5.49-1.4-6-1.91-.73-4.9,2.93-4.63,5.83a3.3,3.3,0,0,0,1.94,2.81C82.91,69.13,84.71,68,85.5,66Z"/><path class="cls-3" d="M33.89,19.75c2.37-1.32,5.44-.73,6.16.58,1,1.79-2.24,5.26-5.15,5.37a3.29,3.29,0,0,1-3-1.55C31.1,22.74,32,20.8,33.89,19.75Z"/><path class="cls-3" d="M21.74,42.77c.88-2.57,3.56-4.18,5-3.69,1.93.68,1.85,5.41-.24,7.44a3.29,3.29,0,0,1-3.3.89C21.67,46.86,21.06,44.79,21.74,42.77Z"/><path class="cls-3" d="M22.19,66c-1-2.53,0-5.49,1.4-6,1.91-.73,4.91,2.93,4.63,5.83a3.3,3.3,0,0,1-1.94,2.81C24.78,69.13,23,68,22.19,66Z"/><path class="cls-1" d="M217.26,95.13c0,7.12,0,10.68-2,14-1.65,2.72-4,4.59-7,10-1.18,2.13-1.86,3.7-2,4-6.36,13.39-57.49,1.09-62,0-2-.48-3.74-.93-4-1a3.4,3.4,0,0,1-1.55-1c-1.35-1.41-2.23-3.93-4.45-6-3.26-3.07-5.7-1.73-8-4-2.94-2.9.62-6.38-1-14-.92-4.31-2.17-4.38-3-9-.71-3.94-.11-5.62,0-10s-.93-9.9-3-21c-1.35-7.2-.89-8.11-2-10-2.12-3.62-5-4.85-6-9a12.33,12.33,0,0,1,0-5c1.53-6.43,14.55-9.34,25-11,8.93-1.41,18.49-3.07,29.55-3.13a111,111,0,0,1,22.45,2.13c21.17,4.17,26.69,5.11,28,9s-2,5.73-2,14c0,7.25,2.61,8.24,3,16,.33,6.45-1.33,8-2,15C214.44,83.76,217.24,84.53,217.26,95.13Z"/><path class="cls-2" d="M217.26,95.13c0,7.12,0,10.68-2,14-1.65,2.72-4,4.59-7,10-1.18,2.13-1.86,3.7-2,4-6.36,13.39-57.49,1.09-62,0-2-.48-3.74-.93-4-1a3.4,3.4,0,0,1-1.55-1c-1.35-1.41-2.23-3.93-4.45-6-3.26-3.07-5.7-1.73-8-4-2.94-2.9.62-6.38-1-14-.92-4.31-2.17-4.38-3-9-.71-3.94-.11-5.62,0-10s-.93-9.9-3-21c-1.35-7.2-.89-8.11-2-10-2.12-3.62-5-4.85-6-9a12.33,12.33,0,0,1,0-5c1.53-6.43,14.55-9.34,25-11,8.93-1.41,18.49-3.07,29.55-3.13a111,111,0,0,1,22.45,2.13c21.17,4.17,26.69,5.11,28,9s-2,5.73-2,14c0,7.25,2.61,8.24,3,16,.33,6.45-1.33,8-2,15C214.44,83.76,217.24,84.53,217.26,95.13Z"/><path class="cls-1" d="M125.24,38.14c-6.86,9.25-3.94,21.73,1.9,46.7,5.16,22,10.83,28.21,16.21,31.46,1.89,1.14,26,4.82,31.34,2.86,4.31-1.57-9.95-7.55-9.42-38.13.57-32.42.86-48.63-7.62-53.38C148.36,22.44,132.57,28.25,125.24,38.14Z"/><path class="cls-3" d="M218.26,61.32c-.52,2.33-.83,2.76-1,2.89-1.27,1-3.5.16-4,0-2.89-1-11.69-1.72-28.22-2.86l-14.78-1s-5-.33-49,5.77l-.49-.47c-.25-.23-.49-.47-.51-.49-1.43-1.38-2-6.73-2-6.73-.31-2.89-.72-5.77-1-8.66v-1c0-.71,10.92-5.56,33.25-7.22a217.31,217.31,0,0,1,22.75-.47,134.43,134.43,0,0,1,23,1.9c8.2,1.34,12.62,2.9,16,2.9a4.29,4.29,0,0,1,3,1c.91.92.69,2.1,1,3.84.44,2.48,1.39,2.7,2,4.81A11.26,11.26,0,0,1,218.26,61.32Z"/><path class="cls-4" d="M218.26,61.32c-.52,2.33-.83,2.76-1,2.89-1.27,1-3.5.16-4,0-2.89-1-11.69-1.72-28.22-2.86a12.66,12.66,0,0,0-.78-2.22c-2.91-6.31-9.78-8.74-16-11-7-2.57-13-4.72-17.75-6.53a217.31,217.31,0,0,1,22.75-.47,134.43,134.43,0,0,1,23,1.9c8.2,1.34,12.62,2.9,16,2.9a4.29,4.29,0,0,1,3,1c.91.92.69,2.1,1,3.84.44,2.48,1.39,2.7,2,4.81A11.26,11.26,0,0,1,218.26,61.32Z"/><path class="cls-3" d="M218.26,101.13c-1.08,6.5-19.92,8.34-33,8.84-6,.23-10.8.18-12,.16-20.46-.29-33,1.68-47-5-.38-.18-1.42-.22-2-1-.74-1,0-2,0-4,0-.81-.09-1.24-2-7l-1-3q8.82,1.4,18.27,2.51,7.54.89,14.73,1.49s5.55.47,15.29.42c7.37,0,17.14-.36,28.71-1.42,0,0,14.82-1.36,18-7,.12-.21.58-1.07,1-1s.91.85,1,12C218.28,99.67,218.29,101,218.26,101.13Z"/><path class="cls-4" d="M218.26,101.13c-1.08,6.5-19.92,8.34-33,8.84-1-2.44-1.47-5.14-5-8.84s-6.93-4.85-10.71-6.58c7.37,0,17.14-.36,28.71-1.42,0,0,14.82-1.36,18-7,.12-.21.58-1.07,1-1s.91.85,1,12C218.28,99.67,218.29,101,218.26,101.13Z"/><path class="cls-5" d="M205.24,83.13c-.37,15.63-.7,18-7.63,24-10.92,9.51-29.38,11.3-36.32,10.14l-.76-.14c-5.57-1.27-20.22-4.62-27.27-16-1.75-2.84-2.62-7.89-4.36-18-2.23-13-3.32-19.63-2.18-27,.83-5.34,1.93-12.48,6.54-18,5.44-6.53,15.51-10.47,26.42-11.45,13.33-1.2,27.91,2.05,36.84,10.45C206.11,46.16,205.82,58.48,205.24,83.13Z"/><path class="cls-6" d="M205.24,83.13c-.37,15.63-.7,18-7.63,24-10.92,9.51-14.35,8-21.32,9.14,6-2.63,4.62-4.35,13-16.14,8.71-12.29,6.73-27.41,6-33-.55-4.24-2.93-22.39-17-33a40.58,40.58,0,0,0-18.58-7.45c13.33-1.2,27.91,2.05,36.84,10.45C206.11,46.16,205.82,58.48,205.24,83.13Z"/><path class="cls-7" d="M140.26,49.13c2.78.81-7,21.82,2,42,4.73,10.64,12.91,17.1,12,18s-7.68-3.53-13-10c-1.65-2-13.23-16.57-9-35C134.08,56.24,138.56,48.64,140.26,49.13Z"/><path class="cls-3" d="M184.8,38.75c-2.37-1.32-5.44-.73-6.16.58-1,1.79,2.24,5.26,5.16,5.37a3.31,3.31,0,0,0,3-1.55C187.59,41.74,186.67,39.8,184.8,38.75Z"/><path class="cls-3" d="M197,61.77c-.88-2.57-3.56-4.18-5-3.69-1.93.68-1.85,5.41.24,7.44a3.31,3.31,0,0,0,3.31.89C197,65.86,197.64,63.79,197,61.77Z"/><path class="cls-3" d="M196.5,85c1-2.53,0-5.49-1.4-6-1.91-.73-4.9,2.93-4.63,5.83a3.3,3.3,0,0,0,1.94,2.81C193.91,88.13,195.71,87,196.5,85Z"/><path class="cls-3" d="M144.89,38.75c2.37-1.32,5.44-.73,6.16.58,1,1.79-2.24,5.26-5.15,5.37a3.29,3.29,0,0,1-3.05-1.55C142.1,41.74,143,39.8,144.89,38.75Z"/><path class="cls-3" d="M132.74,61.77c.88-2.57,3.56-4.18,5-3.69,1.93.68,1.85,5.41-.24,7.44a3.29,3.29,0,0,1-3.3.89C132.67,65.86,132.06,63.79,132.74,61.77Z"/><path class="cls-3" d="M133.19,85c-1-2.53,0-5.49,1.4-6,1.91-.73,4.91,2.93,4.63,5.83a3.3,3.3,0,0,1-1.94,2.81C135.78,88.13,134,87,133.19,85Z"/></g></svg>