<svg id="Layer_1" data-name="Layer 1" xmlns="http://www.w3.org/2000/svg" viewBox="0 0 128.03 65.57"><defs><style>.cls-1{fill:#6b775a;}.cls-2,.cls-3,.cls-6{fill:#4d563c;}.cls-2,.cls-7{opacity:0.5;}.cls-4{fill:#3f4432;}.cls-5,.cls-7{fill:#586345;}.cls-6{opacity:0.8;}.cls-8{fill:#788268;opacity:0.2;}</style></defs><g id="כפפה_שמאל" data-name="כפפה שמאל"><path class="cls-1" d="M120.41,28l-.06.07c-1.13,1.28-2.15,2.37-3.35,3.55l-.54.53c-.43.41-.77.73-1.18,1.07l-.25.22c-.62.52-1.4,1.15-2.74,2.25-1.17,1-2.76,2.27-5,4.19l-1.1.92-.35.29-.87.74-.93.79c-1.29,1.09-3.25,2.76-6,5s-4,3.24-5,4c-6.27,4.65-13.08,6.14-17,7l-.34.08c-2,.44-3.61.78-5,1L70,59.7a12.72,12.72,0,0,1-4-.13c-2.2-.43-3.49-1.18-6-1h0c-.59,0-1.81.28-6,2-1.35.56-2.51,1.12-3.68,1.68A54.81,54.81,0,0,1,45,64.57a16,16,0,0,1-5,1s-.54,0-1,0c-3.94-.15-12.46-9.44-11.36-14.11a2.78,2.78,0,0,1,.36-.89c.43-.69,1.29-1.13,3-2a19.63,19.63,0,0,1,1.85-.83A22.21,22.21,0,0,1,37,46.57,29.16,29.16,0,0,1,28.93,46L27,45.57c-7.21-1.68-6.27-2-8-2h-.79c-3.56.07-5.58,1.17-8.21,0a6.51,6.51,0,0,1-1.19-.69l-.35-.27-.38-.33c-.12-.11-.23-.23-.34-.35a3.33,3.33,0,0,1-.25-.28,9.11,9.11,0,0,1-.72-.92l-.39-.58c-.13-.19-.26-.38-.38-.58a19.73,19.73,0,0,1-1.08-1.93c-.06-.11-.11-.22-.16-.33s-.2-.43-.3-.66a.94.94,0,0,1-.06-.15c-.11-.25-.21-.5-.31-.76s-.15-.4-.22-.6l-.12-.33c-.09-.29-.19-.58-.27-.88s-.17-.58-.24-.88-.1-.4-.14-.59c-.1-.39-.17-.79-.24-1.19s-.11-.76-.15-1.14-.07-.72-.08-1.07,0-.47,0-.7a13.17,13.17,0,0,1,.14-2,9,9,0,0,1,.17-.93c0-.15.07-.3.12-.45a8.07,8.07,0,0,1,.29-.87,7.43,7.43,0,0,1,.37-.81,7.29,7.29,0,0,1,.71-1.09l.29-.33.3-.31a5,5,0,0,1,1.81-1.09A21.73,21.73,0,0,1,10,19.57l1.46-.31c5.46-1.06,9.54-.85,13.78-.85q1.52,0,3.09-.06A43.76,43.76,0,0,0,35,17.57a30.83,30.83,0,0,0,4.12-1.19c.7-.21,1.62-.47,2.88-.81l1.47-.38c1.58-.41,3.13-.79,4.67-1.14l1.53-.35,2.64-.57,2.6-.54c5.16-1,10.11-1.94,14.94-3l.5-.11,1.87-.42c1.94-.45,3.86-.94,5.78-1.49h0c.5-.15,1.13-.33,1.84-.58a5.55,5.55,0,0,1,2.57,1.41c2.51,2.51.94,6.87,3.51,7.79s5.32-2.67,7.92-1.51c2.19,1,1.23,4,3.44,6.8s5.51,2.7,13.29,4.16c4.32.81,7.39,1.62,9.54,2.24Z"/><path class="cls-2" d="M112.29,35.64c-1.66,1.35-4.18,3.44-8.29,6.93-1.29,1.09-3.25,2.76-6,5s-4,3.24-5,4c-6.27,4.65-13.08,6.14-17,7l-.34.08A53.36,53.36,0,0,0,63,51.57c-13-5.46-19.67-5.16-25-12-3.49-4.49-1.75-6.06-6-13a34.56,34.56,0,0,0-6.76-8.16c1,0,2,0,3.09-.06A43.76,43.76,0,0,0,35,17.57a30.83,30.83,0,0,0,4.12-1.19c.7-.21,1.62-.47,2.88-.81l1.47-.38c2.11-.55,4.17-1,6.2-1.49C56.76,12.12,63.41,11,69.85,9.59l.5-.11,1.87-.42c1.94-.45,3.86-.94,5.78-1.49h0c1.61,3.91,2.94,8.39,9,14C96.22,30.19,103.25,29.17,112.29,35.64Z"/><path class="cls-1" d="M128,18.57c0,.3-.17.64-3,4l-2.43,2.88c-4.35-4-14.09-10.41-23-15.15a67.72,67.72,0,0,0-14.14-6A26.6,26.6,0,0,0,89.81.82,2.83,2.83,0,0,1,92.73.16C121.56,10,128.52,15.41,128,18.57Z"/><path class="cls-3" d="M28.33,18.35c-3.47,3.54-11.21,4-16.33,1.22-.19-.1-.37-.2-.54-.31C18.22,18,22.87,18.58,28.33,18.35Z"/><path class="cls-4" d="M78,34.57c-4.67,3.25-12.75,1.23-16-3-1.55-2-1.36-4.33-4-6s-5.07-.69-7-3c-1.27-1.52-.84-2.27-2-4a8.79,8.79,0,0,0-5.53-3.38c9.48-2.46,18.1-3.78,26.38-5.6l2.37-.53c5.14,3.33,9,8.15,9.78,13.51C82.55,26.33,81.8,31.93,78,34.57Z"/><path class="cls-3" d="M37,46.57A29.16,29.16,0,0,1,28.93,46,37.33,37.33,0,0,0,34,43.57c2.13-1.23,3.42-1.25,4.85-2a10.7,10.7,0,0,1,3.15-1c2.2-.36,3-.93,11,0,4.7.55,5.94.57,6,1,.11.85-4.76,1.82-12,4l-.4.12"/><path class="cls-5" d="M18.21,43.57c-3.56.07-5.58,1.17-8.21,0a9.36,9.36,0,0,1-4-4c-3.4-5.29-5.07-14.13-1-18a5,5,0,0,1,1.81-1.09A21,21,0,0,0,8,33.57C10.7,39.31,15.58,41.49,18.21,43.57Z"/><path class="cls-6" d="M29,30.57c0,.18-4.88.63-9,1-6.08.55-7.62.62-9,2-1,1-1.38,2.38-2,5a19.94,19.94,0,0,0-.54,4,12.35,12.35,0,0,1-2.46-3,21.63,21.63,0,0,1-2.13-4.43,1.93,1.93,0,0,1,1.4-2.54,74.66,74.66,0,0,1,13.73-2l6.16-.14c1.56,0,2.52,0,3.09,0S29,30.53,29,30.57Z"/><path class="cls-3" d="M29.33,30.35c-3.47,3.54-11.21,4-16.33,1.22-.19-.1-.37-.2-.54-.31C19.22,30,23.87,30.58,29.33,30.35Z"/><path class="cls-7" d="M54,47.57l-.38.54c-3.27,4.87-2.34,9.08-3.3,14.14A54.81,54.81,0,0,1,45,64.57a16,16,0,0,1-5,1s-.54,0-1,0c-3.94-.15-12.46-9.44-11.36-14.11a2.78,2.78,0,0,1,.36-.89c.43-.69,1.29-1.13,3-2a19.63,19.63,0,0,1,1.85-.83C35.79,47.19,39.72,46.5,45,45c2.37-.64,5-1.45,8-2.46,1.67-.57,5.47-1.91,6-1S56.41,44.26,54,47.57Z"/><path class="cls-3" d="M122.57,25.45c-.79.93-1.5,1.75-2.16,2.5a99.46,99.46,0,0,0-9.8-2.32c-7.78-1.46-11-1.29-13.29-4.16s-1.25-5.82-3.44-6.8c-2.6-1.16-5.23,2.48-7.92,1.51s-1-5.28-3.51-7.79A5.55,5.55,0,0,0,79.88,7c.46-.16,1-.35,1.5-.57A26.94,26.94,0,0,0,85,4.57l.47-.3a67.72,67.72,0,0,1,14.14,6C108.48,15,118.22,21.47,122.57,25.45Z"/><path class="cls-5" d="M128,18.57c0,.3-.17.64-3,4-1.94,2.3-3.36,4-4.65,5.45C114.9,24.2,107.75,17.4,95,11.57A131.82,131.82,0,0,0,81.38,6.41,26.94,26.94,0,0,0,85,4.57,27.31,27.31,0,0,0,89.81.82,2.83,2.83,0,0,1,92.73.16C121.56,10,128.52,15.41,128,18.57Z"/><path class="cls-2" d="M116.46,32.1c-1.88,1.81-2.25,1.81-12.46,10.47-1.29,1.09-3.25,2.76-6,5s-4,3.24-5,4c-6.27,4.65-13.08,6.14-17,7-4.75,1-7.13,1.56-10,1-2.2-.43-3.49-1.18-6-1h0a39.54,39.54,0,0,1,17-8c4.21-.77,8.92-.69,14-4a21.41,21.41,0,0,0,7-7c1.42-2.39.93-2.77,2-4,2.73-3.13,7-1.92,14-3C114.89,32.43,115.7,32.27,116.46,32.1Z"/><path class="cls-8" d="M75,27.57c-1.39,1.45-4.06,1.72-6,1-3-1.11-2.54-3.95-6-7-2.65-2.33-3.69-1.34-8-4a27,27,0,0,1-5.33-3.87C56.76,12.12,63.41,11,69.85,9.59l.5-.11c1.05,1.8,1.92,3.6,2.65,5.09C74.42,17.5,77.86,24.58,75,27.57Z"/></g></svg>