<svg id="Layer_1" data-name="Layer 1" xmlns="http://www.w3.org/2000/svg" viewBox="0 0 75.93 91"><defs><style>.cls-1{fill:#b3b3b3;}.cls-2{fill:gray;}.cls-3{fill:#d8923d;}.cls-4{fill:#b5722a;}.cls-5{fill:#dd9e5f;}.cls-6{fill:#606060;}.cls-7{fill:#4d4d4d;}</style></defs><g id="מנעול"><path class="cls-1" d="M64.88,26.81V54.88H56l-.09-10.59V25.56A17.89,17.89,0,0,0,38.09,7.68H38A17.89,17.89,0,0,0,20.14,25.56V54.88H11.27V26.81a26.81,26.81,0,1,1,53.61,0Z"/><path class="cls-2" d="M35.37.14c-4.62,1.8-11.47,4.8-15.81,11.71C15,19.13,14.66,28.4,14.5,33,14.12,43.72,16.94,48,14,51a6.78,6.78,0,0,1-2.77,1.62V26.81A26.79,26.79,0,0,1,35.37.14Z"/><path class="cls-2" d="M58.21,48.66,55.91,44V25.56A17.89,17.89,0,0,0,38.09,7.68c5.42-1.32,8.67-.24,10.46.72,8.59,4.59,9.19,20.12,9.66,32.21C58.34,43.91,58.29,46.68,58.21,48.66Z"/><path class="cls-3" d="M75.93,44.51V82.27c0,4.82-3.39,8.73-7.58,8.73H7.57C3.39,91,0,87.09,0,82.27V44.51c0-4.82,3.39-8.73,7.57-8.73H68.35C72.54,35.78,75.93,39.69,75.93,44.51Z"/><path class="cls-4" d="M7.1,77.14A98.89,98.89,0,0,0,10.63,91H7.57C3.39,91,0,87.09,0,82.27V44.51c0-4.82,3.39-8.73,7.57-8.73h4.55a55.54,55.54,0,0,0-3.2,7.14C3.8,57.24,6.25,72.05,7.1,77.14Z"/><path class="cls-5" d="M75.93,44.51V80.06a129.33,129.33,0,0,1-2.55-17c-.73-9.4.33-14.2-2.37-21a28.84,28.84,0,0,0-3.46-6.3h.8C72.54,35.78,75.93,39.69,75.93,44.51Z"/><path class="cls-6" d="M41,63.39c1.16,2.66,2.86,7.37,2.3,11.73A3.11,3.11,0,0,1,42.57,77c-1,1.14-3.15,1.18-5.14.9a25.09,25.09,0,0,1-4.53-1.13s.18-3.69.46-6a31.53,31.53,0,0,1,1.84-7.36,7.43,7.43,0,0,1,.91-14.21l.24-.06A7.51,7.51,0,0,1,41,63.39Z"/><path class="cls-7" d="M37.5,68.91a50.78,50.78,0,0,0-.07,9,25.09,25.09,0,0,1-4.53-1.13s.18-3.69.46-6a31.53,31.53,0,0,1,1.84-7.36,7.43,7.43,0,0,1,.91-14.21c-1.29,1.69-2.75,3.78-2.29,6.39.54,3,3.11,3.67,3.91,7.82C38.07,65.11,37.79,65.82,37.5,68.91Z"/></g></svg>