<svg id="Layer_1" data-name="Layer 1" xmlns="http://www.w3.org/2000/svg" xmlns:xlink="http://www.w3.org/1999/xlink" viewBox="0 0 765.99 1408.29"><defs><style>.cls-1{fill:none;}.cls-2{fill:#ce917a;}.cls-3,.cls-32{fill:#daad94;}.cls-13,.cls-4{fill:#9d725b;}.cls-5{fill:#825848;}.cls-6{fill:#a3877f;}.cls-7{fill:#cdb8c7;}.cls-8{fill:#d7c6d2;}.cls-10,.cls-9{fill:#ba9e95;}.cls-9{opacity:0.5;}.cls-11{fill:#d19879;}.cls-12{fill:#c4aa9d;}.cls-12,.cls-13,.cls-32,.cls-34{opacity:0.4;}.cls-14,.cls-34{fill:#694c3d;}.cls-14{opacity:0.3;}.cls-15{fill:#723940;}.cls-16{fill:#a55360;}.cls-17{fill:#834951;}.cls-18{opacity:0.7;}.cls-19{fill:#72564a;}.cls-20{fill:#4c3831;}.cls-21{fill:#ba856e;opacity:0.6;}.cls-22,.cls-26{fill:#9f98a0;}.cls-23,.cls-27{fill:#312b32;}.cls-24,.cls-25{fill:#9b8c8c;}.cls-24{opacity:0.15;}.cls-26,.cls-27{opacity:0.1;}.cls-28{fill:#757881;}.cls-29{fill:#3e3940;}.cls-30{fill:#fff;}.cls-31{clip-path:url(#clip-path);}.cls-33{fill:#989291;}.cls-35{fill:#282f3f;}.cls-36{fill:#1b202a;}.cls-37{fill:#12141a;}.cls-38{fill:#181b23;}.cls-39{fill:#222837;}.cls-40{fill:#0c0e12;}.cls-41{fill:#dadde6;}.cls-41,.cls-53{opacity:0.03;}.cls-42{fill:#757f60;}.cls-43{fill:#4d563c;}.cls-44{fill:#586345;}.cls-45{fill:#6b775a;}.cls-46{fill:#3c3f3a;}.cls-47{fill:#5d625a;}.cls-48{fill:#0e4449;}.cls-49{fill:#123838;}.cls-50{fill:#103332;}.cls-51{fill:#1b1a1f;}.cls-52{fill:#14151d;}.cls-53{fill:#a0afaf;}.cls-54{fill:#2b2e33;}.cls-55{fill:#47423c;}.cls-56{fill:#32353e;}.cls-57{fill:#63574b;}.cls-58{fill:#656060;}.cls-59{fill:#464a44;}.cls-60{fill:#4d5747;}.cls-61{fill:#382823;}.cls-62{fill:#3d2d28;}.cls-63{font-size:16.05px;fill:#25211b;font-family:GuttmanAharoni, Guttman Aharoni;}</style><clipPath id="clip-path"><path class="cls-1" d="M371.24,261.14c.6-7.32,1-8.25.89-12.48-.14-5.48-1.78-12.6-3.79-20.47a7,7,0,0,1-.19-2.54c.48-.3,5.44,10.61,12.9,18.55,4.19,4.47,14.37,15.3,29.42,16.94,11.49,1.26,20.47-3.43,25.86-6.24,13.12-6.85,24-19.45,27.65-26.75.27-.56,1.38-2.81,1.78-2.68.69.24-1.68,7.25-2.68,13.38-.31,1.94-3.78,24.85,8,34.77,3.2,2.7,6.89,3.88,14.27,6.25,9.1,2.92,12.3,2.08,15.15,5.35,4.31,4.94,2.45,13.13,1.79,16a35.37,35.37,0,0,1-9.81,16.94C472.12,338.66,444,362.44,436.33,369c-11.05,9.51-14.65,19.26-19.61,17.83-1.36-.39-4.2-1.94-7.14-19.62-2.73-16.4-2.47-28.26-6.24-46.37-1.55-7.45-3.1-12.68-7.13-14.26-5.11-2-9.54,3.65-15.16,1.78-5.21-1.73-7.22-8.53-8.92-14.27C369.37,284.8,370,276.41,371.24,261.14Z"/></clipPath></defs><g id="דמות"><g id="יד_שמאל" data-name="יד שמאל"><path class="cls-2" d="M193.11,707.11c.95,1.64.3,5-14.27,20.51-14.91,15.82-21.83,20.31-25,27.64a22.4,22.4,0,0,1-4.46,7.14c-2.23,2.37-3.93,3-7.13,5.35-4.12,3-5.58,5-8,7.13-8.3,7.4-19.17,9.27-22.3,9.81-9.26,1.59-9.45-1.25-17.83.89-3.58.92-3,1.3-16,6.24-6.39,2.43-9,3.26-12.48,3.57a28.52,28.52,0,0,1-10.7-.89c-2.14-.62-3.53-1.33-4.46-2.68a5.59,5.59,0,0,1-.89-4.46,5.86,5.86,0,0,1,1.78-2.67A10,10,0,0,1,54,782.91a25.4,25.4,0,0,1,5.35-1.79c3.18-.83,2.79-.59,3.57-.89,2.67-1,2.89-2.22,5.35-3.57a48.77,48.77,0,0,1,6.24-1.78c4.14-1.06,4.86-1.19,6.24-1.78,2.45-1.06,4.56-2.48,4.46-2.68a13.24,13.24,0,0,0-2.67.89c-1.22.43-9.34,3.25-15.16,0-1.65-.91-3.28-2.41-6.24-2.67-.64-.06-.56,0-1.79,0-3.59,0-5-.64-8-.89-3.62-.31-3.08.42-5.35,0-3.28-.61-3.9-2-7.14-2.68-2.13-.42-1.9.18-5.35,0-3.73-.19-3.82-.9-9.8-1.78-2.76-.41-3.29-.34-4.46-.89-1.71-.81-2.18-1.7-4.46-2.68-.88-.37-.79-.23-2.68-.89a33.48,33.48,0,0,1-4.45-1.78c-2.55-1.34-4-2.06-4.46-3.57-.36-1.08-.19-2.41-.89-2.67-.34-.13-.51.12-.9,0a2.12,2.12,0,0,1-.89-2.68,2.33,2.33,0,0,1,1.79-.89,20.24,20.24,0,0,1,8.91.89,12.89,12.89,0,0,0,3.57.89c1.5.11,1.51-.22,2.67,0s1.95.8,3.57.89a6.36,6.36,0,0,0,.89,0H42.41c4-.31,5.46-.88,11.59-1.78,3-.44,4.71-.68,7.14-.89,7.25-.63,9.19.09,14.26-.89,1.51-.3,1.31-.35,6.25-1.79,4.79-1.39,10.53-3,16.94-4.46,2.43-.53,1.83-.34,13.37-2.67a52,52,0,0,0,7.14-1.78,26.65,26.65,0,0,0,8.91-4.46c2.09-1.72,3.32-3.53,5.35-7.14,6.24-11,5.23-12.77,9.81-20.5,2.13-3.6,3.88-5.82,4.46-9.81.27-1.86.11-2.9.89-3.57,1.84-1.59,6.07,1.21,12.49,4.46,11.57,5.85,18.24,9.23,26.75,10.7C190.81,705.86,192.37,705.84,193.11,707.11Z"/><path class="cls-3" d="M96.8,784.69c-.25-1.78,16.44-1.84,32.11-11.59,5.92-3.69,12-11.08,24.07-25.86,18.35-22.42,19.84-28.12,18.73-33-1.82-8-10.1-11.63-8.92-13.38,1.34-2,12.48,2.68,25.86,8,1.88.75,3.81.49,4.46,1.78,1.54,3.05-6.66,8.06-16.94,19.62-4.93,5.54-3.43,4.8-13.38,16.94-8.62,10.52-12.07,13.9-13.38,15.16A125.36,125.36,0,0,1,135.15,774c-4.85,3.4-7.44,5.22-11.59,7.13a47.29,47.29,0,0,1-17,4.46C103.81,785.73,97,785.83,96.8,784.69Z"/><path class="cls-4" d="M155.66,699.09c0,13.37-8,26.75-8,26.75-6.5,10.88-9.76,16.32-15.16,19.62-6.4,3.9-9.83,2.48-30.31,4.45-17.07,1.65-16.6,2.81-28.54,3.57-18.84,1.2-33-.67-33-.89s11.53-.84,22.29-.89a23.64,23.64,0,0,0,7.13-.89c4.25-1.28,5.31-3,9.81-5.35,2.86-1.47,5.48-2.17,10.7-3.57,5.07-1.36,8-1.8,12.49-2.68,12.47-2.44,18.71-3.66,22.29-6.24,5.49-4,8.39-9.69,9.81-12.48,2.86-5.64,1.91-7.2,5.35-12.49,1.89-2.9,3.43-6,5.35-8.91a8.67,8.67,0,0,0,1.78-4.46c.09-1.57-.43-2.22,0-2.68,1-1,5.35.43,7.13,3.57A7.17,7.17,0,0,1,155.66,699.09Z"/><path class="cls-5" d="M144.06,700.87c1,.28-.58,10.9-4.45,21.4-2.11,5.7-3.2,8.51-5.35,10.7-4.48,4.55-10,4.87-21.4,6.24-18,2.17-24.9,4-25,3.57s8.27-2.4,14.27-3.57c5-1,5.49-.84,9.8-1.78,7.08-1.54,10.67-2.35,13.38-4.46,1.44-1.12,3.06-3.73,6.24-8.92,2.25-3.65,4.41-7.17,7.13-12.48C142.71,703.79,143.53,700.72,144.06,700.87Z"/><path class="cls-6" d="M5.45,751.52c.44.61-.08,1.07,0,2.13A4.63,4.63,0,0,0,7,756.5a8,8,0,0,0,2.38,1.42,8.07,8.07,0,0,1-4.76-2.13,10,10,0,0,1-1.59-2.14c-1-1.54-.9-1.92-.79-2.13a1.79,1.79,0,0,1,1.58-.71A2,2,0,0,1,5.45,751.52Z"/><path class="cls-4" d="M6.74,752.59c1.1-.53,2.49,1.12,5.35,2.67a33.27,33.27,0,0,0,4.46,1.79,50.86,50.86,0,0,0,9.81,2.67c5.39.78,5.39-.67,10.7,0,1,.13,1.57.25,9.81,2.68,8.59,2.53,8.75,2.63,9.81,2.67,5.76.23,6.67-2.56,11.59-1.78,4.3.68,4.76,3,8,2.67,3.78-.37,3.82-3.54,8-4.45,3.64-.79,5,1.29,9.81.89,3.63-.3,6-2.22,6.24-1.79s-1.51,2-3.57,3.57c-5.75,4.39-13.1,10-21.4,8.92-3.35-.44-3.58-1.54-9.8-2.68a71.1,71.1,0,0,0-8-.89c-3.12-.27-3.92-.5-19.62-3.57-4.46-.87-8.88-2-13.37-2.67-4.82-.75-8.7-1.12-13.38-3.57-1.85-1-5.42-2.89-5.35-5.35A2.09,2.09,0,0,1,6.74,752.59Z"/><path class="cls-5" d="M5.85,754.38c-.21.12.24,2,1.79,3.39,1.13,1,1.94.91,6.24,2.54,3.41,1.3,2.88,1.83,5.35,2.55a38.37,38.37,0,0,0,3.91.44c1.83.22,2.75.32,3.22.4,2.74.47,3.32,1.35,5.35,1.7,3.22.55,4.17-.29,7.13,0,2.7.26,2.5,1,7.14,2.54,3.68,1.22,7.34,2.38,11.59,1.7,2-.33,1.79-.68,3.57-.85,4.24-.4,5.28,2.1,8.91,1.7,2.54-.29,3.78-1.66,5.35-.85.91.46.87,1.1,1.79,1.69.73.48,2,.51,5.35,0,3.14-.46,4.7-1.77,8.91-4.24,1.85-1.08,3-1.75,5.29-2.88,1.61-.81,2.75-1.32,2.74-1.35A42.73,42.73,0,0,1,87,767.94c-10.1,2.07-13.16-2.89-25-.85a36.15,36.15,0,0,1-7.13.85c-3.68,0-8.08,0-11.6-2.54-2.27-1.67-2.55-3.22-4.46-3.39s-2.77,1.5-5.35,1.69c-2,.15-3.07-.76-5.35-1.69-.92-.38-3.62-.77-8.91-1.7-2.05-.36-3-.51-4.46-.85-2.71-.61-4.09-.93-5.35-1.69C7,756.31,6.08,754.24,5.85,754.38Z"/><path class="cls-4" d="M58.46,794.5a46.35,46.35,0,0,0,10.7-.89c5.7-.67,5.48-3.44,15.16-8a45.11,45.11,0,0,1,13.38-4.46c5-.74,7.07,0,12.48,0,10.59,0,17.66-3.22,17.83-2.67s-5.39,3.61-12.48,5.35c-8.71,2.14-10.07,0-18.73,1.78-2.44.51-7.57,2.42-17.83,6.24-7.32,2.73-8.16,3.19-10.7,3.57-8.49,1.26-16.11-1.35-16-1.78A21.38,21.38,0,0,0,58.46,794.5Z"/><path class="cls-7" d="M60.25,783.86a5.94,5.94,0,0,1,1.78,0c2.27.54,3.78,3.51,2.67,5a2.74,2.74,0,0,1-.89.73c-2.39,1.54-3.9,2.51-6.24,2.88a8.66,8.66,0,0,1-3.57,0,6.51,6.51,0,0,1-3.56-2.16,3.35,3.35,0,0,1-.89-2.89,3.72,3.72,0,0,1,1.78-2.17c1.08-.61,1.5-.22,4.46-.72A34.32,34.32,0,0,1,60.25,783.86Z"/><path class="cls-8" d="M54.88,792.67a7.37,7.37,0,0,1-.88-.15,6.58,6.58,0,0,1-3.56-2.16,4.22,4.22,0,0,1-.89-1.66h0a2.4,2.4,0,0,1,0-1.22,3.75,3.75,0,0,1,1.78-2.17,2.69,2.69,0,0,1,1-.34l.7-.07a5.86,5.86,0,0,0-.13,2.1,6.53,6.53,0,0,0,.24,1.7Z"/><path class="cls-8" d="M5,750.7c-3,.26-3.81.88-4.45.22a3.05,3.05,0,0,1-.16-3.3c.47-.55,1.16-.25,2.67-.13,1.79.14,1.9-.19,3.57-.17,0,0,1.49,0,7.23,1.86.64.39,1,.74.94,1.06,0,.65-1.49,1.11-2.62,1.22-2.07.21-2.66-.78-5.4-.84A16,16,0,0,0,5,750.7Z"/><path class="cls-9" d="M3.74,748.15c.36-.32,1.22,3.21,1.22,3.21H5s-1.47.75-1.83,0S3.49,748.38,3.74,748.15Z"/></g><g id="יד_ימין" data-name="יד ימין"><path class="cls-10" d="M763.51,806.3a8.14,8.14,0,0,1-2,.91c.63-.26,1.12-.49,1.43-.63Z"/><g id="יד_ימין-2" data-name="יד ימין"><path class="cls-2" d="M698.7,778.45c.59.41,1.52,1,2.67,1.78,6.8,4.37,10.2,6.56,14.27,7.13,3.15.45,4.33-.27,7.13.9,1.89.78,1.85,1.31,4.46,2.67a62.41,62.41,0,0,0,7.14,2.68c2.15.74,3.44,1.18,5.35,1.78a62.59,62.59,0,0,0,6.24,1.78c2,.43,2,.25,6.24.89s3.61.73,5.35.9c4.48.43,5.94-.36,7.13.89a3.69,3.69,0,0,1,.89,3.57c-.31.75-1,1.16-.89,1.78.11.46.6.55.89.89.87,1-.25,3.49-.89,4.46-3.22,4.89-16.08,3.23-21.4,1.78-2.36-.64-4.86-.86-7.13-1.78a7.63,7.63,0,0,0-4.46-.89c-1.26.22-1.38.71-2.68.89s-1.66-.26-4.45-.89c-2.53-.58-2.65-.32-4.46-.89a19.51,19.51,0,0,0-2.68-.9c-1.47-.26-1.87.06-3.56,0a14.29,14.29,0,0,1-4.46-.89,13.6,13.6,0,0,1-3.57-1.78c-1.79-1.27-2-2.15-3.57-2.68-1-.33-2.39-.51-2.67,0s.83,1.71,2.67,3.57c2.21,2.23,2.66,2.25,3.57,3.57,1,1.5.84,2,1.78,3.56,1.09,1.74,1.94,1.56,3.57,3.57a29.31,29.31,0,0,1,1.78,2.68c2,3.19,1.53,2.66,2.68,4.45a10.22,10.22,0,0,1,1.78,3.57,3.08,3.08,0,0,1,0,1.78,3.37,3.37,0,0,1-1.78,1.79,8.26,8.26,0,0,1-4.46.89c-5.29-.41-10.54-4.6-12.48-6.24-2.15-1.82-1.14-1.29-6.24-6.24-2.52-2.45-1.22-1.08-8.92-8-2.84-2.57-4-3.68-6.24-4.46a25,25,0,0,0-5.35-.89c-5.32-.59-6.05-.16-8-.89s-4.9-2.41-5.35-4.46c-.79-3.58,6.22-8.88,16.94-13.38Z"/><path class="cls-4" d="M708.51,799.85c6.34-.86,8.61-1.82,12.48-.89.91.21.57.22,2.67.89a76.48,76.48,0,0,0,11.6,2.67c6.67,1,5.81-.1,12.48.9a71.45,71.45,0,0,0,9.81.89c2,0,5.31,0,6.24-1.79.36-.68.42-1.72.89-1.78s.73.49.89.89c.57,1.37-.53,3-.89,3.57-2.73,4.11-16,2.67-16,2.67a278.93,278.93,0,0,1-32.1-3.56c-2.61-.45-14.38-2.47-14.27-3.57C702.3,800.34,703.85,800.48,708.51,799.85Z"/><path class="cls-3" d="M700.57,802a32.45,32.45,0,0,0,8.34,1.28,31.49,31.49,0,0,0,4.13-.18l3.58-.83c.41.23,1,.56,1.77.92A28.32,28.32,0,0,0,729,806a49.94,49.94,0,0,0,5.35.09,3.23,3.23,0,0,1,.89,0,3.47,3.47,0,0,1,1.77.93c1.33,1.2,5.73,1,7.12,1,5.56-.11,5.48,1.28,9.79,1.05a25.49,25.49,0,0,0,9-2.53l1.8-.86a10.39,10.39,0,0,1,.87.91c.64.83.1,2.3,0,2.67-.92,2.5-5.52,3.33-6.3,3.46,0,0-9.39,1.64-27.59-3.13a32,32,0,0,1-8.92-.15s-.49-.14-5.32-1.87h0A22.43,22.43,0,0,1,700.57,802Z"/></g><path class="cls-10" d="M762.92,806.58l.59-.28a8.14,8.14,0,0,1-2,.91C762.12,807,762.61,806.72,762.92,806.58Z"/><path class="cls-10" d="M763.79,802.52a2,2,0,0,1-.45.59C763.44,802.79,763.58,802.55,763.79,802.52Z"/><path class="cls-10" d="M764.68,805.2a3.74,3.74,0,0,1-.25.66h0l-.88.41A4,4,0,0,0,764.68,805.2Z"/><path class="cls-6" d="M763.51,806.3a8.14,8.14,0,0,1-2,.91c.63-.26,1.12-.49,1.43-.63Z"/><path class="cls-5" d="M662.14,800.74c1.23,1.44,2.76,1.78,7.13,2.68,8.9,1.81,8.23,1.55,8.92,1.78a27.85,27.85,0,0,1,10.7,7.13c2.23,2.24,3.1,3.78,6.24,6.24,1.38,1.08,2.1,1.48,3.57,2.68,2.85,2.32,3.41,3.52,5.35,5.35,4.13,3.89,8.19,4.9,8,5.35s-4.06.19-8-1.78c-3-1.49-3.74-2.81-8.92-8a132.67,132.67,0,0,0-10.7-9.81c-3.2-2.6-4.8-3.9-6.24-4.46-4.36-1.7-6.19,0-12.49-1.78a13.81,13.81,0,0,1-6.24-3.57c-.65-.68-2.32-2.4-1.78-3.56a1.84,1.84,0,0,1,1.78-.9C660.7,798.18,661.17,799.61,662.14,800.74Z"/><path class="cls-7" d="M705.83,823.92l6.24,7.14a4.1,4.1,0,0,0,3.57,0c1.67-.93,1.79-4.5,1.78-4.46a32.13,32.13,0,0,0-2.67-3.57c-1-1.14-6-5.95-4.46-4.46l0,0a12.58,12.58,0,0,0-4.11,4.7c-.18.37-.31.63-.32.63"/><path class="cls-8" d="M717.42,826.6s-.1,3.53-1.78,4.46a4.05,4.05,0,0,1-3.57,0c-.24-.27-.47-.55-.71-.81,3.13-2.41,4.58-4,5.06-5.11C716.75,825.58,717.08,826.06,717.42,826.6Z"/><path class="cls-5" d="M764.68,805.2c.09-.06.57.34.89.89a4.12,4.12,0,0,1,0,3.48.39.39,0,0,1,0,.09c-.34.77-1.06,1.58-3.56,2.67a22.37,22.37,0,0,1-6.24,1.79c-5.53.5-8.47-.93-19.62-2.68-2.88-.45-5.33-.77-6.24-.89-3.62-.47-4.35-.42-8-.89-2.58-.33-2.29-.36-6.24-.89-5.5-.76-5.32-.61-6.24-.9-1.92-.59-2.39-1.12-7.14-3.56-3.3-1.71-3-1.39-3.56-1.79-1.31-.86-2.68-2-6.24-7.13-2.7-3.84-3.79-5.15-3.57-5.35s2.69,2.8,7.13,5.35,9,5.12,10.7,5.35c5.82.77,7.3,1.83,10.7,3.57,2.44,1.24,1.91-.5,5.35,1.78,3,2,5.72,1,8,1.78,2.54.81,2.54.55,7.13,1.79,4.07,1.09,4.08,1.3,6.24,1.78a38.82,38.82,0,0,0,8.92.89c5.8,0,8.46-1.09,9.81-1.78,1.86-.95,2.57-1.81,2.67-2.68C765.73,806.58,764.53,805.3,764.68,805.2Z"/></g><g id="פנים"><path class="cls-2" d="M490.93,141c-.38,12.08-3.19,6-14.26,57.67a106.25,106.25,0,0,1-10.7,28c-3.05,5.59-5.41,13.22-13.38,20.36-4.13,3.7-21.51,19.27-43.69,16.11-15.36-2.18-25-12.19-31.21-18.66-1.82-1.89-4.74-7-10.23-18a147.55,147.55,0,0,1-6.71-15.93c-4.24-11.81-12.19-29.45-12.49-53.44-.16-13.35-.54-44.44,16.12-71.5A88,88,0,0,1,378.58,68c7.1-6.76,18.36-17.5,35.67-19.51,30.48-3.53,53.53,23.07,57.07,27.15C492.23,99.8,491.31,129.08,490.93,141Z"/><path class="cls-11" d="M489.15,151.15a9.36,9.36,0,0,1,4.46-2.54c1.05-.25,2.54-.61,3.56,0,1.87,1.1,1.4,4.86.9,7.63-1.5,8.32-4.32,13.58-6.25,18.66-2.16,5.72-1.24,9.27-3.56,15.27A26.34,26.34,0,0,1,483.8,197c-1.76,2-2.68,2.57-3.57,2.54-1.84-.07-3.11-2.51-3.56-3.39C473.28,189.58,485.77,159.22,489.15,151.15Z"/><path class="cls-11" d="M349.15,161.33a24.65,24.65,0,0,0-8-8.48,4.31,4.31,0,0,0-2.68-.85c-2.06.16-3.37,2.23-3.56,2.55-.67,1-1.6,3.33.89,10.17,1.76,4.83,2.81,5.3,5.35,11,1,2.29.39,1.2,3.57,9.33.42,1.1,2.06,4.41,5.35,11a9,9,0,0,0,2.67,3.39c1,.73,3.21,2.11,4.46,1.7C361.92,199.64,354.34,171.72,349.15,161.33Z"/><path class="cls-12" d="M426.73,267.36c3.13,2.33,26.48-14.14,39.24-38.17,2.35-4.44,9.8-11.88,11.59-31.39,1.63-17.86,8.89-25.53,9.81-29.68,2-9.09,6.26-29.62-1.79-52.59-3.72-10.63-9.86-28.17-27.64-37.32s-42-7-44.58,0c-2.13,5.81,22.5,11.45,45.47,39,14.17,17,16.24,23.69,15.16,29.68-1,5.51-4.59,10.18-3.57,18.66.65,5.35,2.48,6.81,3.57,11,2.46,9.55-3.54,15.13-8.92,28.84-8.88,22.66-11.34,28.19-20.51,37.32"/><path class="cls-13" d="M385.71,259.72c-2.55-2-7-10.1-16-26.29-4.31-7.77-5.55-10.38-6.24-11.88-1.19-2.6-4.16-9.28-8-22.9a189.86,189.86,0,0,1-5.35-22.05c-2.06-12.29-4.3-25.76,0-41.56,1.95-7.18,5.05-18,15.15-27.14,7.94-7.16,18.86-12.07,20.51-10.18,2.46,2.8-20.49,14.93-26.75,39-3.84,14.81-10.73,35.81,0,51.74,5.35,7.94,4,12.12,8,23.75,3.87,11.28,7.44,12.92,11.59,20.36,4.38,7.86,21.35,39.73,37.45,49.19"/><path class="cls-14" d="M417.81,86.69c-21.84,29.7-47.09,40.41-54.39,61.07s10.48,30.51,3.57,72.1c-.43,2.56-.87,4.74-1.31,6.6A149.44,149.44,0,0,1,359,210.53c-4.23-11.81-10.4-29.45-10.7-53.44-.16-13.35-.54-44.44,16.12-71.5a109,109,0,0,1,16.87-6.53c13.9-4.23,36.07-7.22,39.24-.85C421.9,81,419.13,84.9,417.81,86.69Z"/><g id="שפתיים"><path class="cls-15" d="M397.31,213.92c4.93,1.51,4.45-.85,6.24-.85s6.11-.91,8-.85,1.94,1,4.46,1.7c1,.3,3.77,1.07,6.24,0,1.45-.63,1.39-1.27,2.68-1.7,1.93-.64,3.68.27,5.35.85,5.74,2,10.5,0,10.7.85s-3.45,2.37-7.14,3.39c-6.71,1.87-12.43,1.37-17.83.85a79.24,79.24,0,0,1-13.37-2.54C400.46,215,398.63,214.39,397.31,213.92Z"/><path class="cls-16" d="M392,212.22a70.43,70.43,0,0,0,11.59,7.64c3.92,2,7.39,3.72,12.48,4.24,7.08.72,11.77-2.25,14.27-3.39,6.89-3.16,11.81-7.39,11.59-7.64s-2,.05-5.35.85a19.7,19.7,0,0,1-6.24.85s-5.31.75-12.49,2.54h0s-3.85-1.16-6.24-1.69c-5.12-1.15-5.93,0-10.7-.85A47.15,47.15,0,0,1,392,212.22Z"/><path class="cls-17" d="M390.17,211.38c.06-.17,4.83,2.7,10.7,1.69,5.35-.91,6.79-4.22,10.7-3.39,2.53.53,3.91,2.32,6.24,1.7,1.38-.38,1.43-1.14,2.68-1.7,2.74-1.23,5.41,1.18,9.81,2.54,6.39,2,11.5.22,11.59.85s-3.35,1.82-7.13,1.7c-2.61-.09-2.87.08-5.35,0-3.54-.13-4.35.36-8,.85-3.12.41-3.53-.41-8.92-.85s-5.6.31-9.8,0C395.37,214.23,390.12,211.55,390.17,211.38Z"/></g><g id="אף" class="cls-18"><path class="cls-4" d="M407.11,137.58c.88-.27,6.52,7.31,6.25,16.12-.11,3.43-.54,5-1.57,12.45a32.71,32.71,0,0,0-.22,6.21,36.34,36.34,0,0,0,3.57,14.42c.29.58,1,1.07.89,1.69-.46,1.87-7.17,1.72-8,1.7-3.62-.08-5.72-.13-7.14-1.7s-1.15-3.6-.89-5.93a24.83,24.83,0,0,1,2.68-8.49c2.91-6,4.49-9.11,5.35-12.72,1.2-5,.71-9.56,0-16.11C407.43,139.88,406.67,137.72,407.11,137.58Z"/><path class="cls-19" d="M407.11,187.63c-.94-.58-1.88-1.14-1.78-1.7.15-.89,2.91-1.78,4.46-.85,1.09.65.89,1.78,2.67,3.39.63.57,1,.71.9.85C413.18,189.77,409.86,189.29,407.11,187.63Z"/><path class="cls-19" d="M420.49,189.32c-.09-.11.07-.33,2.67-3.39a3.5,3.5,0,0,1,.9-.85,3.82,3.82,0,0,1,3.56,0c.32.16.9.45.89.85s-.24.51-.89.85a8.45,8.45,0,0,1-2.67.85C422.18,188,420.75,189.64,420.49,189.32Z"/><path class="cls-19" d="M428.51,168.12c-.29.13,2.62,9.59,5.35,13.57a4.29,4.29,0,0,1,.9,2.54,5,5,0,0,1-1.79,3.4,9.94,9.94,0,0,1-3.56,1.69c0,.18,2.36.29,4.45-.85.4-.21,3.28-1.77,3.57-4.24.23-1.9-1.21-3.3-2.67-5.09C430.06,173.41,428.74,168,428.51,168.12Z"/><path class="cls-19" d="M406.22,165.57c-.05,0-4.39,12.89-5.35,17.82a3.85,3.85,0,0,0,0,1.69c.67,2.86,4.78,4.48,4.78,4.47s-.21-.15-.32-.23c-.87.18-3.61.64-5.35-.85-2.19-1.86-1.36-5.54-.89-7.63.69-3.1,1.79-3.8,4.46-9.33C404.77,169,406.25,165.58,406.22,165.57Z"/></g><g id="גבות"><path class="cls-4" d="M406.22,147.76c.89-.46-1.8-4.14-3.56-11.87a5.16,5.16,0,0,0-1.79-3.4c-1.78-1.23-4.2-.4-6.24,0-6.88,1.37-8-2.47-15.16-1.69A21.84,21.84,0,0,0,367,136.73c-2.29,2.17-3,2.22-2.68,2.55s2.93-1.87,8.92-3.39c3.25-.83,6.92,0,14.27,1.69,5.38,1.23,8.07,1.85,10.7,3.4C403.56,144.13,405.34,148.22,406.22,147.76Z"/><path class="cls-4" d="M433,132.49c-2.49,3.12-2.8,8.12-.89,9.33,1.74,1.11,5.62-1.24,13.38-5.93,6.15-3.73,7.59-5.21,10.7-5.09,3.41.13,7.25,2.14,8,2.54,2.8,1.46,4.1,2.84,4.46,2.55.54-.44-1.11-4.47-4.46-6.79-.92-.64-3.83-2.44-16.94-.85C435.53,129.67,433.68,131.61,433,132.49Z"/><path class="cls-20" d="M432.08,135c1.95,1.53,5.81-.45,18.73-4.24a15,15,0,0,1,5.35-.85,17.58,17.58,0,0,1,8.91,3.39c3.38,2.26,4.92,4.54,5.35,4.24s-.73-2.62-1.78-4.24a17.06,17.06,0,0,0-6.24-5.94,17.29,17.29,0,0,0-4.46-1.69c-1.66-.38-3.32-.5-8,0-3.56.37-6,.79-11.6,1.69l-4.54.73a2.57,2.57,0,0,0-1.39.68l-.59.56a2.39,2.39,0,0,0-.74,1.46C430.76,133.49,431.46,134.55,432.08,135Z"/><path class="cls-20" d="M402.66,135.89c-1.67,1.7-5.51-.29-14.27-1.7-5.15-.83-7.72-1.24-10.7-.85-8.17,1.07-12.71,6.63-13.38,5.94s2.42-4.94,7.14-7.63a22.82,22.82,0,0,1,8-2.55c4.67-.81,8.39-.51,14.27,0,3,.26,5.48.6,7.13.85l1.79.85C403.74,133.85,403.31,135.22,402.66,135.89Z"/></g><g id="עיין_ימין" data-name="עיין ימין"><path class="cls-21" d="M432.08,150.31c1.51-5.76,7.6-8.39,9.81-9.33a17.71,17.71,0,0,1,9.81-1.7,17.11,17.11,0,0,1,9.81,5.09c3.09,3.27,2.16,5.25,6.24,9.33,1,1,1.8,1.61,1.78,2.54,0,2.51-5.55,4.29-8,5.09a30.74,30.74,0,0,1-15.16,1.7c-3.33-.52-12.25-1.9-14.27-7.64A8.45,8.45,0,0,1,432.08,150.31Z"/><path class="cls-4" d="M433.28,151.64c-.45-.53,3.66-5.67,10.33-8.92,2.66-1.3,11.6-5.66,17.83-1.78,3.22,2,5,5.72,5.64,7.13.18.4,1.51,3.22.93,3.57s-2.72-3.26-6.57-5.35c-5.08-2.77-11-1.54-14.08-.9C438.59,147.22,433.75,152.19,433.28,151.64Z"/><path class="cls-22" d="M433.86,153.7c-.3-2.19,7.21-6.53,8-6.79,4-1.25,6.41-2,9.81-1.69,6.29.59,10.75,4.44,12.48,5.93.77.67,1.37,1.27,1.79,1.7a27.69,27.69,0,0,1-7.14,3.39c-7.67,2.37-13.6.49-23.18-2.54C434.47,153.33,434,154.55,433.86,153.7Z"/><path class="cls-23" d="M454.37,145.67v1.24a7.36,7.36,0,0,1-2.67,5.94,7,7,0,0,1-5.35.85l-.28-.07c-.45-.12-3.23-.92-4.18-3.32a4.23,4.23,0,0,1,0-3.4c4-1.25,6.41-2,9.81-1.69A17.09,17.09,0,0,1,454.37,145.67Z"/><path class="cls-24" d="M465.59,152.72a27.51,27.51,0,0,1-7.13,3.39c-.66.21-1.31.38-2,.52-.91-.48-1.66-1.13-1.68-1.86,0-1.32,2.34-1.53,2.67-3.39.18-1-.43-1.36-.89-4.24-.05-.32-.08-.57-.1-.78a26,26,0,0,1,7.31,4.66C464.57,151.68,465.18,152.29,465.59,152.72Z"/><path class="cls-25" d="M441.63,155.53c-1.84-.53-3.82-1.14-6-1.83-1.18-.37-1.67.85-1.79,0-.16-1.19,2-3,4.08-4.46a4.83,4.83,0,0,0,1.27,2.76c.73.76,1.24.8,1.79,1.7A4.86,4.86,0,0,1,441.63,155.53Z"/><path class="cls-26" d="M461.62,149.31c-9.19-1.14-22.78,3.51-26.81,2.59a28.85,28.85,0,0,1,7-4.83c4-1.26,6.41-2,9.81-1.7A20.56,20.56,0,0,1,461.62,149.31Z"/><path class="cls-27" d="M461.62,149.31c-9.19-1.14-22.78,3.51-26.81,2.59a28.85,28.85,0,0,1,7-4.83c4-1.26,6.41-2,9.81-1.7A20.56,20.56,0,0,1,461.62,149.31Z"/><path class="cls-28" d="M448.13,146.06c-.15.36.8.72.89,1.7.05.47-.13.79,0,.85s.65-.35.9-.85c.1-.2.56-1.14,0-1.7S448.27,145.72,448.13,146.06Z"/><path class="cls-29" d="M434.76,152a35.07,35.07,0,0,1,7.13-4.24,20.88,20.88,0,0,1,5.35-1.7,18.3,18.3,0,0,1,15.16,4.25c.44.35,1.13.74,2.67,1.69a16.77,16.77,0,0,0,3.57.85s-3.6-2.75-5.35-4.24a20.49,20.49,0,0,0-19.62-3.39A19.31,19.31,0,0,0,434.76,152Z"/></g><g id="עיין_שמאל" data-name="עיין שמאל"><path class="cls-21" d="M401.76,153.7a12.22,12.22,0,0,1-5.35,6.78c-9.49,5.54-22.07-4.55-30.31.85a8.34,8.34,0,0,0-3.57,4.24c-1.08,3.41-5,6.64-5.35,6.79s1.22-3.7,0-9.33c-1.29-6,1.06-14.36,7.13-18.66,3.57-2.53,7.66-2.89,13.38-3.39,1.36-.12,4.17-.08,9.81,0,8.07.11,8.88.31,9.81.84C401.07,144,403,149.32,401.76,153.7Z"/><path class="cls-4" d="M401.14,150.74c.45-.87-5.72-6.46-14.26-8-2.87-.52-10.23-1.86-15.16,2.67-3.3,3-4.74,8-3.57,8.92,1.47,1.18,5.52-5.24,13.38-7.13C391.74,144.72,400.62,151.78,401.14,150.74Z"/><path class="cls-22" d="M400.87,153.52c-.1.4-.68-.38-1.78,0a33,33,0,0,0-5.35,2.65,14.59,14.59,0,0,1-2.76,1,26.75,26.75,0,0,1-6.18.75,33.84,33.84,0,0,1-8-.84,30.15,30.15,0,0,1-4.46-1.4c-.32-.12-.63-.26-.89-.37a21.23,21.23,0,0,1,8-6.19l.13-.06c.32-.13,1-.39,1.89-.67a21.84,21.84,0,0,1,11.14-.45c.37.08.73.18,1.11.29a15,15,0,0,1,2.61,1.1c2.09,1.12,3.92,2.64,4.41,3.63A.93.93,0,0,1,400.87,153.52Z"/><path class="cls-23" d="M392,153.52a6.18,6.18,0,0,1-6.25,1.77c-1.93-.52-4.08-2.08-4.46-4.42a5.1,5.1,0,0,1,.24-2.5,21.84,21.84,0,0,1,11.14-.45,3.15,3.15,0,0,1,.22.29C393.86,149.83,393.08,152.17,392,153.52Z"/><path class="cls-24" d="M384.8,157.9a33.84,33.84,0,0,1-8-.84,30.75,30.75,0,0,1-5.35-1.77,21.23,21.23,0,0,1,8-6.19l.13-.06c-.21,1.14-1.61,2.52-1,4.48s3.07,3.3,3.57,3.54C383.63,157.76,384.68,157.66,384.8,157.9Z"/><path class="cls-25" d="M400.87,153.52c-.1.4-.68-.38-1.78,0a33,33,0,0,0-5.35,2.65,14.59,14.59,0,0,1-2.76,1l.08-.09c2.54-2.91,4.69-3,5.35-5.31a4.2,4.2,0,0,0-.06-2.44C398.92,150.69,401.08,152.67,400.87,153.52Z"/><path class="cls-28" d="M388.39,148.21c-.14.21-.09.46,0,.89.21,1,.73,1.82.89,1.77s-.07-.37,0-.89c.14-1,1-1.4.89-1.77S388.74,147.69,388.39,148.21Z"/><path class="cls-27" d="M400.76,152.94c-1.54-.16-4.51-1.76-9.7-2.07a29.38,29.38,0,0,0-15.16,2.65,34.65,34.65,0,0,0-3.56,2.14c-.32-.12-.63-.26-.89-.37a21.23,21.23,0,0,1,8-6.19l.13-.06c.32-.13,1-.39,1.89-.67a21.84,21.84,0,0,1,11.14-.45c.37.08.73.18,1.11.29a15,15,0,0,1,2.61,1.1C398.44,150.43,400.27,152,400.76,152.94Z"/><path class="cls-29" d="M400.87,153.52a7.32,7.32,0,0,1-1.78-1.77c-3.8-4.59-13.38-3.54-13.38-3.54a18.54,18.54,0,0,0-10.7,3.54,21.08,21.08,0,0,0-3.56,3.54,6.39,6.39,0,0,1-3.57.88s3.12-2.87,6.24-5.3a22.17,22.17,0,0,1,11.59-4.43c2.27-.2,9.91-.86,13.38,3.54A9.87,9.87,0,0,1,400.87,153.52Z"/></g><g id="משקפיים"><path class="cls-4" d="M428.51,154.55a3.5,3.5,0,0,1,1.79,2.54,3.63,3.63,0,0,1,0,2.55c-.05.1-.74,1.66-1.79,1.69-1.43,0-3-2.81-2.67-5.09a2.17,2.17,0,0,1,.89-1.69A2.12,2.12,0,0,1,428.51,154.55Z"/><ellipse class="cls-4" cx="406.67" cy="158.36" rx="2.23" ry="3.82"/><path class="cls-30" d="M426.73,149.46c-.75.19,0,4.85,0,5.09a32.38,32.38,0,0,0,2.68,8.48c2.69,6.07,4,9.1,6.24,11a23.67,23.67,0,0,0,8,4.25,28,28,0,0,0,7.14,1.69c2.36.22,8.33.76,13.37-2.54,3.27-2.14,4.58-4.88,7.14-10.18a47.3,47.3,0,0,0,3.56-11c.89-4.49,1.23-6,.89-7.63-.38-1.9-1.18-3.3-2.67-5.94a22.2,22.2,0,0,0-3.57-5.09,18.63,18.63,0,0,0-4.46-3.39,19.74,19.74,0,0,0-4.45-1.7,30.58,30.58,0,0,0-8-.84c-3.84,0-6.09,0-8.92.84-3.62,1.07-5.94,2.83-8.91,5.09a45.26,45.26,0,0,0-7.14,6.79,1.39,1.39,0,0,0,0,.85,1.37,1.37,0,0,0,.89.84c.89.19,2-1.54,2.68-2.54,2.64-3.66,6.42-5.54,8.92-6.79a17.22,17.22,0,0,1,4.45-1.69c2.58-.55,4-.16,8,0,5.54.22,4.76-.43,7.13,0a19.79,19.79,0,0,1,8.92,4.24,18.44,18.44,0,0,1,1.78,1.7,17.89,17.89,0,0,1,3.57,5.08,12.86,12.86,0,0,1,.89,2.55c.56,2.47,0,4.48-.89,7.63-1.54,5.25-2.37,7.85-2.67,8.48-1.72,3.6-3.66,7.68-8,10.18S454.65,177,449,176.6c-4.73-.35-7.64-.57-10.7-2.55-4.05-2.62-6-6.77-7.13-9.33a32.25,32.25,0,0,1-1.78-5.08,51.91,51.91,0,0,1-1.79-9.33C427.34,149.86,427,149.39,426.73,149.46Z"/><path class="cls-30" d="M480.23,147.76c2.46,1.43,3.38,1.56,4.46,2.55.5.45.82.89.89.84s4.94,3.31,4.46,2.55-6.23-5.84-7.13-6.79-1.85-1.94-2.68-1.69a1.49,1.49,0,0,0-.89,1.69C479.46,147.3,479.8,147.51,480.23,147.76Z"/><path class="cls-30" d="M474,144.37h5.35a1.94,1.94,0,0,1,.89.85,2.2,2.2,0,0,1,0,1.69,3.53,3.53,0,0,1-.89,1.7c-.93.93-2.68,1.46-3.57.85-.52-.36-.44-.9-.89-2.55A19.52,19.52,0,0,0,474,144.37Z"/><path class="cls-30" d="M428.32,146.8c-.12.45-.24.9-.35,1.35a1,1,0,0,1-1.5.62,18,18,0,0,0-5.09-1.86c-7.6-1.51-13.78,2.46-15.16,3.4a3.81,3.81,0,0,1,0-1.7,4.67,4.67,0,0,1,.89-1.7c1.24-1.46,3.71-2.16,5.35-2.54a23.25,23.25,0,0,1,7.14-.85,21,21,0,0,1,8.21,2.18A1,1,0,0,1,428.32,146.8Z"/><path class="cls-30" d="M407.11,151.15a31.15,31.15,0,0,1,0,9.33c-.88,5.21-3.44,9-6.24,12.73-2.56,3.45-3.74,5.25-6.24,6.78-3.85,2.36-7.72,2.47-10.7,2.55-3.76.1-11,.3-16.05-4.24-1.65-1.49-2.89-4.1-5.35-9.33-2.12-4.5-3.19-6.82-3.57-10.18a24,24,0,0,1,.89-9.33c.87-3.2,2.08-7.68,6.25-11a17.22,17.22,0,0,1,4.45-2.54c1.59-.66,3.29-1.13,12.49-1.7,4.85-.3,5.83-.26,7.13,0a20.68,20.68,0,0,1,6.24,2.54s6.62,3.57,8.92,7.64a8.61,8.61,0,0,1,.89,2.54c.1.53.28,1.59,0,1.7-.48.19-2.06-2.47-2.67-3.39-3.16-4.76-9.4-6.52-13.38-7.64s-12.95-3.64-20.51.85a20.81,20.81,0,0,0-6.24,5.94,21.63,21.63,0,0,0-3.57,8.48,22,22,0,0,0,.9,11A22.5,22.5,0,0,0,367,174.05,24.47,24.47,0,0,0,379.47,180c2.71.5,7.89,1.47,13.38-.85,6.28-2.65,9.09-8,10.7-11A37.78,37.78,0,0,0,407.11,152C407.11,151.73,407.1,151.15,407.11,151.15Z"/><path class="cls-30" d="M358.07,148.61a2.78,2.78,0,0,1,0,2.54,2.31,2.31,0,0,1-.89.85c-1.14.62-1.94-.16-3.57,0a6.73,6.73,0,0,0-3.56,1.7c-1.18,1-5.35,2.54-5.35,2.54a45,45,0,0,0,3.56-4.24,4.63,4.63,0,0,1,2.68-1.69A39.47,39.47,0,0,1,358.07,148.61Z"/><path class="cls-30" d="M359.85,147.76a1.48,1.48,0,0,0-1.78,0c-.43.43.12,1,0,2.55-.07.92-.31,1.44,0,1.69a.91.91,0,0,0,.89,0c.18-.08.58-.32.89-1.69S360.34,148.18,359.85,147.76Z"/></g></g><g id="צאוור"><path class="cls-2" d="M502.52,301.39a35.32,35.32,0,0,1-9.8,16.94c-9.21,9.24-20,19.18-29.79,27.89-11.85,10.56-22.19,19.33-26.39,22.94-11.06,9.52-14.66,19.26-19.62,17.83-1.35-.39-4.19-1.94-7.13-19.61-.57-3.44-1-6.68-1.38-9.82-1.42-11.83-1.88-22.25-4.86-36.55-1.55-7.46-3.11-12.68-7.14-14.27-5.11-2-9.54,3.66-15.16,1.79a7.59,7.59,0,0,1-1.55-.73,13.17,13.17,0,0,1-4.85-6.21,60.94,60.94,0,0,1-2.51-7.33c-2.06-6.95-2.25-13.38-1.69-22.5.2-3.14.48-6.59.8-10.49.59-7.32,1-8.26.89-12.49a67.73,67.73,0,0,0-3.79-20.47c-.22-.61-.83-1.72-.67-1.82.47-.29,5.92,9.9,13.37,17.83,4.2,4.47,14.38,15.31,29.43,16.95,11.49,1.25,20.47-3.43,25.86-6.25,13.12-6.84,24-19.44,27.64-26.75.28-.55,1.38-2.81,1.79-2.67.68.24-1.68,7.24-2.68,13.37-.06.38-.24,1.51-.4,3.19-.64,6.6-1.06,21.52,6.75,30a18.31,18.31,0,0,0,1.68,1.61c3.2,2.69,6.89,3.88,14.26,6.24,9.11,2.93,12.31,2.08,15.16,5.35C505.05,290.29,503.18,298.48,502.52,301.39Z"/><g class="cls-31"><path class="cls-4" d="M385.71,278.21c1.64-5.83.67-10.24,1.79-10.7S390.32,270,392,272c7.52,8.92,21.17,9.56,21.4,8.91.12-.36-3.86-1.27-8.92-5.35a36.13,36.13,0,0,1-5.35-5.35c-2.65-3.24-6.35-8.83-5.35-9.81s4.13,3,9.81,5.35c9.05,3.81,20.36,2.35,28.53-1.78,7.5-3.79,11.44-9.37,13.38-8,1.31.91.69,4.3,0,6.24-1.87,5.26-6.47,6.15-6.25,8.91.24,2.94,5.51,2.88,6.25,6.25s-4.06,4.57-6.25,11.59c-1,3.23-.39,4.27-1.78,7.13-2,4.14-5.48,6.07-5.35,6.24.32.44,18.88-14.07,21.4-11.59.9.89-1.35,2.86-.89,7.14.22,2,.82,2.42,4.46,9.8,1.75,3.56,1.9,4,2.67,4.46,2.52,1.38,5.34-1.26,10.7-3.56,2.8-1.21,13.81-5.93,21.4-1.79,3.16,1.72,3.48,3.75,5.35,3.57,3.92-.39,7.74-9.75,6.25-17.83s-7.91-13-10.7-15.16c-7.86-6.07-13.27-4.79-20.51-11.6-.6-.55-3.15-3.94-6.24-8a13.81,13.81,0,0,1-2.68-3.57,10.78,10.78,0,0,1-.89-4.46,46,46,0,0,1,1.78-14.26c.05-.14.63-3.07,1.79-8.92,0-.26.15-.82,0-.89-.51-.23-3.16,4.88-4.46,7.13-5.34,9.22-13.74,14.66-21.4,19.62-4.22,2.73-7.09,4.59-11.6,6.24a39.05,39.05,0,0,1-18.72,2.68c-8.92-1.08-14.89-5.46-19.62-8.92-8.21-6-13.48-13.46-17.83-19.62-.23-.32-3.48-5.22-3.57-5.35s-.34-1.23-.38-1.27c-.47-.47-.49.37-.51.38-.25.07,1.77,7.11,2.67,11.59.39,1.91.63,3.63.9,21.4.12,8.38.11,10.58,1.78,13.38,1.3,2.18,3.54,3.83,8,7.13.61.45,1.68,1.21,2.68.89S385.45,279.14,385.71,278.21Z"/></g><path class="cls-32" d="M404.44,362.92c3.49-8.87,17-12.43,37.45-17.83,9.43-2.49,19.8-4.22,29.43-12.49,1.37-1.18,3.25-2.94,3.56-2.67.82.71-10.34,13.74-24.07,32.1-19.23,25.7-21.34,32.2-27.65,32.1C412.31,394,399.93,374.35,404.44,362.92Z"/><path class="cls-33" d="M469.8,275a2,2,0,1,1-.27-4,2,2,0,1,1,.27,4Z"/><path class="cls-33" d="M469.79,279a2,2,0,1,1,0-4,2,2,0,1,1,0,4Z"/><path class="cls-33" d="M469.49,283a2,2,0,1,1,.3-4,2,2,0,1,1-.3,4Z"/><path class="cls-33" d="M468.91,286.9a2,2,0,1,1,.58-3.93,2.06,2.06,0,0,1,1.89,2.29A2,2,0,0,1,468.91,286.9Z"/><path class="cls-33" d="M468.05,290.78a2,2,0,1,1,.86-3.88,2,2,0,1,1-.86,3.88Z"/><path class="cls-33" d="M466.93,294.59a2,2,0,1,1,1.12-3.81,2,2,0,1,1-1.12,3.81Z"/><path class="cls-33" d="M465.54,298.32a2,2,0,1,1,1.39-3.73,2,2,0,1,1-1.39,3.73Z"/><path class="cls-33" d="M463.91,301.94a2,2,0,1,1,1.63-3.62,2,2,0,1,1-1.63,3.62Z"/><path class="cls-33" d="M462.18,305.52a2,2,0,1,1,1.73-3.58,2,2,0,1,1-1.73,3.58Z"/><path class="cls-33" d="M460.6,309.16a2,2,0,1,1,1.58-3.64,2,2,0,1,1-1.58,3.64Z"/><path class="cls-33" d="M459.14,312.86a2,2,0,1,1,1.46-3.7,2,2,0,1,1-1.46,3.7Z"/><path class="cls-33" d="M457.79,316.6a2,2,0,1,1,1.35-3.74,2,2,0,1,1-1.35,3.74Z"/><path class="cls-33" d="M456.52,320.36a2,2,0,1,1,2.68-1.19A2.08,2.08,0,0,1,456.52,320.36Z"/><path class="cls-33" d="M455.31,324.15a2,2,0,1,1,1.21-3.79,2,2,0,1,1-1.21,3.79Z"/><path class="cls-33" d="M454.17,328a2,2,0,1,1,1.14-3.81,2,2,0,1,1-1.14,3.81Z"/><path class="cls-33" d="M453.07,331.78a2,2,0,1,1,2.63-1.32A2.09,2.09,0,0,1,453.07,331.78Z"/><path class="cls-33" d="M452,335.61a2,2,0,1,1,2.62-1.34A2.1,2.1,0,0,1,452,335.61Z"/><path class="cls-33" d="M451,339.45a2,2,0,1,1,2.61-1.37A2.08,2.08,0,0,1,451,339.45Z"/><path class="cls-33" d="M450,343.3a2,2,0,1,1,2.59-1.39A2.08,2.08,0,0,1,450,343.3Z"/><path class="cls-33" d="M449.07,347.16a2,2,0,1,1,2.58-1.41A2.09,2.09,0,0,1,449.07,347.16Z"/><path class="cls-33" d="M448.14,351a2,2,0,1,1,2.57-1.42A2.08,2.08,0,0,1,448.14,351Z"/><path class="cls-33" d="M447.24,354.89a2,2,0,1,1,.9-3.87,2,2,0,1,1-.9,3.87Z"/><path class="cls-34" d="M463.29,239c-.06.38-.24,1.51-.4,3.19-13.73,8.32-35.06,16.71-47.75,28.91-11.54,11.11-11.74,21.32-28.54,33a26.52,26.52,0,0,1-6.9,3.73,13.17,13.17,0,0,1-4.85-6.21c.81-4.83,2.88-11.88,1-19.82a20.73,20.73,0,0,0-5.25-10c.2-3.14.48-6.59.8-10.49.59-7.32,1-8.26.89-12.49a45,45,0,0,0-5.58-20.47c-.47-.84-.82-1.72-.66-1.82.47-.29,7.7,7.22,15.15,15.16,4.2,4.47,14.38,13.52,29.43,15.16,11.49,1.25,20.47-.75,25.86-3.57,13.12-6.85,24-17.66,27.64-25,.28-.55,1.38-2.81,1.79-2.67C466.65,225.84,464.29,232.84,463.29,239Z"/></g><g id="מדים"><g id="נעל_שמאל" data-name="נעל שמאל"><path class="cls-35" d="M316.16,1346.46c-1,.19-.83,7.85.89,15.15,1.19,5,2.45,10.38,6.24,15.16,6.43,8.1,16.3,9.72,22.3,10.7,4.56.75,21.24,3.49,33-7.13,1.88-1.7,2-3,6.24-8,1.57-1.83,3.14-3.55,3.57-6.24.22-1.41-.11-1.59,0-3.56.16-3,1-4.16,1.78-7.14a38.63,38.63,0,0,0,.89-8c.28-5,.54-7.91,0-8-.86-.19-2,7.28-6.24,14.27A38.61,38.61,0,0,1,370.55,1367c-13.61,7.54-32.67,6.78-41.91-1.78a49.33,49.33,0,0,1-8.91-11.59C317.51,1349.39,316.81,1346.33,316.16,1346.46Z"/><path class="cls-36" d="M399.09,1212.7c.37.13.16,1.27,0,4.46a59.45,59.45,0,0,0,0,8c.27,3.15.71,2.78.89,5.35.29,4-.74,5.54-.89,8.91-.17,3.88,1,6.15,1.78,8.92.94,3.33,1,6.25-.89,18.73-3.28,21.88-4.51,20.23-4.46,27.64.05,6.93,1.14,10,0,16.94-.35,2.11-1,5.19-1.78,10.7-.51,3.62-.69,5.55-.89,7.13a76.32,76.32,0,0,1-4.46,17c-1.93,4.76-4.39,10.83-9.81,16-9.88,9.5-23,9.75-25.86,9.8-3.74.08-18.24.36-28.53-10.7-6.18-6.63-9.8-16.22-8.92-21.4a57,57,0,0,0,.89-8c.09-2.3,0-4,0-4.46-.3-8.69,4.65-26.88,5.35-29.43,3-10.75,4.38-16.14,6.24-20.5.93-2.19,4.1-9.36,5.35-15.16.16-.72.39-1.91.9-3.57,1.28-4.22,2.22-4.53,2.67-7.13.41-2.34-.34-2.1,0-6.25a9,9,0,0,1,1.78-5.35c.38-.45.56-.44.9-.89.65-.88.89-2,.89-4.46,0-2.87-.33-3.12,0-3.56,1-1.37,4.82,0,8,.89a104.18,104.18,0,0,0,13.38,2.67,34.35,34.35,0,0,0,19.61-3.56,36.61,36.61,0,0,0,14.27-13.38C396.79,1215.88,398.41,1212.47,399.09,1212.7Z"/><path class="cls-37" d="M356.29,1230.54c-20.35,9.77-15.86,46-15.16,51.71,1.49,12,4.86,15,6.24,16,7.69,5.72,21.66,1.52,29.43-5.35,17.77-15.7,14.33-55.21-2.68-63.31C366.29,1225.92,357.7,1229.86,356.29,1230.54Z"/><path class="cls-38" d="M373.23,1240.34c-1.9,7.85.88,9.34-.89,20.51-1.19,7.45-2.56,7.65-2.68,13.38-.12,6.13,1.43,7.11,1.79,15.16.4,9.06-1.51,9.25,0,12.48,2.61,5.62,8.35,5,12.48,12.48,1.48,2.68,1.66,4.4,2.67,4.46,2.44.14,4.85-9.53,6.25-15.16,2.84-11.4,2.23-14.78,5.35-28.53,1-4.36,1.28-5,1.78-8,1-6.25,2-11.94.89-18.73-.91-5.52-2.42-7.13-1.78-11.59a36.76,36.76,0,0,0,.89-6.24c0-3.26-.61-4.36-.89-7.14-.68-6.65,2.17-9.58.89-10.7-2.05-1.79-11.33,4-17.83,11.59C379.6,1227.26,375.15,1232.44,373.23,1240.34Z"/><path class="cls-38" d="M359.85,1242.13c1,6.29.47,12.92-7.13,34.77-2.78,8-4.19,12-5.35,13.38-5.85,6.9-12.55,5.44-22.29,14.27-3.63,3.28-5.31,5.85-6.24,5.35-.42-.23-1.08-1.26,4.45-18.73,1.18-3.72,2.86-9,5.35-16.05,2.81-7.95,4.22-11.92,4.46-12.48,2.3-5.3,3.64-7.1,3.57-10.7,0-2-.5-3.49,0-6.25.44-2.39,1.05-2.71,1.78-5.35.42-1.49.53-2.5.9-8,.47-7.31.41-7.63.89-8,2.75-2.29,12.4,2.09,16.94,9.81A22.44,22.44,0,0,1,359.85,1242.13Z"/><path class="cls-39" d="M327.75,1303.65c0-.24,2.75-.17,6.21-1.25a26.31,26.31,0,0,0,10.74-6.77c3.52-3.67,2.95-5.26,5.35-6.24,3.27-1.34,4.89,1.42,10.7,1.78,6.49.41,9.94-2.7,11.59-.89s-1.37,4.4,0,8c1.24,3.29,4.28,2.83,8,7.14,2.78,3.19,4.42,7.27,3.57,8-1,.92-4.63-4.13-10.7-4.46-4.66-.24-9.1,2.39-8.92,3.57.14.91,2.91.3,7.14,1.78,2.47.87,3.22,1.68,11.59,8,4.79,3.64,5.5,4.1,5.35,4.46-.55,1.34-10.89-3-25-5.35-14.91-2.45-28.51-1.67-28.53-2.68,0-.75,7.68-.1,12.48-5.35.72-.78,3.54-3.87,2.68-6.24C348,1301.75,327.78,1304.32,327.75,1303.65Z"/><path class="cls-40" d="M354.5,1241.24c-.49,3.22-1.38,4.27-3.34,9.3-.78,2-1.83,4.88-2.9,8.53a51.78,51.78,0,0,0-1.78,8.92c-.6,4.81-.24,6.66.89,8,.75.91,2.38,2.25,3.57,1.79,2-.78.12-5.64,1.78-12.49,1.46-6,3.85-6.12,5.35-12.48,1.46-6.18.28-10.62.89-10.7s2.9,4.86,2.68,10.7c-.24,6.34-3.18,8.08-1.79,12.48a15.15,15.15,0,0,0,4.46,6.24c1.48,1.39,3.37,3.17,4.46,2.68s.24-3.32,0-9.81c-.18-4.91.29-4.31,0-8-.38-5-1.25-6.28-1.78-10.7a13.43,13.43,0,0,0-.89-3.56,9.91,9.91,0,0,0-.9-1.79c-2.43-3.78-7.81-6-9.8-4.45C354.38,1236.67,355,1237.82,354.5,1241.24Z"/><path class="cls-41" d="M340.87,1352.31c.15-2.12,5.29-4.44,10.19-4,3.12.26,3.06,1.38,6.37,1.72,5,.53,7.38-1.81,9.55-.57,1.65.94-.07,3.28,1.91,5.75,1.23,1.53,2.43,1.48,2.55,2.29.26,1.9-5.8,5-12.1,5.75-10.12,1.16-19.47-4.06-19.11-5.75.14-.62,1.55-.62,1.91-1.72C342.58,1354.43,340.78,1353.61,340.87,1352.31Z"/></g><g id="נעל_ימין" data-name="נעל ימין"><path class="cls-35" d="M469.53,1354.48c1.86.73.32,10.52-2.67,18.73-2.58,7.06-7.42,20.35-21.4,28.53-2.88,1.68-20.12,11.33-37.45,3.57-2.31-1-12.85-5.76-16.95-16-.47-1.19-.17-.73-2.67-19.62-.63-4.72-.9-6.65,0-7.13,2-1.09,6.91,6.92,16.05,15.16,8.89,8,14.25,12.84,21.4,13.37,13,1,24.69-12.82,31.21-20.51C464.77,1361.43,467.82,1353.81,469.53,1354.48Z"/><path class="cls-36" d="M467.75,1248.37c1.41,1.05-.59,4.75-.89,9.81-.34,5.52,1.55,9.3,2.67,12.48,2.4,6.76.76,9.08.89,29.43.11,16,1.13,16.82.9,32.1-.14,9.13-.21,13.7-.9,17.83-.89,5.42-3.58,21.74-14.26,32.1-12.55,12.17-34.23,16.31-49.94,8-.67-.36-16.87-9.15-17.83-22.29-.1-1.31.07-1.15.89-8.92,1.17-11.07,1.21-15,1.78-20.51.78-7.49,2.21-13.24,4.46-23.18,1.55-6.84,2.64-10.72,2.68-17,0-5.15-.69-7-.89-10.7-.39-6.71,2.14-12.2,6.24-23.18,2.14-5.74,3.21-7.69,3.56-11.59.25-2.68.64-5.35.9-8,.28-3,.37-4.35.89-4.46.89-.18,1.81,3.69,3.56,6.25,3.24,4.73,9.52,5.31,19.62,6.24,13.4,1.24,22.45,2.07,30.32-2.68C463.8,1249.3,466.53,1247.46,467.75,1248.37Z"/><path class="cls-37" d="M429.41,1247.48c-6.35,2.65-6.32,9.08-13.38,52.61-1,6.4-1.77,10.78.89,14.26,5.55,7.25,22.89,6.74,30.32-1.78,2.3-2.63,3.18-5.49,3.57-21.4.85-34.91-2.94-39.13-5.35-41C441.42,1247,434.73,1245.26,429.41,1247.48Z"/><path class="cls-39" d="M421.38,1312.57c10.24-2.64,21.28.16,21.4,2.68.1,2.11-7.49,3.89-7.13,5.35.31,1.25,5.88-.24,8,2.67,1.34,1.82-.22,3.23.89,5.35,1.64,3.12,6,1.87,12.49,5.35,2.3,1.23,5.7,3.51,5.35,4.46-.77,2.06-18.52-3.6-19.62-.89-.52,1.28,3.18,3.27,2.68,4.46-.8,1.86-10.38-2.23-22.3-2.68-12.35-.46-20.9,3.22-21.4,1.79-.67-1.95,15.05-8.36,14.27-10.7-.63-1.88-11.46-.06-11.59-.9s9.3-1.9,9.81-5.35c.3-2-2.8-3.07-2.68-5.35C411.78,1315.12,420.22,1312.87,421.38,1312.57Z"/><path class="cls-38" d="M440.11,1256.39c0,17.15,0,26.88.89,37.46.93,11.11,1.4,16.67,3.56,21.4,3.61,7.87,9.63,14,12.49,16.94,6.05,6.17,9.45,7.15,12.48,12.48.17.29.53.95.89.89,1.69-.24-.71-15.09,0-33.88s4-25.15.9-33.88l-3.57-13.38c-1.11-4.14-1.57-5.85-.89-8s2-3.54,1.78-6.24a5,5,0,0,0-.89-2.67,5.21,5.21,0,0,0-2.68-1.79c-4.92-1.62-24.5-.27-25,4.46,0,.14,0,.21,0,2.68Z"/><path class="cls-38" d="M432.08,1258.18c2.21,5.66-3.62,23.35-4.46,25.86-1.85,5.54-3.51,10.48-6.24,16.94-2.24,5.32-3.46,7.53-5.35,9.81-2.35,2.83-3,2.45-8,7.13-1.49,1.38-1.84,1.79-8.92,8.92-4.8,4.82-5.63,5.64-6.24,5.35-1-.47-.52-3.44,1.78-14.27,2.77-13,3.34-14.65,3.57-18.72.43-7.65-1.25-7.5-.89-14.27.41-7.84,2.62-7.29,6.24-21.4,3.46-13.5,5.19-20.26,5.35-21.4.32-2.39.59-5.09,1.78-5.35,3.1-.69,8.46,16.06,15.16,16.94a7.8,7.8,0,0,1,4.46,1.78A7.71,7.71,0,0,1,432.08,1258.18Z"/><path class="cls-40" d="M429.41,1255.5c-4.32,10.24-2.68,11.28-6.25,17.84s-6.93,8.52-6.24,12.48c.62,3.54,4.07,6.77,6.24,6.24s1.54-4.48,4.46-12.48c2.67-7.3,4.54-7.67,6.24-14.27,1.37-5.28,1.16-8.9,1.79-8.92s1.9,4.75,1.78,9.81c-.16,7-2.63,8-3.57,15.16-.44,3.41-1.24,10.39,2.68,16.05,2.16,3.13,6.1,6.34,8,5.35s1.82-6.12,0-9.81c-1.56-3.18-3.23-2.92-4.45-5.35-2.16-4.29,1.77-7.71,3.56-16.94a40.42,40.42,0,0,0,0-15.16c-.21-1.08-2.42-12.3-6.24-12.48C434.73,1242.89,432.42,1248.36,429.41,1255.5Z"/><path class="cls-41" d="M412.82,1375.48c.15-2.12,5.29-4.44,10.19-4,3.12.27,3.06,1.38,6.36,1.73,5,.52,7.39-1.81,9.56-.58,1.65.94-.07,3.29,1.91,5.75,1.23,1.53,2.43,1.48,2.54,2.3.27,1.9-5.79,5-12.09,5.75-10.12,1.15-19.47-4.06-19.11-5.75.13-.62,1.55-.62,1.91-1.72C414.53,1377.59,412.72,1376.78,412.82,1375.48Z"/></g><g id="חולצה_שמאל" data-name="חולצה שמאל"><path class="cls-42" d="M380.36,583.17h0s17.33-60.69,30.32-126.62c9.18-46.58,9.33-60.93,6.24-74.91-2.84-12.89-7.44-20.89-7.13-37.45.15-8.24,1.5-17.51-2.68-29.42-3.62-10.35-7.88-12.61-9.8-13.38-6-2.39-13,3.6-14.27,1.79-.83-1.17,2.22-3.13,2.67-7.14.5-4.43-2.77-6.09-5.35-12.48s-.21-6.95-2.67-14.27c-2.64-7.86-5.5-7.61-6.24-13.37-.84-6.49,2.32-10.39,0-12.49-1.53-1.38-4.43-1.08-6.25,0-2.41,1.43-3.06,4.32-3.56,6.24-.93,3.56-4.89,18.77-11.59,20.51-2,.52-2-.72-5.35-.89-7-.36-10.37,5-17.84,8-3.22,1.29-2.67.32-14.27,1.78-8.28,1-18.19,2.34-29.42,6.24-3.88,1.35-7,2.68-8.92,3.57-8.78,4.32-15.59,7.78-19.62,9.81-.74.37-2.37,1.19-2.67,2.67-.41,2,2.06,3.3,2.67,5.35,1.2,4-5.28,8.93-8,11.59-7.28,7.07-4.4,13.93-8.92,33-.39,1.64-4.42,13-12.48,35.66-2.75,7.75-6.81,19.1-2.68,28.54a26.07,26.07,0,0,1,1.79,4.46c2,7.26-1.23,11.29-2.68,19.61-2.21,12.68,3.1,15.37-.89,21.41-2.6,3.93-6.87,5.84-7.13,10.7-.1,1.73,1.08,2.42.89,4.45-.27,2.78-2.17,3.68-3.57,6.25-1.16,2.12-1.07,5-.89,10.7.19,6.17,1,7.82,0,11.59-.71,2.58-1.22,2.23-1.78,4.46-1.11,4.36.67,6.47,1.78,13.37.86,5.36,1.33,8.25,0,11.59a21.15,21.15,0,0,1-5.35,7.14c-3.37,3.29-4.46,2.85-6.24,5.35a16.58,16.58,0,0,0-2.68,8.91c-.17,2.67.3,2.84.89,9.81.49,5.63.26,6.48,0,7.14-1.16,3-3.21,2.64-6.24,6.24a19.91,19.91,0,0,0-4.46,9.81c-.39,3,.42,3.26,0,8-.24,2.8-.52,2.76-.89,6.24-.52,5,0,5.72-.89,7.14-1.38,2.22-3.41,1.73-6.24,3.56-4.38,2.84-5.78,8.07-6.24,9.81-1.86,7,1.12,12.27-1.79,14.27-1.18.81-2.36.41-3.56,1.78-1,1.18-1.64,3.17-.89,4.46s2.06.9,2.67,1.79c1.32,1.92-2.83,6.83-4.46,8.91-2.63,3.36-.52,1.64-8.92,17.84-6.11,11.81-9.37,16.85-7.13,20.51a5.92,5.92,0,0,0,1.78,1.78c13.39,9.08,68.92,21.07,76.69,27.64.21.18,0-1,.89-.89.79.13,2.41-.51,9.81-13.38,7-12.16,10.7-23.18,10.7-26.75a13.62,13.62,0,0,1,0-3.56c.31-1.81,1.8-2.72,2.68-3.57,3.34-3.27.62-8.63,1.78-15.16.9-5,3-4.66,6.24-11.59,4-8.56,1-9.71,4.46-19.62,3.66-10.42,8.27-12.88,7.13-19.62-.39-2.34-1.29-4-.89-7.13.51-3.93,2.51-5.57,4.46-8.92,2.53-4.34,1.2-5.1,4.46-18.72,2.29-9.59,3.34-10.83,4.46-11.59,3.93-2.7,9.74-.33,15.16,1.78,10,3.88,20.54,6.3,30.31,10.7,9.56,4.31,23.93,8.77,44.59,8.92Z"/><path class="cls-43" d="M391.06,582.28c10-8.32-1.62-29.41-4.46-63.31-.7-8.47,1.32-26.75,5.36-63.32,3.58-32.42,6.63-49.39,18.72-64.2,2.36-2.89,7-8.11,7.13-8s-15,12.36-25,30.32c-5.41,9.76-7.77,21.37-12.49,44.58-5.29,26-7.93,39-6.24,50.83a143.93,143.93,0,0,1,1.78,24.07c-.14,12.92-2,17.8-4.45,21.4a31.23,31.23,0,0,1-11.6,9.81c-6,2.9-11.18,2.82-16.94,8-1.81,1.63-2.72,2.47-2.67,3.56.19,5,18.33,9.2,33.88,8.92C383.47,584.78,388.14,584.7,391.06,582.28Z"/><path class="cls-44" d="M348.26,433.36c-1-1.73-6,1.45-14.26.89-6.43-.43-7.21-2.6-15.16-3.56-2.65-.32-5.63-.22-11.6,0-11.61.41-17.42.62-20.5,1.78-1.6.6-3.75,1.57-6.25.89-1.85-.5-3-1.82-5.35-4.46-7.3-8.32-7.86-9.12-8-10.7-.28-2.67,1.07-2.81,1.78-7.13.63-3.78.08-6.6-.89-11.59-1.55-8-3.16-8.93-2.68-13.38.27-2.45.77-2.23,1.79-7.13.25-1.23,2-9.46.89-9.81-.7-.23-2.15,3-5.35,8.92-5.93,11-6.23,9.79-7.13,12.48-3.42,10.14,5.15,14.22,3.56,27.64-1,8.76-5,9.78-3.56,15.16,2,7.45,10.22,7.87,14.26,16.05,2.34,4.73-.23,5,.89,16,1.24,12.12,4.51,15.12,5.36,28.54a45.64,45.64,0,0,1,0,8.91c-.51,4.26-1.52,6.57-5.36,17.84,0,0-3,8.81-2.67,8.92.09,0,1.15-6.48,6.24-10.7a15.29,15.29,0,0,1,2.68-1.79c8.17-8.59,16.6-20.64,16.05-34.77-.52-13.27-8.65-20.49-4.46-27.65s16.76-8,28.53-8.91,18.86.93,25.86-4.46C346.29,438.78,349.17,434.88,348.26,433.36Z"/><path class="cls-45" d="M367,392.1c1.25.93,1,3.14,0,6.23a39.75,39.75,0,0,1-7.14,12.45c-3.6,4.6-4.18,9.82-5.35,20.25-2.07,18.54.77,34.75,2.68,56.05.9,10.11,1.19,20.25,1.78,30.37L343.8,537.69l-62.41-3.89c-6.62-6.56-8.26-12-8-16.35.19-3.47,1.53-4.83,3.57-10.9a89.23,89.23,0,0,0,3.56-17.13c1.18-11.32-2.29-10.32-1.78-22.58.58-14,.87-21,2.68-26.47.05-.17,1.53-4.66,0-5.45-.73-.37-1.54.39-2.68,0-1.72-.59-1.43-2.86-2.67-3.11-1.39-.29-2.37,2.4-4.46,2.33-1,0-1.72-.69-2.68-1.56a17.51,17.51,0,0,1-2.67-3.89c-.54-.9-.81-1.36-.9-1.56a6.93,6.93,0,0,1,0-4.67c2.17-7.56.76-8.43,2.68-10.12,2.56-2.25,5.4-1,8-3.89.89-1,.56-1.14,1.78-3.12a30.51,30.51,0,0,1,6.24-7c3.51-3.1,5.17-3.59,5.35-5.45.12-1.26-.54-2,0-3.12.72-1.52,2.78-2.11,3.57-2.33,9.27-2.66,58.44,7.91,69.55,4.67C363.16,391.91,365.66,391.11,367,392.1Z"/><path class="cls-43" d="M383.93,303.18c1-1.3,1.49-4.71.89-7.14-.45-1.85-.79-3.23-1.78-3.56-1.19-.41-2.61.91-4.46,2.67a22.17,22.17,0,0,0-4.46,5.35c-2.7,4.43-8.92,9.93-14.27,10.7-8.54,1.24-15.06-9.56-16.94-8-1.42,1.16,1.37,8.1,6.24,12.48a16.4,16.4,0,0,0,8.92,4.46,19.91,19.91,0,0,0,8-.89c3-1,3.87-2.2,5.35-1.79,2.07.58,2.69,3.58,3.56,6.24,2.25,6.88,4.49,6.46,8.92,15.16,2.95,5.81,1.34,4.78,5.35,14.27a124,124,0,0,0,9.81,18.73c2.74,4.27,4.1,6.41,4.46,6.24,0,0,1.18-.57-29.43-71.34h0a16.8,16.8,0,0,1,0-3.56c.49-2.73,3.47-5,4.46-4.46.82.42-.25,2.47.89,3.56S382.67,304.81,383.93,303.18Z"/><path class="cls-45" d="M420.49,392.34h0s-2.5-8.33-2.68-8.91c-6-20.15-8-48.15-8-48.15-.81-11.22-.78-20.5-6.24-28.54-1.44-2.12-4.17-6-8-6.24-3.42-.2-9.2,2.4-9.81,2.68-1.54.7-3.2,1.6-4.46.89a5.27,5.27,0,0,1-1.78-2.68c-.62-1.62-.34-2.35-.89-2.67-.85-.5-2.61.59-3.57,1.78-1.87,2.34-1.07,5.57-.89,6.24h0l36.13,83.92Z"/><ellipse class="cls-46" cx="398.3" cy="331.19" rx="3.3" ry="6.81" transform="translate(-112.23 243.52) rotate(-30)"/><path class="cls-44" d="M395.52,303.18c-4.38-1.16-9.54-1.13-9.81,0-.2.85,2.66,1.17,5.35,4.45,1.84,2.24,4.46,5.35,4.46,5.35s.87-.77,3.57-.89c4.75-.21,6.61.87,7.13,0,.67-1.12-1.89-3.92-3.56-5.35A17.78,17.78,0,0,0,395.52,303.18Z"/><path class="cls-45" d="M387.5,302.83a5.92,5.92,0,0,1,4.14,1.16c3.07,2.45,4.15,8.1,4.15,8.1s1.78-2.78,4.15-3.47c3-.88,5.73,2.89,6.22,2.31s-2-5.13-6.22-8.1a10.68,10.68,0,0,0-5.19-2.32A10.12,10.12,0,0,0,387.5,302.83Z"/><path class="cls-44" d="M360.75,311.2a8.74,8.74,0,0,1-2.68,2.68c-2.19,1.33-4.44,1.12-7.13.89-11.18-1-13.47-.89-14.27-2.68-.31-.7-.13-1.1,0-2.67.39-4.51-.65-6.2-.89-9.81-.34-5,1.17-8.92,3.57-15.16A20,20,0,0,1,342,279.1c1.83-2.36,3.12-2.51,5.35-5.35,1.72-2.19,2.21-3.7,2.68-3.57.72.2.24,3.93,0,6.24-1.28,12-1.92,18,.89,21.41,3.6,4.42,10.26,2.14,11.59,6.24C363.5,307.05,360.87,311,360.75,311.2Z"/><path class="cls-45" d="M385.71,297.83c.74-.16.93-22.25-8.91-33.89-1.34-1.57-3-4-6.25-8.92-2.52-3.78-4.72-7.28-3.56-8.91.81-1.15,3-1,3.56-2.68.08-.22.21-.65,0-.89-.63-.74-4,.82-6.24,2.68a15.06,15.06,0,0,0-4.46,7.13c-3.68,11.67-12.06,21.3-17.83,32.1V305c6.31,4.62,11.49,5.85,14.27,6.24a9.47,9.47,0,0,0,3.56,0c3.52-.74,4.19-3.26,8.92-8,5.65-5.7,7-4.43,9.81-8,.37-.48,1.37-1.82,2.67-1.78,1.09,0,2,1,2.68,1.78A19.28,19.28,0,0,1,385.71,297.83Z"/><path class="cls-44" d="M371.45,245.22c1.86,3.69,1.08,14.29.89,14.26a6.63,6.63,0,0,0,0-.89c-.31-2.43-2.84-3-4.46-5.35A6.78,6.78,0,0,1,367,247c.69-1.56,2.43-3,3.56-2.68A1.67,1.67,0,0,1,371.45,245.22Z"/><path class="cls-45" d="M261.77,546.61c-.67.24,0,3.31,0,3.37.6,2.82.1,9.31-.9,22.28-1.6,20.68-2.66,34.31-8,49.58-8.32,23.67-21.72,36.28-16,44.46.43.61,3.77,5.44,8,5.13a7.32,7.32,0,0,0,5.35-3.42c2.1-3.35-.25-6.07.89-11.11.7-3.11,2.22-4.89,3.56-6.84,7.86-11.44,3.43-20.09,11.6-35.91,1.68-3.26,3.22-5.53,3.56-9.41.42-4.76-1.42-7.08,0-11.11.95-2.7,2.11-2.6,4.46-6,2.95-4.24,2.05-5.71,5.35-15.38,2.46-7.19,4-9.56,2.68-11.12s-4.1.2-8-.85C266.09,558.1,263.09,546.13,261.77,546.61Z"/><path class="cls-44" d="M349.15,272.86c-.26-.44-6.83,6.13-17.83,8-8.55,1.47-17.54-.35-26.75.89-7.11,1-8.29,2.26-12.87,4a70.15,70.15,0,0,1-10.31,2.93l-.9.2c-3.77,1.09-13.54,4.21-19.61,8-1.37.86-3.49,2.34-3.57,4.46-.05,1.45.6,3.21,1.78,3.57s2.54-.87,3.57-1.78a78.6,78.6,0,0,1,12.48-8.92,34,34,0,0,1,7.14-2.68,149.74,149.74,0,0,1,20.51-4.45c7.24-1.09,6.4-.65,14.26-1.79,9.06-1.31,13.68-2,17.84-3.57C343.52,278.53,349.4,273.27,349.15,272.86Z"/><path class="cls-45" d="M265.33,301.39c.11.13,1.93-1.83,4.46-1.78,2.3,0,2.73,1.68,4.46,1.78,3.16.18,4.21-5.13,8.92-8a14.42,14.42,0,0,1,8.92-1.79c5.07.59,7.67,3.89,18.72,9.81a5.26,5.26,0,0,0,2.68.89c3.6,0,4.87-5,10.7-11.59a33.37,33.37,0,0,1,8-7.13c4.38-2.67,8.1-3.29,8-3.57-.12-.44-9.25,1.84-19.62,3.57-11.05,1.84-10.62.91-21.4,2.67-17,2.8-22.63,5.87-25.86,8C268.54,297.48,265.19,301.21,265.33,301.39Z"/><path class="cls-44" d="M353.61,457.44c0-3.74-9.46-18.29-14.54-19-2.41-.32-3-.05-6.95,0-8.94.12-9.92-1.21-20.08-1.54H291.19a41,41,0,0,1,8.5-1.54c2.57-.2,4.15-.07,8.49,0,5.4.08,5.9-.06,9.27,0,12.26.21,11.5,2.23,18.53,1.54,4.85-.48,7.8-1.69,11.58,0,1.13.5,2.09,1.16,3.09.77,1.81-.7,1.72-4.05,2.32-8.49a69.58,69.58,0,0,1,3.09-12.36c2.17-6.17,3.25-9.26,5.4-11.58,0,0,2.58-2.79,3.09-5.41a11.58,11.58,0,0,0,.17-2.65,4.9,4.9,0,0,0-.17-1.21,8.49,8.49,0,0,1,1.55,4.64,9,9,0,0,1-1.55,4.63s-1.58,2.81-4.63,10a65.29,65.29,0,0,0-3.09,9.26,37.67,37.67,0,0,0-1.54,7.73c-.36,7.61,4.24,9.55,4.63,17,.23,4.45-1.41,3.81-2.32,10.81-.81,6.29.33,8.19.77,18.54,0,.37,0,.11,0,13.9v19.3c0,5.89.09,7.72,0,7.72-.24,0-.52-14.68-2.31-34.75-1.14-12.75-1.94-17.09-2.32-27.79"/><path class="cls-45" d="M261.77,542.15c1.05-.72,3.91,4,10.7,8,4.24,2.51,6.79,2.85,17.83,5.35,22.76,5.18,22.75,6.23,26.75,5.35,6.67-1.46,10.09-5.13,16.05-3.56,2.2.57,5,2.69,7.14,4.46a34.12,34.12,0,0,1,4.46,4.45c6.61,7.84,11,13,9.8,15.16-1.34,2.36-8.87-.55-34.77-8-12.56-3.62-24.55-9.51-37.45-11.59-3.13-.51-8.57-1.26-13.38-5.35C262.82,551.23,260.49,543,261.77,542.15Z"/><path class="cls-44" d="M269.79,553.74c3.41,3.74,8.07,4.91,9.81,5.35,2.16.54,1.93.15,6.24.89,1.64.28,3.17.6,8,1.79,6.62,1.61,7.25,1.88,10.7,2.67,5.75,1.32,5.26.87,8.92,1.78a74.22,74.22,0,0,1,16.05,6.25c3.89,2,7.36,3.86,7.13,4.46-.47,1.22-15.75-5.73-33-8.92-.78-.15-16.38-3-19.62-6.24-.18-.18-1.12-1.15-1.78-.9s-.59,1.38-.89,3.57a26.88,26.88,0,0,1-.9,4.46c-.81,2.47-1.83,2.51-2.67,4.46-1.28,2.95.42,4.34,0,8-.54,4.69-3.95,8.27-4.46,8s1.39-2.9,1.78-7.13c.71-7.59-3.66-14.34-5.35-16.95-1.28-2-2.69-3.72-5.35-8-2.31-3.76-2.55-4.56-2.67-5.35-.45-2.85.72-4.51,0-8-.06-.3-.18-.79,0-.89.5-.28,2.85,3.06,4.46,5.35C269.37,552.87,268.7,552.55,269.79,553.74Z"/><path class="cls-45" d="M247.5,681.25c.07.64-.05.4-2.67,8-3.44,10-5.16,15-5.35,17.83-.12,1.8,0,3-.9,4.46-1.51,2.6-4,2.56-7.13,5.35-2.3,2.05-2.51,3.43-3.57,4.46-4,3.89-15.47-1.73-25-6.24C162.63,696,150,693,148.28,693a1,1,0,0,1-.65-.18c-1.07-.92,1.53-4.87,3.57-9.81,2.44-5.92,1.26-6.38,3.56-11.6,1.69-3.82,2.77-4.58,5.36-8.91a95.52,95.52,0,0,0,6.24-13.38c.78-1.88.47-3.68,1.78-4.46,1.68-1,4.12.27,5.35.9,4.63,2.34,9.91,3.42,14.27,6.24,2.91,1.88,2.14.92,33,13.37C240.26,673.08,246.92,676,247.5,681.25Z"/><path class="cls-44" d="M247.5,679.47a19.56,19.56,0,0,1,0,2.67,13.24,13.24,0,0,1-.89,3.57c-2,5.07-4.93,13-6.24,16.94-.09.26-.75,2.85-1.79,6.25a25.29,25.29,0,0,1-.89,2.67c-1.19,2.47-2.55,2.55-5.35,5.35s-2.87,4.11-5.35,5.35a10.82,10.82,0,0,1-2.67.89c-6.08,1.19-9.73-3.48-16.37-5.85a1,1,0,0,1-.58-.39c-1-1.61,5.67-6,10.71-12.48,3.41-4.39,1.57-3.92,7.13-13.38,4.86-8.27,7.38-12.47,11.59-15.16,2.67-1.7,4.45-2,6.24-4.46,2.4-3.22,1.56-5.75,2.68-9.8,1.65-6,5.07-6.19,9.81-13.38,5.23-8,6-15.24,6.24-15.16s.17,11.26-6.24,21.4c-2.33,3.68-5.55,7.33-5.35,12.49.07,1.91.58,3.13,0,5.35C249.37,675.4,247.53,676.39,247.5,679.47Z"/><ellipse class="cls-46" cx="223.41" cy="697.45" rx="6.66" ry="3.38" transform="translate(-508.5 723.27) rotate(-74.26)"/><ellipse class="cls-46" cx="230.9" cy="700.67" rx="6.66" ry="3.38" transform="translate(-506.14 732.83) rotate(-74.26)"/><path class="cls-44" d="M237.69,412.85a17.27,17.27,0,0,1-8-8.91c-3.19-7.79-.26-17.41,2.67-17.84,2.31-.34,5.22,4.92,6.24,7.14,1.41,3.06,1.53,5.37,1.79,5.35.44,0,.25-7.22-.89-19.62-1.82-19.75-1.51-23-2.68-23.18s-2.16,2.6-9.81,24.07c-4.61,12.93-6.9,19.51-6.24,25s2.34,6.95,2.68,14.27c.08,1.89,0,2.25-.9,14.26-.62,8.45-.93,12.7-.89,14.27.18,7.11,1.23,8,0,10.7-1.89,4.12-5.39,4.12-7.13,8.92-.81,2.22-.17,2.52-.89,6.24-1,5-2.46,6.05-3.57,9.81-2,6.66,1.54,7.32,0,15.16-1,5-2.74,6.44-2.68,11.59a56.68,56.68,0,0,0,.9,6.24c1.57,9.34,2.22,10.4,1.78,13.38a16.93,16.93,0,0,1-2.68,7.13c-2.24,3.31-4.06,3.19-7.13,7.13a26.08,26.08,0,0,0-3.57,6.24,19.1,19.1,0,0,0-1.78,8c.13,3.95,1.77,4.56,1.78,8.92a12,12,0,0,1-.89,5.35c-1.42,3.14-3.7,3.59-6.24,6.24-2.29,2.39-3.09,4.8-4.46,8.92s-2.92,8.79-1.78,14.26c.68,3.26,1.93,5,.89,7.14-.79,1.61-2.41,2.47-4.46,3.56-2.74,1.46-4.58,1.55-6.24,3.57-.54.66-1.11,1.35-.89,1.78.58,1.11,5.54-1.41,13.37-1.78,2.48-.12,4.66,0,4.81,0,5.65.34,8.14,1.6,8.57.88.68-1.13-5.49-4.29-9.81-11.59-1.59-2.7-4.85-8.2-2.67-12.48,1.43-2.84,4.63-3.92,6.24-4.46,3.76-1.28,6.13-.39,11.59,0,7.68.54,13.37-.48,13.38-.89,0-.63-13.18,1.31-17.84-5.35a56.16,56.16,0,0,1-3.57-7.14,20.73,20.73,0,0,1,11.6.89c3.15,1.28,5,3.07,5.35,2.68.68-.7-4.76-6.59-10.7-16.05-5.4-8.6-4.93-10.13-4.46-10.7,1.38-1.7,5.58,1.39,12.48.89,3.49-.25,5.11-1.24,10.7-3.57,11.65-4.86,17.47-7.28,23.19-7.13,8.68.23,13.87,5.15,14.26,4.46.52-.92-8.7-9.27-21.4-11.59-4.32-.8-7.68-1.41-11.59,0-5,1.79-6,5.13-12.48,8-3.4,1.51-8.29,2.89-8.92,1.78s3.58-6.1,8.92-8.91c3.41-1.8,5.13-1.65,6.24-3.57,1.35-2.34.37-5.28-.89-8.92-2.18-6.28-4.2-6.57-4.46-9.81-.12-1.49.1-3.86,6.24-11.59,5.68-7.15,11-12.09,10.7-12.48s-9,8.31-12.48,6.24c-2.08-1.24-1.71-6-.89-8.92,1.45-5.22,4.58-5.42,7.13-10.7,2.92-6.05-.07-8.14,2.67-13.37,3.37-6.41,8.66-4.79,10.7-9.81,2.95-7.24-6.53-14.28-3.56-21.4,1.12-2.69,4.08-4.09,8-6.24s-8.75-10.85-5.35-12.49"/></g><g id="חולצה_ימין" data-name="חולצה ימין"><path class="cls-42" d="M466.86,253.24c1.78,8,1.58,14,10.8,21.32,13.21,10.54,19.1,8.62,22.3,15.16,4,8.25-6.54,21.8-16,30.32-44.33,39.67-66.49,59.51-79.37,81.14-18.28,30.72-19.45,63.76-20.5,93.63-1.19,33.64,5.89,55.84-.9,80.25a7.94,7.94,0,0,0,0,5.35C389,594.26,451,594,493.71,575.06c.24-.1,22.7-10,26.75-4.46,1.83,2.53-1,7,1.79,9.81,2,2.08,6.11,2.35,8.91.89,5.65-2.92,5.84-12.65,7.14-12.48.8.11.89,3.57.89,3.57.14,5.5.88,35.1,12.48,44.58,1.31,1.07,3.52,2.5,4.46,5.35,1.25,3.75-.9,6.28-.89,9.81,0,4.94,4.24,7,8.92,12.48,9.76,11.53,13.42,28.76,13.37,36.56a13.53,13.53,0,0,0,.89,6.25c1.64,3.67,4.52,4.51,6.25,8.91a15.72,15.72,0,0,1,.89,3.57c2.1,13.19,20.68,34.54,16.94,47.26-.4,1.35-2,6,0,8a3.46,3.46,0,0,0,1.78.9c6.91,1.49,26.14,46.69,35.67,45.47,2.36-.3,3.86-3.64,6.24-2.67,2.21.89,3.57,5.35,3.57,5.35C706.23,779.92,704.15,773,704.15,773c-.39-1.31-2.7-1.92-5.35-6.24a23.58,23.58,0,0,1-1.78-3.57c-6.17-15.13-13.62-35-21.4-35.67-.62,0-2.39-.07-2.68-.89-.48-1.36,3.75-3.1,3.57-5.35-.13-1.68-2.59-2-4.46-3.57-4.86-4-.53-11.61-3.56-20.51-2.59-7.59-7-5.82-9.81-13.37-3.41-9.3,2.73-13.59-.89-21.4-3.51-7.56-10.23-5.65-12.49-12.49-2.64-8,5.47-13.87,1.79-22.29-1.54-3.5-3.32-3.35-4.46-7.13-1.76-5.8,1.76-8.37,1.78-14.27,0-9-8.24-9.85-10.7-21.4-1.46-6.86,1.15-8,0-16-1.33-9.33-5.92-15.4-8-18.73-7.93-12.57-4.88-24.92-5.35-49.93-.48-25.92-4.39-45.81-7.13-59.74-6.26-31.84-11.57-34.67-12.48-57.07-.92-22.6-3.8-23.71-7.24-38.26l-35.14-38.4-41.55-21.35,2.68-20.51L497.17,255l-19.42-4.64-10.89,2.86"/><path class="cls-47" d="M552.46,304.07c-.91,1.21-19.8-10.22-21.4-8.92-2.3,1.87-4.72-1.88-6.14-4.54s-.89-4.81.89-10.7l-9-16.86-41.93-13.58-10.68,3.77"/><path class="cls-45" d="M431.19,382.54a81.8,81.8,0,0,0-20.51,15.15c-11.05,11.43-15.42,23.19-18.72,32.11-2.07,5.57-5.27,14.19-3.57,15.15,2.33,1.32,10.61-13.49,25.86-29.42,12.13-12.69,26.4-27.6,48.15-35.67,17.78-6.59,27.79-3.88,41.91-15.16,8-6.41,18.66,3.21,16.94.89s-14.4-50.39-29.43-42.8c-9.56,4.84-21.3,45.84-35.66,49.94A108.1,108.1,0,0,0,431.19,382.54Z"/><path class="cls-45" d="M384,576c-2.39-7.27-2-13.42,0-26.75,1.81-12.05,2.75-18.1,4.45-18.72,4.86-1.78,8.82,10.88,22.3,19.62,3.59,2.33,8.15,4.57,51.71,9.8,21,2.52,17.65,1.73,23.19,2.68C505.94,566,511.81,570,522.25,567c8.48-2.43,12.66-7.37,15.16-5.35,2.67,2.15.66,10-2.68,15.16-1.48,2.26-3.29,6.18-6.24,6.24-2.08,0-3.69-1.8-4.46-2.68-3.58-4.08-6.35-2.59-7.24-3.48-1.73-1.74-2.09-.07-2.67,0-8,.89-33.46,5-52.51,6.16-51,3.24-70,7.28-75.79-2.68A22.11,22.11,0,0,1,384,576Z"/><path class="cls-45" d="M449.3,400.37c-10.09,72.62-12.2,95.86-12,102.67,0,0,.37,19.46,0,25.67a17.28,17.28,0,0,0,0,2.41c.72,8.93,9.15,14.83,12,16.84,0,0,14.07,9.83,73.8,1.61a64.72,64.72,0,0,0,1.6-11.23c.52-9.73-1.51-13.43-.8-23.27.4-5.53,1.05-4.32,1.61-10.42,1.16-12.76-2.12-13-.81-23.26,0,0,1.51-11.84,1.6-17.39,0-.2,0-.26,0-.26,0-2.34-.19-3.14,0-3.21.4-.16,1.31,3.63,3.21,4s4.3-3.21,4.81-4c4.21-6.64,4.81-18.18-.8-25.67-1.81-2.41-3.21-3-4-5.61-1.46-4.76,1.66-7.67.8-11.23-1.21-5-9.37-7.18-12.84-8-20.73-5.06-58.32-9-64.17-9.63Z"/><path class="cls-44" d="M449.3,404.38c.51.06.32,6.24,0,10.43-.49,6.52-1.24,7.33-1.6,12-.41,5.33-.93,12,2.41,17.65,1.49,2.52,3.78,4.86,9.62,8,10,5.42,14.85,4.76,36.9,9.62,12.82,2.83,17.39,4.42,21.66,1.61a28.56,28.56,0,0,1,9.62-4.81c.76-.2,4.94-1.25,5.62,0,.39.73-.74,1.66-1.61,4a15.07,15.07,0,0,0-.8,4.81c-.43,7.17-1.41,16-1.6,17.65a88.19,88.19,0,0,1-3.21,12.83c.8-12-.42-4.62-1.61-15.24-.68-6.08.37-14.25-1.6-15.24-2.49-1.25-5.78.85-7.22,1.6-8.51,4.43-15.36-4.5-32.89-8.82-8.91-2.2-17.24-4.25-24.86,0-6.23,3.47-9.25,9.63-10.43,12-3.47,7.06-3.34,13.53-3.21,17.65.16,5.19,1,4.86,4.81,20.85,1.59,6.69,4.22,13.21,4.82,20.06.35,4,.31,8.08,3.2,10.43s7.23,1.57,7.22,1.6a26.29,26.29,0,0,1-16-2.41,25.31,25.31,0,0,1-10.43-10.42c-3.84-7.44-2-13.91,0-28.88,1.13-8.52,1.58-17.12,2.41-25.67,2.44-25,1.93-27.95,4-44.12C446.05,419.54,448.5,404.29,449.3,404.38Z"/><g id="כומתה"><path class="cls-48" d="M528.38,385.21c-1.1-1,.83-3.53-.89-7.13a10.59,10.59,0,0,0-4.46-4.46c-5.8-3.54-15.06-16.1-16-29.43-.14-1.89-1.1-17.28,7.14-23.18,3.36-2.41,7.8-2.9,12.48-8,1-1.1,2.63-3.07,3.57-2.67s.11,3,.89,5.35c1.32,3.94,6.71,5.18,9.81,6.24,5.16,1.77,11.17,8.32,23.18,21.4,0,0,2.77,3,8.92,14.27,1.63,3,1.1,4,.89,4.46-1.17,2.64-6.4,2.61-8,2.67C549.56,365.31,531.7,388.18,528.38,385.21Z"/><path class="cls-49" d="M547.2,371.37c-5.89-1.1-2.88-13.82-13-26-4.45-5.36-9.07-7.75-8.13-9.94,1.31-3,11.49-1.63,12.2-1.53,10.08,1.44,16.67,7,22.77,12.24a28.09,28.09,0,0,1,8.14,10.7c.93,2.28,1.54,3.85.81,5.35-1.38,2.84-5.87,2-13,4.59S549.75,371.85,547.2,371.37Z"/><path class="cls-50" d="M564.05,353.11c4.13,1.69,6.19,2.54,8,2.68,4.15.31,6.29-2.28,8-.9a2.68,2.68,0,0,1,.89,2.68c-.43,1.42-2.38,1.53-6.24,2.67-4.57,1.36-6.28,2.51-11.59,3.57-2.41.48-3.19.47-3.57,0-1.12-1.4,2.95-5,1.79-8.92-.4-1.35-1.27-2.24-.89-2.67S562.34,352.41,564.05,353.11Z"/><path class="cls-48" d="M582.78,328.14c10.54,6.7,14.94,11.69,16.94,15.16,1.41,2.44,3.21,6.87,7.13,9.81a10.37,10.37,0,0,1,2.68,2.68,11.77,11.77,0,0,1,1.78,6.24c.29,5-1.53,9-1.78,8.91s2.21-5.13,0-8.91c-1.63-2.79-4.32-2.32-8-4.46-5.67-3.27-3.77-6.86-10.7-15.16-4.93-5.91-9.79-8.76-8.91-12.48A4.32,4.32,0,0,1,582.78,328.14Z"/><path class="cls-49" d="M510.55,358.46c-.32,4.3,3.84,7.79,6.24,9.81,2.6,2.18,4.5,2.85,8,6.24a9.74,9.74,0,0,1,2.67,3.57c1.12,2.82,0,4.69.89,5.35,1.55,1.1,7.35-2.3,7.14-5.35-.12-1.74-2.13-2.34-6.24-5.35a48.41,48.41,0,0,1-8-7.14c-5.32-6.31-4.78-12.41-7.13-12.48C512.5,353.06,510.74,355.91,510.55,358.46Z"/><path class="cls-51" d="M530.17,380.75c3.26-3.7,6.64-5.16,12.25-8,2.29-1.16,5.77-3,10-5.37a132.76,132.76,0,0,1,41-10.7c3.24-.32,8.67-.69,12.48,2.67a9.88,9.88,0,0,1,3.57,7.14c0,2.69-1.07,5.41-1.79,5.35-1-.09.3-5-1.78-7.14-3.81-3.85-15.44,5.3-40.12,15.16-20.14,8-24.22,6.67-29.43,10.7-.67.52-3.09,2.47-5.35,1.78s-3.68-3.63-3.57-6.24C527.55,384.73,528.06,383.14,530.17,380.75Z"/><path class="cls-52" d="M544.43,382.54c-.4-.89,7-5.66,14.27-8.92,8.27-3.69,10.68-2.86,14.27-6.24.63-.6,2-1.95,3.57-1.79,2,.2,3.92,2.58,3.56,4.46-.27,1.46-1.87,2.28-2.67,2.68-7.23,3.55-16.8,5.32-16.94,5.35C550.09,380,544.77,383.28,544.43,382.54Z"/><path class="cls-51" d="M530.45,335.64c1.75-1.18,4.37.07,21.43,10.29l8.57,5.14h0v4.29c.86,1.11,1.06,1.94.86,2.57s-.77.72-1.72,1.72a15.08,15.08,0,0,0-1.71,2.57,21.91,21.91,0,0,1-1.71,2.57c-2.44,1.92-7.14-2-9.43,0-.74.64-.81,1.52-1.72,1.71s-1.39-.69-2.57-.85c-1.94-.27-2.71,1.93-4.29,1.71-1.85-.26-3.46-3.68-2.57-5.14.52-.86,1.6-.53,2.57-1.72a3.84,3.84,0,0,0,.86-2.57c-.09-1.69-1.57-2.33-3.43-4.28a69.64,69.64,0,0,1-4.28-6.86c-2.25-3.78-2.47-4.31-2.58-5.14C528.52,340,528.7,336.83,530.45,335.64Z"/><path class="cls-53" d="M542.65,340.63c-1.74-.55-7.26,12.63-5.35,14.26a4.74,4.74,0,0,1,.89.9c.74,1,.64,1.72.89,1.78.61.14,1.56-3.79,3.57-8,1.56-3.27,3.54-6.29,2.68-7.13-.32-.31-.91-.2-1.79-.89C542.91,341,542.9,340.71,542.65,340.63Z"/><path class="cls-53" d="M553.75,345.88c-1.47-1.2-11.68,15.44-10.43,18.17a6,6,0,0,1,.53,1.46c.35,1.54,0,2.53.2,2.68.54.35,2.9-4.79,6.41-10.08,2.71-4.09,5.74-7.71,5.22-9.09-.2-.52-.81-.52-1.4-1.69C553.85,346.48,554,346.05,553.75,345.88Z"/></g><path class="cls-44" d="M433,382.54c-.12-.41,13.62-2.49,25-14.27a49.54,49.54,0,0,0,4.41-5.31,91.08,91.08,0,0,0,14.32-29.47h0c.05-.11.57-1.37,6.24-15.15A19.24,19.24,0,0,1,496.28,313c1,0,9.55.31,13.38,6.25,2.31,3.57.75,5.89.89,17.83.09,7.83.17,11.83,1.78,16.05,3.09,8.07,9.29,12,8.92,12.48-.69.83-7.74-6.12-22.29-16-2.95-2-6-4-6.24-7.13-.25-4,4.54-5.79,4.45-10.7-.05-3.2-2.14-6.36-3.56-6.24s-1.87,4.14-3.57,8.91c-1.17,3.3-2.74,6.19-8.92,14.27-10.48,13.71-15.73,20.56-20.5,24.08C447.36,382.49,433.1,382.94,433,382.54Z"/><path class="cls-44" d="M462.64,255.56c-.45.81-.19,1.34,2.38,8,3.37,8.71,3.18,8.45,3.33,8.68,4.32,6.38,14.8,9.31,23.23,11.66,3.84,1.07,5.9,1.37,7.39,3.16,3.62,4.36-.13,11.36.88,11.66.67.19,2.25-2.67,3.95-6.81s1-5.42,2-9.08c2.19-8,7.55-9.18,8.57-17,.45-3.46-.37-5-1.33-5.85-1.79-1.64-4.59-1.51-7.28-1.69-6.44-.43-8.24-2.37-14.61-4.12C480.22,251.18,465,251.3,462.64,255.56Z"/><path class="cls-45" d="M520.36,259.67C525.1,265,526,272,526.6,277a50.25,50.25,0,0,1-.89,16.5c-4.83,26.26-6.12,62.37-4.44,70.11.08.41.4,1.75,0,1.95-.93.47-5.45-4.77-8-10.41-4.44-9.74-2.91-20.27-2.68-21.71.93-5.93,1-8.13-.89-11.57-1.38-2.52-2-4.23-5.35-5.79-2.66-1.25-8.46-4-13.38-1.74-2.33,1.05-3.4,2.73-3.56,2.6-.34-.26,10.52-8.49,16.05-21.7,1.88-4.52,1.35-5.31,3.56-9.55,4-7.63,7.66-8.78,8-13.89.27-3.85-1.44-8.4-4.46-9.56a6,6,0,0,0-3.57,0c-7.36,1.51-11.76-7.42-23.18-10.41-1.13-.3-12.4-3.11-18.73,1.73-.7.54-2.4,2-2.67,1.74s1.77-3.61,3.57-5.21c4.33-3.88,11.32-2.11,25,.87C514.62,256.16,517.05,256,520.36,259.67Z"/><path class="cls-44" d="M531.06,306.74c1-.61,4,3.92,9.81,8.92,8.7,7.53,13.71,7.55,19.62,11.59,18.82,12.88,13.63,43.94,26.75,47.26,1.88.48,7.31,1.18,12.48,5.35,1.61,1.29,3.61,2.16,3.57,3.57,0,.32-.16,1.68-4.46,3.56-5.74,2.51-9.43,1.82-16.05,3.57-3.59.95-4.2,2.3-5.35,1.78-3.07-1.38-.66-9.72-.89-17.83-.45-15.66-10.78-31.08-21.41-39.23-7.27-5.59-12.08-5.76-17.83-13.38C532.38,315.38,529.86,307.49,531.06,306.74Z"/><path class="cls-45" d="M579.21,385.21a88.1,88.1,0,0,0-11.59-37.45c-7.48-12.84-14.53-25-25.86-27.64-2.63-.62-7.75-1.28-10.7-5.35-2.22-3.07-2.49-7.09-2.68-9.81-.33-5,1.1-6.46,0-10.7-.14-.57-.4-1.42,0-1.78.92-.84,4.26,1.81,7.14,3.56,10,6.1,22.25,6.24,22.29,6.24h0c22.66,15.1,35.68,33.91,40.13,46.37,3.7,10.38,2.36,18.88,5.35,30.32a4.64,4.64,0,0,1,0,2.67c-1.77,5.31-14.47,5.55-21.4,5.35l-2.15.05Z"/><path class="cls-44" d="M397.31,589.41c-2.52.18-11.94.85-14.27-3.57-1.14-2.16.3-3.84,0-9.81-.3-5.77-1.86-8.28-.89-8.91,1.49-1,5.34,4.86,12.48,8.91,5.64,3.21,10.71,3.82,16.05,4.46,11.85,1.43,14.47-1.7,28.53-1.78,13-.07,10.89,2.59,20.51,1.78,10-.84,16-4,27.65-2.67,2.3.27,7.1.83,7.13,1.78.06,2-20.32,2-52.61,7.13C427.19,589.06,412.16,588.35,397.31,589.41Z"/><path class="cls-45" d="M602.39,746.35c.75-.7,6.82,5.45,10.7,8,8.72,5.77,22.92,4.42,32.11-.89C658,746.1,663,729.94,672.84,727.62a8.63,8.63,0,0,1,4.46,0c3.72,1.07,5.58,4.77,8,9.81,5,10.38,7.55,15.57,8,16.94,2.78,7.93,2.64,10.94,6.24,14.27,2.27,2.1,4.26,2.69,4.46,4.46.33,2.9-4.5,5.55-8.92,8-18.13,10.14-27.19,15.21-28.53,16,0,0-14.38,9.05-17,7.14a4.41,4.41,0,0,1-.89-.89c-1-1.39-.28-2.65-.89-3.57a3.07,3.07,0,0,0-3.57-.89c-.9.37-.94,1.07-1.78,1.78,0,0-1.41,1.19-4.46.89C631.93,801,620,778.56,617.55,774c0,0-5-9.42-9.81-14.27l-3.56-3.56a7.41,7.41,0,0,1-1.79-1.79,5.59,5.59,0,0,1-.89-3.56c.18-1.39.92-1.87.89-3.57C602.39,746.61,602.28,746.45,602.39,746.35Z"/><path class="cls-44" d="M604.18,746.35c.33-.1.76,1.52,2.66,4.08a30.3,30.3,0,0,0,2.69,3.05c3.55,3.53,8.59,5.74,11.59,8,2.61,2,1.86,2.66,8,14.26,4.35,8.19,6.53,12.28,8.91,15.16,5.42,6.53,10.71,9.29,9.81,11.59-.64,1.64-3.89,1.77-4.46,1.79-7.58.19-13.57-8.41-16.94-13.38-9.25-13.64-8.71-24.14-16.05-30.32a17.69,17.69,0,0,1-4.46-5.35C603.71,751.05,603.64,746.5,604.18,746.35Z"/><ellipse class="cls-54" cx="634.02" cy="784.07" rx="1.21" ry="6.37" transform="translate(-292.15 385.38) rotate(-27.75)"/><path class="cls-45" d="M536.41,578.71A46.53,46.53,0,0,1,540,585c6.68,14.18,2.06,23.58,8.91,29.43,2.15,1.83,4.87,2.83,6.24,6.24.67,1.63.74,3.17.9,6.24.25,5-.67,6,0,8,1.42,4.27,4.91,6.32,7.13,8,10.73,8.21,13,24.5,13.38,27.64,1.11,8.15-.89,12.07,2.67,18.73,1.81,3.38,2.69,3.06,5.35,7.13,4.7,7.19,3.07,9.9,7.13,19.62,4.24,10.13,7,9.59,8.92,17.83.88,3.81,1.19,7.82,2.68,8s2.94-3.1,3.56-4.46c11.53-25.14.89-44.58.89-44.58-4.44-6.86-9.55-7.78-13.37-17-5.08-12.2.55-18.81-5.35-26.75s-14.87-5.31-16.94-11.59c-2.74-8.29,11.68-16.28,8.91-26.75-1.14-4.32-4.54-6.56-6.24-8-15.17-13.11-1.94-57.64,2.68-90.95,6.11-44.15-34.48-108.4-39.24-108.78-3.5-.29,11.67,46.25,9.81,55.28-6.29,30.53-6.46,39.76-9.81,61.53-2.06,13.38,0,30.31-1.78,58h0Z"/><path class="cls-44" d="M538.19,401.26c.17,0,.17,1.1.18,1.46,0,2.07.56,4.46,1.61,9.24,1.51,7,3,10.1,4.45,16.94.9,4.09,1.3,7.06,1.79,10.7.84,6.27,2.17,16.12,1.78,25.86-.27,6.75-1,5.68-6.24,31.21-3.13,15.39-3.42,18.63-3.57,21.4-.51,9.95,1.11,10,.89,22.3-.22,13-2,12.42-1.78,24.07.14,7.13,1,13.72-.89,14.27-.77.23-1.31-1.69-2.68-1.78-3.1-.22-6.18,8.93-6.24,8.91s5.26-8.7,6.24-18.72c.87-8.84-2.33-11.47-3.56-21.4-1-8.3.94-8.6,3.56-28.54a315.16,315.16,0,0,0,2.68-34.77c.18-9.88-.34-10.59,0-17.84.91-19.67,5.45-18.64,4.46-29.42-.78-8.49-4.75-23.6-3.57-30.32C537.45,404,537.93,401.23,538.19,401.26Z"/><path class="cls-44" d="M619.34,549.28h0s-2.87,6.84-2.68,13.38c.13,4.15,1.38,4.73,1.79,8,1,8.4-5.72,15.91-11.6,22.3-8.32,9-16.39,13.74-16.05,14.26s10.32-5.53,25-10.7c7.29-2.57,9.53-2.72,11.59-1.78,6,2.72,8.45,13.7,6.24,22.29-1.44,5.63-6.93,11.86-17.83,24.08-2.31,2.58-7.6,8.43-7.13,8.91.75.78,13.85-15.58,26.75-13.37,1.15.2,4.71.85,6.24,3.57,2.16,3.81-.65,10-4.46,13.37-7.46,6.54-20.51,3.53-20.51,3.57a49.45,49.45,0,0,1,19.62,2.67c4.55,1.7,11.05,4.13,13.37,9.81,2.19,5.36-.4,11-5.35,21.4-4.86,10.23-9.72,16.26-8.91,16.94.37.32,3.27-6,8.91-7.13,4.9-1,9.38,2.34,9.81,2.68,3.67,2.82,3.52,5.82,9.81,15.15a10.49,10.49,0,0,0,3.57,3.57c2.46,1.39,6.24,2.56,8,.89a2.9,2.9,0,0,0,.9-2.67c-.21-.76-.84-1.14-1.79-1.79,0,0-.34-.23-3.57-2.67-2.84-2.16.75-7.94-.89-15.16-1.48-6.52-6.51-11-7.13-11.59-2.56-2.25-3.34-1.81-4.46-3.57-1.78-2.78-.75-5.32,0-14.27.43-5.07.63-7.64,0-8.91-2.16-4.41-7-3-10.7-8a14.91,14.91,0,0,1-2.67-9.81c.44-4.71,3.12-5,3.56-8.91.69-6.08-5.41-7.76-6.24-15.16-.67-6,3.11-6.49,2.68-12.49-.49-6.69-5.29-7.19-8.92-16.94-1.7-4.55-2.12-8.39-2.68-13.37-1-9.07.34-9.9-.89-16.05-1.78-8.92-9.81-19.62-11.59-24.08-.53-1.31,0,4.46-.89,8Z"/><ellipse class="cls-46" cx="541.01" cy="306.51" rx="2.22" ry="4.08" transform="translate(23 650.46) rotate(-63.12)"/><g id="צהל"><path class="cls-55" d="M524,411.57c-14.05-1.85-42.38-8.91-42.38-8.91s-1.38-7.09-.78-10.07,1.85-6,2-8.7c10.38,5.37,40.7,10.57,40.7,10.57s2.7,2.15,1.93,7.24S524,411.57,524,411.57Z"/></g></g><g id="מכנס"><path class="cls-42" d="M286.74,562.66c-4,.44,1.58,7.48,0,23.18-.55,5.38-1.12,10.7-3.57,16.94-3.73,9.49-7.59,10.45-11.59,18.73-2.21,4.57-1.73,5.72-4.46,24.08-3.89,26.09-5.66,29.14-7.14,31.2-7.05,9.86-14.8,7.51-16.94,15.16-2.5,9,7.33,15.34,5.35,28.54-.28,1.86-2.45,4.74-3.56,9.81a17.11,17.11,0,0,0-.9,7.13c6.25,53.5,14.2,128.94,14.27,129.29h0c0,1.52,11.5-.73,16.94,3.56,7.4,5.83-.59,20.43,3.57,40.13.31,1.46,1.4,6.34,2.68,13.37,1,5.7,1.66,9.9,1.78,10.7,3.69,24.12,17.77,38.62,14.27,59.75-1.4,8.44-5.52,17.43-.9,22.29,2,2.14,4,1.65,6.25,4.46,3,3.77,1.11,6.85,2.67,15.16,1.44,7.68,3.43,7.12,3.57,12.48.17,6.62-2.85,7.94-1.79,13.38.93,4.75,3.42,4.68,4.46,9.8.92,4.49-.61,6.42-.89,11.6-.36,6.53,1.65,11.17,2.68,14.26,4.4,13.29,5.13,41.44,12.48,91,4.81,32.44,7.21,38.63,13.38,43.69,10.4,8.54,27.62,10.63,41,3.57,14.24-7.52,18.39-22.36,19.62-26.75,1.3-4.67.73-5.37-1.78-38.35-2.61-34.25-1.68-29.42-2.68-37.45a72.2,72.2,0,0,1-.89-13.37c.4-9.74,2.82-12.16,2.68-20.51-.14-8-2.36-6.72-2.68-15.16-.4-10.71,3.14-13.47.89-21.4-1.44-5.1-3.32-5.41-3.56-9.81-.32-5.55,2.53-7.19,3.56-13.38s-1.32-8.32-1.78-15.16c-.5-7.3,1.87-10.08,4.46-19.61a122.82,122.82,0,0,0,3.56-39.24s-.92-11.05,0-17.83c.06-.44.31-2.19.55-4.62.12-1.18.35-3.54.46-6.34a72.57,72.57,0,0,0-.11-8.66c-.42-5.06-1.56-9.84-1.79-9.81s.22,12.44,4.46,25.86c1,3,1.12,3,1.78,5.35.83,2.9,2.44,9.72,1.79,21.4-.67,11.94-2.88,13.84-.89,19.62,1.71,5,3.54,4.13,5.35,8.92,4,10.63-3.73,18.38.89,24.07,2.65,3.28,6.28,2,8,5.35s-3.85,6.49-3.56,13.38c.08,2,.5,1.56.89,4.46,1,7.75-2.17,9.79-.89,15.16,1.1,4.63,3.86,4.7,3.56,8-.32,3.65-3.73,4.41-5.35,8.92-1.38,3.86-.34,7.37,0,8.91,2.65,12.11,4.85,48.17-.89,71.34a98.32,98.32,0,0,0-2.67,12.48c-1.07,7.86-.47,11.82-1.79,20.51-.74,4.9-1,4.25-1.78,8.92-1.57,9.56-.61,13.23-.89,29.43-.2,11.52-.72,11.35,0,13.37,3.47,9.83,15.81,14.74,24.07,16,16.64,2.64,35.76-6.32,40.13-19.62a24.64,24.64,0,0,0,.89-4.45c2.11-13.82,3.17-20.72,3.57-35.67.16-5.93,4.56-21.49,13.37-52.61,7.85-27.7,11.89-39.64,11.59-54.39,0-2.16-.24-7.89,0-16.06.39-12.64.58-19,1.79-24.07,2-8.32,4.68-12.52,2.67-18.73-1.19-3.67-2.6-3.62-2.67-6.24-.18-6.62,8.83-8.7,9.81-16.94.32-2.72-.69-2.24-.89-7.13a33.55,33.55,0,0,1,2.67-15.16c3.08-6.75,6.24-6.17,8.92-12.49,2-4.63,1.23-7.22,1.78-12.48,1.3-12.4,7-12.89,8.92-23.18,2.84-14.94-7.38-22.77-1.79-32.11,1.11-1.84,3.62-6,8-7.13,3-.75,5.19.39,6.24-.89,1.67-2-7-6.18-7.13-8-.89-11.59-6.62-10.51-9.81-15.15-5.31-7.74,2.45-16.28,8-41,2.28-10.09,3-18,4.46-33.89,1.13-12.27,2.07-22.52,1.79-35.66-.75-34.32-8.76-37.06-3.57-53.51,2.23-7.07,6.12-14.21,2.67-20.5-3-5.59-9.32-5.84-10.7-11.6-.92-3.88,1.63-5,3.57-12.48.8-3.07-1.78-13.38-4.46-20.51-1.59-4.26-3.29-3.72-5.35-7.13-2.49-4.14.7-7.89,0-14.27s-5.65-8.93-7.13-13.38C515,597.43,518.58,576,515.9,576c-17.71,0-58.12,13.31-119.49,8.92C340.86,581,294.76,561.77,286.74,562.66Z"/><path class="cls-47" d="M285.84,568.9c-.19,0-.24.85-.89,6.24-.54,4.48-.81,6.72-.89,7.14-1.58,7.93-7.12,9.69-7.13,16.05,0,1.76.51,1.41.89,4.45.76,6.17-.79,9.49,0,9.81,1,.43,5.67-4.44,5.35-9.81-.2-3.31-2.12-4-1.78-7.13.29-2.72,1.87-3.25,3.56-7.13a24.63,24.63,0,0,0,1.79-7.14C287.6,574.91,286.37,568.88,285.84,568.9Z"/><path class="cls-47" d="M516.79,576.93c.69-.16,2.94,7.44,3.57,10.7.29,1.5.38,2.61.38,2.61a35.46,35.46,0,0,0,.51,6.3c1,5.36,1.73,9,4.46,12.49,1.27,1.61,2.49,2.55,2.67,4.45s-.8,2.2-.89,5.35c0,.9,0,1.38,0,3.57a9.57,9.57,0,0,0,0,1.78c.48,2.12,2.86,2.72,2.68,3.57-.13.63-1.59,1.12-2.68.89-3-.61-5.61-6.26-4.46-10.7.6-2.29,1.89-3,1.79-5.35-.08-1.7-.83-2.75-1.79-4.46a35.17,35.17,0,0,1-3.56-8c-1.27-5,.89-6.85-.89-12.48-.34-1.06-.52-1.33-.9-2.68C516.63,581.19,516.3,577,516.79,576.93Z"/><g id="חגורה"><rect class="cls-56" x="385.24" y="605.91" width="49.03" height="14.27" rx="7.13" transform="translate(-216.39 1002.49) rotate(-88.12)"/><rect class="cls-56" x="362.06" y="605.02" width="49.03" height="14.27" rx="7.13" transform="translate(-237.92 978.45) rotate(-88.12)"/><path class="cls-57" d="M285.86,568.21c0-.78,1.77-1.24,2.39-.77,5.46,4,15.8,9,25.24,12.16,35.41,11.75,74.9,9.81,74.9,15.16l-.86,38.62a1.32,1.32,0,0,1-1.52,1.28c-10.52-1.63-75.82-13.76-101.95-30.09-3.17-2,1.32-6.38,2.68-18.73C287.34,580.31,286,574.55,285.86,568.21Z"/><path class="cls-57" d="M516.67,577.65c-.18-.69-.69-1.2-1.33-.88a124.51,124.51,0,0,1-36,11.75,340.07,340.07,0,0,1-68.62,3.62.92.92,0,0,0-1,.89l-1.7,40a.91.91,0,0,0,.89,1c4.25.1,23.71.09,74-6.28,17.69-2.24,30-5.91,36.56-12.48.89-.89-.51-9-1.79-21.4C517,587,517.68,581.38,516.67,577.65Z"/><path class="cls-56" d="M401.18,599a3.31,3.31,0,0,0-1.43-1.36,7.34,7.34,0,0,0-5.78,0l-.76.32a2.29,2.29,0,0,0-1.25,2.16v21.64a2.28,2.28,0,0,0,2,2.47l.74-.31a5.53,5.53,0,0,1,4.3,0l.74.31a2.28,2.28,0,0,0,2-2.47V601.05A4.45,4.45,0,0,0,401.18,599Zm-1.79,21a1.56,1.56,0,0,1-1.56,1.56h-1.34a1.56,1.56,0,0,1-1.56-1.56V601.67a1.56,1.56,0,0,1,1.56-1.56h1.34a1.56,1.56,0,0,1,1.56,1.56Z"/><path class="cls-58" d="M403.5,620.62l-.67-.23a6.09,6.09,0,0,0-3.91,0l-.68.23a1.83,1.83,0,0,1-1.83-1.83v-16a1.7,1.7,0,0,1,1.15-1.6l.68-.23a8.17,8.17,0,0,1,5.26,0h0a2.88,2.88,0,0,1,1.83,2.56v15.23A1.83,1.83,0,0,1,403.5,620.62Z"/></g><path class="cls-44" d="M308.93,575.06l-9.38,53.34c-.3,1.7-1,3.91-.79,5.76a2.8,2.8,0,0,0,1.48,2.17l2.64,1.44,3.44.68a1.61,1.61,0,0,0,2-1.77h0a18.64,18.64,0,0,1-.14-7.29l9.14-50.94a1.48,1.48,0,0,0-1.19-1.67l-7.2-1.72"/><path class="cls-42" d="M309.92,570.68,298.19,626a11.53,11.53,0,0,0,.68,6.91l.95,2.21a1.52,1.52,0,0,0,1,.89l3.2.92a1.57,1.57,0,0,0,2-1.73h0a21.92,21.92,0,0,1,.27-7.66l11.37-52.78a1.57,1.57,0,0,0-1-1.82l-6.69-2.23"/><path class="cls-59" d="M467.7,641.63l-2-2.29a.91.91,0,0,0-1.35,0l-1.81,2.12a.7.7,0,0,0-.17.45v5.21a.66.66,0,0,0,.15.42l3.11,4a.89.89,0,0,0,.79.32l6.22-.61a.74.74,0,0,0,.64-1.12l-5.55-8.39Z"/><path class="cls-44" d="M468.64,585a4.26,4.26,0,0,0,0,3.57,4.45,4.45,0,0,0,1.78,1.78c5.38,3.31-2,41.89-.89,46.37a2.86,2.86,0,0,1,0,1.78c-.51,1.38-2,1.34-2.67,2.68-.09.19-.19.45,0,2.67.25,3,.54,4,0,4.46-.24.2-.72.37-1.79,0l2.68-62.42Z"/><path class="cls-42" d="M465.07,649.15c.8,2.28,1.82,2.07,4.19,1.64h.1c2.32-.43,3.74-.15,3.74-2.52l.28-9.42c0-.13,0-.27,0-.4l4-49.27a4.91,4.91,0,0,0-.65-2.88l-.61-1a4.88,4.88,0,0,0-5.14-2.34l-6,1.14v.81l.8-.81a4,4,0,0,0,1.81,5.34c5.4,3.29-1.77,41.9-.68,46.38a2.92,2.92,0,0,1,0,1.78,2.3,2.3,0,0,1-.76,1,4.89,4.89,0,0,0-1.73,2.8l-.22.89c0,.21,0,.43.06.67.26,3-.13,2.67,0,4.46Z"/><path class="cls-44" d="M332.21,1206.46c1.12-.51,2.89,3.71,8,8a36,36,0,0,0,14.26,7.13c2,.54,16.8,4.27,29.43-3.57,7.84-4.86,11.63-12.19,12.48-11.59.61.42-.76,4.48-3.56,8-4.78,6-9.19,4.85-23.19,12.48-2.71,1.48-4,2.29-6.24,2.67-4,.68-5.21-.94-13.37-2.67-5.45-1.15-7.06-.88-9.81-2.68a16.13,16.13,0,0,1-4.46-4.45C331.91,1214.39,330.82,1207.1,332.21,1206.46Z"/><path class="cls-44" d="M354.5,1201.11c-.73-1.95,7.51-4.94,14.27-12.48,1.45-1.62,4-6.46,8.92-16.05,6.83-13.22,8.82-18,10.27-21.91a96.32,96.32,0,0,0,3.1-9.3c1.84-6.73,2.09-10.73,2.68-10.7s1.53,4.72.89,9.8c-.55,4.38-2.16,7.74-5.35,14.27-2.72,5.56-3.94,7.15-5.35,11.59-1,3.25-2.47,7.79-.89,8.92s6.14-2.13,8-3.57c4.74-3.6,6.89-7.3,7.14-7.13s-2.16,5.52-7.14,10.7c-3.14,3.28-4.55,3.64-8.91,7.13-6.5,5.2-13.62,12.6-12.49,14.27.68,1,3.65-1,9.81-.89,3.94.09,8,1.06,8,1.78s-3.29.63-9.81,1.79c-7.32,1.29-11.5,2.77-18.73,2.67C355.27,1202,354.66,1201.54,354.5,1201.11Z"/><path class="cls-44" d="M309,1045.06c1.35-.79,7.26,10.81,18.38,16a45.19,45.19,0,0,0,4.8,1.86,42.83,42.83,0,0,0,12.88,2c7.82,0,12.86-2.34,13-2s-6.64,5.46-15.16,5.35c-13.33-.18-24.17-12.86-27.64-9.81a29.09,29.09,0,0,0-2.68,3.57s2.89,9.3,1.79,9.8-6.64-5.3-6.24-11.59c.19-3,1.67-4,1.78-8C310,1047.83,308.39,1045.44,309,1045.06Z"/><g id="כיסים_ימין" data-name="כיסים ימין"><g id="כיסים_ימין_2" data-name="כיסים ימין 2"><path class="cls-45" d="M493.61,709.79c-5.56,1.7,6.6,36.27,7.13,77.57.51,39.11.81,62.29-6.24,89.17-1.3,5-3.61,13,0,16.05,6.28,5.4,29.62-4.69,36.56-21.4,2.48-6,.8-7.82,3.57-21.4a158.06,158.06,0,0,1,7.13-24.07c10.15-29.28,5.27-63.81,4.46-69.55-3.37-23.8-9.84-29.41-5.35-42.81,1.8-5.37,5.65-12.85,2.67-20.5-2.28-5.88-8-10.47-8.91-9.81-.41.29,2.23,2.89,2.67,7.13a14,14,0,0,1-1.78,8c-6.2,11.34-31.07,13.3-41,11.59A1.79,1.79,0,0,0,493.61,709.79Z"/><path class="cls-45" d="M522.14,654.5c3.32-4.16,6.19-7.75,8-7.13,1.61.54.74,3.74,3.56,9.81a39.34,39.34,0,0,1,1.79,3.56,17.24,17.24,0,0,1,.89,8.92c-.85,4.64-3.36,5.68-2.68,8.92.17.79.62,2.14,0,2.67s-1.5.1-1.78,0c-2.78-.91-8,.79-20.51,4.46-4,1.17-5.95,1.75-6.24,1.78-7.4.85-15.76-2.56-16.05-6.24-.09-1.07.5-2.28,4.46-5.35,11.53-8.92,18.47-7.81,24.07-15.16C519,659.05,519.55,657.75,522.14,654.5Z"/><path class="cls-45" d="M511.44,1014.75c-4.71,1.08-8,1.82-11.59,0a11,11,0,0,1-5.35-5.35c-1.76-4.34.64-8.92,1.78-11.6,3.81-8.89.39-12.12,1.79-25.86,1.88-18.41,8.51-17.2,11.59-38.34.8-5.5,1.18-11.27,3.57-20.51,3.92-15.2,7.31-16.71,8.91-16.94,3.37-.48,4.72,3.88,9.81,3.57a12.38,12.38,0,0,0,8-3.57c1.2-1.32,1.88-2.85,2.67-2.67s.64,1.85,1.78,3.56,3.19,1.25,3.57,2.68a1.34,1.34,0,0,1,0,.89c-.56,1.3-3.81.48-6.24.89-4.57.77-7.76,6.14-8.92,9.81-1,3.23.15,4.58,1.79,13.38,1.34,7.2,2,10.8,1.78,13.37-.66,7.37-4.3,7.45-7.13,17.83-1.43,5.24-.8,6.31-2.68,13.38-1.47,5.53-1.55,8-3.57,10.7s-3.17,2.26-5.35,5.35a24.06,24.06,0,0,0-3.56,8.92,22.87,22.87,0,0,0-.89,7.13c.11,2.17.55,3.51.89,8,.12,1.64.2,3.36-.89,4.45A3.57,3.57,0,0,1,511.44,1014.75Z"/></g><path class="cls-44" d="M526.6,707.11c.31.52,19.12-9.7,17.76-14.26a25.26,25.26,0,0,0-1.77-3.57,12.91,12.91,0,0,0-1.78-2.68c-2.08-2.14-5.74-2.62-6.22-1.78-.39.69,1.67,1.73,2.67,4.46a10.25,10.25,0,0,1,0,6.24C535.32,703,526.39,706.76,526.6,707.11Z"/><ellipse class="cls-54" cx="539.23" cy="707.56" rx="1.93" ry="5.8"/><path class="cls-44" d="M528.56,642.91c-2.74-.44-7.44,12-6.41,12.48s6.27-8.88,8.24-8c1.16.5-.32,3.88,1.83,8,1,1.9,1.72,2,2.75,3.57,3.55,5.37.39,12.37.92,12.48s5.53-9.41,1.83-14.26c-1-1.3-2.18-1.74-2.75-3.57-.88-2.84,1.17-4.53,0-6.24-.89-1.3-2.32-.71-4.58-2.68C529.1,643.57,529.13,643,528.56,642.91Z"/><path class="cls-44" d="M485.58,679.47a7.59,7.59,0,0,1,1.79,4.46c.05,2.24-1.19,3.17-.9,4.46.63,2.74,7.29,3.42,8.92,3.56,7.66.68,14-.91,19.62-2.67,7.74-2.43,19.09-6.79,18.72-8-.29-1-7.81-.06-14.26,1.79-7.6,2.17-8.59,4.16-14.27,4.45a23.07,23.07,0,0,1-11.59-2.67c-1.11-.6-4.72-2.55-4.46-4.46,0-.32.21-.76,2.67-2.67,2.27-1.77,3.63-2.57,3.57-2.68S493.38,675.68,485.58,679.47Z"/><path class="cls-44" d="M492.72,708c0,1.07-.05,2.61,0,4.46a63.41,63.41,0,0,0,.89,9.81c.75,4.28,1.38,5,1.78,5.35,1.76,1.57,4.43,1.13,6.24.89,13.36-1.75,17.17,2.33,25-1.78,2.4-1.26,4.32-2.85,4.46-2.68s-2.51,3.43-6.24,5.35c-1.83,1-4.33,1.8-19.62,1.79-4.46,0-9.19-.08-9.81,1.78a1.6,1.6,0,0,0,0,.89c.73,2.88-.05,5.52,0,12.49,0,3.95.31,6.29.89,12.48.67,7.13,1.17,14.27,1.79,21.4.68,7.9,1.06,21.72,1.78,49,.54,20.54.46,21.77,0,24.08-1.45,7.34-.88,15-2.68,22.29a3.33,3.33,0,0,0,0,1.79c.57,1.81,2.84,2.34,5.35,3.56,3.72,1.81,3.2,3.1,5.36,3.57,2.52.55,2.76-1,6.24-.89,3.15.11,4.22,1.46,7.13.89a20.7,20.7,0,0,0,2.68-.89c.07.15-3.75,2.07-8,4.46A99.06,99.06,0,0,1,499,895.26a1.19,1.19,0,0,1-.89,0c-.68-.35-.36-1.48-.9-1.78s-1.62,1.08-2.67.89-1.53-1.81-1.78-2.68a16.27,16.27,0,0,1,0-8c1.71-9.17.82-10.24,2.67-16.94a30,30,0,0,0,.89-3.57c.61-3.53,0-4.83.89-8,.43-1.54.6-1.35.9-2.67.55-2.45.07-3.53,0-6.24-.1-3.75.76-4.08.89-9.81,0-.74,0-1.06,0-2.68,0-2.32,0-5.41,0-11.59,0-12,.19-11.26,0-13.37-.35-3.8-.79-4.91-.89-8.92-.09-3.35.18-3.72,0-7.14-.17-3-.53-5.52-.9-8s-.68-4.16-.89-5.35c-1.17-6.87-.25-9.28-.89-18.73-.26-3.93-.37-2.74-.89-8.91-.43-5.18-.44-7-.89-14.27-.47-7.48-.7-11.22-.89-12.48-.68-4.33-1.66-8.06-1.79-14.27a4.28,4.28,0,0,1,0-2.68,1.87,1.87,0,0,1,.89-.89c.16-.06.64-.26.9,0A.77.77,0,0,1,492.72,708Z"/><path class="cls-44" d="M541.76,718.7c5.33,1.78,4.79,21,3.57,31.21-.88,7.34-2.47,13.17,0,19.62a25.81,25.81,0,0,1,1.78,6.24,25.29,25.29,0,0,1-.89,10.7c-.75,2.69-1.94,12-4.45,30.74-.36,2.69-.49,3.83-.9,6.71-.82,5.74-1.54,10.69-2.68,16.05-.53,2.51-2.68,12.61-3.56,12.49-1.16-.16-2.12-11.7.89-24.08,1.64-6.75,2.63-6.23,3.56-11.59,1.82-10.42-1.7-13.72-.89-24.08.74-9.4,3.77-8.32,4.46-16.94,1.06-13.26-6.25-14.19-5.35-26.75.72-10.07,6-17.92,1.78-23.18-1.09-1.36-3.06-2.83-2.67-4.46S539.81,718.06,541.76,718.7Z"/><path class="cls-44" d="M521.25,891.69c-.14-1.94-2-3.37-1.78-3.56s1.63,1,3.56,2.67c4.79,4,2.79,2.27,5.35,4.46a33.12,33.12,0,0,0,4.46,3.57c2.06,1.22,3.61,1.65,3.57,1.78s-3-.23-6.24-1.78c-2.8-1.36-3.22-2.37-5.35-2.68a6,6,0,0,0-4.46.89c-1.5,1.22-1.64,3.24-1.78,4.46-.84,6.9-4.31,7.54-6.25,16a41.29,41.29,0,0,0-.89,8c-.66,11.89-5.71,16.94-9.81,30.31-2.66,8.7-3.26,16.2-4.46,31.21-1.3,16.38.62,15.32-.89,20.51-.31,1.08-1.14,3.71,0,6.24a7.92,7.92,0,0,0,6.24,4.46c4.54.4,8.41-4.14,8.92-3.56.2.22-.25,1-.89,1.78-2.81,3.26-7.32,2.7-16.94,3.57-7,.62-8.79,1.29-9.81,0-1.35-1.71.36-4.66,2.67-10.7,1.79-4.66,2.87-9.55,4.46-14.27,3.59-10.65,3-13,7.14-29.43,3.72-14.68,4.05-12.19,7.13-25,4.55-18.9,6.24-26.75,6.24-26.76,2.14-9.91,2.79-14,6.24-16.94C518.73,896.15,521.43,894.17,521.25,891.69Z"/><path class="cls-44" d="M535.52,881c-1,.62,2.57,4.93.89,9.81-.81,2.36-2.32,3.31-1.78,4.46.61,1.34,3.48,1.89,5.35.89,1.71-.92,1.82-2.75,2.67-2.67,1.1.09,1,3.16,3.57,5.35.53.44,1.35,1.13,1.78.89.91-.52.11-5.11-2.67-7.14a5.25,5.25,0,0,0-1.79-.89c-1.86-.47-1.24-1.27-1.78-1.78s-.9-.55-.89-2.68C540.88,883.64,536.48,880.4,535.52,881Z"/></g><g id="כיסים_שמאל" data-name="כיסים שמאל"><path class="cls-45" d="M285,716.92c3.09,2.72-.21,8.58-1.78,22.29-.14,1.2-.64,5.75-1.55,11.87-.12.74-.2,1.26-.23,1.51-3,20,2.53,30.43,4.45,66.88.37,6.85.84,11.4,1.79,20.5,1.66,16,2.6,18.7,4.46,21.41,1,1.41,2.25,2.92,1.78,4.45-.94,3.06-8,4.62-13.38,3.57-13.63-2.66-19.65-22.85-20.51-25.86-2-7.16-.7-8.25-1.78-21.4-1-11.84-3-21.27-7.13-40.13-4-18.16-5.47-21.36-5.35-30.31.11-8.78.24-19.15,7.13-25,4.11-3.47,6.77-2.06,16.94-8a18.94,18.94,0,0,1,7.14-2.67C279.34,715.68,283,715.15,285,716.92Z"/><ellipse class="cls-54" cx="243.74" cy="700.56" rx="1.32" ry="3.95" transform="translate(-219.22 121.03) rotate(-19.44)"/><path class="cls-44" d="M267.69,642.44c1.94-.23,1.36,12.23,10.3,20.33,5.29,4.8,11.13,5.53,11,8.76s-5.82,5.5-6.63,5.82c-4,1.64-5.83.48-9.9,1.15-8.71,1.42-13.94,8.85-14.82,8-.5-.5,1.75-2.43,2.19-6.11.37-3.19-1-4.58-1.32-7.24-.58-4.58,2.65-7,5.26-12.16C268.64,651.33,266,642.64,267.69,642.44Z"/><path class="cls-44" d="M253.74,683.91c.53.46-5.73,4-4.46,7,.75,1.71,3.74,2.35,5.49,2.73,7.5,1.62,14-1,14.13-.65s-5.24,3.51-12.48,3.47c-4.68,0-12.72-1.39-13.38-4.86C242.23,687.31,253.1,683.35,253.74,683.91Z"/><path class="cls-44" d="M297.44,725c-7.88-4.53-9.87-9.72-11.6-8.92-1.56.72-.11,5-.89,15.16-.5,6.61-1.58,7.65-2.67,14.27-1.31,7.93-.74,13.65,0,22.29,1,11.88,1.48,23.8,2.67,35.67,1,10,1,20.66,2.39,33.28.16,1.4.73,6.48,2.07,13.08,1,5,3,13.48,3.57,13.38.74-.13-1.74-15.28-3.57-33-2.62-25.43-.43-19.71-2.67-44.59-1.68-18.52-2.15-27.82,1.78-33.88,2.79-4.3,5.63-5.19,9.81-12.49s3.51-10.12,2.67-11.59C300.28,726.35,299.3,726,297.44,725Z"/><path class="cls-60" d="M246.61,707.11c-.92,1.11-.43,2.84,0,4.46a60.82,60.82,0,0,1,1.78,8c.25,2.53-.47,3.7-1.78,8-1.15,3.8-1.78,7.73-2.68,11.59-3.72,16,8,59.75,8,59.75,4.69,38.82,6.34,55,6.24,58,0,.71,0,1.36,0,2.67.07,5.86.55,6.69.89,7.14s.87,1,4.46,1.78a41.55,41.55,0,0,0,8,.89,24.42,24.42,0,0,1,3.56,0,16,16,0,0,1,4.46,1.78c.23-.29-6.71-5.09-10.7-9.8-6.67-7.89-6.55-17.26-7.13-26.76-.62-10.1-3.09-22.48-8-47.26-4.73-23.72-8.89-34-4.46-44.58a61.16,61.16,0,0,1,8.92-14.27,35.13,35.13,0,0,1,8.92-8c5.45-3.27,9.9-3.54,9.81-4.46-.16-1.59-13.05,2.24-20.51-4.46-2.16-1.94-5-5.8-8-5.35A2.85,2.85,0,0,0,246.61,707.11Z"/></g><path class="cls-44" d="M285.84,941.63c-.58,2.57.42,1.9,6.25,26.75,3.62,15.47,5.44,23.32,5.35,28.53-.16,8.67-2,12.16.89,16.94s8.11,7.27,8,12.49c0,1.16-.61,1.54-.89,3.56-.43,3.14,0,7,.89,7.14,1.16.2,4-5.14,4.46-10.7.67-8.49-4.87-10.63-7.13-20.51-2.22-9.7,2.44-10.58.89-22.29-1.6-12.07-7.13-15.48-4.46-20.51,2.81-5.3,11.57-6.52,16.05-7.14a46.19,46.19,0,0,1,10.7,0c11.42.69,20.69-2.81,39.24-9.8,8-3,11.07-4.72,13.37-8,2.95-4.24,4.3-10.59,2.68-14.27C374.69,907,291.54,916.49,285.84,941.63Z"/><path class="cls-45" d="M280.49,893.48c1.33-.65,5.36,6.74,8.92,10.7,9.52,10.58,27.08,9.27,43.69,8,9.44-.71,28.45-2.36,48.15-15.16,12-7.81,14.17-17.35,18.73-16,6.23,1.79,9.28,20.15,2.68,33.89-3.48,7.22-8.67,11.2-15.16,16a103.18,103.18,0,0,1-35.67,16.94s-29.68,7.81-54.39-.89c-8-2.83-11.11-6.65-12.49-8.92a20.33,20.33,0,0,1-2.67-8c-.4-3.91.68-5.63.89-8.92.39-6.14-3.4-6.26-3.57-12.49-.1-3.71,1-4.32.89-9.8C280.4,895.4,279.9,893.76,280.49,893.48Z"/><path class="cls-44" d="M422.32,967.12c.2-2.07.65-6.63,5.4-7.52s8.38,2.92,18.89,5c17.5,3.48,35.11-1.65,37.78.84,1.22,1.14-1.48,3.18-4.5,4.18-5.95,2-11.76-.54-20.69.83-5.18.8-10.11,2.7-12.59,5-4.32,4,2.29,6.11-1.8,11.28-2.34,3-5.59,3.64-5.4,6.27.14,1.79,1.7,2.12,2.7,5,.54,1.55,1.19,3.42,0,5.43-1.31,2.21-5.23,5.22-8.09,5-6.94-.51,1.22-19.36-9-32.59A13,13,0,0,1,422.32,967.12Z"/><path class="cls-45" d="M429.41,738.32c-3.81,28.1,1.41,67.1,2.67,79.36,4.52,44-11.35,40.81-9.81,91,1,31.16,7,28.41,15.16,90.07,4.35,32.73,6.5,49.55,5.35,71.33-1.65,31.1-6.95,29-9.81,69.55,0,0-1.18,16.81-8,49.94a63,63,0,0,1-8.92,22.29c-2.17,3.32-5.44,9.49-7.13,8.92s.22-8.22,1.78-25c1.71-18.34.44-21.91,3.57-32.1,1.37-4.47,2.38-6.28,3.56-11.59,1.41-6.29,1.6-10.93,1.79-19.62.62-28.3-.14-34.07-.89-38.34-.16-.86-3.15-6.24-2.68-11.6a17.46,17.46,0,0,1,1.78-6.24c.75-1.35,1-1.25,1.79-2.67s2.43-4.32,1.78-7.14c-.51-2.2-1.84-1.91-2.67-4.45-.56-1.69-.37-3.21,0-6.25.4-3.3.83-3.25.89-5.35.06-2.5-.55-3.23-.89-6.24s-.49-4.56,0-6.24c.78-2.71,2.13-2.74,2.67-5.35.19-.9.71-3.46-.89-5.35-1.16-1.37-2.5-.6-4.46-1.78a8.72,8.72,0,0,1-3.57-5.35c-.66-3,.91-3.73,1.79-8.92a20.18,20.18,0,0,0,0-8.92c-.42-1.58-1.47-3.43-3.57-7.13-2.65-4.69-3-4.74-3.57-6.24-1.23-3.55-.06-6.16.9-10.7a61.45,61.45,0,0,0,.89-17.84,72,72,0,0,0-2.68-14.26,95.57,95.57,0,0,0-3.56-10.7c-5.54-14-6.58-48.49-7.14-61.53a529.54,529.54,0,0,0-5.35-59.74c-2.2-14.65-4.25-23.49-6.24-42.81-1.46-14.1-2.23-22-1.78-33,.5-12.22,1.89-13.47,4.45-36.56,1.79-16.1,2.69-24.16,2.68-30.32,0-19.88-3.79-29.91,1.78-33.88,1.69-1.2,2.32-.49,13.38,0s19.18.81,28.53-.89c3.28-.6,4.14-1,8.92-1.78,9.87-1.68,14.81-2.52,16.05-.9,2.45,3.21-7.53,11.07-14.27,26.75-1.89,4.41-3.34,11.86-6.24,26.75-2.48,12.77-4.13,24-6.24,38.35C430.31,731.86,429.59,737,429.41,738.32Z"/><path class="cls-44" d="M390.17,638.45c3.57,3.24,3.23,8.87,2.68,15.16-1.61,18.18-3.35,22.89-3.57,32.1-.27,11.22,2.19,9.22,1.78,19.62-.64,16.38-6.59,17.34-6.24,32.1a88,88,0,0,1-.89,18.73c-.49,3-1.35,7.18-1.78,7.13-.77-.09,1.88-13.4.89-32.1-.61-11.43-2-14.49-.89-23.19.5-3.83,1.23-6.75.89-11.59-.57-8-3.18-8.5-3.57-14.27-.71-10.72,8-13.63,6.24-23.18-.78-4.18-2.66-4.69-3.56-10.7-.32-2.11-1.49-9.92,1.78-11.59C385.75,635.74,388.5,636.93,390.17,638.45Z"/><path class="cls-45" d="M405.33,904.18A162.41,162.41,0,0,0,456.16,922c32.21,5.47,50.5-1.81,52.61-3.57.16-.13,1.36-1.18,1.78-.89s-.59,2.9-.89,3.57c-3.3,7.44-5.87,24.32-6.24,26.75-1.43,9.32-.89,13.42-4.46,16a10.66,10.66,0,0,1-6.24,1.78c-21.35.93-17.13,2.59-26.75,1.79-15.67-1.31-33.17-2.76-46.37-16A51.79,51.79,0,0,1,410.68,939C403.16,924.35,404.42,910.22,405.33,904.18Z"/><path class="cls-44" d="M377.69,801.63c.74-2.48,4.33-1.33,6.24-4.46,2.18-3.57-1.13-7.3,0-16,.21-1.59.46-3.54.89-3.56,1.14-.06,2.46,12.73,5.35,38.34,2.81,24.86,2.24,18.84,3.57,31.21,3.42,31.81,2.33,30.57,4.46,44.58.28,1.84,2.27,13.14,6.24,35.67,2.25,12.76,1.65,9.94,2.67,15.16,3.89,19.73,6.19,23.41,4.46,31.21-1.25,5.63-3.16,6.92-2.67,11.59.7,6.73,5,7.41,6.24,14.27,1.38,7.8-3.54,10.79-.89,16,2.17,4.31,6,3.3,8,8,1.19,2.76.8,5.7,0,11.6-.35,2.61-.66,3.4-1.78,9.8-.72,4.11-.61,5.34-.89,5.35-.65,0-3-6.18-.89-11.59.92-2.32,2.16-3.2,2.67-6.24.18-1.06.66-3.93-.89-5.35-.83-.77-1.74-.64-2.68-.89-3.85-1-5.21-7.37-5.35-8-1.3-6.23,2.9-8,1.79-14.26-.26-1.46-1.36-3.65-3.57-8-2.85-5.67-4.13-6.89-4.46-9.81-.35-3.21.81-5.21,1.79-8,3.7-10.73.64-22-.9-27.65-.49-1.81-1.91-6.56-3.56-11.59-.47-1.43-.83-2.47-.89-2.67-5.14-15.22-7.14-33.89-7.14-33.89-2.27-21.24,1.48-21.74-1.78-35.66-1.55-6.61-3.14-9.69-3.57-17s.76-10.47-1.78-14.26c-3.37-5-10.12-6.17-9.81-7.14s5.52,1.4,8-.89c2.67-2.44,1.16-9.06-.89-13.37C382.3,806.92,376.76,804.74,377.69,801.63Z"/><path class="cls-44" d="M440.11,1103.92c.71,9.54,4.06,11.35,5.35,18.72,1.19,6.84-1.37,7.14-4.46,25-2.21,12.7-.68,11.26-2.68,20.51-3,14-6.53,17.36-4.46,24.07s.35,4.6-.89,8c-1.41,3.93-1.5,5.82-6.24,10.7,0,0-3.09,3.18-2.67,25,8.17,4.15,22.77,9.79,39.23,6.24,1.28-.28,6.07-2.18,6.24-1.79s-5.56,3.64-9.81,5.35c-1.9.77-24.71,9.59-40.12-3.56-5.52-4.71-12.79-13-10.7-19.62.92-2.94,3.32-4.51,4.46-5.35,7.95-5.88,10.57-17.81,13.37-35.67,4.27-27.16,6.67-53.53,10.7-76.68,0,0,2-11.68,2.68-11.59C440.5,1093.27,439.67,1098.09,440.11,1103.92Z"/><path class="cls-44" d="M501.63,1078.06c-1.13.28,2.44,7.5-.89,12.48-3.89,5.83-14.9,5.08-24.07,4.46-13.79-.94-22-4.45-22.3-3.57s9,8,21.4,8.92c11.63.85,20.27-4.11,22.3-.89.92,1.46-.6,2.9-1.79,8.91-.88,4.45-.58,6.34-.89,10.7-.77,10.82-3.92,17.73-3.57,17.84.6.19,9.23-19.32,9.81-31.21a36.48,36.48,0,0,1,1.79-11.59c.88-2.55,1.51-3.3,1.78-5.35C506,1083.1,502.62,1077.81,501.63,1078.06Z"/></g></g><g id="שיער"><rect class="cls-61" x="363.42" y="8.92" width="107" height="52.61" rx="24.31"/><rect class="cls-62" x="378.58" y="2.68" width="75.79" height="56.18" rx="21.55"/><rect class="cls-20" x="397.31" width="39.23" height="59.74" rx="19.62"/><path class="cls-62" d="M348.26,158.72a44.91,44.91,0,0,1,8-30.32c30.83-43.86,74-37.45,74-37.45,44.13,6.55,61.37,55.77,59.74,60.64a23.77,23.77,0,0,0-.89,3.56c-.51,2.9-.7,6.95,0,7.14,1.23.33,5.55-11,7.13-16,1.12-3.54,7.27-11.47,6-26-1.45-17-11-32-14.05-38.16-4.81-9.67-16.82-33.24-42.8-44.59C440,35.08,416.92,33,392,36.56c-45.33,6.47-60.71,66.71-62.42,75.79-4.39,23.25,4.44,34.14,7.13,41,3.64,9.32,10.39,18.42,11.59,17.84C349.16,170.77,349,165.29,348.26,158.72Z"/><path class="cls-62" d="M338.45,143.56c-.17,7.76-2,7.44-1.78,14.27.12,3.22.64,6,6.24,23.18,2.73,8.34,3.85,11.48,3.57,11.6-.54.22-5.12-9.51-8-16.05-3.7-8.35-5.62-12.49-6.24-15.16-1.18-5.14-.54-6.83,0-23.19.45-13.75.14-16.83.89-16.94C334.53,121.06,338.73,131.59,338.45,143.56Z"/><path class="cls-62" d="M499.85,132.86c2.5.55-2,30.38-2.68,30.32-.32,0,1.21-6.73-.89-13.38a16.81,16.81,0,0,1-.89-4.45,17.55,17.55,0,0,1,.89-6.25C497,136.81,498.89,132.65,499.85,132.86Z"/><path class="cls-20" d="M490.93,211.33c-4.36,26.14-13,47.6-14.26,47.26s6.72-21.8,8.91-50.83c2.66-35.19-2-97.75-34.77-113.24-15.13-7.14-29.95-8-31.21-13.38-.48-2.07,1.34-5,4.56-7.74,18.62,6.85,15.95,6,29.32,14,15.38,9.23,22.62,24.83,29.43,41,8.09,19.26,9.75,35.29,10.54,37.25h0A207.49,207.49,0,0,1,490.93,211.33Z"/><path class="cls-20" d="M330.43,171.2c2.56-13.48,9.33-22.47,12.48-26.75,22.37-30.37,21.25-31.36,31.21-45.47,10.7-15.16,23.28-23.26,34.77-21.55a7.59,7.59,0,0,1,.9,2.82s1.59,5.08-.89,4.46c-17.84-4.46-36.56,26.75-59.75,63.31-14.23,22.44-19.72,54.37-7.13,70.44,6.38,8.15,17.94,13.17,16.94,15.16-.26.53-7.22-2.44-13.37-8-17.26-15.67-16.46-41.15-16-47.26A58.92,58.92,0,0,1,330.43,171.2Z"/><path class="cls-20" d="M426.73,58c-4.64-5.07-7.73-6-3.57-9.81,8.06-7.37,32.86,8,38.35,11.59,5,3.27,8.66,5.47,12.48,9.81,6,6.79,5.18,10.32,12.48,22.29,5.6,9.17,7,8.61,9.81,15.16,4.47,10.33,3.75,18,3.57,19.62-.74,6.73-3.52,12.68-4.46,12.48-1.39-.3,3.73-13.81-1.78-26.75-1.41-3.3-3.1-5.57-10.7-13.37C466.32,82,458,73.44,451.7,71.34,438.08,66.82,432.67,64.44,426.73,58Z"/><path class="cls-20" d="M482.91,106.11c.26-.13,1.64,3.55,5.35,7.13,2.67,2.59,3.24,1.92,4.46,3.57,2.32,3.17,0,5.25.89,14.27a29.3,29.3,0,0,1,0,7.13c-.07.56-.46,3.58-.89,3.57-.61,0-.07-5.89-1.79-13.38-1-4.54-2.62-8.44-5.35-15.16C484.28,110,482.64,106.24,482.91,106.11Z"/><path class="cls-20" d="M408.9,46.37c1.93,2.7-3.32,5.53-5.35,8.91-5.74,9.53-17.69,2.1-31.21,12.49-7.3,5.61-3.13,9-13.38,21.4-9.88,12-15.88,11.42-22.29,22.29-6,10.23-6.06,19.79-7.13,19.62s-1.66-8.76.89-17.84c1-3.57,3-9,15.16-25,6.5-8.55,6.91-8.3,15.16-18.73C373.33,53.63,373.08,52.13,377.69,49,388.34,41.9,404.39,40.07,408.9,46.37Z"/><path class="cls-20" d="M352.72,100.76c-1.37-.89-6.88,5.35-11.59,10.7-4.53,5.14-6,7.57-7.13,9.81a28.48,28.48,0,0,0-2.68,8,25.33,25.33,0,0,0,0,8,7.05,7.05,0,0,0,.89,3.57c.37.54.61.9.89.89,1.24,0,1-6.88,3.57-14.27a31.68,31.68,0,0,1,4.46-8.91c4.23-5.78,8.23-6.61,10.7-12.49C352.47,104.59,353.59,101.33,352.72,100.76Z"/></g><g id="צהל-2" data-name="צהל"><path class="cls-55" d="M523.58,410.18c-14.05-1.85-42.38-8.92-42.38-8.92s-1.37-7.08-.77-10.06,1.84-6,2-8.7c10.39,5.37,40.71,10.56,40.71,10.56s2.69,2.16,1.92,7.24S523.58,410.18,523.58,410.18Z"/><text class="cls-63" transform="matrix(0.93, 0.19, -0.19, 0.98, 499.79, 401.56)">הצ</text></g></g></svg>