<svg id="Layer_1" data-name="Layer 1" xmlns="http://www.w3.org/2000/svg" xmlns:xlink="http://www.w3.org/1999/xlink" viewBox="0 0 711.03 1579.35"><defs><style>.cls-1{fill:none;}.cls-2{fill:#ce917a;}.cls-3,.cls-31{fill:#daad94;}.cls-12,.cls-4{fill:#9d725b;}.cls-5{fill:#825848;}.cls-6{fill:#ba9e95;}.cls-7{fill:#a3877f;}.cls-8{fill:#cdb8c7;}.cls-9{fill:#d7c6d2;}.cls-10{fill:#d19879;}.cls-11{fill:#c4aa9d;}.cls-11,.cls-12,.cls-31,.cls-33{opacity:0.4;}.cls-13,.cls-33{fill:#694c3d;}.cls-13{opacity:0.3;}.cls-14{fill:#723940;}.cls-15{fill:#a55360;}.cls-16{fill:#834951;}.cls-17{opacity:0.7;}.cls-18{fill:#72564a;}.cls-19{fill:#4c3831;}.cls-20{fill:#ba856e;opacity:0.6;}.cls-21,.cls-25{fill:#9f98a0;}.cls-22,.cls-26{fill:#312b32;}.cls-23,.cls-24{fill:#9b8c8c;}.cls-23{opacity:0.15;}.cls-25,.cls-26{opacity:0.1;}.cls-27{fill:#757881;}.cls-28{fill:#3e3940;}.cls-29{fill:#fff;}.cls-30{clip-path:url(#clip-path);}.cls-32{fill:#989291;}.cls-34{fill:#282f3f;}.cls-35{fill:#1b202a;}.cls-36{fill:#12141a;}.cls-37{fill:#181b23;}.cls-38{fill:#222837;}.cls-39{fill:#0c0e12;}.cls-40{fill:#dadde6;}.cls-40,.cls-52{opacity:0.03;}.cls-41{fill:#757f60;}.cls-42{fill:#4d563c;}.cls-43{fill:#586345;}.cls-44{fill:#6b775a;}.cls-45{fill:#3c3f3a;}.cls-46{fill:#5d625a;}.cls-47{fill:#0e4449;}.cls-48{fill:#123838;}.cls-49{fill:#103332;}.cls-50{fill:#1b1a1f;}.cls-51{fill:#14151d;}.cls-52{fill:#a0afaf;}.cls-53{fill:#2b2e33;}.cls-54{fill:#47423c;}.cls-55{fill:#32353e;}.cls-56{fill:#63574b;}.cls-57{fill:#656060;}.cls-58{fill:#464a44;}.cls-59{fill:#4d5747;}.cls-60{fill:#382823;}.cls-61{fill:#3d2d28;}.cls-62{font-size:18px;fill:#25211b;font-family:GuttmanAharoni, Guttman Aharoni;}</style><clipPath id="clip-path"><path class="cls-1" d="M268.33,292.86c.67-8.21,1.12-9.26,1-14-.16-6.14-2-14.12-4.25-23a7.88,7.88,0,0,1-.21-2.85c.53-.33,6.1,11.91,14.46,20.81,4.71,5,16.12,17.16,33,19,12.89,1.41,22.95-3.84,29-7,14.71-7.68,26.89-21.81,31-30,.31-.62,1.55-3.15,2-3,.77.27-1.88,8.12-3,15-.35,2.18-4.24,27.87,9,39,3.59,3,7.73,4.35,16,7,10.21,3.28,13.8,2.33,17,6,4.83,5.55,2.74,14.73,2,18-2.3,10.11-8.69,16.68-11,19-22.86,22.93-54.41,49.61-63,57-12.4,10.67-16.44,21.6-22,20-1.52-.44-4.7-2.18-8-22-3.06-18.4-2.77-31.7-7-52-1.74-8.36-3.48-14.22-8-16-5.72-2.25-10.7,4.1-17,2-5.84-1.94-8.1-9.57-10-16C266.23,319.39,266.93,310,268.33,292.86Z"/></clipPath></defs><g id="דמות"><g id="יד_שמאל" data-name="יד שמאל"><path class="cls-2" d="M68.56,793c1.07,1.84.35,5.66-16,23-16.72,17.74-24.48,22.78-28,31a25.22,25.22,0,0,1-5,8c-2.51,2.66-4.41,3.42-8,6-4.62,3.34-6.26,5.55-9,8-9.3,8.3-21.49,10.4-25,11-10.39,1.79-10.6-1.4-20,1-4,1-3.38,1.46-18,7-7.16,2.72-10,3.65-14,4a31.88,31.88,0,0,1-12-1c-2.39-.69-4-1.49-5-3a6.4,6.4,0,0,1-1-5,6.75,6.75,0,0,1,2-3,11.63,11.63,0,0,1,3-2,29.4,29.4,0,0,1,6-2c3.57-.94,3.13-.66,4-1,3-1.15,3.24-2.49,6-4a53.75,53.75,0,0,1,7-2c4.64-1.19,5.46-1.33,7-2,2.74-1.18,5.11-2.78,5-3s-1.63.52-3,1-10.47,3.65-17,0c-1.84-1-3.67-2.71-7-3-.71-.06-.62,0-2,0-4,0-5.59-.71-9-1-4.06-.34-3.45.47-6,0-3.68-.68-4.37-2.27-8-3-2.39-.48-2.14.2-6,0-4.18-.22-4.29-1-11-2-3.09-.46-3.68-.38-5-1-1.92-.9-2.44-1.91-5-3-1-.42-.88-.26-3-1a38.23,38.23,0,0,1-5-2c-2.86-1.5-4.44-2.31-5-4-.39-1.21-.21-2.71-1-3-.37-.14-.57.13-1,0a2.37,2.37,0,0,1-1-3,2.63,2.63,0,0,1,2-1,22.74,22.74,0,0,1,10,1,14.66,14.66,0,0,0,4,1c1.69.12,1.7-.25,3,0,1.46.28,2.19.9,4,1a8,8,0,0,0,1,0h23c4.48-.35,6.13-1,13-2,3.32-.49,5.28-.76,8-1,8.14-.71,10.31.1,16-1,1.7-.33,1.46-.39,7-2,5.38-1.56,11.82-3.43,19-5,2.73-.6,2-.38,15-3a59.48,59.48,0,0,0,8-2,30,30,0,0,0,10-5c2.34-1.93,3.72-4,6-8,7-12.38,5.87-14.32,11-23,2.39-4,4.35-6.52,5-11,.31-2.09.13-3.24,1-4,2.06-1.78,6.81,1.36,14,5,13,6.57,20.46,10.35,30,12C66,791.59,67.74,791.57,68.56,793Z"/><path class="cls-3" d="M-39.44,880c-.28-2,18.43-2.06,36-13,6.64-4.13,13.43-12.42,27-29,20.58-25.14,22.25-31.53,21-37-2-8.92-11.32-13-10-15,1.51-2.23,14,3,29,9,2.11.84,4.27.56,5,2,1.73,3.42-7.47,9-19,22-5.52,6.21-3.84,5.39-15,19-9.67,11.8-13.53,15.59-15,17a138.49,138.49,0,0,1-16,13c-5.43,3.82-8.34,5.86-13,8a52.94,52.94,0,0,1-19,5C-31.58,881.17-39.26,881.28-39.44,880Z"/><path class="cls-4" d="M26.56,784c0,15-9,30-9,30-7.29,12.21-10.94,18.31-17,22-7.17,4.37-11,2.79-34,5-19.13,1.84-18.61,3.15-32,4-21.12,1.34-37-.75-37-1s12.94-.94,25-1a26.12,26.12,0,0,0,8-1c4.76-1.43,5.95-3.42,11-6,3.21-1.64,6.14-2.43,12-4,5.68-1.52,8.95-2,14-3,14-2.74,21-4.1,25-7,6.16-4.44,9.42-10.87,11-14,3.21-6.32,2.14-8.07,6-14,2.12-3.26,3.85-6.76,6-10a9.59,9.59,0,0,0,2-5c.1-1.76-.49-2.49,0-3,1.1-1.15,6,.48,8,4A8.05,8.05,0,0,1,26.56,784Z"/><path class="cls-5" d="M13.56,786c1.11.31-.65,12.22-5,24-2.35,6.39-3.58,9.54-6,12-5,5.1-11.24,5.46-24,7-20.14,2.43-27.92,4.45-28,4s9.28-2.69,16-4c5.57-1.09,6.17-1,11-2,7.94-1.72,12-2.64,15-5,1.61-1.25,3.43-4.19,7-10,2.52-4.1,5-8,8-14C12.05,789.27,13,785.83,13.56,786Z"/></g><g id="יד_ימין" data-name="יד ימין"><path class="cls-6" d="M708.24,904.24a9.21,9.21,0,0,1-2.26,1c.71-.3,1.26-.55,1.6-.71Z"/><g id="יד_ימין-2" data-name="יד ימין"><path class="cls-2" d="M635.56,873c.67.46,1.71,1.17,3,2,7.62,4.9,11.43,7.35,16,8,3.54.5,4.85-.31,8,1,2.12.88,2.07,1.47,5,3a71.57,71.57,0,0,0,8,3c2.42.83,3.87,1.33,6,2,3.43,1.07,5.14,1.61,7,2,2.29.48,2.28.28,7,1s4.06.81,6,1c5,.49,6.67-.4,8,1a4.14,4.14,0,0,1,1,4c-.35.85-1.16,1.31-1,2,.13.52.67.62,1,1,1,1.1-.28,3.92-1,5-3.62,5.48-18,3.62-24,2-2.65-.72-5.45-1-8-2a8.63,8.63,0,0,0-5-1c-1.42.25-1.54.8-3,1s-1.87-.28-5-1c-2.83-.65-3-.35-5-1a21.73,21.73,0,0,0-3-1c-1.65-.3-2.1.06-4,0a16,16,0,0,1-5-1,15.33,15.33,0,0,1-4-2c-2-1.43-2.27-2.41-4-3-1.08-.37-2.68-.57-3,0s.93,1.91,3,4c2.48,2.5,3,2.52,4,4,1.17,1.69.94,2.29,2,4,1.22,2,2.17,1.74,4,4a33.85,33.85,0,0,1,2,3c2.25,3.58,1.71,3,3,5a11.39,11.39,0,0,1,2,4,3.4,3.4,0,0,1,0,2,3.78,3.78,0,0,1-2,2,9.18,9.18,0,0,1-5,1c-5.93-.46-11.82-5.15-14-7-2.4-2-1.28-1.45-7-7-2.82-2.74-1.36-1.2-10-9-3.18-2.88-4.53-4.12-7-5a27.5,27.5,0,0,0-6-1c-6-.66-6.78-.18-9-1-2.06-.76-5.49-2.7-6-5-.88-4,7-10,19-15Z"/><path class="cls-4" d="M646.56,897c7.12-1,9.66-2,14-1,1,.24.65.25,3,1a84.83,84.83,0,0,0,13,3c7.48,1.12,6.52-.11,14,1a78.36,78.36,0,0,0,11,1c2.29,0,6,0,7-2,.41-.77.48-1.94,1-2s.82.55,1,1c.64,1.54-.6,3.4-1,4-3.06,4.61-18,3-18,3a315.32,315.32,0,0,1-36-4c-2.93-.5-16.12-2.76-16-4C639.61,897.55,641.34,897.71,646.56,897Z"/><path class="cls-3" d="M637.66,899.39a36.33,36.33,0,0,0,9.35,1.44,35.33,35.33,0,0,0,4.63-.21l4-.93c.47.26,1.15.63,2,1a31.81,31.81,0,0,0,12,3.2,57.54,57.54,0,0,0,6,.1,3.75,3.75,0,0,1,1,0,3.86,3.86,0,0,1,2,1c1.5,1.35,6.43,1.16,8,1.13,6.24-.11,6.15,1.45,11,1.19a28.93,28.93,0,0,0,10.05-2.84l2-1a14,14,0,0,1,1,1c.7.94.1,2.58-.05,3-1,2.81-6.2,3.73-7.07,3.89,0,0-10.53,1.83-30.94-3.52a36,36,0,0,1-10-.16s-.55-.16-6-2.1h0a25.18,25.18,0,0,1-18.9-6.32Z"/></g><path class="cls-6" d="M707.58,904.55l.66-.31a9.21,9.21,0,0,1-2.26,1C706.69,905,707.24,904.71,707.58,904.55Z"/><path class="cls-6" d="M708.56,900a2.34,2.34,0,0,1-.51.66C708.17,900.3,708.32,900,708.56,900Z"/><path class="cls-6" d="M709.56,903a4.35,4.35,0,0,1-.28.74h0l-1,.46A4.47,4.47,0,0,0,709.56,903Z"/><path class="cls-7" d="M708.24,904.24a9.21,9.21,0,0,1-2.26,1c.71-.3,1.26-.55,1.6-.71Z"/><path class="cls-5" d="M594.56,898c1.39,1.61,3.1,2,8,3,10,2,9.24,1.74,10,2,6,2,10.16,6.16,12,8,2.5,2.51,3.48,4.24,7,7,1.55,1.21,2.35,1.66,4,3,3.2,2.6,3.83,4,6,6,4.64,4.37,9.19,5.49,9,6s-4.55.22-9-2c-3.33-1.66-4.18-3.15-10-9a147.75,147.75,0,0,0-12-11c-3.59-2.91-5.38-4.37-7-5-4.89-1.91-6.94,0-14-2a15.62,15.62,0,0,1-7-4c-.73-.76-2.6-2.69-2-4a2.06,2.06,0,0,1,2-1C593,895.13,593.48,896.74,594.56,898Z"/><path class="cls-8" d="M643.56,924l7,8a4.55,4.55,0,0,0,4,0c1.88-1,2-5,2-5a35.06,35.06,0,0,0-3-4c-1.11-1.28-6.74-6.68-5-5l0,0a14,14,0,0,0-4.61,5.27l-.36.71"/><path class="cls-9" d="M656.56,927s-.12,4-2,5a4.54,4.54,0,0,1-4,0l-.8-.91c3.51-2.7,5.14-4.51,5.68-5.73C655.8,925.86,656.18,926.4,656.56,927Z"/><path class="cls-5" d="M709.56,903c.11-.07.64.39,1,1a4.62,4.62,0,0,1,0,3.91.39.39,0,0,1,0,.09c-.39.87-1.19,1.78-4,3a25.12,25.12,0,0,1-7,2c-6.2.57-9.49-1-22-3-3.22-.51-6-.87-7-1-4-.52-4.87-.47-9-1-2.89-.37-2.56-.39-7-1-6.16-.84-6-.68-7-1-2.15-.67-2.67-1.26-8-4-3.7-1.91-3.32-1.56-4-2-1.47-1-3-2.3-7-8-3-4.31-4.24-5.78-4-6s3,3.15,8,6,10.09,5.75,12,6c6.52.86,8.18,2,12,4,2.73,1.39,2.14-.56,6,2,3.32,2.19,6.41,1.18,9,2,2.85.9,2.85.61,8,2,4.57,1.23,4.58,1.46,7,2a43.88,43.88,0,0,0,10,1c6.51,0,9.49-1.23,11-2,2.09-1.06,2.89-2,3-3C710.74,904.55,709.39,903.12,709.56,903Z"/></g><g id="פנים"><path class="cls-2" d="M402.56,158.1c-.43,13.55-3.58,6.69-16,64.68a118.79,118.79,0,0,1-12,31.39c-3.41,6.27-6.06,14.82-15,22.83-4.63,4.15-24.12,21.61-49,18.07-17.22-2.44-28-13.68-35-20.92-2-2.12-5.31-7.84-11.47-20.19a165.9,165.9,0,0,1-7.53-17.86c-4.75-13.24-13.67-33-14-59.93-.18-15-.61-49.84,18.08-80.19a98.85,98.85,0,0,1,15.92-19.69c8-7.58,20.59-19.62,40-21.87,34.19-4,60,25.87,64,30.44C404,111.92,403,144.75,402.56,158.1Z"/><path class="cls-10" d="M400.56,169.51a10.58,10.58,0,0,1,5-2.85c1.18-.28,2.85-.68,4,0,2.09,1.24,1.56,5.45,1,8.56-1.68,9.33-4.83,15.23-7,20.93-2.43,6.4-1.39,10.39-4,17.12a29.33,29.33,0,0,1-5,7.61c-2,2.3-3,2.89-4,2.85-2.06-.07-3.48-2.81-4-3.8C382.76,212.61,396.77,178.56,400.56,169.51Z"/><path class="cls-10" d="M243.56,180.93a27.61,27.61,0,0,0-9-9.51,4.84,4.84,0,0,0-3-1c-2.31.18-3.77,2.5-4,2.86-.74,1.18-1.79,3.74,1,11.41,2,5.41,3.15,5.94,6,12.37,1.14,2.56.45,1.34,4,10.46.48,1.23,2.32,4.94,6,12.37a10.16,10.16,0,0,0,3,3.8c1.07.82,3.6,2.37,5,1.9C257.88,223.89,249.38,192.57,243.56,180.93Z"/><path class="cls-11" d="M330.56,299.83c3.51,2.62,29.7-15.85,44-42.81,2.64-5,11-13.31,13-35.19,1.83-20,10-28.63,11-33.29,2.25-10.19,7-33.22-2-59-4.17-11.91-11.06-31.59-31-41.85-20.1-10.35-47.12-7.86-50,0-2.38,6.52,25.24,12.84,51,43.75,15.89,19.07,18.21,26.58,17,33.3-1.11,6.17-5.15,11.41-4,20.92.73,6,2.78,7.63,4,12.37,2.76,10.71-4,17-10,32.34-10,25.41-12.72,31.62-23,41.85"/><path class="cls-12" d="M284.56,291.27c-2.86-2.26-7.91-11.34-18-29.49-4.84-8.71-6.22-11.63-7-13.32-1.34-2.91-4.66-10.41-9-25.68-2.6-9.17-4.54-16-6-24.73-2.3-13.79-4.82-28.89,0-46.61,2.19-8,5.67-20.21,17-30.44,8.9-8,21.15-13.52,23-11.41,2.76,3.13-23,16.74-30,43.75-4.31,16.61-12,40.15,0,58,6,8.9,4.53,13.59,9,26.63,4.34,12.65,8.35,14.49,13,22.83,4.92,8.81,23.95,44.56,42,55.17"/><path class="cls-13" d="M320.56,97.22c-24.5,33.3-52.81,45.32-61,68.49s11.75,34.21,4,80.85c-.48,2.87-1,5.32-1.47,7.4a165.9,165.9,0,0,1-7.53-17.86c-4.75-13.24-11.67-33-12-59.93-.18-15-.61-49.84,18.08-80.19a123.74,123.74,0,0,1,18.92-7.32c15.58-4.74,40.45-8.09,44-1C325.14,90.89,322,95.21,320.56,97.22Z"/><g id="שפתיים"><path class="cls-14" d="M297.56,239.9c5.54,1.69,5-1,7-1s6.86-1,9-.95c2,.06,2.17,1.1,5,1.9,1.17.33,4.23,1.2,7,0,1.62-.7,1.56-1.42,3-1.9,2.17-.72,4.13.3,6,.95,6.44,2.24,11.78,0,12,1s-3.87,2.66-8,3.81c-7.53,2.09-13.94,1.53-20,.95a88.87,88.87,0,0,1-15-2.85C301.1,241.12,299.05,240.43,297.56,239.9Z"/><path class="cls-15" d="M291.56,238a78.39,78.39,0,0,0,13,8.56c4.4,2.22,8.3,4.17,14,4.76,7.94.81,13.2-2.53,16-3.81,7.73-3.53,13.25-8.28,13-8.56s-2.24.06-6,1c-3,.71-5.27,1.17-7,.95,0,0-5.95.85-14,2.86h0s-4.32-1.3-7-1.9c-5.74-1.29-6.65,0-12-1A53.18,53.18,0,0,1,291.56,238Z"/><path class="cls-16" d="M289.56,237.05c.06-.19,5.42,3,12,1.9,6-1,7.61-4.73,12-3.8,2.83.59,4.39,2.6,7,1.9,1.55-.42,1.61-1.28,3-1.9,3.08-1.38,6.07,1.32,11,2.85,7.17,2.22,12.91.24,13,.95s-3.75,2-8,1.9c-2.92-.09-3.22.1-6,0-4-.13-4.87.41-9,1-3.5.46-4-.46-10-1s-6.28.35-11,0C295.39,240.25,289.5,237.24,289.56,237.05Z"/></g><g id="אף" class="cls-17"><path class="cls-4" d="M308.56,154.29c1-.3,7.31,8.2,7,18.08-.12,3.84-.6,5.62-1.75,14a36.93,36.93,0,0,0-.25,7,40.87,40.87,0,0,0,4,16.17c.32.66,1.17,1.21,1,1.91-.51,2.09-8,1.92-9,1.9-4.05-.09-6.41-.15-8-1.9s-1.29-4-1-6.66a27.8,27.8,0,0,1,3-9.51c3.27-6.71,5-10.22,6-14.27,1.35-5.66.8-10.72,0-18.08C308.91,156.87,308.07,154.45,308.56,154.29Z"/><path class="cls-18" d="M308.56,210.42c-1.06-.65-2.11-1.28-2-1.91.18-1,3.26-2,5-.95,1.22.73,1,2,3,3.81.7.63,1.07.78,1,.95C315.37,212.82,311.64,212.28,308.56,210.42Z"/><path class="cls-18" d="M323.56,212.32c-.1-.13.08-.38,3-3.81a3.69,3.69,0,0,1,5-.95c.35.18,1,.5,1,.95,0,.29-.27.57-1,1a9.35,9.35,0,0,1-3,1C325.46,210.87,323.86,212.67,323.56,212.32Z"/><path class="cls-18" d="M332.56,188.54c-.33.15,2.93,10.76,6,15.22a4.77,4.77,0,0,1,1,2.85,5.62,5.62,0,0,1-2,3.81c-1.84,1.63-4,1.72-4,1.9s2.65.32,5-.95c.45-.25,3.68-2,4-4.76.26-2.14-1.36-3.7-3-5.71C334.3,194.47,332.81,188.43,332.56,188.54Z"/><path class="cls-18" d="M307.56,185.68c-.05,0-4.93,14.46-6,20a4.5,4.5,0,0,0,0,1.9c.76,3.21,5.36,5,5.36,5s-.24-.17-.36-.25c-1,.2-4,.71-6-.95-2.45-2.09-1.52-6.22-1-8.56.78-3.48,2-4.27,5-10.47C305.93,189.5,307.59,185.7,307.56,185.68Z"/></g><g id="גבות"><path class="cls-4" d="M307.56,165.71c1-.52-2-4.64-4-13.32-.28-1.24-.6-2.84-2-3.8-2-1.39-4.71-.46-7,0-7.72,1.53-8.93-2.78-17-1.91a24.54,24.54,0,0,0-14,6.66c-2.56,2.44-3.41,2.49-3,2.86.57.51,3.29-2.1,10-3.81,3.65-.92,7.76,0,16,1.9,6,1.38,9.05,2.07,12,3.81C304.58,161.64,306.57,166.23,307.56,165.71Z"/><path class="cls-4" d="M337.56,148.59c-2.8,3.49-3.14,9.1-1,10.46,2,1.24,6.3-1.39,15-6.66,6.9-4.18,8.52-5.84,12-5.71,3.83.15,8.14,2.41,9,2.86,3.14,1.63,4.6,3.18,5,2.85.6-.49-1.24-5-5-7.61-1-.71-4.29-2.73-19-.95C340.43,145.42,338.36,147.6,337.56,148.59Z"/><path class="cls-19" d="M336.56,151.44c2.19,1.72,6.51-.5,21-4.76a16.94,16.94,0,0,1,6-1c4.56.22,8.15,2.56,10,3.81,3.79,2.53,5.51,5.08,6,4.75s-.82-2.94-2-4.75a19.07,19.07,0,0,0-7-6.66,19.6,19.6,0,0,0-5-1.9c-1.86-.43-3.72-.56-9,0-4,.42-6.67.89-13,1.9l-5.09.81a2.94,2.94,0,0,0-1.56.76l-.66.63a2.68,2.68,0,0,0-.83,1.64C335.08,149.7,335.86,150.89,336.56,151.44Z"/><path class="cls-19" d="M303.56,152.39c-1.86,1.92-6.17-.32-16-1.9-5.77-.93-8.65-1.39-12-1-9.16,1.2-14.25,7.43-15,6.66s2.71-5.54,8-8.56a25.52,25.52,0,0,1,9-2.86c5.24-.91,9.41-.57,16,0,3.38.3,6.15.67,8,.95l2,1C304.78,150.11,304.3,151.64,303.56,152.39Z"/></g><g id="עיין_ימין" data-name="עיין ימין"><path class="cls-20" d="M336.56,168.56c1.69-6.46,8.53-9.4,11-10.46a19.9,19.9,0,0,1,11-1.9,19.13,19.13,0,0,1,11,5.7c3.47,3.67,2.43,5.89,7,10.47,1.17,1.16,2,1.8,2,2.85,0,2.81-6.22,4.81-9,5.71-3.87,1.25-9.48,3.07-17,1.9-3.73-.58-13.73-2.13-16-8.56A9.54,9.54,0,0,1,336.56,168.56Z"/><path class="cls-4" d="M337.91,170.05c-.51-.59,4.1-6.35,11.58-10,3-1.45,13-6.34,20-2,3.61,2.25,5.58,6.43,6.32,8,.21.45,1.69,3.61,1.05,4s-3.05-3.64-7.37-6c-5.7-3.1-12.31-1.72-15.79-1C343.87,165.11,338.43,170.67,337.91,170.05Z"/><path class="cls-21" d="M338.56,172.37c-.34-2.46,8.08-7.32,9-7.61,4.46-1.41,7.19-2.27,11-1.91,7.06.67,12.07,5,14,6.66a26.37,26.37,0,0,1,2,1.91,31.09,31.09,0,0,1-8,3.8c-8.6,2.66-15.25.55-26-2.85C339.25,172,338.69,173.32,338.56,172.37Z"/><path class="cls-22" d="M361.56,163.37v1.39a8.25,8.25,0,0,1-3,6.66,7.86,7.86,0,0,1-6,1l-.31-.08c-.51-.13-3.62-1-4.69-3.73a4.7,4.7,0,0,1,0-3.8c4.46-1.41,7.19-2.27,11-1.91A20,20,0,0,1,361.56,163.37Z"/><path class="cls-23" d="M374.14,171.27a31.09,31.09,0,0,1-8,3.8c-.74.23-1.47.43-2.19.58-1-.53-1.87-1.26-1.89-2.08-.05-1.48,2.63-1.71,3-3.8.2-1.13-.49-1.53-1-4.76-.06-.35-.09-.64-.12-.88a29,29,0,0,1,8.2,5.24A26.51,26.51,0,0,1,374.14,171.27Z"/><path class="cls-24" d="M347.27,174.42c-2.07-.59-4.29-1.28-6.71-2-1.32-.42-1.87.95-2,0-.18-1.33,2.2-3.36,4.57-5a5.45,5.45,0,0,0,1.43,3.1c.81.85,1.39.9,2,1.91A5.5,5.5,0,0,1,347.27,174.42Z"/><path class="cls-25" d="M369.69,167.44c-10.31-1.27-25.55,3.94-30.06,2.91a32.39,32.39,0,0,1,7.87-5.42c4.46-1.41,7.19-2.26,11-1.9A23.15,23.15,0,0,1,369.69,167.44Z"/><path class="cls-26" d="M369.69,167.44c-10.31-1.27-25.55,3.94-30.06,2.91a32.39,32.39,0,0,1,7.87-5.42c4.46-1.41,7.19-2.26,11-1.9A23.15,23.15,0,0,1,369.69,167.44Z"/><path class="cls-27" d="M354.56,163.81c-.16.4.89.8,1,1.9.06.52-.14.88,0,.95s.72-.39,1-.95c.12-.23.64-1.28,0-1.9S354.72,163.42,354.56,163.81Z"/><path class="cls-28" d="M339.56,170.46a39.81,39.81,0,0,1,8-4.75,23.2,23.2,0,0,1,6-1.9,21,21,0,0,1,7,0,21.38,21.38,0,0,1,10,4.75c.49.39,1.28.84,3,1.9a18.39,18.39,0,0,0,4,1s-4-3.08-6-4.76a23,23,0,0,0-22-3.81A21.8,21.8,0,0,0,339.56,170.46Z"/></g><g id="עיין_שמאל" data-name="עיין שמאל"><path class="cls-20" d="M302.56,172.37a13.71,13.71,0,0,1-6,7.61c-10.64,6.21-24.76-5.11-34,1a9.43,9.43,0,0,0-4,4.75c-1.21,3.83-5.63,7.45-6,7.61s1.37-4.14,0-10.46c-1.44-6.68,1.19-16.1,8-20.93,4-2.83,8.6-3.24,15-3.8,1.53-.14,4.69-.09,11,0,9.06.13,10,.35,11,1C301.78,161.46,303.9,167.45,302.56,172.37Z"/><path class="cls-4" d="M301.87,169.05c.5-1-6.42-7.25-16-9-3.21-.58-11.47-2.09-17,3-3.7,3.41-5.31,9-4,10,1.65,1.32,6.19-5.87,15-8C291.32,162.3,301.28,170.21,301.87,169.05Z"/><path class="cls-21" d="M301.56,172.17c-.11.44-.77-.43-2,0-3.07,1.05-4.27,2.14-6,3a16.9,16.9,0,0,1-3.09,1.1,29.69,29.69,0,0,1-6.93.84,37.93,37.93,0,0,1-9-1,34.11,34.11,0,0,1-5-1.56c-.36-.14-.7-.29-1-.42a23.82,23.82,0,0,1,9-6.94l.14-.06a21.25,21.25,0,0,1,2.12-.76,24.51,24.51,0,0,1,12.5-.5c.41.09.82.19,1.24.32a16.75,16.75,0,0,1,2.93,1.23c2.34,1.26,4.39,3,4.94,4.08A1,1,0,0,1,301.56,172.17Z"/><path class="cls-22" d="M291.56,172.17a6.93,6.93,0,0,1-7,2c-2.17-.58-4.58-2.33-5-5a5.63,5.63,0,0,1,.26-2.8,24.51,24.51,0,0,1,12.5-.5,1.91,1.91,0,0,1,.24.32C293.7,168,292.82,170.66,291.56,172.17Z"/><path class="cls-23" d="M283.54,177.08a37.93,37.93,0,0,1-9-1,34.3,34.3,0,0,1-6-2,23.82,23.82,0,0,1,9-6.94l.14-.06c-.23,1.28-1.8,2.82-1.14,5s3.44,3.7,4,4C282.22,176.93,283.4,176.81,283.54,177.08Z"/><path class="cls-24" d="M301.56,172.17c-.11.44-.77-.43-2,0-3.07,1.05-4.27,2.14-6,3a16.9,16.9,0,0,1-3.09,1.1.65.65,0,0,1,.09-.11c2.85-3.26,5.26-3.37,6-5.95a4.78,4.78,0,0,0-.07-2.74C299.37,169,301.79,171.21,301.56,172.17Z"/><path class="cls-27" d="M287.56,166.21c-.16.24-.1.52,0,1,.24,1.06.82,2,1,2s-.08-.41,0-1c.16-1.17,1.17-1.57,1-2S288,165.63,287.56,166.21Z"/><path class="cls-26" d="M301.43,171.52c-1.72-.18-5.05-2-10.87-2.33-2.66-.16-9.9-.61-17,3a38.58,38.58,0,0,0-4,2.4c-.36-.14-.7-.29-1-.42a23.82,23.82,0,0,1,9-6.94l.14-.06a21.25,21.25,0,0,1,2.12-.76,24.51,24.51,0,0,1,12.5-.5c.41.09.82.19,1.24.32a16.75,16.75,0,0,1,2.93,1.23C298.83,168.7,300.88,170.41,301.43,171.52Z"/><path class="cls-28" d="M301.56,172.17a8.73,8.73,0,0,1-2-2c-4.25-5.14-15-4-15-4a20.76,20.76,0,0,0-12,4,24.44,24.44,0,0,0-4,4c-1.35,1.1-4,1-4,1s3.5-3.22,7-5.95a24.8,24.8,0,0,1,13-5c2.55-.22,11.11-1,15,4A11,11,0,0,1,301.56,172.17Z"/></g><g id="משקפיים"><path class="cls-4" d="M332.56,173.32a3.94,3.94,0,0,1,2,2.85,4,4,0,0,1,0,2.86c-.05.11-.83,1.86-2,1.9-1.61,0-3.36-3.15-3-5.71a2.46,2.46,0,0,1,1-1.9A2.43,2.43,0,0,1,332.56,173.32Z"/><ellipse class="cls-4" cx="308.06" cy="177.6" rx="2.5" ry="4.28"/><path class="cls-29" d="M330.56,167.61c-.84.21,0,5.45,0,5.71a36.5,36.5,0,0,0,3,9.51c3,6.81,4.53,10.21,7,12.37a26.34,26.34,0,0,0,9,4.75,31,31,0,0,0,8,1.9c2.65.25,9.35.86,15-2.85,3.67-2.4,5.14-5.47,8-11.41a53,53,0,0,0,4-12.37c1-5,1.38-6.71,1-8.56-.43-2.13-1.32-3.7-3-6.66a24.63,24.63,0,0,0-4-5.71,20.71,20.71,0,0,0-5-3.8,21.31,21.31,0,0,0-5-1.9,33.93,33.93,0,0,0-9-1c-4.3,0-6.82,0-10,1-4.07,1.19-6.66,3.17-10,5.7a50.87,50.87,0,0,0-8,7.61,1.56,1.56,0,0,0,0,.95,1.58,1.58,0,0,0,1,1c1,.21,2.19-1.73,3-2.86,3-4.1,7.2-6.21,10-7.61a19.69,19.69,0,0,1,5-1.9c2.89-.62,4.46-.18,9,0,6.21.25,5.34-.48,8,0a22.1,22.1,0,0,1,10,4.76,21.06,21.06,0,0,1,2,1.9,20,20,0,0,1,4,5.71,13.78,13.78,0,0,1,1,2.85c.63,2.77,0,5-1,8.56-1.73,5.88-2.66,8.8-3,9.51-1.92,4-4.09,8.62-9,11.42s-9.69,2.37-16,1.9c-5.31-.39-8.57-.63-12-2.85-4.54-2.94-6.68-7.61-8-10.47a37.88,37.88,0,0,1-2-5.7,58.61,58.61,0,0,1-2-10.47C331.25,168.06,330.85,167.54,330.56,167.61Z"/><path class="cls-29" d="M390.56,165.71c2.76,1.6,3.79,1.75,5,2.85.56.51.92,1,1,.95s5.54,3.72,5,2.86c-.37-.74-7-6.55-8-7.61s-2.06-2.18-3-1.91a1.69,1.69,0,0,0-1,1.91C389.7,165.19,390.08,165.43,390.56,165.71Z"/><path class="cls-29" d="M383.56,161.9h6a2.24,2.24,0,0,1,1,.95,2.52,2.52,0,0,1,0,1.91,3.92,3.92,0,0,1-1,1.9c-1,1.05-3,1.64-4,1-.58-.4-.49-1-1-2.85A21.33,21.33,0,0,0,383.56,161.9Z"/><path class="cls-29" d="M332.35,164.63c-.14.51-.27,1-.4,1.52a1.17,1.17,0,0,1-1.68.69,20.11,20.11,0,0,0-5.71-2.08c-8.53-1.7-15.45,2.75-17,3.8a4.24,4.24,0,0,1,0-1.9,5,5,0,0,1,1-1.9c1.38-1.65,4.16-2.43,6-2.86a26.23,26.23,0,0,1,8-1,23.56,23.56,0,0,1,9.21,2.44A1.08,1.08,0,0,1,332.35,164.63Z"/><path class="cls-29" d="M308.56,169.51a34.91,34.91,0,0,1,0,10.47c-1,5.83-3.86,10-7,14.26-2.87,3.88-4.19,5.9-7,7.61-4.31,2.65-8.66,2.77-12,2.86-4.21.11-12.33.33-18-4.76-1.85-1.66-3.23-4.6-6-10.46-2.37-5-3.57-7.64-4-11.42a26.88,26.88,0,0,1,1-10.46c1-3.59,2.33-8.61,7-12.36a19.48,19.48,0,0,1,5-2.86c1.78-.73,3.69-1.26,14-1.9,5.44-.34,6.55-.29,8,0a23.06,23.06,0,0,1,7,2.85s7.42,4,10,8.56a9.87,9.87,0,0,1,1,2.86c.11.59.32,1.77,0,1.9-.54.22-2.31-2.77-3-3.81-3.54-5.33-10.54-7.3-15-8.56s-14.52-4.08-23,1a23.45,23.45,0,0,0-7,6.65,24.32,24.32,0,0,0-4,9.52,24.74,24.74,0,0,0,1,12.36,25.39,25.39,0,0,0,7,11.42,27.54,27.54,0,0,0,14,6.65c3,.57,8.85,1.65,15-.95,7.05-3,10.2-8.94,12-12.36a42.3,42.3,0,0,0,4-18.08C308.56,170.16,308.55,169.51,308.56,169.51Z"/><path class="cls-29" d="M253.56,166.66a3.1,3.1,0,0,1,0,2.85,2.51,2.51,0,0,1-1,1c-1.27.7-2.17-.17-4,0a7.7,7.7,0,0,0-4,1.91c-1.32,1.1-6,2.85-6,2.85a50.43,50.43,0,0,0,4-4.76,5.22,5.22,0,0,1,3-1.9A44.85,44.85,0,0,1,253.56,166.66Z"/><path class="cls-29" d="M255.56,165.71a1.66,1.66,0,0,0-2,0c-.48.48.14,1.09,0,2.85-.08,1-.35,1.62,0,1.9a1,1,0,0,0,1,0c.2-.09.65-.36,1-1.9S256.11,166.17,255.56,165.71Z"/></g></g><g id="צאוור"><path class="cls-2" d="M415.56,338c-2.3,10.11-8.69,16.68-11,19-10.33,10.36-22.44,21.5-33.4,31.27C357.87,400.11,346.27,410,341.56,414c-12.4,10.67-16.44,21.6-22,20-1.52-.44-4.7-2.18-8-22-.64-3.86-1.14-7.49-1.55-11-1.59-13.27-2.11-24.95-5.45-41-1.74-8.36-3.48-14.22-8-16-5.73-2.25-10.7,4.1-17,2a8.64,8.64,0,0,1-1.74-.81c-2.43-1.45-4.13-4-5.44-7a68.16,68.16,0,0,1-2.82-8.22c-2.31-7.79-2.52-15-1.89-25.23.22-3.52.53-7.39.89-11.77.67-8.21,1.12-9.26,1-14a76,76,0,0,0-4.25-23c-.24-.68-.93-1.93-.75-2,.53-.33,6.64,11.1,15,20,4.71,5,16.12,17.16,33,19,12.89,1.41,22.95-3.84,29-7,14.71-7.68,26.89-21.81,31-30,.31-.62,1.55-3.15,2-3,.77.27-1.88,8.12-3,15-.07.42-.27,1.69-.45,3.57-.72,7.41-1.19,24.14,7.57,33.62a20.14,20.14,0,0,0,1.88,1.81c3.59,3,7.73,4.35,16,7,10.21,3.28,13.8,2.33,17,6C418.39,325.55,416.3,334.73,415.56,338Z"/><g class="cls-30"><path class="cls-4" d="M284.56,312c1.84-6.54.76-11.48,2-12s3.17,2.83,5,5c8.44,10,23.75,10.72,24,10,.14-.4-4.32-1.43-10-6a42.35,42.35,0,0,1-6-6c-3-3.63-7.12-9.91-6-11s4.63,3.32,11,6c10.15,4.26,22.84,2.63,32-2,8.42-4.25,12.84-10.5,15-9,1.47,1,.77,4.82,0,7-2.09,5.9-7.24,6.9-7,10,.27,3.3,6.18,3.22,7,7s-4.55,5.13-7,13c-1.12,3.63-.44,4.79-2,8-2.24,4.64-6.14,6.8-6,7,.36.48,21.17-15.78,24-13,1,1-1.51,3.21-1,8,.25,2.27.92,2.72,5,11,2,4,2.13,4.52,3,5,2.83,1.55,6-1.42,12-4,3.14-1.35,15.49-6.64,24-2,3.55,1.93,3.9,4.21,6,4,4.39-.43,8.68-10.93,7-20s-8.86-14.58-12-17c-8.81-6.8-14.87-5.37-23-13-.66-.63-3.53-4.43-7-9a15.89,15.89,0,0,1-3-4,12.41,12.41,0,0,1-1-5,51.65,51.65,0,0,1,2-16c.05-.16.7-3.44,2-10,.06-.3.18-.92,0-1-.57-.26-3.54,5.48-5,8-6,10.33-15.41,16.44-24,22-4.73,3.06-7.94,5.15-13,7a43.76,43.76,0,0,1-21,3c-10-1.21-16.7-6.11-22-10-9.21-6.75-15.11-15.1-20-22-.25-.36-3.9-5.86-4-6s-.38-1.38-.42-1.43c-.53-.52-.55.42-.58.43-.28.08,2,8,3,13,.43,2.14.7,4.06,1,24,.15,9.4.13,11.86,2,15,1.46,2.45,4,4.3,9,8,.69.5,1.88,1.36,3,1S284.27,313,284.56,312Z"/></g><path class="cls-31" d="M305.56,407c3.92-9.94,19.05-13.94,42-20,10.58-2.79,22.21-4.72,33-14,1.54-1.32,3.65-3.3,4-3,.92.8-11.59,15.41-27,36-21.56,28.82-23.92,36.12-31,36C314.39,441.79,300.51,419.82,305.56,407Z"/><path class="cls-32" d="M378.85,307.91a2,2,0,1,1-.29-3.91,2,2,0,1,1,.29,3.91Z"/><path class="cls-32" d="M378.89,311.83a2,2,0,1,1,0-3.92,2,2,0,1,1,0,3.92Z"/><path class="cls-32" d="M378.68,315.75a2,2,0,1,1,.21-3.92,2,2,0,1,1-.21,3.92Z"/><path class="cls-32" d="M378.22,319.64a2,2,0,1,1,.46-3.89,2,2,0,1,1-.46,3.89Z"/><path class="cls-32" d="M377.52,323.5a2,2,0,1,1,.7-3.86,2,2,0,1,1-.7,3.86Z"/><path class="cls-32" d="M376.58,327.31a2,2,0,1,1,.94-3.81,2,2,0,1,1-.94,3.81Z"/><path class="cls-32" d="M375.41,331.05a2,2,0,1,1,1.17-3.74,2,2,0,1,1-1.17,3.74Z"/><path class="cls-32" d="M374,334.72a2,2,0,1,1,1.39-3.67,2,2,0,1,1-1.39,3.67Z"/><path class="cls-32" d="M372.41,338.29a2,2,0,1,1,1.61-3.57,2,2,0,1,1-1.61,3.57Z"/><path class="cls-32" d="M370.68,341.81a2,2,0,0,1-1.08-2.73,2.18,2.18,0,1,1,1.08,2.73Z"/><path class="cls-32" d="M369.09,345.4a2,2,0,1,1,2.76-.92A2.07,2.07,0,0,1,369.09,345.4Z"/><path class="cls-32" d="M367.61,349a2,2,0,1,1,1.48-3.63,2,2,0,1,1-1.48,3.63Z"/><path class="cls-32" d="M366.23,352.7a2,2,0,1,1,2.71-1.08A2.07,2.07,0,0,1,366.23,352.7Z"/><path class="cls-32" d="M364.93,356.4a2,2,0,1,1,1.3-3.7,2,2,0,1,1-1.3,3.7Z"/><path class="cls-32" d="M363.69,360.12a2,2,0,1,1,1.24-3.72,2,2,0,1,1-1.24,3.72Z"/><path class="cls-32" d="M362.52,363.86a2,2,0,1,1,2.65-1.22A2.06,2.06,0,0,1,362.52,363.86Z"/><path class="cls-32" d="M361.38,367.62a2,2,0,1,1,1.14-3.76,2,2,0,1,1-1.14,3.76Z"/><path class="cls-32" d="M360.3,371.39a2,2,0,1,1,1.08-3.77,2,2,0,1,1-1.08,3.77Z"/><path class="cls-32" d="M359.25,375.17a2,2,0,1,1,2.61-1.31A2.07,2.07,0,0,1,359.25,375.17Z"/><path class="cls-32" d="M358.24,379a2,2,0,1,1,2.59-1.34A2.08,2.08,0,0,1,358.24,379Z"/><path class="cls-32" d="M357.25,382.75a2,2,0,1,1,2.59-1.35A2.06,2.06,0,0,1,357.25,382.75Z"/><path class="cls-32" d="M356.29,386.55a2,2,0,1,1,2.58-1.37A2.05,2.05,0,0,1,356.29,386.55Z"/><path class="cls-32" d="M355.36,390.37a2,2,0,1,1,2.57-1.39A2.08,2.08,0,0,1,355.36,390.37Z"/><path class="cls-32" d="M354.46,394.18a2,2,0,1,1,2.55-1.41A2.07,2.07,0,0,1,354.46,394.18Z"/><path class="cls-32" d="M353.56,398a2,2,0,1,1,2.56-1.42A2.06,2.06,0,0,1,353.56,398Z"/><path class="cls-33" d="M371.56,268c-.07.42-.27,1.69-.45,3.57-15.4,9.33-39.32,18.74-53.55,32.43-12.94,12.45-13.17,23.9-32,37a29.84,29.84,0,0,1-7.74,4.19c-2.43-1.45-4.13-4-5.44-7,.91-5.41,3.23-13.32,1.18-22.22a23.34,23.34,0,0,0-5.89-11.23c.22-3.52.53-7.39.89-11.77.67-8.21,1.12-9.26,1-14a50.55,50.55,0,0,0-6.25-23c-.53-.94-.93-1.93-.75-2,.53-.33,8.64,8.1,17,17,4.71,5,16.12,15.16,33,17,12.89,1.41,22.95-.84,29-4,14.71-7.68,26.89-19.81,31-28,.31-.62,1.55-3.15,2-3C375.33,253.27,372.68,261.12,371.56,268Z"/></g><g id="מדים"><g id="נעל_שמאל" data-name="נעל שמאל"><path class="cls-34" d="M206.56,1510c-1.12.22-.93,8.81,1,17,1.33,5.63,2.75,11.64,7,17,7.21,9.08,18.27,10.9,25,12,5.12.84,23.83,3.91,37-8,2.11-1.91,2.24-3.41,7-9,1.76-2.06,3.52-4,4-7,.26-1.59-.12-1.78,0-4,.18-3.38,1.14-4.66,2-8,.65-2.49.77-4.66,1-9,.31-5.58.6-8.87,0-9-1-.21-2.2,8.16-7,16a43.41,43.41,0,0,1-16,15c-15.27,8.45-36.64,7.6-47-2a55.7,55.7,0,0,1-10-13C208.07,1513.29,207.29,1509.86,206.56,1510Z"/><path class="cls-35" d="M299.56,1360c.42.15.18,1.42,0,5a67.21,67.21,0,0,0,0,9c.31,3.53.8,3.13,1,6,.33,4.52-.83,6.22-1,10-.19,4.34,1.13,6.9,2,10,1.05,3.74,1.1,7-1,21-3.68,24.54-5.06,22.69-5,31,.06,7.77,1.28,11.24,0,19-.39,2.37-1.12,5.82-2,12-.57,4.06-.77,6.22-1,8a84.75,84.75,0,0,1-5,19c-2.16,5.35-4.92,12.16-11,18-11.08,10.65-25.75,10.94-29,11-4.19.08-20.46.4-32-12-6.92-7.44-11-18.2-10-24a62.74,62.74,0,0,0,1-9c.11-2.58,0-4.48,0-5-.34-9.74,5.22-30.15,6-33,3.32-12.06,4.92-18.1,7-23,1.05-2.45,4.6-10.49,6-17,.18-.81.43-2.13,1-4,1.44-4.73,2.49-5.08,3-8,.46-2.62-.38-2.35,0-7a10.13,10.13,0,0,1,2-6c.43-.51.63-.49,1-1,.73-1,1-2.19,1-5,0-3.23-.37-3.5,0-4,1.14-1.54,5.42,0,9,1a117.15,117.15,0,0,0,15,3c11.08,1.54,20.4-3.16,22-4a41,41,0,0,0,16-15C297,1363.56,298.81,1359.74,299.56,1360Z"/><path class="cls-36" d="M251.56,1380c-22.81,11-17.78,51.64-17,58,1.67,13.51,5.45,16.85,7,18,8.63,6.41,24.29,1.7,33-6,19.94-17.61,16.08-61.92-3-71C262.78,1374.82,253.14,1379.24,251.56,1380Z"/><path class="cls-37" d="M270.56,1391c-2.13,8.8,1,10.47-1,23-1.33,8.36-2.87,8.57-3,15-.14,6.88,1.61,8,2,17,.45,10.16-1.69,10.37,0,14,2.94,6.3,9.37,5.63,14,14,1.66,3,1.86,4.93,3,5,2.73.16,5.43-10.69,7-17,3.19-12.79,2.5-16.58,6-32,1.11-4.89,1.44-5.64,2-9,1.18-7,2.26-13.39,1-21-1-6.19-2.72-8-2-13,.33-2.27.95-3.77,1-7,.06-3.65-.68-4.88-1-8-.75-7.46,2.43-10.74,1-12-2.29-2-12.7,4.51-20,13C277.7,1376.33,272.71,1382.14,270.56,1391Z"/><path class="cls-37" d="M255.56,1393c1.17,7.06.53,14.49-8,39-3.11,9-4.7,13.47-6,15-6.56,7.74-14.07,6.1-25,16-4.06,3.68-5.95,6.56-7,6-.46-.25-1.21-1.41,5-21,1.32-4.17,3.21-10.1,6-18,3.15-8.91,4.73-13.37,5-14,2.58-5.94,4.09-8,4-12,0-2.26-.56-3.91,0-7,.49-2.68,1.18-3,2-6,.47-1.68.6-2.8,1-9,.54-8.2.47-8.56,1-9,3.09-2.57,13.92,2.34,19,11A24.93,24.93,0,0,1,255.56,1393Z"/><path class="cls-38" d="M219.56,1462c0-.27,3.09-.2,7-1.4a29.37,29.37,0,0,0,12-7.6c4-4.12,3.32-5.9,6-7,3.68-1.5,5.49,1.59,12,2,7.29.45,11.15-3,13-1s-1.54,4.93,0,9c1.4,3.68,4.81,3.16,9,8,3.11,3.58,5,8.16,4,9-1.16,1-5.18-4.64-12-5-5.23-.28-10.2,2.67-10,4,.16,1,3.26.33,8,2,2.77,1,3.62,1.88,13,9,5.38,4.08,6.17,4.59,6,5-.61,1.5-12.21-3.41-28-6-16.72-2.74-32-1.87-32-3,0-.85,8.62-.11,14-6,.81-.88,4-4.35,3-7C242.31,1459.86,219.59,1462.75,219.56,1462Z"/><path class="cls-39" d="M249.56,1392c-.55,3.61-1.55,4.8-3.75,10.44-.87,2.22-2.05,5.47-3.25,9.56a58.44,58.44,0,0,0-2,10c-.67,5.4-.26,7.47,1,9,.85,1,2.68,2.52,4,2,2.23-.87.14-6.32,2-14,1.64-6.77,4.32-6.87,6-14,1.64-6.93.31-11.91,1-12s3.25,5.45,3,12c-.27,7.11-3.56,9.07-2,14,1,3.27,3.49,5.58,5,7,1.66,1.55,3.78,3.55,5,3s.28-3.72,0-11c-.2-5.51.32-4.84,0-9-.43-5.57-1.4-7-2-12a14.72,14.72,0,0,0-1-4,10.54,10.54,0,0,0-1-2c-2.73-4.25-8.76-6.74-11-5C249.43,1386.88,250.15,1388.17,249.56,1392Z"/><path class="cls-40" d="M234.27,1516.57c.17-2.38,5.94-5,11.43-4.52,3.5.3,3.43,1.55,7.14,1.94,5.63.59,8.28-2,10.71-.65,1.86,1.06-.07,3.68,2.15,6.45,1.38,1.72,2.72,1.66,2.85,2.58.3,2.13-6.49,5.64-13.57,6.44-11.35,1.3-21.82-4.55-21.42-6.44.15-.7,1.73-.7,2.14-1.94C236.19,1518.94,234.17,1518,234.27,1516.57Z"/></g><g id="נעל_ימין" data-name="נעל ימין"><path class="cls-34" d="M378.56,1519c2.09.82.36,11.79-3,21-2.88,7.92-8.32,22.82-24,32-3.22,1.89-22.55,12.71-42,4-2.59-1.16-14.41-6.45-19-18-.53-1.33-.19-.81-3-22-.7-5.29-1-7.46,0-8,2.27-1.21,7.76,7.77,18,17,10,9,16,14.4,24,15,14.58,1.08,27.69-14.38,35-23C373.22,1526.79,376.64,1518.25,378.56,1519Z"/><path class="cls-35" d="M376.56,1400c1.58,1.18-.65,5.33-1,11-.37,6.2,1.74,10.44,3,14,2.69,7.58.85,10.18,1,33,.12,17.89,1.27,18.86,1,36-.15,10.24-.23,15.36-1,20-1,6.07-4,24.38-16,36-14.07,13.65-38.38,18.29-56,9-.76-.4-18.92-10.27-20-25-.1-1.47.08-1.29,1-10,1.31-12.41,1.36-16.77,2-23,.87-8.4,2.48-14.85,5-26,1.74-7.67,3-12,3-19,0-5.78-.76-7.91-1-12-.43-7.53,2.41-13.69,7-26,2.4-6.43,3.61-8.63,4-13,.28-3,.71-6,1-9,.33-3.33.42-4.88,1-5,1-.2,2,4.13,4,7,3.63,5.3,10.68,6,22,7,15,1.39,25.18,2.32,34-3C372.14,1401.05,375.2,1399,376.56,1400Z"/><path class="cls-36" d="M333.56,1399c-7.12,3-7.08,10.18-15,59-1.16,7.18-2,12.1,1,16,6.22,8.12,25.67,7.55,34-2,2.58-3,3.56-6.16,4-24,1-39.16-3.29-43.89-6-46C347,1398.46,339.54,1396.51,333.56,1399Z"/><path class="cls-38" d="M324.56,1472c11.49-3,23.87.17,24,3,.11,2.37-8.4,4.37-8,6,.35,1.4,6.6-.26,9,3,1.5,2-.24,3.63,1,6,1.84,3.5,6.71,2.09,14,6,2.58,1.38,6.4,3.93,6,5-.86,2.3-20.77-4-22-1-.58,1.44,3.57,3.67,3,5-.89,2.09-11.63-2.5-25-3-13.85-.52-23.44,3.61-24,2-.75-2.18,16.88-9.37,16-12-.7-2.11-12.85-.06-13-1s10.43-2.13,11-6c.34-2.29-3.14-3.45-3-6C313.79,1474.86,323.27,1472.33,324.56,1472Z"/><path class="cls-37" d="M345.56,1409c0,19.22,0,30.14,1,42,1.05,12.46,1.58,18.7,4,24,4,8.83,10.8,15.73,14,19,6.79,6.92,10.6,8,14,14,.19.33.59,1.06,1,1,1.9-.27-.8-16.93,0-38,.81-21.23,4.46-28.21,1-38l-4-15c-1.24-4.64-1.76-6.56-1-9s2.23-4,2-7a5.5,5.5,0,0,0-1-3,5.78,5.78,0,0,0-3-2c-5.52-1.82-27.47-.3-28,5,0,.15,0,.23,0,3C345.57,1407.06,345.56,1408.18,345.56,1409Z"/><path class="cls-37" d="M336.56,1411c2.48,6.35-4.06,26.19-5,29-2.08,6.22-3.94,11.76-7,19-2.52,6-3.88,8.45-6,11-2.63,3.18-3.35,2.75-9,8-1.66,1.55-2.05,2-10,10-5.37,5.41-6.31,6.32-7,6-1.12-.52-.58-3.85,2-16,3.11-14.6,3.74-16.43,4-21,.49-8.58-1.39-8.4-1-16,.46-8.8,2.94-8.17,7-24,3.89-15.14,5.83-22.72,6-24,.36-2.68.67-5.7,2-6,3.48-.77,9.49,18,17,19a8.75,8.75,0,0,1,5,2A8.61,8.61,0,0,1,336.56,1411Z"/><path class="cls-39" d="M333.56,1408c-4.84,11.48-3,12.65-7,20-4.07,7.5-7.77,9.56-7,14,.69,4,4.56,7.59,7,7s1.73-5,5-14c3-8.18,5.09-8.61,7-16,1.53-5.92,1.3-10,2-10s2.14,5.32,2,11c-.18,7.8-2.95,8.91-4,17-.49,3.82-1.39,11.64,3,18,2.43,3.5,6.84,7.11,9,6s2-6.86,0-11c-1.75-3.58-3.63-3.28-5-6-2.41-4.82,2-8.65,4-19a45.47,45.47,0,0,0,0-17c-.24-1.21-2.72-13.79-7-14C339.53,1393.85,336.94,1400,333.56,1408Z"/><path class="cls-40" d="M315,1542.55c.17-2.38,5.94-5,11.43-4.52,3.5.3,3.43,1.55,7.14,1.94,5.63.59,8.27-2,10.71-.65,1.85,1.06-.07,3.68,2.14,6.45,1.38,1.72,2.73,1.66,2.86,2.58.3,2.13-6.5,5.64-13.57,6.44-11.35,1.3-21.83-4.55-21.43-6.44.15-.7,1.74-.7,2.15-1.94C316.88,1544.92,314.85,1544,315,1542.55Z"/></g><g id="חולצה_שמאל" data-name="חולצה שמאל"><path class="cls-41" d="M278.56,654h0s19.43-68,34-142c10.3-52.23,10.46-68.33,7-84-3.19-14.46-8.34-23.43-8-42,.17-9.25,1.68-19.64-3-33-4.06-11.6-8.84-14.14-11-15-6.74-2.69-14.56,4-16,2-.92-1.31,2.5-3.5,3-8,.56-5-3.1-6.84-6-14s-.24-7.79-3-16c-3-8.82-6.17-8.54-7-15-.93-7.27,2.61-11.65,0-14-1.71-1.55-5-1.21-7,0-2.7,1.6-3.44,4.84-4,7-1,4-5.48,21.05-13,23-2.23.58-2.28-.81-6-1-7.87-.4-11.62,5.62-20,9-3.61,1.45-3,.37-16,2-9.29,1.17-20.4,2.62-33,7-4.34,1.51-7.8,3-10,4-9.84,4.85-17.48,8.73-22,11-.83.42-2.66,1.34-3,3-.46,2.27,2.31,3.7,3,6,1.35,4.5-5.92,10-9,13-8.16,7.92-4.93,15.61-10,37-.43,1.84-5,14.56-14,40-3.08,8.68-7.63,21.41-3,32a28.64,28.64,0,0,1,2,5c2.21,8.15-1.37,12.66-3,22-2.48,14.21,3.47,17.23-1,24-2.91,4.41-7.7,6.55-8,12-.1,1.94,1.22,2.72,1,5-.29,3.12-2.43,4.13-4,7-1.3,2.38-1.2,5.59-1,12,.22,6.93,1.16,8.77,0,13-.79,2.9-1.37,2.5-2,5-1.23,4.9.75,7.26,2,15,1,6,1.5,9.25,0,13-1.39,3.5-4,6-6,8-3.78,3.69-5,3.2-7,6-2.58,3.61-2.84,7.65-3,10-.19,3,.34,3.18,1,11,.54,6.31.29,7.27,0,8-1.3,3.36-3.6,3-7,7a22.43,22.43,0,0,0-5,11c-.43,3.34.47,3.66,0,9-.27,3.14-.59,3.09-1,7-.59,5.61,0,6.41-1,8-1.55,2.49-3.83,2-7,4-4.91,3.18-6.47,9-7,11-2.08,7.8,1.27,13.76-2,16-1.32.91-2.65.46-4,2-1.16,1.32-1.83,3.55-1,5s2.32,1,3,2c1.48,2.16-3.17,7.67-5,10-3,3.77-.59,1.83-10,20-6.86,13.24-10.51,18.9-8,23a6.56,6.56,0,0,0,2,2c15,10.19,77.29,23.63,86,31,.24.2-.06-1.18,1-1,.89.15,2.71-.57,11-15,7.85-13.64,12-26,12-30a15.59,15.59,0,0,1,0-4c.35-2,2-3,3-4,3.76-3.66.7-9.68,2-17,1-5.66,3.4-5.23,7-13,4.46-9.6,1.11-10.89,5-22,4.1-11.69,9.28-14.44,8-22-.44-2.63-1.45-4.53-1-8,.57-4.41,2.82-6.25,5-10,2.84-4.87,1.35-5.73,5-21,2.58-10.76,3.75-12.14,5-13,4.41-3,10.92-.36,17,2,11.21,4.35,23.05,7.06,34,12,10.72,4.83,26.84,9.83,50,10Z"/><path class="cls-42" d="M290.56,653c11.24-9.33-1.82-33-5-71-.79-9.5,1.47-30,6-71,4-36.36,7.44-55.39,21-72,2.65-3.25,7.89-9.09,8-9s-16.85,13.86-28,34c-6.06,10.95-8.7,24-14,50-5.93,29.18-8.9,43.77-7,57a160.49,160.49,0,0,1,2,27c-.16,14.49-2.25,20-5,24a35,35,0,0,1-13,11c-6.73,3.26-12.53,3.16-19,9-2,1.84-3,2.78-3,4,.22,5.63,20.56,10.31,38,10C282.05,655.81,287.29,655.72,290.56,653Z"/><path class="cls-43" d="M242.56,486c-1.16-1.95-6.7,1.63-16,1-7.21-.49-8.07-2.92-17-4-3-.36-6.31-.24-13,0-13,.47-19.54.7-23,2-1.79.67-4.19,1.76-7,1-2.07-.56-3.41-2.05-6-5-8.19-9.33-8.81-10.23-9-12-.31-3,1.2-3.15,2-8,.7-4.24.09-7.41-1-13-1.73-8.93-3.54-10-3-15,.3-2.75.86-2.5,2-8,.29-1.38,2.21-10.61,1-11-.78-.25-2.41,3.35-6,10-6.65,12.33-7,11-8,14-3.82,11.37,5.79,15.94,4,31-1.16,9.82-5.61,11-4,17,2.24,8.35,11.47,8.82,16,18,2.62,5.3-.26,5.6,1,18,1.39,13.59,5.05,17,6,32a49.05,49.05,0,0,1,0,10c-.56,4.77-1.7,7.37-6,20,0,0-3.36,9.88-3,10,.1,0,1.3-7.26,7-12a17.58,17.58,0,0,1,3-2c9.16-9.63,18.62-23.15,18-39-.58-14.88-9.69-23-5-31s18.8-9,32-10,21.15,1.05,29-5C240.35,492.08,243.58,487.7,242.56,486Z"/><path class="cls-44" d="M263.56,439.72c1.4,1,1.16,3.53,0,7a44.57,44.57,0,0,1-8,14c-4,5.16-4.69,11-6,22.7-2.32,20.8.86,39,3,62.87,1,11.33,1.34,22.7,2,34q-8.49,11.36-17,22.7l-70-4.37c-7.41-7.35-9.26-13.51-9-18.33.21-3.89,1.72-5.41,4-12.23a99.69,99.69,0,0,0,4-19.2c1.33-12.7-2.57-11.58-2-25.32.65-15.7,1-23.54,3-29.69.07-.2,1.73-5.23,0-6.11-.81-.42-1.72.44-3,0-1.93-.66-1.6-3.21-3-3.5-1.55-.31-2.65,2.7-5,2.62-1.12,0-1.93-.77-3-1.74a20.43,20.43,0,0,1-3-4.37c-.6-1-.91-1.52-1-1.74a7.82,7.82,0,0,1,0-5.24c2.43-8.48.85-9.46,3-11.35,2.87-2.53,6.06-1.14,9-4.37,1-1.11.64-1.27,2-3.49a34.89,34.89,0,0,1,7-7.86c3.93-3.48,5.8-4,6-6.11.14-1.41-.6-2.22,0-3.49.81-1.71,3.12-2.37,4-2.62,10.41-3,65.54,8.87,78,5.23C259.27,439.52,262.07,438.61,263.56,439.72Z"/><path class="cls-42" d="M282.56,340c1.12-1.45,1.67-5.27,1-8-.51-2.07-.89-3.62-2-4-1.33-.46-2.92,1-5,3a24.81,24.81,0,0,0-5,6c-3,5-10,11.13-16,12-9.58,1.39-16.89-10.72-19-9-1.59,1.3,1.53,9.08,7,14a18.39,18.39,0,0,0,10,5,22.12,22.12,0,0,0,9-1c3.34-1.14,4.35-2.46,6-2,2.33.65,3,4,4,7,2.52,7.71,5,7.24,10,17,3.32,6.51,1.51,5.36,6,16a138.53,138.53,0,0,0,11,21c3.07,4.79,4.61,7.19,5,7,0,0,1.33-.64-33-80h0a20.19,20.19,0,0,1,0-4c.55-3.06,3.89-5.58,5-5,.93.48-.28,2.78,1,4S281.15,341.84,282.56,340Z"/><path class="cls-44" d="M323.56,440h0s-2.8-9.35-3-10c-6.74-22.59-9-54-9-54-.9-12.58-.87-23-7-32-1.61-2.38-4.67-6.75-9-7-3.84-.23-10.32,2.69-11,3-1.73.79-3.59,1.8-5,1a5.83,5.83,0,0,1-2-3c-.69-1.82-.38-2.64-1-3-.95-.56-2.92.66-4,2-2.1,2.62-1.2,6.24-1,7h0q20.26,47.06,40.51,94.11Z"/><ellipse class="cls-45" cx="298.68" cy="371.41" rx="3.7" ry="7.64" transform="translate(-145.69 199.1) rotate(-30)"/><path class="cls-43" d="M295.56,340c-4.91-1.3-10.69-1.26-11,0-.23.95,3,1.32,6,5,2.06,2.51,5,6,5,6s1-.86,4-1c5.33-.24,7.42,1,8,0,.76-1.26-2.12-4.39-4-6A19.88,19.88,0,0,0,295.56,340Z"/><path class="cls-44" d="M286.56,339.61a6.64,6.64,0,0,1,4.65,1.3c3.44,2.75,4.65,9.09,4.65,9.09s2-3.12,4.66-3.9c3.35-1,6.43,3.24,7,2.6s-2.28-5.76-7-9.09a12.08,12.08,0,0,0-5.82-2.6A11.36,11.36,0,0,0,286.56,339.61Z"/><path class="cls-43" d="M256.56,349a9.56,9.56,0,0,1-3,3c-2.46,1.5-5,1.26-8,1-12.54-1.09-15.11-1-16-3-.35-.79-.15-1.24,0-3,.44-5.06-.72-6.95-1-11-.38-5.62,1.31-10,4-17,1.59-4.12,2.61-5.49,3-6,2.06-2.64,3.51-2.81,6-6,1.93-2.45,2.48-4.14,3-4,.81.22.28,4.41,0,7-1.43,13.42-2.14,20.13,1,24,4,5,11.51,2.4,13,7C259.65,344.34,256.71,348.79,256.56,349Z"/><path class="cls-44" d="M284.56,334c.83-.18,1-24.95-10-38-1.49-1.77-3.33-4.51-7-10-2.83-4.24-5.29-8.17-4-10,.92-1.29,3.41-1.14,4-3,.08-.25.23-.73,0-1-.71-.82-4.53.92-7,3a16.84,16.84,0,0,0-5,8c-4.13,13.09-13.53,23.89-20,36v23c7.08,5.18,12.89,6.56,16,7a11,11,0,0,0,4,0c3.95-.83,4.69-3.65,10-9,6.34-6.38,7.86-5,11-9,.42-.53,1.54-2,3-2,1.23,0,2.22,1.13,3,2C284.1,332.7,284.37,334,284.56,334Z"/><path class="cls-43" d="M268.56,275c2.09,4.15,1.22,16,1,16a4.21,4.21,0,0,0,0-1c-.34-2.73-3.18-3.32-5-6-1.29-1.9-2-4.76-1-7,.78-1.74,2.73-3.41,4-3A1.86,1.86,0,0,1,268.56,275Z"/><path class="cls-44" d="M145.56,613c-.74.27,0,3.71,0,3.78.68,3.17.12,10.44-1,25-1.79,23.2-3,38.49-9,55.61-9.33,26.55-24.36,40.69-18,49.86.48.69,4.23,6.1,9,5.75a8.2,8.2,0,0,0,6-3.83c2.36-3.76-.27-6.8,1-12.47.79-3.48,2.5-5.47,4-7.67,8.82-12.82,3.85-22.52,13-40.27,1.89-3.65,3.62-6.19,4-10.54.47-5.35-1.59-7.94,0-12.47,1.07-3,2.37-2.92,5-6.71,3.31-4.76,2.3-6.41,6-17.26,2.75-8,4.53-10.71,3-12.46s-4.6.22-9-1C150.41,625.89,147,612.46,145.56,613Z"/><path class="cls-43" d="M243.56,306c-.3-.5-7.67,6.88-20,9-9.59,1.65-19.67-.4-30,1-8,1.08-9.29,2.53-14.43,4.49a78.45,78.45,0,0,1-11.56,3.29l-1,.22c-4.23,1.23-15.19,4.72-22,9-1.53,1-3.91,2.62-4,5-.06,1.63.68,3.6,2,4s2.85-1,4-2a88.77,88.77,0,0,1,14-10,38.43,38.43,0,0,1,8-3,168.9,168.9,0,0,1,23-5c8.13-1.22,7.18-.72,16-2,10.16-1.47,15.34-2.25,20-4C237.24,312.36,243.84,306.46,243.56,306Z"/><path class="cls-44" d="M149.56,338c.12.15,2.16-2.06,5-2,2.57.05,3.06,1.89,5,2,3.55.2,4.72-5.76,10-9a16.14,16.14,0,0,1,10-2c5.69.66,8.6,4.36,21,11a5.88,5.88,0,0,0,3,1c4,0,5.47-5.57,12-13a37.24,37.24,0,0,1,9-8c4.92-3,9.08-3.69,9-4-.12-.49-10.36,2.06-22,4-12.39,2.06-11.91,1-24,3-19.1,3.13-25.37,6.57-29,9C153.16,333.62,149.4,337.8,149.56,338Z"/><path class="cls-43" d="M248.56,513c0-4.19-10.61-20.51-16.31-21.27-2.7-.36-3.36-.06-7.79,0-10,.13-11.12-1.36-22.52-1.73H178.56a46.05,46.05,0,0,1,9.53-1.73c2.88-.22,4.66-.08,9.52,0,6.06.09,6.62-.07,10.4,0,13.75.24,12.9,2.5,20.78,1.73,5.44-.53,8.75-1.9,13,0,1.26.57,2.34,1.3,3.46.87,2-.79,1.93-4.55,2.6-9.53a78.9,78.9,0,0,1,3.46-13.86c2.44-6.92,3.66-10.38,6.07-13,0,0,2.89-3.12,3.46-6.06a13.06,13.06,0,0,0,.19-3,5.3,5.3,0,0,0-.19-1.36,9.43,9.43,0,0,1,1.73,5.2,9.89,9.89,0,0,1-1.73,5.19s-1.77,3.15-5.2,11.26a73.46,73.46,0,0,0-3.46,10.39c-1.08,4.17-1.62,6.25-1.73,8.66-.4,8.54,4.76,10.71,5.19,19.06.26,5-1.58,4.26-2.59,12.12-.92,7,.36,9.18.86,20.78,0,.42,0,.13,0,15.59V574c0,6.61.1,8.66,0,8.66-.27,0-.59-16.47-2.6-39-1.27-14.3-2.17-19.17-2.59-31.17"/><path class="cls-44" d="M145.56,608c1.19-.81,4.39,4.49,12,9,4.76,2.81,7.62,3.19,20,6,25.52,5.8,25.52,7,30,6,7.48-1.64,11.32-5.76,18-4,2.46.65,5.6,3,8,5a37.9,37.9,0,0,1,5,5c7.42,8.78,12.36,14.63,11,17-1.51,2.64-9.95-.62-39-9-14.08-4.06-27.53-10.66-42-13-3.51-.57-9.61-1.4-15-6C146.74,618.19,144.13,609,145.56,608Z"/><path class="cls-43" d="M154.56,621c3.82,4.2,9.05,5.51,11,6,2.42.61,2.17.17,7,1,1.83.32,3.55.67,9,2,7.43,1.81,8.14,2.11,12,3,6.45,1.48,5.91,1,10,2a82,82,0,0,1,18,7c4.37,2.3,8.26,4.34,8,5-.52,1.38-17.66-6.42-37-10-.87-.16-18.36-3.39-22-7-.2-.2-1.25-1.29-2-1s-.66,1.54-1,4a30,30,0,0,1-1,5c-.91,2.77-2.05,2.82-3,5-1.43,3.31.47,4.87,0,9-.6,5.26-4.42,9.27-5,9s1.56-3.25,2-8c.8-8.51-4.11-16.08-6-19-1.44-2.22-3-4.17-6-9-2.59-4.21-2.86-5.12-3-6-.5-3.2.81-5,0-9-.07-.33-.19-.89,0-1,.56-.31,3.2,3.43,5,6C154.08,620,153.34,619.66,154.56,621Z"/><path class="cls-44" d="M129.56,764c.08.71-.05.44-3,9-3.85,11.22-5.78,16.82-6,20-.13,2,0,3.37-1,5-1.69,2.92-4.47,2.87-8,6-2.58,2.29-2.81,3.84-4,5-4.48,4.37-17.35-1.94-28-7-45.17-21.48-59.32-24.85-61.27-24.8a1,1,0,0,1-.73-.2c-1.2-1,1.71-5.45,4-11,2.74-6.63,1.42-7.15,4-13,1.9-4.28,3.11-5.14,6-10a105.77,105.77,0,0,0,7-15c.88-2.12.54-4.13,2-5,1.89-1.12,4.63.3,6,1,5.2,2.63,11.11,3.84,16,7,3.27,2.11,2.4,1,37,15C121.45,754.83,128.92,758.13,129.56,764Z"/><path class="cls-43" d="M129.56,762a21.16,21.16,0,0,1,0,3,14.52,14.52,0,0,1-1,4c-2.23,5.69-5.53,14.55-7,19-.09.28-.83,3.2-2,7a26.56,26.56,0,0,1-1,3c-1.33,2.77-2.86,2.86-6,6s-3.21,4.61-6,6a11.82,11.82,0,0,1-3,1c-6.81,1.34-10.9-3.91-18.36-6.57a1.1,1.1,0,0,1-.64-.43c-1.07-1.81,6.35-6.74,12-14,3.83-4.92,1.77-4.39,8-15,5.45-9.28,8.28-14,13-17,3-1.91,5-2.29,7-5,2.69-3.62,1.75-6.45,3-11,1.86-6.75,5.69-6.94,11-15,5.87-8.91,6.72-17.09,7-17s.19,12.63-7,24c-2.61,4.13-6.21,8.22-6,14,.08,2.14.65,3.52,0,6C131.66,757.44,129.59,758.55,129.56,762Z"/><ellipse class="cls-45" cx="102.54" cy="782.16" rx="7.47" ry="3.79" transform="translate(-678.11 668.67) rotate(-74.26)"/><ellipse class="cls-45" cx="110.94" cy="785.78" rx="7.47" ry="3.79" transform="translate(-675.47 679.39) rotate(-74.26)"/><path class="cls-43" d="M118.56,463a19.39,19.39,0,0,1-9-10c-3.57-8.73-.29-19.52,3-20,2.59-.38,5.86,5.52,7,8,1.58,3.44,1.72,6,2,6,.5-.05.28-8.09-1-22-2-22.15-1.69-25.8-3-26s-2.41,2.92-11,27c-5.17,14.5-7.74,21.88-7,28s2.63,7.8,3,16c.1,2.13,0,2.53-1,16-.69,9.47-1,14.24-1,16,.21,8,1.38,9,0,12-2.12,4.62-6,4.63-8,10-.91,2.49-.18,2.83-1,7-1.09,5.64-2.75,6.79-4,11-2.2,7.47,1.74,8.22,0,17-1.1,5.57-3.07,7.23-3,13a65.43,65.43,0,0,0,1,7c1.77,10.47,2.49,11.66,2,15a18.89,18.89,0,0,1-3,8c-2.51,3.71-4.55,3.58-8,8a29,29,0,0,0-4,7,21.46,21.46,0,0,0-2,9c.15,4.43,2,5.12,2,10a13.48,13.48,0,0,1-1,6c-1.59,3.52-4.15,4-7,7-2.56,2.68-3.46,5.38-5,10s-3.27,9.86-2,16c.76,3.65,2.17,5.61,1,8-.88,1.81-2.7,2.78-5,4-3.07,1.64-5.13,1.73-7,4-.6.74-1.25,1.52-1,2,.65,1.24,6.21-1.58,15-2,2.78-.13,5.23,0,5.39,0,6.34.37,9.13,1.79,9.61,1,.76-1.27-6.16-4.81-11-13-1.78-3-5.43-9.2-3-14,1.62-3.18,5.2-4.39,7-5,4.23-1.43,6.88-.43,13,0,8.62.61,15-.54,15-1,0-.7-14.77,1.47-20-6a61.33,61.33,0,0,1-4-8,23.12,23.12,0,0,1,13,1c3.54,1.43,5.57,3.44,6,3,.76-.78-5.33-7.39-12-18-6-9.64-5.52-11.36-5-12,1.55-1.9,6.26,1.56,14,1,3.92-.28,5.73-1.38,12-4,13.07-5.45,19.6-8.17,26-8,9.75.26,15.56,5.78,16,5,.59-1-9.76-10.39-24-13-4.84-.89-8.62-1.58-13,0-5.58,2-6.69,5.75-14,9-3.81,1.69-9.29,3.24-10,2s4-6.84,10-10c3.83-2,5.76-1.84,7-4,1.51-2.62.42-5.92-1-10-2.44-7-4.7-7.37-5-11-.13-1.67.12-4.34,7-13,6.38-8,12.38-13.57,12-14s-10.1,9.31-14,7c-2.33-1.39-1.91-6.74-1-10,1.64-5.86,5.15-6.08,8-12,3.28-6.79-.07-9.14,3-15,3.77-7.19,9.71-5.37,12-11,3.31-8.12-7.32-16-4-24,1.26-3,4.59-4.59,9-7s-9.81-12.17-6-14"/></g><g id="חולצה_ימין" data-name="חולצה ימין"><path class="cls-41" d="M375.56,284c2,9,1.78,15.66,12.12,23.91,14.81,11.82,21.42,9.67,25,17,4.52,9.25-7.32,24.45-18,34-49.7,44.49-74.56,66.74-89,91-20.5,34.45-21.81,71.51-23,105-1.33,37.73,6.61,62.62-1,90a9,9,0,0,0,0,6c6.57,15.53,76.07,15.21,124-6,.26-.12,25.46-11.26,30-5,2.05,2.83-1.11,7.82,2,11,2.27,2.33,6.85,2.63,10,1,6.33-3.27,6.54-14.19,8-14,.9.12,1,4,1,4,.16,6.17,1,39.37,14,50,1.47,1.2,3.94,2.8,5,6,1.4,4.21-1,7.05-1,11,0,5.54,4.76,7.81,10,14,10.95,12.93,15.05,32.24,15,41a15.19,15.19,0,0,0,1,7c1.84,4.12,5.07,5.07,7,10a17.09,17.09,0,0,1,1,4c2.35,14.8,23.2,38.74,19,53-.44,1.51-2.29,6.71,0,9a3.84,3.84,0,0,0,2,1c7.74,1.68,29.32,52.37,40,51,2.65-.34,4.33-4.08,7-3,2.48,1,4,6,4,6,63.33-27.26,61-35,61-35-.44-1.47-3-2.15-6-7a27,27,0,0,1-2-4c-6.92-17-15.27-39.27-24-40-.7-.06-2.67-.08-3-1-.54-1.52,4.2-3.48,4-6-.15-1.88-2.91-2.29-5-4-5.45-4.45-.59-13-4-23-2.9-8.51-7.89-6.53-11-15-3.82-10.42,3.06-15.24-1-24-3.93-8.47-11.47-6.33-14-14-3-9,6.13-15.56,2-25-1.72-3.93-3.71-3.76-5-8-2-6.5,2-9.39,2-16,0-10.15-9.24-11-12-24-1.64-7.69,1.29-9,0-18-1.49-10.47-6.64-17.27-9-21-8.9-14.1-5.47-28-6-56-.54-29.07-4.93-51.37-8-67-7-35.7-13-38.87-14-64-1-25.35-4.26-26.59-8.12-42.91l-39.4-43.06L431.56,320l3-23-25-11-21.78-5.21L375.56,284"/><path class="cls-46" d="M471.56,341c-1,1.36-22.21-11.46-24-10-2.57,2.1-5.29-2.11-6.88-5.09s-1-5.39,1-12L431.56,295l-47-15.23-12,4.23"/><path class="cls-44" d="M335.56,429a91.73,91.73,0,0,0-23,17c-12.39,12.81-17.29,26-21,36-2.32,6.25-5.91,15.92-4,17,2.61,1.47,11.91-15.13,29-33,13.61-14.23,29.61-30.95,54-40,19.94-7.4,31.17-4.35,47-17,9-7.19,20.93,3.6,19,1s-16.15-56.52-33-48c-10.72,5.42-23.89,51.4-40,56A121.12,121.12,0,0,0,335.56,429Z"/><path class="cls-44" d="M282.68,645.91c-2.67-8.15-2.24-15.06,0-30,2-13.52,3.09-20.3,5-21,5.45-2,9.89,12.2,25,22,4,2.62,9.15,5.13,58,11,23.51,2.83,19.79,1.94,26,3,22.71,3.87,29.29,8.35,41,5,9.52-2.72,14.2-8.26,17-6,3,2.42.75,11.28-3,17-1.66,2.54-3.69,6.94-7,7-2.33,0-4.14-2-5-3-4-4.58-7.12-2.91-8.12-3.91-1.94-2-2.34-.07-3,0-9,1-37.52,5.55-58.88,6.91-57.23,3.64-78.51,8.16-85-3A25.21,25.21,0,0,1,282.68,645.91Z"/><path class="cls-44" d="M355.88,449c-11.33,81.44-13.69,107.5-13.5,115.14,0,0,.41,21.83,0,28.79a18.34,18.34,0,0,0,0,2.7c.81,10,10.27,16.63,13.5,18.89,0,0,15.77,11,82.76,1.8a74.59,74.59,0,0,0,1.8-12.6c.58-10.9-1.71-15.05-.9-26.08.45-6.21,1.17-4.86,1.8-11.7,1.31-14.31-2.37-14.54-.9-26.08,0,0,1.68-13.28,1.79-19.5v-.29c0-2.62-.2-3.52,0-3.6.46-.18,1.48,4.07,3.6,4.49s4.83-3.6,5.4-4.49c4.73-7.45,5.4-20.4-.9-28.79-2-2.7-3.6-3.35-4.5-6.3-1.63-5.33,1.86-8.6.9-12.59-1.36-5.65-10.51-8.05-14.39-9-23.26-5.67-65.41-10.11-72-10.79Z"/><path class="cls-43" d="M355.88,453.5c.56.06.35,7,0,11.69-.56,7.31-1.39,8.22-1.8,13.5-.47,6-1.05,13.47,2.7,19.79,1.68,2.83,4.24,5.45,10.79,9,11.26,6.08,16.66,5.34,41.38,10.8,14.38,3.17,19.5,5,24.29,1.8a32,32,0,0,1,10.79-5.4c.86-.22,5.54-1.4,6.3,0,.45.82-.83,1.86-1.8,4.5a17.11,17.11,0,0,0-.9,5.39c-.48,8.05-1.58,17.91-1.8,19.79a98.44,98.44,0,0,1-3.6,14.4c.9-13.5-.46-5.18-1.79-17.1-.77-6.81.41-16-1.8-17.09-2.8-1.4-6.48,1-8.1,1.8-9.54,5-17.22-5.05-36.88-9.89-10-2.47-19.34-4.77-27.89,0-7,3.89-10.37,10.8-11.69,13.49-3.89,7.92-3.75,15.17-3.6,19.79.18,5.82,1.13,5.46,5.4,23.39,1.78,7.5,4.73,14.81,5.39,22.49.4,4.55.36,9.07,3.6,11.69s8.1,1.77,8.1,1.8a29.49,29.49,0,0,1-18-2.7,28.31,28.31,0,0,1-11.7-11.69c-4.31-8.34-2.21-15.59,0-32.39,1.26-9.55,1.77-19.19,2.7-28.78,2.73-28.08,2.17-31.35,4.5-49.48C352.23,470.5,355,453.4,355.88,453.5Z"/><g id="כומתה"><path class="cls-47" d="M444.56,432c-1.23-1.1.93-4-1-8a11.92,11.92,0,0,0-5-5c-6.5-4-16.89-18.05-18-33-.15-2.12-1.23-19.38,8-26,3.78-2.71,8.75-3.26,14-9,1.13-1.23,2.95-3.45,4-3s.13,3.38,1,6c1.48,4.42,7.53,5.81,11,7,5.8,2,12.53,9.32,26,24,0,0,3.11,3.38,10,16,1.84,3.35,1.24,4.48,1,5-1.31,3-7.17,2.93-9,3C468.31,409.68,448.28,435.33,444.56,432Z"/><path class="cls-48" d="M465.66,416.48c-6.6-1.23-3.23-15.5-14.59-29.16-5-6-10.18-8.69-9.12-11.15,1.46-3.39,12.88-1.83,13.68-1.71,11.3,1.61,18.69,7.9,25.54,13.72a31.7,31.7,0,0,1,9.12,12c1,2.56,1.73,4.32.91,6-1.55,3.18-6.59,2.23-14.59,5.14S468.53,417,465.66,416.48Z"/><path class="cls-49" d="M484.56,396c4.63,1.9,6.95,2.84,9,3,4.66.35,7.07-2.56,9-1a3,3,0,0,1,1,3c-.48,1.6-2.67,1.72-7,3-5.13,1.52-7,2.81-13,4-2.69.54-3.58.53-4,0-1.25-1.57,3.31-5.57,2-10-.44-1.52-1.41-2.51-1-3S482.64,395.21,484.56,396Z"/><path class="cls-47" d="M505.56,368c11.82,7.51,16.76,13.11,19,17,1.58,2.74,3.61,7.7,8,11a11.7,11.7,0,0,1,3,3,13.19,13.19,0,0,1,2,7c.32,5.59-1.72,10.07-2,10s2.49-5.76,0-10c-1.82-3.12-4.83-2.6-9-5-6.36-3.66-4.23-7.69-12-17-5.53-6.63-11-9.82-10-14A5.09,5.09,0,0,1,505.56,368Z"/><path class="cls-48" d="M424.56,402c-.35,4.82,4.31,8.74,7,11,2.92,2.45,5,3.19,9,7a11,11,0,0,1,3,4c1.25,3.16,0,5.26,1,6,1.74,1.23,8.24-2.58,8-6-.13-1.95-2.38-2.62-7-6a55.18,55.18,0,0,1-9-8c-6-7.08-5.36-13.93-8-14C426.75,396,424.77,399.14,424.56,402Z"/><path class="cls-50" d="M446.56,427c3.66-4.16,7.46-5.79,13.74-9,2.57-1.3,6.47-3.33,11.26-6a148.87,148.87,0,0,1,46-12c3.64-.35,9.73-.77,14,3,.73.64,4,3.51,4,8,0,3-1.2,6.07-2,6-1.07-.1.33-5.64-2-8-4.27-4.33-17.32,5.94-45,17-22.58,9-27.16,7.48-33,12-.74.58-3.46,2.77-6,2s-4.12-4.08-4-7C443.63,431.46,444.2,429.68,446.56,427Z"/><path class="cls-51" d="M462.56,429c-.45-1,7.79-6.34,16-10,9.27-4.13,12-3.2,16-7,.71-.67,2.2-2.18,4-2,2.2.22,4.4,2.89,4,5-.3,1.64-2.1,2.56-3,3-8.1,4-18.84,6-19,6C468.9,426.16,462.94,429.84,462.56,429Z"/><path class="cls-50" d="M446.88,376.41c2-1.33,4.9.07,24,11.54l9.62,5.77h0v4.8c1,1.25,1.19,2.18,1,2.89s-.86.8-1.93,1.92a17.2,17.2,0,0,0-1.92,2.88,24.62,24.62,0,0,1-1.92,2.89c-2.73,2.15-8-2.21-10.58,0-.82.71-.9,1.7-1.92,1.92s-1.56-.78-2.88-1c-2.18-.3-3,2.17-4.81,1.92-2.08-.29-3.88-4.13-2.88-5.77.58-1,1.79-.59,2.88-1.92a4.35,4.35,0,0,0,1-2.88c-.1-1.9-1.76-2.62-3.84-4.81-.64-.67-2-3-4.81-7.69-2.51-4.23-2.76-4.83-2.88-5.77C444.71,381.28,444.92,377.74,446.88,376.41Z"/><path class="cls-52" d="M460.56,382c-1.95-.61-8.14,14.17-6,16a4.79,4.79,0,0,1,1,1c.83,1.11.71,1.93,1,2,.68.16,1.74-4.25,4-9,1.75-3.67,4-7.06,3-8-.36-.35-1-.23-2-1C460.85,382.44,460.84,382.09,460.56,382Z"/><path class="cls-52" d="M473,387.89c-1.65-1.35-13.09,17.32-11.7,20.38a6.79,6.79,0,0,1,.6,1.63c.39,1.74,0,2.84.23,3,.59.39,3.24-5.37,7.18-11.31,3-4.57,6.43-8.64,5.85-10.19-.22-.57-.9-.58-1.56-1.89C473.13,388.56,473.25,388.08,473,387.89Z"/></g><path class="cls-43" d="M337.56,429c-.14-.45,15.28-2.79,28-16a57.11,57.11,0,0,0,4.95-5.95A102,102,0,0,0,386.56,374h0l7-17a21.56,21.56,0,0,1,15-6c1.08,0,10.71.34,15,7,2.59,4,.85,6.61,1,20,.11,8.78.19,13.27,2,18,3.47,9.05,10.42,13.5,10,14-.77.92-8.68-6.86-25-18-3.3-2.26-6.78-4.53-7-8-.27-4.45,5.1-6.49,5-12-.06-3.59-2.41-7.13-4-7-1.74.14-2.09,4.65-4,10-1.31,3.7-3.07,6.94-10,16-11.76,15.37-17.64,23.05-23,27C353.7,429,337.71,429.45,337.56,429Z"/><path class="cls-43" d="M370.83,286.6c-.5.9-.21,1.5,2.68,9,3.77,9.78,3.56,9.47,3.73,9.73,4.84,7.16,16.6,10.44,26.05,13.08,4.3,1.2,6.61,1.54,8.28,3.55,4.06,4.89-.14,12.74,1,13.07.76.22,2.53-3,4.43-7.63s1.13-6.08,2.25-10.18c2.46-9,8.47-10.3,9.61-19.07.51-3.89-.42-5.58-1.49-6.56-2-1.84-5.15-1.69-8.16-1.9-7.23-.48-9.25-2.66-16.39-4.61C390.54,281.69,373.46,281.83,370.83,286.6Z"/><path class="cls-44" d="M435.56,291.21c5.32,6,6.3,13.82,7,19.47a56.11,56.11,0,0,1-1,18.5c-5.41,29.46-6.86,69.95-5,78.63.1.45.45,2,0,2.19-1.05.52-6.11-5.35-9-11.68-5-10.92-3.25-22.73-3-24.35,1.05-6.64,1.11-9.11-1-13-1.54-2.82-2.24-4.74-6-6.5-3-1.4-9.48-4.44-15-1.95-2.61,1.18-3.81,3.07-4,2.92-.38-.29,11.81-9.52,18-24.34,2.12-5.06,1.52-6,4-10.71,4.47-8.55,8.59-9.84,9-15.58.31-4.31-1.61-9.41-5-10.71a6.7,6.7,0,0,0-4,0c-8.26,1.68-13.19-8.33-26-11.68-1.27-.33-13.9-3.49-21,1.94-.79.61-2.69,2.23-3,1.95s2-4,4-5.84c4.87-4.35,12.71-2.37,28,1C429.13,287.27,431.85,287,435.56,291.21Z"/><path class="cls-43" d="M447.56,344c1.11-.69,4.52,4.39,11,10,9.77,8.45,15.38,8.47,22,13,21.12,14.44,15.29,49.28,30,53,2.11.53,8.2,1.33,14,6,1.8,1.45,4.06,2.42,4,4,0,.36-.17,1.89-5,4-6.43,2.81-10.57,2-18,4-4,1.06-4.7,2.58-6,2-3.44-1.55-.74-10.91-1-20-.5-17.57-12.09-34.86-24-44-8.16-6.26-13.55-6.46-20-15C449.05,353.68,446.22,344.84,447.56,344Z"/><path class="cls-44" d="M501.56,432a98.75,98.75,0,0,0-13-42c-8.38-14.4-16.29-28-29-31-2.94-.7-8.69-1.43-12-6-2.49-3.44-2.79-7.95-3-11-.38-5.67,1.24-7.24,0-12-.16-.63-.44-1.59,0-2,1-.94,4.78,2,8,4,11.21,6.83,25,7,25,7h0c25.41,16.93,40,38,45,52,4.16,11.64,2.65,21.17,6,34a5.15,5.15,0,0,1,0,3c-2,5.95-16.22,6.22-24,6l-2.4.05Z"/><path class="cls-43" d="M297.56,661c-2.81.2-13.39,1-16-4-1.27-2.42.35-4.31,0-11-.33-6.48-2.09-9.29-1-10,1.68-1.09,6,5.45,14,10,6.33,3.59,12,4.28,18,5,13.29,1.6,16.23-1.91,32-2,14.56-.08,12.22,2.91,23,2,11.18-.94,18-4.52,31-3,2.58.3,8,.93,8,2,.07,2.21-22.78,2.26-59,8C331.07,660.61,314.22,659.82,297.56,661Z"/><path class="cls-44" d="M527.56,837c.84-.79,7.64,6.12,12,9,9.77,6.46,25.7,5,36-1,14.33-8.27,20-26.4,31-29a9.68,9.68,0,0,1,5,0c4.18,1.2,6.27,5.35,9,11,5.64,11.64,8.46,17.46,9,19,3.13,8.89,3,12.27,7,16,2.55,2.35,4.78,3,5,5,.37,3.25-5,6.23-10,9-20.32,11.37-30.49,17-32,18,0,0-16.12,10.15-19,8a4.88,4.88,0,0,1-1-1c-1.07-1.56-.31-3-1-4a3.45,3.45,0,0,0-4-1c-1,.42-1,1.21-2,2,0,0-1.58,1.33-5,1-6.88-.66-20.3-25.87-23-31,0,0-5.56-10.56-11-16l-4-4a8.08,8.08,0,0,1-2-2,6.23,6.23,0,0,1-1-4c.21-1.55,1-2.09,1-4C527.55,837.3,527.44,837.12,527.56,837Z"/><path class="cls-43" d="M529.56,837c.37-.11.85,1.71,3,4.58a33.69,33.69,0,0,0,3,3.42c4,4,9.64,6.43,13,9,2.92,2.23,2.08,3,9,16,4.89,9.18,7.33,13.77,10,17,6.08,7.33,12,10.41,11,13-.71,1.84-4.36,2-5,2-8.5.21-15.22-9.43-19-15-10.37-15.29-9.76-27.08-18-34a20.08,20.08,0,0,1-5-6C529,842.28,529,837.17,529.56,837Z"/><ellipse class="cls-53" cx="563.03" cy="879.31" rx="1.36" ry="7.15" transform="translate(-344.66 363.28) rotate(-27.75)"/><path class="cls-44" d="M453.56,649a51,51,0,0,1,4,7c7.49,15.9,2.32,26.44,10,33,2.42,2.06,5.46,3.18,7,7,.74,1.83.83,3.55,1,7,.28,5.58-.75,6.74,0,9,1.6,4.8,5.52,7.1,8,9,12,9.21,14.52,27.48,15,31,1.25,9.14-1,13.53,3,21,2,3.79,3,3.43,6,8,5.28,8.07,3.45,11.1,8,22,4.75,11.36,7.87,10.76,10,20,1,4.27,1.34,8.77,3,9s3.31-3.48,4-5c12.94-28.2,1-50,1-50-5-7.68-10.72-8.72-15-19-5.7-13.69.62-21.1-6-30-6.73-9.06-16.67-6-19-13-3.07-9.3,13.11-18.25,10-30-1.28-4.84-5.09-7.35-7-9-17-14.7-2.17-64.64,3-102,6.86-49.51-38.66-121.57-44-122-3.92-.32,13.09,51.88,11,62-7.06,34.24-7.24,44.59-11,69-2.31,15,0,34-2,65h0Z"/><path class="cls-43" d="M455.56,450c.19,0,.2,1.23.2,1.64.05,2.32.63,5,1.8,10.36,1.7,7.79,3.33,11.32,5,19,1,4.58,1.45,7.91,2,12,.95,7,2.44,18.07,2,29-.3,7.57-1.18,6.37-7,35-3.51,17.26-3.84,20.89-4,24-.57,11.15,1.24,11.21,1,25-.25,14.55-2.26,13.93-2,27,.16,8,1.06,15.38-1,16-.86.26-1.46-1.89-3-2-3.48-.24-6.94,10-7,10s5.9-9.76,7-21c1-9.91-2.62-12.86-4-24-1.15-9.3,1.06-9.64,4-32a354.91,354.91,0,0,0,3-39c.21-11.08-.37-11.88,0-20,1-22.06,6.11-20.91,5-33-.87-9.52-5.32-26.47-4-34C454.73,453,455.27,450,455.56,450Z"/><path class="cls-43" d="M546.56,616h0s-3.22,7.66-3,15c.14,4.65,1.55,5.31,2,9,1.16,9.41-6.4,17.84-13,25-9.34,10.14-18.38,15.42-18,16s11.57-6.2,28-12c8.18-2.89,10.7-3,13-2,6.71,3,9.48,15.37,7,25-1.62,6.32-7.77,13.3-20,27-2.59,2.9-8.52,9.46-8,10,.85.87,15.54-17.47,30-15,1.29.22,5.28,1,7,4,2.42,4.28-.72,11.26-5,15-8.37,7.33-23,4-23,4a55.31,55.31,0,0,1,22,3c5.1,1.9,12.4,4.63,15,11,2.46,6-.45,12.34-6,24-5.46,11.47-10.91,18.23-10,19,.42.36,3.67-6.7,10-8,5.49-1.13,10.51,2.62,11,3,4.12,3.16,4,6.53,11,17a11.82,11.82,0,0,0,4,4c2.76,1.56,7,2.87,9,1a3.24,3.24,0,0,0,1-3c-.23-.85-.93-1.27-2-2,0,0-.38-.27-4-3-3.19-2.42.84-8.9-1-17-1.66-7.32-7.3-12.39-8-13-2.87-2.52-3.74-2-5-4-2-3.12-.84-6,0-16,.48-5.69.71-8.57,0-10-2.43-4.94-7.82-3.42-12-9a16.79,16.79,0,0,1-3-11c.51-5.29,3.5-5.59,4-10,.78-6.81-6.07-8.7-7-17-.75-6.69,3.49-7.28,3-14-.54-7.51-5.92-8.07-10-19-1.9-5.11-2.38-9.41-3-15-1.12-10.17.38-11.1-1-18-2-10-11-22-13-27-.59-1.47,0,5-1,9Z"/><ellipse class="cls-45" cx="458.72" cy="343.74" rx="2.49" ry="4.57" transform="translate(-55.29 597.46) rotate(-63.12)"/><g id="צהל"><path class="cls-54" d="M439.62,461.56c-15.75-2.08-47.52-10-47.52-10s-1.55-7.94-.87-11.28,2.06-6.77,2.24-9.76c11.65,6,45.65,11.85,45.65,11.85s3,2.42,2.16,8.12S439.62,461.56,439.62,461.56Z"/></g></g><g id="מכנס"><path class="cls-41" d="M173.56,631c-4.43.49,1.77,8.39,0,26-.6,6-1.25,12-4,19-4.18,10.64-8.51,11.71-13,21-2.47,5.12-1.93,6.42-5,27-4.35,29.27-6.34,32.69-8,35-7.91,11-16.61,8.42-19,17-2.81,10.08,8.22,17.2,6,32-.31,2.09-2.75,5.32-4,11a19.15,19.15,0,0,0-1,8c7,60,15.92,144.6,16,145h0c0,1.71,12.9-.81,19,4,8.29,6.54-.66,22.91,4,45,.35,1.64,1.57,7.11,3,15,1.16,6.39,1.87,11.1,2,12,4.15,27,19.93,43.31,16,67-1.57,9.47-6.18,19.55-1,25,2.29,2.4,4.52,1.85,7,5,3.34,4.24,1.25,7.68,3,17,1.62,8.61,3.85,8,4,14,.19,7.42-3.19,8.9-2,15,1,5.33,3.83,5.25,5,11,1,5-.68,7.2-1,13-.4,7.32,1.85,12.53,3,16,4.95,14.9,5.76,46.47,14,102,5.4,36.39,8.09,43.33,15,49,11.67,9.57,31,11.93,46,4,16-8.43,20.62-25.07,22-30,1.47-5.23.82-6-2-43-2.92-38.42-1.88-33-3-42a81.4,81.4,0,0,1-1-15c.45-10.92,3.17-13.63,3-23-.15-8.94-2.64-7.53-3-17-.45-12,3.52-15.1,1-24-1.62-5.72-3.72-6.07-4-11-.35-6.22,2.85-8.06,4-15,1.18-7.1-1.48-9.33-2-17-.55-8.19,2.11-11.31,5-22a137.28,137.28,0,0,0,4-44s-1-12.4,0-20c.07-.49.35-2.46.62-5.18.13-1.32.39-4,.51-7.12a80.19,80.19,0,0,0-.13-9.7c-.46-5.68-1.74-11-2-11-.41.06.25,14,5,29,1.08,3.4,1.25,3.36,2,6,.92,3.25,2.73,10.9,2,24-.74,13.38-3.22,15.51-1,22,1.92,5.6,4,4.63,6,10,4.49,11.92-4.18,20.61,1,27,3,3.67,7.05,2.29,9,6s-4.32,7.28-4,15c.1,2.27.57,1.75,1,5,1.16,8.69-2.42,11-1,17,1.24,5.2,4.33,5.28,4,9-.36,4.09-4.18,4.94-6,10-1.55,4.33-.38,8.26,0,10,3,13.58,5.44,54-1,80a110.74,110.74,0,0,0-3,14c-1.19,8.81-.52,13.25-2,23-.83,5.49-1.14,4.76-2,10-1.75,10.72-.68,14.84-1,33-.22,12.93-.8,12.73,0,15,3.89,11,17.74,16.53,27,18,18.66,3,40.11-7.09,45-22a27.52,27.52,0,0,0,1-5c2.37-15.49,3.56-23.24,4-40,.18-6.65,5.12-24.1,15-59,8.8-31.06,13.33-44.45,13-61,0-2.41-.27-8.85,0-18,.43-14.18.64-21.26,2-27,2.21-9.33,5.26-14,3-21-1.33-4.12-2.92-4.07-3-7-.2-7.42,9.91-9.76,11-19,.37-3-.77-2.52-1-8a37.83,37.83,0,0,1,3-17c3.45-7.56,7-6.92,10-14,2.21-5.2,1.38-8.1,2-14,1.46-13.91,7.81-14.46,10-26,3.19-16.74-8.27-25.53-2-36,1.24-2.07,4.06-6.77,9-8,3.39-.84,5.82.43,7-1,1.87-2.26-7.84-6.93-8-9-1-13-7.42-11.79-11-17-5.95-8.68,2.75-18.25,9-46,2.55-11.32,3.37-20.21,5-38,1.27-13.76,2.32-25.26,2-40-.83-38.48-9.81-41.56-4-60,2.5-7.93,6.87-15.94,3-23-3.42-6.26-10.46-6.54-12-13-1-4.35,1.82-5.64,4-14,.9-3.44-2-15-5-23-1.79-4.77-3.69-4.17-6-8-2.8-4.64.78-8.84,0-16s-6.33-10-8-15c-6-18-2-42-5-42-19.86,0-65.18,14.93-134,10C234.27,651.54,182.56,630,173.56,631Z"/><path class="cls-46" d="M172.56,638c-.22,0-.27,1-1,7-.6,5-.9,7.54-1,8-1.77,8.9-8,10.87-8,18,0,2,.58,1.59,1,5,.86,6.91-.88,10.64,0,11,1.16.47,6.36-5,6-11-.22-3.71-2.38-4.51-2-8,.33-3,2.11-3.64,4-8a27.35,27.35,0,0,0,2-8C174.53,644.74,173.15,638,172.56,638Z"/><path class="cls-46" d="M431.56,647c.77-.18,3.3,8.35,4,12a28.73,28.73,0,0,1,.43,2.94c.18,2.25-.13,3.39.57,7.06,1.16,6,1.95,10.12,5,14,1.43,1.81,2.8,2.87,3,5s-.9,2.46-1,6c0,1,.05,1.54,0,4a10.82,10.82,0,0,0,0,2c.54,2.37,3.2,3,3,4-.14.7-1.78,1.25-3,1-3.32-.69-6.29-7-5-12,.67-2.58,2.12-3.38,2-6-.08-1.9-.92-3.09-2-5a39.72,39.72,0,0,1-4-9c-1.42-5.61,1-7.68-1-14-.37-1.18-.58-1.49-1-3C431.38,651.78,431,647.13,431.56,647Z"/><g id="חגורה"><rect class="cls-55" x="303.53" y="660.01" width="16" height="54.99" rx="8" transform="matrix(1, 0.03, -0.03, 1, 22.71, -9.84)"/><rect class="cls-55" x="277.53" y="659.01" width="16" height="54.99" rx="8" transform="matrix(1, 0.03, -0.03, 1, 22.66, -8.99)"/><path class="cls-56" d="M172.58,637.23c0-.88,2-1.39,2.68-.87,6.13,4.54,17.72,10.13,28.3,13.64,39.72,13.18,84,11,84,17l-1,43.31a1.48,1.48,0,0,1-1.7,1.44c-11.8-1.83-85-15.43-114.34-33.75-3.55-2.22,1.48-7.15,3-21C174.24,650.79,172.69,644.34,172.58,637.23Z"/><path class="cls-56" d="M431.43,647.81c-.21-.77-.78-1.34-1.49-1A139.73,139.73,0,0,1,389.56,660a382.37,382.37,0,0,1-76.95,4.07,1,1,0,0,0-1.09,1L309.61,710a1,1,0,0,0,1,1.08c4.76.12,26.59.1,82.95-7,19.85-2.51,33.63-6.63,41-14,1-1-.57-10.08-2-24C431.77,658.26,432.56,652,431.43,647.81Z"/><path class="cls-55" d="M301.9,671.7a3.66,3.66,0,0,0-1.6-1.53,8.28,8.28,0,0,0-6.48,0l-.85.36a2.58,2.58,0,0,0-1.41,2.43v24.26a2.56,2.56,0,0,0,2.26,2.78l.83-.35a6.2,6.2,0,0,1,4.82,0l.83.35a2.56,2.56,0,0,0,2.26-2.78V674.06A4.93,4.93,0,0,0,301.9,671.7Zm-2,23.55a1.75,1.75,0,0,1-1.75,1.75h-1.5a1.75,1.75,0,0,1-1.75-1.75v-20.5a1.75,1.75,0,0,1,1.75-1.75h1.5a1.75,1.75,0,0,1,1.75,1.75Z"/><path class="cls-57" d="M304.51,696l-.76-.26a6.84,6.84,0,0,0-4.38,0l-.75.26a2.05,2.05,0,0,1-2.06-2v-17.9a1.89,1.89,0,0,1,1.29-1.79l.77-.26a9.14,9.14,0,0,1,5.89,0h0a3.23,3.23,0,0,1,2.05,2.86V694A2.05,2.05,0,0,1,304.51,696Z"/></g><path class="cls-43" d="M198.46,644.91l-10.52,59.82c-.34,1.9-1.09,4.38-.9,6.45a3.14,3.14,0,0,0,1.67,2.44l3,1.61,3.85.76a1.79,1.79,0,0,0,2.24-2h0a21.24,21.24,0,0,1-.15-8.18l10.25-57.13a1.65,1.65,0,0,0-1.33-1.87l-8.07-1.93"/><path class="cls-41" d="M199.56,640l-13.15,62a13,13,0,0,0,.76,7.75l1.06,2.48a1.78,1.78,0,0,0,1.14,1l3.59,1a1.76,1.76,0,0,0,2.22-1.94h0a24.32,24.32,0,0,1,.3-8.59l12.75-59.19a1.76,1.76,0,0,0-1.16-2l-7.51-2.5"/><path class="cls-58" d="M376.51,719.56,374.3,717a1,1,0,0,0-1.52,0l-2,2.38a.78.78,0,0,0-.19.5v5.84a.78.78,0,0,0,.17.48l3.49,4.44a1,1,0,0,0,.89.35l7-.68a.82.82,0,0,0,.71-1.25l-6.23-9.41Z"/><path class="cls-43" d="M377.56,656a4.79,4.79,0,0,0,0,4,4.93,4.93,0,0,0,2,2c6,3.71-2.2,47-1,52a3.25,3.25,0,0,1,0,2c-.57,1.55-2.28,1.5-3,3-.1.21-.2.51,0,3,.29,3.4.61,4.49,0,5-.27.23-.81.41-2,0l3-70Z"/><path class="cls-41" d="M373.56,728c.9,2.55,2,2.32,4.7,1.84l.1,0c2.62-.47,4.2-.17,4.2-2.82l.31-10.57c0-.15,0-.29,0-.44l4.53-55.26a5.53,5.53,0,0,0-.73-3.23l-.68-1.16a5.5,5.5,0,0,0-5.76-2.62L373.5,655v.91l.9-.91a4.47,4.47,0,0,0,2,6c6.05,3.69-2,47-.77,52a3.23,3.23,0,0,1,0,2,2.38,2.38,0,0,1-.85,1.12,5.61,5.61,0,0,0-1.94,3.15l-.24,1c0,.23,0,.48.06.75.3,3.4-.14,3,0,5Z"/><path class="cls-43" d="M224.56,1353c1.26-.57,3.24,4.16,9,9a40.55,40.55,0,0,0,16,8c2.28.61,18.84,4.8,33-4,8.79-5.46,13.05-13.67,14-13,.68.47-.85,5-4,9-5.36,6.78-10.3,5.45-26,14-3,1.66-4.43,2.56-7,3-4.49.76-5.84-1.06-15-3-6.1-1.29-7.91-1-11-3a18.21,18.21,0,0,1-5-5C224.22,1361.89,223,1353.71,224.56,1353Z"/><path class="cls-43" d="M249.56,1347c-.82-2.19,8.42-5.54,16-14,1.63-1.82,4.44-7.24,10-18,7.66-14.83,9.9-20.21,11.52-24.57a106.87,106.87,0,0,0,3.48-10.43c2.07-7.54,2.34-12,3-12s1.72,5.29,1,11c-.61,4.91-2.41,8.67-6,16-3,6.23-4.41,8-6,13-1.15,3.64-2.77,8.73-1,10,1.92,1.38,6.89-2.39,9-4,5.32-4,7.73-8.19,8-8s-2.42,6.18-8,12c-3.52,3.68-5.1,4.08-10,8-7.29,5.83-15.27,14.12-14,16,.76,1.12,4.09-1.17,11-1,4.42.11,9,1.18,9,2s-3.68.71-11,2c-8.2,1.45-12.89,3.11-21,3C250.42,1347.94,249.74,1347.48,249.56,1347Z"/><path class="cls-43" d="M198.56,1172c1.51-.89,8.14,12.12,20.62,17.92a51.54,51.54,0,0,0,5.38,2.08,47.91,47.91,0,0,0,14.44,2.22c8.78,0,14.43-2.62,14.56-2.22s-7.44,6.13-17,6c-14.95-.2-27.11-14.42-31-11a32.59,32.59,0,0,0-3,4s3.23,10.43,2,11-7.44-6-7-13c.22-3.43,1.88-4.5,2-9C199.7,1175.11,197.85,1172.42,198.56,1172Z"/><g id="כיסים_ימין" data-name="כיסים ימין"><g id="כיסים_ימין_2" data-name="כיסים ימין 2"><path class="cls-44" d="M405.56,796c-6.23,1.91,7.4,40.68,8,87,.57,43.85.91,69.85-7,100-1.45,5.56-4.05,14.52,0,18,7.05,6,33.23-5.26,41-24,2.78-6.7.9-8.78,4-24,2.68-13.15,6.12-21.58,8-27,11.39-32.83,5.91-71.56,5-78-3.77-26.69-11-33-6-48,2-6,6.34-14.42,3-23-2.56-6.59-9-11.73-10-11-.45.33,2.51,3.24,3,8a15.66,15.66,0,0,1-2,9c-6.94,12.72-34.84,14.92-46,13A2,2,0,0,0,405.56,796Z"/><path class="cls-44" d="M437.56,734c3.73-4.67,6.94-8.7,9-8,1.81.61.84,4.19,4,11,1.09,2.34,1.35,2.23,2,4a19.09,19.09,0,0,1,1,10c-.95,5.2-3.76,6.37-3,10,.19.89.69,2.4,0,3s-1.68.1-2,0c-3.11-1-9,.88-23,5-4.44,1.31-6.67,2-7,2-8.3.94-17.67-2.88-18-7-.09-1.2.56-2.56,5-6,12.94-10,20.72-8.76,27-17C434,739.1,434.66,737.64,437.56,734Z"/><path class="cls-44" d="M425.56,1138c-5.28,1.21-8.93,2-13,0a12.33,12.33,0,0,1-6-6c-2-4.86.72-10,2-13,4.27-10,.43-13.6,2-29,2.11-20.65,9.55-19.3,13-43,.9-6.17,1.33-12.64,4-23,4.4-17,8.21-18.74,10-19,3.78-.54,5.29,4.35,11,4,1.42-.09,6-.67,9-4,1.36-1.48,2.12-3.19,3-3s.72,2.07,2,4,3.57,1.4,4,3a1.47,1.47,0,0,1,0,1c-.63,1.46-4.27.54-7,1-5.12.86-8.7,6.88-10,11-1.14,3.63.17,5.13,2,15,1.51,8.08,2.26,12.12,2,15-.73,8.26-4.82,8.35-8,20-1.6,5.88-.89,7.08-3,15-1.64,6.2-1.74,9-4,12s-3.56,2.53-6,6a27.1,27.1,0,0,0-4,10,26.25,26.25,0,0,0-1,8c.13,2.44.63,3.93,1,9,.14,1.84.23,3.77-1,5A3.9,3.9,0,0,1,425.56,1138Z"/></g><path class="cls-43" d="M442.56,793c.35.58,21.44-10.88,19.92-16a28.74,28.74,0,0,0-2-4,14.91,14.91,0,0,0-2-3c-2.34-2.4-6.44-3-7-2-.44.78,1.87,1.94,3,5a11.61,11.61,0,0,1,0,7C452.34,788.35,442.33,792.61,442.56,793Z"/><ellipse class="cls-53" cx="456.73" cy="793.5" rx="2.17" ry="6.5"/><path class="cls-43" d="M444.76,721c-3.08-.49-8.35,13.41-7.19,14s7-10,9.24-9c1.3.57-.35,4.36,2.06,9,1.1,2.12,1.92,2.24,3.08,4,4,6,.44,13.87,1,14s6.2-10.55,2-16c-1.1-1.45-2.45-2-3.08-4-1-3.19,1.31-5.08,0-7-1-1.45-2.6-.8-5.14-3C445.37,721.74,445.4,721.1,444.76,721Z"/><path class="cls-43" d="M396.56,762a8.41,8.41,0,0,1,2,5c.06,2.52-1.33,3.55-1,5,.7,3.07,8.18,3.84,10,4,8.59.76,15.73-1,22-3,8.68-2.73,21.42-7.61,21-9-.32-1.09-8.76-.07-16,2-8.52,2.43-9.63,4.66-16,5a26,26,0,0,1-13-3c-1.24-.67-5.29-2.86-5-5,.05-.36.24-.85,3-3,2.54-2,4.06-2.88,4-3S405.31,757.76,396.56,762Z"/><path class="cls-43" d="M404.56,794c0,1.19,0,2.92,0,5a72.85,72.85,0,0,0,1,11c.84,4.8,1.55,5.6,2,6,2,1.76,5,1.27,7,1,15-2,19.25,2.61,28-2,2.69-1.42,4.85-3.2,5-3s-2.81,3.84-7,6c-2.05,1.06-4.85,2-22,2-5,0-10.31-.09-11,2a1.81,1.81,0,0,0,0,1c.82,3.22-.06,6.19,0,14,0,4.43.35,7,1,14,.75,8,1.31,16,2,24,.77,8.86,1.19,24.36,2,55,.61,23,.51,24.41,0,27-1.62,8.23-1,16.85-3,25a3.69,3.69,0,0,0,0,2c.64,2,3.18,2.63,6,4,4.17,2,3.58,3.47,6,4,2.84.62,3.11-1.15,7-1,3.54.13,4.73,1.64,8,1a20.09,20.09,0,0,0,3-1c.09.17-4.19,2.33-9,5a111.53,111.53,0,0,1-19,8,1.32,1.32,0,0,1-1,0c-.75-.4-.39-1.66-1-2s-1.82,1.21-3,1-1.71-2-2-3a18.38,18.38,0,0,1,0-9c1.92-10.28.93-11.48,3-19a33.4,33.4,0,0,0,1-4c.68-4,0-5.42,1-9,.48-1.73.67-1.52,1-3,.62-2.75.08-4,0-7-.11-4.2.85-4.57,1-11,0-.83,0-1.18,0-3,0-2.61,0-6.07,0-13,0-13.51.22-12.63,0-15-.39-4.26-.88-5.5-1-10-.1-3.76.21-4.17,0-8-.18-3.37-.59-6.19-1-9s-.77-4.66-1-6c-1.32-7.7-.28-10.41-1-21-.29-4.42-.41-3.07-1-10-.48-5.8-.49-7.81-1-16-.52-8.39-.78-12.58-1-14-.75-4.85-1.85-9-2-16a4.76,4.76,0,0,1,0-3,2,2,0,0,1,1-1c.18-.07.72-.29,1,0A.85.85,0,0,1,404.56,794Z"/><path class="cls-43" d="M459.56,806c6,2,5.37,23.52,4,35-1,8.23-2.77,14.77,0,22a26.9,26.9,0,0,1,1,19c-.83,3-2.17,13.51-5,34.47-.4,3-.56,4.3-1,7.53-.91,6.43-1.72,12-3,18-.6,2.81-3,14.13-4,14-1.29-.18-2.37-13.12,1-27,1.84-7.57,2.95-7,4-13,2-11.69-1.91-15.39-1-27,.83-10.55,4.23-9.34,5-19,1.19-14.87-7-15.92-6-30,.81-11.3,6.77-20.09,2-26-1.23-1.53-3.43-3.17-3-5S457.38,805.27,459.56,806Z"/><path class="cls-43" d="M436.56,1000c-.15-2.18-2.23-3.78-2-4s1.84,1.18,4,3c5.38,4.52,3.13,2.55,6,5,3.21,2.74,3.68,3.21,5,4,2.31,1.38,4.05,1.85,4,2s-3.42-.26-7-2c-3.13-1.53-3.6-2.65-6-3-.61-.09-3.2-.46-5,1s-1.83,3.63-2,5c-.94,7.74-4.83,8.45-7,18a46.46,46.46,0,0,0-1,9c-.74,13.34-6.41,19-11,34-3,9.75-3.65,18.17-5,35-1.46,18.36.69,17.18-1,23-.35,1.21-1.28,4.16,0,7a8.9,8.9,0,0,0,7,5c5.09.44,9.43-4.65,10-4,.22.25-.28,1.17-1,2-3.15,3.66-8.21,3-19,4-7.83.7-9.85,1.45-11,0-1.51-1.91.41-5.22,3-12,2-5.22,3.22-10.7,5-16,4-12,3.34-14.61,8-33,4.17-16.46,4.55-13.68,8-28,5.11-21.19,7-30,7-30,2.4-11.12,3.13-15.69,7-19C433.74,1005,436.76,1002.77,436.56,1000Z"/><path class="cls-43" d="M452.56,988c-1.12.7,2.89,5.52,1,11-.91,2.64-2.59,3.71-2,5,.7,1.5,3.91,2.13,6,1,1.92-1,2.05-3.08,3-3,1.23.1,1.09,3.54,4,6,.6.5,1.52,1.28,2,1,1-.58.13-5.73-3-8a5.56,5.56,0,0,0-2-1c-2.09-.53-1.39-1.43-2-2s-1-.62-1-3C458.57,991,453.64,987.33,452.56,988Z"/></g><g id="כיסים_שמאל" data-name="כיסים שמאל"><path class="cls-44" d="M171.56,804c3.46,3-.24,9.63-2,25-.15,1.34-.71,6.44-1.74,13.31-.12.83-.21,1.41-.26,1.69-3.4,22.47,2.84,34.13,5,75,.41,7.69.94,12.79,2,23,1.87,18,2.93,21,5,24,1.09,1.59,2.53,3.29,2,5-1,3.43-9,5.17-15,4-15.29-3-22-25.63-23-29-2.28-8-.79-9.26-2-24-1.08-13.28-3.39-23.85-8-45-4.44-20.37-6.12-24-6-34,.13-9.85.28-21.48,8-28,4.62-3.9,7.6-2.31,19-9a21.32,21.32,0,0,1,8-3C165.27,802.61,169.31,802,171.56,804Z"/><ellipse class="cls-53" cx="125.35" cy="785.65" rx="1.48" ry="4.43" transform="translate(-254.28 86.48) rotate(-19.44)"/><path class="cls-43" d="M152.2,720.48c2.18-.27,1.53,13.7,11.55,22.79,5.94,5.39,12.48,6.2,12.39,9.82s-6.53,6.17-7.44,6.54c-4.54,1.83-6.53.53-11.1,1.28-9.77,1.59-15.63,9.92-16.62,8.94-.57-.56,2-2.72,2.45-6.85.42-3.58-1.1-5.14-1.48-8.12-.65-5.14,3-7.82,5.9-13.64C153.27,730.44,150.35,720.7,152.2,720.48Z"/><path class="cls-43" d="M136.56,767c.59.52-6.42,4.53-5,7.79.84,1.92,4.2,2.64,6.16,3.07,8.4,1.81,15.64-1.17,15.84-.73s-5.88,3.93-14,3.89c-5.24,0-14.25-1.57-15-5.45C123.66,770.8,135.85,766.36,136.56,767Z"/><path class="cls-43" d="M185.56,813c-8.83-5.08-11.06-10.89-13-10-1.75.81-.12,5.56-1,17-.57,7.42-1.77,8.58-3,16-1.47,8.89-.83,15.32,0,25,1.15,13.32,1.66,26.7,3,40,1.14,11.24,1.13,23.18,2.68,37.33.18,1.57.82,7.26,2.32,14.67,1.15,5.64,3.38,15.11,4,15,.83-.15-1.95-17.13-4-37-2.94-28.51-.48-22.09-3-50-1.87-20.77-2.41-31.2,2-38,3.13-4.82,6.32-5.82,11-14s3.94-11.35,3-13C188.75,814.58,187.65,814.2,185.56,813Z"/><path class="cls-59" d="M128.56,793c-1,1.24-.47,3.19,0,5a66.81,66.81,0,0,1,2,9c.28,2.84-.53,4.15-2,9-1.28,4.26-2,8.67-3,13-4.17,17.9,9,67,9,67,5.26,43.54,7.11,61.69,7,65,0,.8,0,1.53,0,3,.08,6.57.61,7.5,1,8s1,1.12,5,2a46.6,46.6,0,0,0,9,1c2.15.06,2.59-.25,4,0,3.07.53,4.87,2.16,5,2,.26-.32-7.53-5.72-12-11-7.48-8.84-7.35-19.35-8-30-.69-11.33-3.46-25.22-9-53-5.3-26.6-10-38.11-5-50a68.37,68.37,0,0,1,10-16c2.72-3.13,5.43-6.26,10-9,6.12-3.67,11.11-4,11-5-.17-1.78-14.63,2.52-23-5-2.42-2.18-5.62-6.5-9-6A3.24,3.24,0,0,0,128.56,793Z"/></g><path class="cls-43" d="M172.56,1056c-.65,2.88.47,2.13,7,30,4.07,17.35,6.11,26.15,6,32-.17,9.72-2.19,13.64,1,19s9.1,8.15,9,14c0,1.3-.68,1.73-1,4-.48,3.51,0,7.82,1,8,1.3.22,4.51-5.77,5-12,.75-9.52-5.46-11.92-8-23-2.48-10.88,2.75-11.87,1-25-1.79-13.53-8-17.35-5-23,3.15-5.94,13-7.3,18-8,5.18-.72,8.49-.21,12,0,12.81.77,23.21-3.15,44-11,9-3.41,12.42-5.28,15-9,3.31-4.76,4.83-11.88,3-16C272.21,1017.15,179,1027.81,172.56,1056Z"/><path class="cls-44" d="M166.56,1002c1.49-.72,6,7.57,10,12,10.68,11.87,30.37,10.4,49,9,10.58-.79,31.9-2.65,54-17,13.5-8.76,15.89-19.47,21-18,7,2,10.41,22.59,3,38-3.89,8.1-9.72,12.56-17,18a115.53,115.53,0,0,1-40,19s-33.28,8.76-61-1c-9-3.17-12.45-7.45-14-10a23.22,23.22,0,0,1-3-9c-.44-4.38.77-6.31,1-10,.44-6.89-3.8-7-4-14-.11-4.17,1.17-4.85,1-11C166.46,1004.16,165.9,1002.32,166.56,1002Z"/><path class="cls-43" d="M325.62,1084.59c.23-2.32.72-7.43,6.05-8.44s9.4,3.28,21.19,5.63c19.62,3.89,39.38-1.86,42.36.93,1.38,1.29-1.66,3.57-5,4.69-6.67,2.21-13.19-.6-23.2.94-5.81.89-11.35,3-14.12,5.62-4.85,4.53,2.57,6.86-2,12.66-2.63,3.32-6.27,4.08-6,7,.15,2,1.89,2.37,3,5.62.61,1.74,1.34,3.84,0,6.09-1.47,2.48-5.87,5.86-9.08,5.63-7.78-.58,1.38-21.72-10.08-36.56A14.46,14.46,0,0,1,325.62,1084.59Z"/><path class="cls-44" d="M333.56,828c-4.26,31.51,1.59,75.25,3,89,5.07,49.28-12.73,45.76-11,102,1.08,34.94,7.81,31.86,17,101,4.88,36.71,7.3,55.57,6,80-1.84,34.88-7.79,32.56-11,78,0,0-1.33,18.84-9,56a70.23,70.23,0,0,1-10,25c-2.43,3.73-6.1,10.64-8,10s.25-9.21,2-28c1.92-20.57.5-24.57,4-36,1.54-5,2.67-7,4-13,1.58-7.06,1.79-12.25,2-22,.7-31.73-.15-38.21-1-43-.17-1-3.52-7-3-13a19.64,19.64,0,0,1,2-7c.83-1.52,1.11-1.41,2-3s2.73-4.85,2-8c-.57-2.48-2.06-2.14-3-5-.62-1.89-.41-3.6,0-7,.45-3.7.94-3.65,1-6,.07-2.81-.61-3.63-1-7s-.54-5.11,0-7c.88-3,2.4-3.07,3-6,.21-1,.8-3.88-1-6-1.3-1.54-2.79-.67-5-2-3-1.8-3.85-5.36-4-6-.74-3.3,1-4.18,2-10a22.33,22.33,0,0,0,0-10c-.47-1.77-1.64-3.85-4-8-3-5.26-3.41-5.31-4-7-1.38-4-.07-6.91,1-12a68.15,68.15,0,0,0,1-20,80.18,80.18,0,0,0-3-16,102.47,102.47,0,0,0-4-12c-6.21-15.7-7.38-54.38-8-69a596.2,596.2,0,0,0-6-67c-2.47-16.42-4.76-26.34-7-48-1.63-15.82-2.5-24.63-2-37,.56-13.7,2.13-15.11,5-41,2-18.06,3-27.09,3-34,0-22.3-4.25-33.55,2-38,1.89-1.35,2.6-.55,15,0s21.52.91,32-1c3.68-.67,4.64-1.09,10-2,11.08-1.88,16.61-2.82,18-1,2.74,3.6-8.44,12.41-16,30-2.12,4.94-3.75,13.3-7,30-2.78,14.31-4.63,26.91-7,43C334.57,820.75,333.77,826.49,333.56,828Z"/><path class="cls-43" d="M289.56,716c4,3.64,3.63,9.94,3,17-1.8,20.39-3.75,25.66-4,36-.3,12.59,2.46,10.34,2,22-.72,18.37-7.39,19.45-7,36a98.37,98.37,0,0,1-1,21c-.55,3.35-1.52,8.06-2,8-.85-.1,2.12-15,1-36-.68-12.81-2.27-16.25-1-26,.56-4.3,1.38-7.58,1-13-.63-9-3.57-9.54-4-16-.8-12,9-15.29,7-26-.88-4.68-3-5.27-4-12-.35-2.37-1.67-11.12,2-13C284.61,713,287.69,714.3,289.56,716Z"/><path class="cls-44" d="M306.56,1014a182.21,182.21,0,0,0,57,20c36.13,6.14,56.64-2,59-4,.19-.16,1.53-1.33,2-1s-.66,3.25-1,4c-3.69,8.35-6.58,27.28-7,30-1.59,10.45-1,15-5,18a12,12,0,0,1-7,2c-23.94,1-19.2,2.9-30,2-17.56-1.46-37.19-3.09-52-18a58,58,0,0,1-10-14C304.13,1036.62,305.54,1020.77,306.56,1014Z"/><path class="cls-43" d="M275.56,899c.83-2.78,4.86-1.49,7-5,2.44-4-1.27-8.19,0-18,.23-1.78.52-4,1-4,1.28-.07,2.76,14.28,6,43,3.15,27.88,2.51,21.13,4,35,3.84,35.68,2.61,34.29,5,50,.32,2.06,2.55,14.73,7,40,2.53,14.31,1.85,11.15,3,17,4.36,22.13,6.94,26.26,5,35-1.4,6.32-3.55,7.76-3,13,.79,7.54,5.64,8.31,7,16,1.55,8.75-4,12.11-1,18,2.44,4.83,6.71,3.7,9,9,1.34,3.09.89,6.39,0,13-.39,2.93-.75,3.82-2,11-.8,4.61-.68,6-1,6-.73,0-3.4-6.93-1-13,1-2.61,2.43-3.59,3-7,.2-1.19.74-4.41-1-6-.93-.86-1.95-.72-3-1-4.32-1.16-5.84-8.26-6-9-1.46-7,3.25-8.94,2-16-.29-1.63-1.52-4.09-4-9-3.2-6.35-4.63-7.73-5-11-.4-3.6.91-5.85,2-9,4.16-12,.73-24.66-1-31-.55-2-2.14-7.36-4-13-.53-1.61-.92-2.78-1-3-5.75-17.06-8-38-8-38-2.55-23.82,1.66-24.39-2-40-1.73-7.41-3.52-10.86-4-19s.85-11.75-2-16c-3.77-5.64-11.34-6.91-11-8s6.19,1.57,9-1c3-2.73,1.3-10.16-1-15C280.74,904.93,274.52,902.49,275.56,899Z"/><path class="cls-43" d="M345.56,1238c.81,10.7,4.56,12.73,6,21,1.34,7.67-1.53,8-5,28-2.47,14.24-.76,12.63-3,23-3.39,15.74-7.32,19.47-5,27s.39,5.16-1,9c-1.59,4.41-1.68,6.52-7,12,0,0-3.46,3.57-3,28,9.17,4.66,25.54,11,44,7,1.44-.31,6.82-2.44,7-2s-6.23,4.07-11,6c-2.13.86-27.72,10.75-45-4-6.18-5.28-14.34-14.55-12-22,1-3.3,3.73-5,5-6,8.92-6.6,11.86-20,15-40,4.79-30.46,7.49-60,12-86,0,0,2.28-13.1,3-13C346,1226.06,345.07,1231.47,345.56,1238Z"/><path class="cls-43" d="M414.56,1209c-1.27.32,2.74,8.42-1,14-4.37,6.53-16.71,5.7-27,5-15.46-1-24.64-5-25-4s10.13,9,24,10c13,1,22.73-4.61,25-1,1,1.64-.66,3.26-2,10-1,5-.65,7.1-1,12-.86,12.13-4.39,19.87-4,20,.67.21,10.35-21.66,11-35a40.92,40.92,0,0,1,2-13c1-2.85,1.7-3.7,2-6C419.41,1214.66,415.67,1208.72,414.56,1209Z"/></g></g><g id="שיער"><rect class="cls-60" x="259.56" y="10" width="120" height="59" rx="24.31"/><rect class="cls-61" x="276.56" y="3" width="85" height="63" rx="21.55"/><rect class="cls-19" x="297.56" width="44" height="67" rx="22"/><path class="cls-61" d="M242.56,178c-1.61-14.64,4-26.83,9-34,34.58-49.19,83-42,83-42,49.5,7.35,68.83,62.54,67,68a28.71,28.71,0,0,0-1,4c-.57,3.25-.78,7.79,0,8,1.38.38,6.22-12.35,8-18,1.25-4,8.15-12.86,6.76-29.2C413.69,115.7,403,98.94,399.56,92c-5.38-10.84-18.86-37.27-48-50-6.09-2.66-32-5-60-1-50.83,7.26-68.07,74.81-70,85-4.92,26.07,5,38.28,8,46,4.09,10.45,11.65,20.65,13,20C243.57,191.51,243.37,185.37,242.56,178Z"/><path class="cls-61" d="M231.56,161c-.2,8.71-2.28,8.34-2,16,.14,3.61.72,6.78,7,26,3.06,9.35,4.32,12.87,4,13-.6.25-5.74-10.66-9-18-4.15-9.36-6.31-14-7-17-1.32-5.76-.6-7.66,0-26,.51-15.42.15-18.88,1-19C227.16,135.77,231.87,147.58,231.56,161Z"/><path class="cls-61" d="M412.56,149c2.8.61-2.24,34.07-3,34-.36,0,1.36-7.55-1-15a18.69,18.69,0,0,1-1-5,19.58,19.58,0,0,1,1-7C409.41,153.43,411.49,148.76,412.56,149Z"/><path class="cls-19" d="M402.56,237c-4.89,29.31-14.59,53.38-16,53s7.54-24.45,10-57c3-39.47-2.2-109.63-39-127-17-8-33.59-8.93-35-15-.54-2.33,1.51-5.62,5.12-8.68C348.56,90,345.56,89,360.56,98c17.25,10.35,25.37,27.85,33,46,9.08,21.6,10.94,39.57,11.82,41.77h0A232.8,232.8,0,0,1,402.56,237Z"/><path class="cls-19" d="M222.56,192c2.88-15.12,10.47-25.2,14-30,25.09-34.06,23.83-35.17,35-51,12-17,26.11-26.08,39-24.17a8.43,8.43,0,0,1,1,3.17s1.78,5.69-1,5c-20-5-41,30-67,71-16,25.17-22.12,61-8,79,7.15,9.13,20.12,14.76,19,17-.29.59-8.1-2.74-15-9-19.36-17.57-18.46-46.14-18-53A69.41,69.41,0,0,1,222.56,192Z"/><path class="cls-19" d="M330.56,65c-5.21-5.69-8.67-6.72-4-11,9-8.26,36.85,9,43,13,5.58,3.66,9.72,6.13,14,11,6.7,7.61,5.81,11.57,14,25,6.27,10.28,7.82,9.65,11,17,5,11.58,4.21,20.16,4,22-.83,7.55-3.95,14.22-5,14-1.56-.34,4.19-15.5-2-30-1.58-3.71-3.47-6.25-12-15-18.6-19.1-27.9-28.64-35-31C343.29,74.93,337.23,72.27,330.56,65Z"/><path class="cls-19" d="M393.56,119c.29-.14,1.84,4,6,8,3,2.9,3.64,2.14,5,4,2.61,3.55,0,5.89,1,16a32.21,32.21,0,0,1,0,8c-.08.62-.51,4-1,4-.68,0-.08-6.6-2-15-1.16-5.09-2.94-9.47-6-17C395.1,123.4,393.26,119.15,393.56,119Z"/><path class="cls-19" d="M310.56,52c2.18,3-3.71,6.21-6,10-6.43,10.69-19.84,2.35-35,14-8.19,6.29-3.5,10.06-15,24-11.09,13.45-17.81,12.81-25,25-6.77,11.47-6.8,22.19-8,22s-1.86-9.82,1-20c1.13-4,3.37-10.08,17-28,7.3-9.59,7.76-9.3,17-21,14.12-17.86,13.84-19.54,19-23C287.51,47,305.51,44.94,310.56,52Z"/><path class="cls-19" d="M247.56,113c-1.53-1-7.71,6-13,12-5.08,5.77-6.76,8.49-8,11a32.29,32.29,0,0,0-3,9,28.32,28.32,0,0,0,0,9,8,8,0,0,0,1,4c.42.61.68,1,1,1,1.39-.05,1.13-7.71,4-16a35.92,35.92,0,0,1,5-10c4.74-6.47,9.23-7.41,12-14C247.28,117.29,248.54,113.64,247.56,113Z"/></g><g id="צהל-2" data-name="צהל"><path class="cls-54" d="M439.18,460c-15.76-2.08-47.53-10-47.53-10s-1.54-7.94-.87-11.28S392.85,432,393,429c11.64,6,45.65,11.85,45.65,11.85s3,2.41,2.16,8.12S439.18,460,439.18,460Z"/><text class="cls-62" transform="matrix(0.93, 0.19, -0.19, 0.98, 412.52, 450.33)">הצ</text></g></g></svg>