<svg id="Layer_1" data-name="Layer 1" xmlns="http://www.w3.org/2000/svg" viewBox="0 0 88 44.13"><defs><style>.cls-1{fill:#6b775a;}.cls-2,.cls-5,.cls-7{fill:#4d563c;}.cls-2,.cls-6{opacity:0.5;}.cls-3{fill:#3f4432;}.cls-4{fill:#788268;opacity:0.2;}.cls-6,.cls-8{fill:#586345;}.cls-7{opacity:0.8;}</style></defs><g id="כפפה_ימין" data-name="כפפה ימין"><path class="cls-1" d="M88,18c0,6.13-1.52,8.27-3,9a6.49,6.49,0,0,1-2.26.71,1.8,1.8,0,0,0-.7.21A.09.09,0,0,0,82,28c0,.12.2.18.49.25h0A2.51,2.51,0,0,1,84,29c.51.72.2,1.89-.3,2.89A6.83,6.83,0,0,1,83,33a4.09,4.09,0,0,1-1,1c-1.36.91-3.2.55-4.3.23L77,34a73.62,73.62,0,0,0-13.28-2.69c-1.13-.14-2.08-.24-2.72-.31-5.34-.58-6.36.23-10-1a21.06,21.06,0,0,1-5.71-3l0,0c-.47-.33-.89-.67-1.26-1,2,2.39,3.54,4.27,5,6a4.27,4.27,0,0,1,.86,1.3A1.82,1.82,0,0,1,50,34c0,1.61-2,2.73-4,4-7.71,4.77-8.83,6.68-11,6-.91-.28-1.16-.76-3-3-.94-1.15-1.79-2.18-2.58-3.12v0c-.92-1.1-1.76-2.06-2.55-2.9A19.88,19.88,0,0,0,22,31c-2.18-1.21-4-1.51-7-2-1.18-.19-2.25-.3-3.22-.36-2.91-.2-5-.05-7.1-.81a8,8,0,0,1-1.4-.66L3,27a9.69,9.69,0,0,1-1.37-1.06A11.12,11.12,0,0,1,0,24V23a52.26,52.26,0,0,0,6-3c2.86-1.66,4.31-2.86,6-4,4.23-2.85,5-2,11-5,3.61-1.82,3.53-2.24,13-8,2.14-1.3,3.9-2.35,5-3a21.43,21.43,0,0,1,2,1,14.53,14.53,0,0,1,1.29.81c.49.32,1,.69,1.71,1.19l.42.3C47.43,4,48.16,4.5,49,5c.5.3,1,.56,1.41.79A27.36,27.36,0,0,0,53,7l.73.29A10.74,10.74,0,0,0,56,8l.71.11C57.92,8.22,58.54,8,60,8a15.2,15.2,0,0,1,6.88,1.94L67,10a31.91,31.91,0,0,1,3,2l.11.07a14.16,14.16,0,0,0,4.73,1.79c.7.19,1.53.4,2.53.68.5.13,1,.28,1.63.46l5.15,1.72,1.65.54Z"/><path class="cls-2" d="M29.41,37.86c-.92-1.1-1.76-2.06-2.55-2.9A19.88,19.88,0,0,0,22,31c-2.18-1.21-4-1.51-7-2-1.18-.19-2.25-.3-3.22-.36-2.91-.2-5-.05-7.1-.81,1.41-.18,3.16-.44,5.32-.83,6.08-1.1,7.93-1.93,11-1a11.93,11.93,0,0,1,6,4C29,32.57,28.62,34.72,29.41,37.86Z"/><path class="cls-2" d="M74.84,13.86A13,13,0,0,1,71,22c-2,1.81-4.54,2.53-16,3-13.13.53-13.53-.27-16,1-5.86,3-7,9.33-9.58,11.88C26.57,34.49,24.53,32.4,22,31c-2.18-1.21-4-1.51-7-2-1.18-.19-2.25-.3-3.22-.36A105.24,105.24,0,0,1,21,23C36.12,14.7,47.44,12.36,50.41,5.79A27.36,27.36,0,0,0,53,7l.73.29A10.74,10.74,0,0,0,56,8l.71.11C57.92,8.22,58.54,8,60,8a15.2,15.2,0,0,1,6.88,1.94L67,10a31.91,31.91,0,0,1,3,2l.11.07A14.16,14.16,0,0,0,74.84,13.86Z"/><path class="cls-3" d="M70.11,12.07A4.57,4.57,0,0,0,69,14c-.35,1.2-.17,2.13-1,3a4.56,4.56,0,0,1-2,1c-2.24.87-2.73,2.22-4,3-2.36,1.45-6.77.52-9-2-2.78-3.16-1.87-8.49.73-11.71A10.74,10.74,0,0,0,56,8c1.72.32,2.28,0,4,0a15.39,15.39,0,0,1,7,2,31.91,31.91,0,0,1,3,2Z"/><path class="cls-4" d="M66.88,9.94A9.19,9.19,0,0,0,65,13c-.61,1.61-.32,2.06-1,3a5,5,0,0,1-5,2c-2.78-.78-3.69-5.06-3-8a7.94,7.94,0,0,1,.71-1.89C57.92,8.22,58.54,8,60,8A15.2,15.2,0,0,1,66.88,9.94Z"/><path class="cls-5" d="M63.72,31.31c-1.13-.14-2.08-.24-2.72-.31-5.34-.58-6.36.23-10-1a21.06,21.06,0,0,1-5.71-3l0,0c-1.08-1.32-1.59-2.47-1.26-3,.76-1.19,6.21,1,11,3C59,28.66,62.7,30.16,63.72,31.31Z"/><path class="cls-6" d="M50,34c0,1.61-2,2.73-4,4-7.71,4.77-8.83,6.68-11,6-.91-.28-1.16-.76-3-3-.94-1.15-1.79-2.18-2.58-3.12-.92-1.11-1.77-2.07-2.56-2.92A8.45,8.45,0,0,1,28,35c4.72.45,5.76,4.37,9,4,2.81-.32,2.88-3.38,7-5,1.66-.65,4.24-1.18,5.86-.7A1.82,1.82,0,0,1,50,34Z"/><path class="cls-7" d="M83.7,31.89a2,2,0,0,1-1.38,0C81.49,31.5,81.8,30.41,81,29c-1.56-2.91-5.45-3.2-5.36-3.5s3.95,1,7.06,2.21a1.8,1.8,0,0,0-.7.21A.09.09,0,0,0,82,28c0,.12.2.18.49.25h0A2.51,2.51,0,0,1,84,29C84.51,29.72,84.2,30.89,83.7,31.89Z"/><path class="cls-5" d="M84.15,16.72a3,3,0,0,1-.22.28c-1.38,1.58-3.5.84-4.63,0a6.45,6.45,0,0,1-1.93-2.46c.5.13,1,.28,1.63.46Z"/><path class="cls-5" d="M79.15,26.72a3,3,0,0,1-.22.28c-1.38,1.58-3.5.84-4.63,0a6.45,6.45,0,0,1-1.93-2.46c.5.13,1,.28,1.63.46Z"/><path class="cls-8" d="M84,29c.73,1-.2,3-1,4a4.09,4.09,0,0,1-1,1c-1.36.91-3.2.55-4.3.23A19.41,19.41,0,0,0,81,32c1-.92,2.23-2,2-3a1.38,1.38,0,0,0-.5-.75A2.51,2.51,0,0,1,84,29Z"/><path class="cls-8" d="M88,18c0,6.13-1.52,8.27-3,9-1.2.72-2.71.67-3,.92-.53-.32-1.08-.56-1-.92s1-.46,2-1c2.64-1.46,3-5.68,3-6a11.4,11.4,0,0,0-.2-2.74Z"/><path class="cls-5" d="M46.42,3.3A12.1,12.1,0,0,1,43,7c-1.53,1.08-2.35.85-7,2-5.19,1.29-7.84,2-10,4-1.66,1.56-1,1.93-3,4a20.28,20.28,0,0,1-8,5c-4.93,1.8-5.55.19-8,2-1.3,1-2.31,2.29-3.72,3.17L3,27a9.69,9.69,0,0,1-1.37-1.06A11.12,11.12,0,0,1,0,24V23a52.26,52.26,0,0,0,6-3c2.86-1.66,4.31-2.86,6-4,4.23-2.85,5-2,11-5,3.61-1.82,3.53-2.24,13-8,2.14-1.3,3.9-2.35,5-3a21.43,21.43,0,0,1,2,1,14.53,14.53,0,0,1,1.29.81c.49.32,1,.69,1.71,1.19Z"/><path class="cls-8" d="M44.29,1.81,44,2C27.66,12.59,26.44,9.38,14,18c-4.95,3.42-8.85,6.77-12.37,7.94A11.12,11.12,0,0,1,0,24V23a52.26,52.26,0,0,0,6-3c2.86-1.66,4.31-2.86,6-4,4.23-2.85,5-2,11-5,3.61-1.82,3.53-2.24,13-8,2.14-1.3,3.9-2.35,5-3a21.43,21.43,0,0,1,2,1A14.53,14.53,0,0,1,44.29,1.81Z"/></g></svg>