<svg id="Layer_1" data-name="Layer 1" xmlns="http://www.w3.org/2000/svg" viewBox="0 0 333.39 360.57"><defs><style>.cls-1,.cls-4{opacity:0.4;}.cls-2,.cls-4{fill:#4d563c;}.cls-3{fill:#6b775a;}.cls-10,.cls-11,.cls-5,.cls-8{fill:#788268;}.cls-6,.cls-7{fill:#586345;}.cls-7{opacity:0.7;}.cls-8{fill-opacity:0.3;}.cls-9{fill:#3f4432;}.cls-10{opacity:0.3;}.cls-11{opacity:0.2;}</style></defs><g id="אפוד"><g id="צללים" class="cls-1"><path class="cls-2" d="M31.18,196.34c-1.38-.77.27-3.57,1-21,.23-5.65.14-7.25,1-10,2-6.43,6.17-9.18,11-14a82.8,82.8,0,0,0,18-28c4-9.85,4-16.08,5-16,1.79.16,4.58,20.5-1,41C58.17,177.77,35.33,198.68,31.18,196.34Z"/><path class="cls-2" d="M257.18,105.34c2.92-.25,2.09,11.93,13,28,8.67,12.77,15.62,14.56,21,28a64.09,64.09,0,0,1,4,17c1.08,8.77,1.39,23.2-2,24-2.25.54-4.9-5.23-9-12-12.75-21-21.09-21.43-28-34C244.21,134.58,252.73,105.74,257.18,105.34Z"/></g><path class="cls-3" d="M293.45,204.43a122.26,122.26,0,0,1-1.27,14.91l-.45,21.72q-.78,37.14-1.55,74.28c-1.56.7-3.09,1.38-4.59,2-9.33,4-17.35,6.94-23.41,9l-3.52,1.16c-29.4,9.51-110.52,30.76-193.48-2.16-9-3.56-16-7-20-9Q41,281,36.79,245.61q-2.31-19.5-4.63-39c-.33-2.76-.65-5.51-1-8.27a18.78,18.78,0,0,1,3-7c2.89-4.1,6.65-5.67,9-7,5.19-2.94,7.79-7.29,13-16,2.26-3.78,6.27-11.37,8.88-25,.41-2.17.79-4.49,1.12-7a111.35,111.35,0,0,0,.62-19.64c-.27-6.54-.85-14.32-1.62-24.36-2.34-30.64-5.11-42.17-7-49-1.69-6.1-2.91-12.48-6-18a6.75,6.75,0,0,1-1-4,7,7,0,0,1,2-4c3.06-3.32,9-5,12.38-5.84l.62-.16,1.93-.5,4.55-1.19c10.45-2.76,16-4.28,18.52-5.31a11.54,11.54,0,0,1,6-1,9.81,9.81,0,0,1,6,3,9.14,9.14,0,0,1,2,4c1.33,5.43,3.73,10.56,5,16,2.68,11.51,4.21,10.15,7,22,2.41,10.24,1,10.14,3,15,4.19,10.16,12.46,15.7,16,18a50.63,50.63,0,0,0,18,7c3.73.7,11.64,2.18,20.37.71a36.64,36.64,0,0,0,14.63-5.71c5.93-4,9.88-9.39,12.9-15.26a124.71,124.71,0,0,0,6.1-14.74c1.2-3.29,1.61-5,3-10,2.5-9,6.36-21.88,12-38a7.54,7.54,0,0,1,3-2,8.35,8.35,0,0,1,5,0c1.78.48,3.54,1,5.3,1.59,5.62,1.82,11.18,4,16.84,5.51a59.83,59.83,0,0,0,9.86,1.9,12.13,12.13,0,0,1,6,2,10.19,10.19,0,0,1,4,5,10.51,10.51,0,0,1,0,6c-1.25,5.35-2.24,10.79-4,16-1.06,3.14-2,7.76-4,17-2.11,9.93-3.07,17.73-4,25-.74,5.8-1.46,11.41-2,19a205,205,0,0,0,0,33c.78,9,1.81,12.81,3,16l.09.25c1.05,2.75,2.49,5.73,4.91,10.75,2.18,4.51,3.26,6.77,4,8,3,5,7,11.68,14,15,1.86.88,3.4,1.28,5,3,2.3,2.47,2.77,5.59,3,8A70.4,70.4,0,0,1,293.45,204.43Z"/><path class="cls-4" d="M258.66,327.5c-29.4,9.51-110.52,30.76-193.48-2.16-9-3.56-16-7-20-9Q41,281,36.79,245.61q-2.31-19.5-4.63-39c-.33-2.76-.65-5.51-1-8.27a18.78,18.78,0,0,1,3-7c2.89-4.1,6.65-5.67,9-7,5.19-2.94,7.79-7.29,13-16,2.26-3.78,6.27-11.37,8.88-25q3.76,18.88,8.12,41c8.7,44.15,8.59,45.58,12,51,22.09,35.12,66,37.78,158,84C249.55,322.54,254.65,325.2,258.66,327.5Z"/><path class="cls-5" d="M273.18,25.34c-1.25,5.35-2.24,10.79-4,16-1.06,3.14-2,7.76-4,17-2.11,9.93-3.07,17.73-4,25-.74,5.8-1.46,11.41-2,19a205,205,0,0,0,0,33c.78,9,1.81,12.81,3,16l.09.25a41,41,0,0,1-10.09-10.25c-12.29-18.42,2.5-36.06,3-94a300.73,300.73,0,0,0-1.86-36.9,59.83,59.83,0,0,0,9.86,1.9,12.13,12.13,0,0,1,6,2,10.19,10.19,0,0,1,4,5A10.51,10.51,0,0,1,273.18,25.34Z"/><path class="cls-5" d="M174.55,89.05c-13.49,7-34.48,7.09-45.37-1.71-7.57-6.11-14.91-20.29-17-34-1.15-7.54-.84-15.78-7-21-3.4-2.88-6.66-3.06-10-4C86,25.76,77.5,17.79,72.66,9.65c10.45-2.76,16-4.28,18.52-5.31a11.54,11.54,0,0,1,6-1,9.81,9.81,0,0,1,6,3,9.14,9.14,0,0,1,2,4c1.33,5.43,3.73,10.56,5,16,2.68,11.51,4.21,10.15,7,22,2.41,10.24,1,10.14,3,15,4.19,10.16,12.46,15.7,16,18a50.63,50.63,0,0,0,18,7C157.91,89,165.82,90.52,174.55,89.05Z"/><path class="cls-2" d="M236.48,4.93a62.71,62.71,0,0,0-14.3,19.41c-6,12.78-2.52,17.15-9,29a68.43,68.43,0,0,1-11.1,14.74,124.71,124.71,0,0,0,6.1-14.74c1.2-3.29,1.61-5,3-10,2.5-9,6.36-21.88,12-38a7.54,7.54,0,0,1,3-2,8.35,8.35,0,0,1,5,0C233,3.82,234.72,4.36,236.48,4.93Z"/><path class="cls-2" d="M66.8,116.7c-.27-6.54-.85-14.32-1.62-24.36-2.34-30.64-5.11-42.17-7-49-1.69-6.1-2.91-12.48-6-18a6.75,6.75,0,0,1-1-4,7,7,0,0,1,2-4c3.06-3.32,9-5,12.38-5.84a48.65,48.65,0,0,0-3.38,15.84,56.49,56.49,0,0,0,3,20C70.5,65.66,70.34,95.54,66.8,116.7Z"/><path class="cls-6" d="M293.45,204.43c-43.71.37-87.42,9.73-131.13,10.1-43.38.36-86.77-8.28-130.16-7.92q2.31,19.5,4.63,39c31.69,6,89.91,12.45,192.39,2.81,16.48-1.55,37.7-3.85,62.55-7.36Z"/><path class="cls-3" d="M333.35,286.6c-.05,4.35-.17,6.74-.17,6.74-.11,2.33-.24,5.06-.36,8.16,0,.68-.06,1.38-.09,2.09-.21,5.35-.41,11.67-.55,18.75a22.87,22.87,0,0,1-2,6c-2.85,5.73-7.36,8.56-13,12a46.71,46.71,0,0,1-7.82,3.91l-.39.15h0c-4.41,1.65-8.58,2.45-16.75,5.93a11.91,11.91,0,0,1-4,1c-5.66.36-9.74-3.73-10-4a13.49,13.49,0,0,1-3-5c-.19-.55-.37-1.13-.56-1.74-.11-.39-.23-.79-.34-1.21-.45-1.6-.88-3.37-1.3-5.27-.14-.64-.27-1.28-.41-1.94-.77-3.77-1.49-7.94-2.14-12.21-.08-.55-.16-1.1-.25-1.65-.13-.94-.27-1.88-.4-2.82l-.33-2.4c-.29-2.1-.55-4.18-.8-6.21-.13-1.05-.26-2.08-.38-3.1-.29-2.46-.55-4.81-.78-7,0-.34-.07-.68-.11-1a.15.15,0,0,0,0-.07c-.06-.57-.11-1.12-.17-1.66-.11-1-.2-2-.29-2.9-.06-.55-.11-1.07-.16-1.57-.15-1.55-.27-2.87-.36-3.88,0-.16,0-.3,0-.44s0-.35,0-.5,0-.29,0-.42c-.06-.66-.09-1-.09-1-.05-.56-.09-1.11-.13-1.66s-.09-1.08-.13-1.61c-.06-.81-.12-1.6-.18-2.38,0-.6-.08-1.18-.12-1.76-.3-4.3-.52-8.32-.7-12.55,0-.82-.07-1.65-.1-2.49-.06-1.46-.12-2.95-.16-4.5l-.06-1.78c-.07-2.1-.14-4.31-.21-6.68,0-.67,0-1.36-.06-2.06-.05-1.75-.1-3.59-.15-5.53,0-1.32-.07-2.85,0-4.47.13-5,1-10.58,5-13.53,1.15-.84,2.22-1.24,4.91-1.53,1.64-.17,3.88-.3,7.09-.47l2.88-.15c4.66-.23,7.83-.35,10.1-.43,5.42-.18,5.76,0,9-.42l1.89-.23c5.68-.72,10.07-1.6,16.11-.77,2.69.37,6.23,1.16,8,4a7.13,7.13,0,0,1,1,3c1.05,9.42,1.77,18.21,2.25,26.14.37,5.93.6,11.37.75,16.23C333.42,275.73,333.42,282.18,333.35,286.6Z"/><path class="cls-5" d="M333.35,286.6c-.05,4.35-.17,6.74-.17,6.74-.11,2.33-.24,5.06-.36,8.16-2-5.82-4.17-13.87-6.64-23.16-6.22-23.44-3.66-29.64-11-44-4-7.88-7.86-12-10.11-15.23,5.68-.72,10.07-1.6,16.11-.77,2.69.37,6.23,1.16,8,4a7.13,7.13,0,0,1,1,3c1.05,9.42,1.77,18.21,2.25,26.14.37,5.93.6,11.37.75,16.23C333.42,275.73,333.42,282.18,333.35,286.6Z"/><path class="cls-6" d="M333.18,267.71c-12.51,2.77-33.64,4.23-67.88,3.26-.28-4.73-.47-9.34-.64-14.58,19.66.54,51.31,2.06,67.77-4.91C332.8,257.41,333,262.85,333.18,267.71Z"/><path class="cls-6" d="M333.35,286.6c-.05,4.35-.17,6.74-.17,6.74-.14,2.84-.29,6.28-.45,10.25-11.9,2.73-31.89,4.23-64.06,3.5-.67-5.44-1.22-10.54-1.63-14.6C287.63,293.1,318.39,294.15,333.35,286.6Z"/><path class="cls-2" d="M309.36,344.25l-.39.15h0c-4.41,1.65-8.58,2.45-16.75,5.93a11.91,11.91,0,0,1-4,1c-5.66.36-9.74-3.73-10-4a13.49,13.49,0,0,1-3-5c-.19-.55-.37-1.13-.56-1.74-.11-.39-.23-.79-.34-1.21-.45-1.6-.88-3.37-1.3-5.27-.14-.64-.27-1.28-.41-1.94-.77-3.77-1.49-7.94-2.14-12.21-.08-.55-.16-1.1-.25-1.65-.13-.94-.27-1.88-.4-2.82l-.33-2.4c-.29-2.1-.55-4.18-.8-6.21-.13-1.05-.26-2.08-.38-3.1-.29-2.46-.55-4.81-.78-7,0-.34-.07-.68-.11-1a.15.15,0,0,0,0-.07c-.06-.57-.11-1.12-.17-1.66-.11-1-.2-2-.29-2.9-.06-.55-.11-1.07-.16-1.57-.15-1.55-.27-2.87-.36-3.88,0-.16,0-.3,0-.44s0-.35,0-.5,0-.29,0-.42c-.06-.66-.09-1-.09-1-.05-.56-.09-1.11-.13-1.66s-.09-1.08-.13-1.61c-.06-.81-.12-1.6-.18-2.38,0-.6-.08-1.18-.12-1.76-.3-4.3-.52-8.32-.7-12.55,0-.82-.07-1.65-.1-2.49-.06-1.46-.12-2.95-.16-4.5l-.06-1.78c-.07-2.1-.14-4.31-.21-6.68,0-.67,0-1.36-.06-2.06-.05-1.75-.1-3.59-.15-5.53,0-1.32-.07-2.85,0-4.47.13-5,1-10.58,5-13.53,1.15-.84,2.22-1.24,4.91-1.53,1.64-.17,3.88-.3,7.09-.47l2.88-.15c-.68,2-9.17,5.69-8.88,10.15,1.74,26.9-1.52,32.28,1,46,2.4,13.09,5.89,11.08,9,27,3.06,15.69.23,20.52,4,28C293.39,339.7,302.09,342.5,309.36,344.25Z"/><path class="cls-3" d="M64.18,308.34c-.21,19.81,2.15,27.21-4,34a23.66,23.66,0,0,1-13,7,45.47,45.47,0,0,1-14-3,43.53,43.53,0,0,1-6.32-3.07C16.51,337.19,10,327.72,6.18,319.87a67,67,0,0,1-5-13.53c-.51-2.18-.68-8.71-1-21.72a2.62,2.62,0,0,1,0-.28C0,277.81,0,272.05,0,267c.1-10.78.61-18.59,1.26-24.56h0a121.74,121.74,0,0,1,1.91-12c1.09-5.23,2.24-9.42,3-12a47.63,47.63,0,0,1,8.77-2c7.93-1,13.27.7,16.23,2,2.59,1.14,2.14,1.44,14,11,11.43,9.21,14.44,11,17,16s2.81,9.29,3,13a254.5,254.5,0,0,1-.06,27.28c-.25,5-.56,9.85-.76,15.18C64.28,303.19,64.21,305.69,64.18,308.34Z"/><path class="cls-7" d="M65.12,285.62c-.25,5-.56,9.85-.76,15.18-5.74-4.49-14.69-15.67-27.18-16.46-10.64-.67-13.18,6.88-22,7-5.28.07-10.34-2.55-15-6.72a2.62,2.62,0,0,1,0-.28C0,277.81,0,272.05,0,267c6.75,6.21,14.58,10.69,23.17,10.38,6.06-.22,8.5-2.69,17-2S59,279.55,65.12,285.62Z"/><path class="cls-2" d="M60.18,342.34a23.66,23.66,0,0,1-13,7,45.47,45.47,0,0,1-14-3,43.53,43.53,0,0,1-6.32-3.07c5.06-.14,10.55-1.25,15.32-4.93,10.07-7.76,11-22.36,12-38,.84-13.22,1.71-26.88-6-40-4.09-7-6-5.9-20-23-10.44-12.72-13.08-17.81-13.23-21,7.93-1,13.27.7,16.23,2,2.59,1.14,2.14,1.44,14,11,11.43,9.21,14.44,11,17,16s2.81,9.29,3,13c1.09,21.5-.81,32.21-1,50C64,328.15,66.33,335.55,60.18,342.34Z"/><path class="cls-5" d="M8.18,294.34c-.08,11.07-1.8,14.89-2,25.53a67,67,0,0,1-5-13.53c-.51-2.2-.68-8.8-1-22-.5-20.36.13-33.15,1.09-41.94.31,5.31.89,11.3,1.91,17.94C5.65,276.42,8.27,280.56,8.18,294.34Z"/><path class="cls-6" d="M90.69,6.37c.56-1.85-2-4.93-5-6-4.36-1.56-6.5,2.21-16,4-4.71.88-6.24.34-8,2-3.08,2.91-3.41,9.37-1,11,2.94,2,7.1-5.11,19-8C85.81,7.88,90.06,8.46,90.69,6.37Z"/><path class="cls-6" d="M232.18,8.37c-.56-1.85,2-4.93,5-6,4.36-1.56,6.5,2.21,16,4,4.71.88,6.25.34,8,2,3.08,2.91,3.41,9.37,1,11-2.94,2-7.09-5.11-19-8C237.06,9.88,232.81,10.46,232.18,8.37Z"/><path class="cls-6" d="M212,154.84a377.06,377.06,0,0,1-2.32,40.07v0c-.16,1.47-.34,2.94-.52,4.41q-.83,6.67-1.86,13.09c0,.31-.09.61-.14.91a14.88,14.88,0,0,1-7,4,14.15,14.15,0,0,1-6,0c-8.64-1.62-22.63-.11-33,1-2.4.26-5.62.66-9-1a14.27,14.27,0,0,1-6-6c-.46-7.23-.79-13.12-1-17-1.12-20.56-1.48-33.06-1.59-41.15,0-.32,0-.63,0-.94s0-.76,0-1.13,0-.89,0-1.31v-.19c-.06-8.19.12-10.8-.37-14.28a14,14,0,0,1,0-4,13.73,13.73,0,0,1,5-9,12.41,12.41,0,0,1,4-2c24.17.15,41.54.25,46,0a11.45,11.45,0,0,1,6,1,15,15,0,0,1,3.18,2.28l.82.72a36.36,36.36,0,0,1,3,3c.46,6.9.75,14,.83,21.32Q212,151.72,212,154.84Z"/><path class="cls-2" d="M207.32,212.43c0,.31-.09.61-.14.91a14.88,14.88,0,0,1-7,4,14.15,14.15,0,0,1-6,0c-8.64-1.62-22.63-.11-33,1-2.4.26-5.62.66-9-1a14.27,14.27,0,0,1-6-6c-.46-7.23-.79-13.12-1-17-1.12-20.56-1.48-33.06-1.59-41.15,3.76,7.49,7.13,22,8.59,32.15.82,5.69,1.33,12.06,6,15,3.62,2.28,6.86.68,14,1,5.85.26,10.23,1.84,19,5C198,208.79,203.37,210.73,207.32,212.43Z"/><path class="cls-8" d="M212,154.84a377.06,377.06,0,0,1-2.32,40.07c-.06-5.5,3.3-27.47-1.52-33.57-4.21-5.32-13.87,7-24,4-15.26-4.52-21.48-1.74-33-8a48.67,48.67,0,0,1-7.6-5.09c0-.39,0-.76,0-1.13s0-.89,0-1.31c3.33,1.31,9.95,4.48,18.63,6.53,6.88,1.62,20.74,4.89,35,0,7.32-2.51,11.69-6.12,14.83-7.68Q212,151.72,212,154.84Z"/><path class="cls-2" d="M212,154.84c-3.89,2.62-9,4-14.84,5.5a67.51,67.51,0,0,1-39-2,70.12,70.12,0,0,1-14.62-7.22c0-.45,0-.89,0-1.31v-.19a58.58,58.58,0,0,0,12.63,3.72c5.91,1,6.1.06,15,1,9.65,1,10.24,2.24,16,2,4.38-.19,9.44-.47,14-4,1.65-1.28,5.79-4.48,6-9,.18-3.9-2.73-5.56-2-10,.4-2.46,1.36-2.34,2-5a12.5,12.5,0,0,0,.18-4.72l.82.72a36.36,36.36,0,0,1,3,3c.46,6.9.75,14,.83,21.32Q212,151.72,212,154.84Z"/><ellipse class="cls-9" cx="177.85" cy="150.34" rx="4.67" ry="2"/><g id="כיס_אפוד" data-name="כיס אפוד"><path class="cls-6" d="M243.18,208.34a10.63,10.63,0,0,1-.36,2.2,10.32,10.32,0,0,1-.64,1.8c-.1.22-2.3,4.78-7,6-1.15.3-.89,0-5,0-5.28,0-6.73.51-10,0a23.24,23.24,0,0,1-4-1c-.25-1.17-.62-2.9-1-5-3.15-17.23-1.37-24-2-44-.07-2.32-.11-4.65-.11-7s0-4.87,0-7.3v-3.28a176.41,176.41,0,0,0-.91-21.45,22.2,22.2,0,0,1,1-9c1.44-4.37,3.47-5.68,4-6,1-.58,1.81-.75,5-1,6.3-.49,9.45-.73,12,0a18.17,18.17,0,0,1,4.1,1.49,6.91,6.91,0,0,1,1.9,1.51c2.73,3.09,2.14,7.68,2,9-.34,3.29-.43,11-.32,22.3,0,1.65,0,3.38.07,5.18.13,10,.39,22.25.75,36.32h0C242.83,195.22,243,201.63,243.18,208.34Z"/><path class="cls-2" d="M242.82,210.54a10.32,10.32,0,0,1-.64,1.8c-.1.22-2.3,4.78-7,6-1.15.3-.89,0-5,0-5.28,0-6.73.51-10,0a23.24,23.24,0,0,1-4-1c-.25-1.17-.62-2.9-1-5-3.15-17.23-1.37-24-2-44-.07-2.32-.11-4.65-.11-7,2.52,5.17,6.09,28.49,7.11,42,.16,2.14.39,5.75,3,8C228.36,215.79,238.07,210.71,242.82,210.54Z"/><path class="cls-8" d="M240.18,162.34c0-2,.14-5.44-2-7-3.19-2.33-7.58,2.3-15,2a21.22,21.22,0,0,1-10.1-3.27v-2.92a36.68,36.68,0,0,0,6.09,1.19c11.09,1.15,18.11-4,22.68-4.7,0,1.65,0,3.38.07,5.18.13,10,.39,22.25.75,36.32A133.67,133.67,0,0,1,240.18,162.34Z"/><path class="cls-2" d="M213.09,150.79a61.41,61.41,0,0,0,8.09-.45c10.37-1.39,12-2.18,13-5,.42-1.17,3.68-2.79,3-5-2-6.55,1.78-10.06,2-18a25.81,25.81,0,0,0-.9-7.51,6.91,6.91,0,0,1,1.9,1.51c2.73,3.09,2.14,7.68,2,9-.39,3.77-.45,13.36-.25,27.48-2.93,1.34-7,1.41-13.75,1.52a91.29,91.29,0,0,1-15.1-1Z"/><path class="cls-9" d="M224.18,165.34c-4-2.79.66-12.15,0-21a5.27,5.27,0,0,1,1-4,3.13,3.13,0,0,1,3-1c.24.08,1.33.5,2,3,1.43,5.31,1.07,20.27,1,23a6.82,6.82,0,0,1-4,1A6.24,6.24,0,0,1,224.18,165.34Z"/></g><g id="כיס_אפוד-2" data-name="כיס אפוד"><path class="cls-6" d="M140.18,351a7,7,0,0,1-.53,2.07,8.2,8.2,0,0,1-1,1.69,16.64,16.64,0,0,1-10.38,5.63c-1.7.28-1.32,0-7.41,0-7.83,0-10,.48-14.82,0a50.94,50.94,0,0,1-5.93-.94c-.37-1.1-.92-2.72-1.48-4.69-4.67-16.18-2-22.55-3-41.31-.1-2.18-.16-4.37-.16-6.55s0-4.57,0-6.85l0-2.74v-.34a106.31,106.31,0,0,0-1.35-20.14,13.64,13.64,0,0,1,1.48-8.45,11.3,11.3,0,0,1,5.93-5.63c1.44-.55,2.68-.71,7.41-.94,9.34-.46,14-.69,17.79,0a37.36,37.36,0,0,1,6.08,1.4,10.58,10.58,0,0,1,2.81,1.41c4.05,2.91,3.17,7.22,3,8.45-.51,3.09-.64,10.34-.48,20.94,0,1.55.08,3.17.11,4.86.19,9.38.57,20.89,1.11,34.1h0C139.66,338.65,139.91,344.67,140.18,351Z"/><path class="cls-2" d="M139.65,353a8.2,8.2,0,0,1-1,1.69,16.64,16.64,0,0,1-10.38,5.63c-1.7.28-1.32,0-7.41,0-7.83,0-10,.48-14.82,0a50.94,50.94,0,0,1-5.93-.94c-.37-1.1-.92-2.72-1.48-4.69-4.67-16.18-2-22.55-3-41.31-.1-2.18-.16-4.37-.16-6.55,3.73,4.86,9,26.75,10.54,39.41.23,2,.58,5.39,4.44,7.51C118.21,358,132.61,353.2,139.65,353Z"/><path class="cls-8" d="M135.73,307.78c.05-1.85.21-5.1-3-6.57-4.73-2.19-11.24,2.16-22.24,1.88a45,45,0,0,1-15-3.07l0-2.74a82.39,82.39,0,0,0,9,1.11c16.44,1.08,26.85-3.76,33.62-4.41,0,1.55.08,3.17.11,4.86.19,9.38.57,20.89,1.11,34.1A81.44,81.44,0,0,1,135.73,307.78Z"/><path class="cls-2" d="M95.58,296.94c3.45,0,7.63-.06,12-.42,15.37-1.31,17.77-2,19.27-4.7.62-1.1,5.45-2.62,4.45-4.69-3-6.15,2.63-9.45,3-16.9a16,16,0,0,0-1.33-7.05,10.58,10.58,0,0,1,2.81,1.41c4.05,2.91,3.17,7.22,3,8.45-.58,3.54-.67,12.55-.37,25.8-4.35,1.26-10.42,1.33-20.38,1.43a211.22,211.22,0,0,1-22.39-.95Z"/><path class="cls-9" d="M112,310.6c-5.94-2.62,1-11.41,0-19.72a3.6,3.6,0,0,1,1.48-3.75,6.4,6.4,0,0,1,4.45-.94,4.25,4.25,0,0,1,3,2.82c2.11,5,1.59,19,1.48,21.59a14.88,14.88,0,0,1-5.93.94A13.36,13.36,0,0,1,112,310.6Z"/></g><g id="כיס_אפוד-3" data-name="כיס אפוד"><path class="cls-6" d="M185.18,351a7,7,0,0,1-.53,2.07,8.2,8.2,0,0,1-1,1.69,16.64,16.64,0,0,1-10.38,5.63c-1.7.28-1.32,0-7.41,0-7.83,0-10,.48-14.82,0a50.94,50.94,0,0,1-5.93-.94c-.37-1.1-.92-2.72-1.48-4.69-4.67-16.18-2-22.55-3-41.31-.1-2.18-.16-4.37-.16-6.55s0-4.57,0-6.85l0-2.74v-.34a106.31,106.31,0,0,0-1.35-20.14,13.64,13.64,0,0,1,1.48-8.45,11.3,11.3,0,0,1,5.93-5.63c1.44-.55,2.68-.71,7.41-.94,9.34-.46,14-.69,17.79,0a37.36,37.36,0,0,1,6.08,1.4,10.58,10.58,0,0,1,2.81,1.41c4.05,2.91,3.17,7.22,3,8.45-.51,3.09-.64,10.34-.48,20.94,0,1.55.08,3.17.11,4.86.19,9.38.57,20.89,1.11,34.1h0C184.66,338.65,184.91,344.67,185.18,351Z"/><path class="cls-2" d="M184.65,353a8.2,8.2,0,0,1-1,1.69,16.64,16.64,0,0,1-10.38,5.63c-1.7.28-1.32,0-7.41,0-7.83,0-10,.48-14.82,0a50.94,50.94,0,0,1-5.93-.94c-.37-1.1-.92-2.72-1.48-4.69-4.67-16.18-2-22.55-3-41.31-.1-2.18-.16-4.37-.16-6.55,3.73,4.86,9,26.75,10.54,39.41.23,2,.58,5.39,4.44,7.51C163.21,358,177.61,353.2,184.65,353Z"/><path class="cls-8" d="M180.73,307.78c.05-1.85.21-5.1-3-6.57-4.73-2.19-11.24,2.16-22.24,1.88a45,45,0,0,1-15-3.07l0-2.74a82.39,82.39,0,0,0,9,1.11c16.44,1.08,26.85-3.76,33.62-4.41,0,1.55.08,3.17.11,4.86.19,9.38.57,20.89,1.11,34.1A81.44,81.44,0,0,1,180.73,307.78Z"/><path class="cls-2" d="M140.58,296.94c3.45,0,7.63-.06,12-.42,15.37-1.31,17.77-2,19.27-4.7.62-1.1,5.45-2.62,4.45-4.69-3-6.15,2.63-9.45,3-16.9a16,16,0,0,0-1.33-7.05,10.58,10.58,0,0,1,2.81,1.41c4.05,2.91,3.17,7.22,3,8.45-.58,3.54-.67,12.55-.37,25.8-4.35,1.26-10.42,1.33-20.38,1.43a211.22,211.22,0,0,1-22.39-.95Z"/><path class="cls-9" d="M157,310.6c-5.94-2.62,1-11.41,0-19.72a3.6,3.6,0,0,1,1.48-3.75,6.4,6.4,0,0,1,4.45-.94,4.25,4.25,0,0,1,3,2.82c2.11,5,1.59,19,1.48,21.59a14.88,14.88,0,0,1-5.93.94A13.36,13.36,0,0,1,157,310.6Z"/></g><g id="כיס_אפוד-4" data-name="כיס אפוד"><path class="cls-6" d="M230.18,351a7,7,0,0,1-.53,2.07,8.2,8.2,0,0,1-1,1.69,16.64,16.64,0,0,1-10.38,5.63c-1.7.28-1.32,0-7.41,0-7.83,0-10,.48-14.82,0a50.94,50.94,0,0,1-5.93-.94c-.37-1.1-.92-2.72-1.48-4.69-4.67-16.18-2-22.55-3-41.31-.1-2.18-.16-4.37-.16-6.55s0-4.57,0-6.85l0-2.74v-.34a106.31,106.31,0,0,0-1.35-20.14,13.64,13.64,0,0,1,1.48-8.45,11.3,11.3,0,0,1,5.93-5.63c1.44-.55,2.68-.71,7.41-.94,9.34-.46,14-.69,17.79,0a37.36,37.36,0,0,1,6.08,1.4,10.58,10.58,0,0,1,2.81,1.41c4.05,2.91,3.17,7.22,3,8.45-.51,3.09-.64,10.34-.48,20.94,0,1.55.08,3.17.11,4.86.19,9.38.57,20.89,1.11,34.1h0C229.66,338.65,229.91,344.67,230.18,351Z"/><path class="cls-2" d="M229.65,353a8.2,8.2,0,0,1-1,1.69,16.64,16.64,0,0,1-10.38,5.63c-1.7.28-1.32,0-7.41,0-7.83,0-10,.48-14.82,0a50.94,50.94,0,0,1-5.93-.94c-.37-1.1-.92-2.72-1.48-4.69-4.67-16.18-2-22.55-3-41.31-.1-2.18-.16-4.37-.16-6.55,3.73,4.86,9,26.75,10.54,39.41.23,2,.58,5.39,4.44,7.51C208.21,358,222.61,353.2,229.65,353Z"/><path class="cls-8" d="M225.73,307.78c.05-1.85.21-5.1-3-6.57-4.73-2.19-11.24,2.16-22.24,1.88a45,45,0,0,1-15-3.07l0-2.74a82.39,82.39,0,0,0,9,1.11c16.44,1.08,26.85-3.76,33.62-4.41,0,1.55.08,3.17.11,4.86.19,9.38.57,20.89,1.11,34.1A81.44,81.44,0,0,1,225.73,307.78Z"/><path class="cls-2" d="M185.58,296.94c3.45,0,7.63-.06,12-.42,15.37-1.31,17.77-2,19.27-4.7.62-1.1,5.45-2.62,4.45-4.69-3-6.15,2.63-9.45,3-16.9a16,16,0,0,0-1.33-7.05,10.58,10.58,0,0,1,2.81,1.41c4.05,2.91,3.17,7.22,3,8.45-.58,3.54-.67,12.55-.37,25.8-4.35,1.26-10.42,1.33-20.38,1.43a211.22,211.22,0,0,1-22.39-.95Z"/><path class="cls-9" d="M202,310.6c-5.94-2.62,1-11.41,0-19.72a3.6,3.6,0,0,1,1.48-3.75,6.4,6.4,0,0,1,4.45-.94,4.25,4.25,0,0,1,3,2.82c2.11,5,1.59,19,1.48,21.59a14.88,14.88,0,0,1-5.93.94A13.36,13.36,0,0,1,202,310.6Z"/></g><g id="כיס"><path class="cls-6" d="M143.18,196.34c.06,6.46,0,11.7,0,15a12.08,12.08,0,0,1-5,5,1.76,1.76,0,0,1-.2.09,12.28,12.28,0,0,1-6.8.91c-5.5-.6-18.12-.54-37,0a7.41,7.41,0,0,1-5-1,8.5,8.5,0,0,1-3-5c-1.15-4.91-1.12-35.78,0-78a23.41,23.41,0,0,1,4-4l.79-.62a17.52,17.52,0,0,1,2.3-1.56,9.64,9.64,0,0,1,1.91-.82,11.39,11.39,0,0,1,6,0c5.53,1.21,12.35.81,26,0l1.69-.1c3.08-.19,5.14-.21,7.31,1.1.72.43,3,2,5,7a30.45,30.45,0,0,1,2,13c-.32,4.37-.46,8.74-.5,13.12,0,1,0,2.07,0,3.11,0,3.6,0,6,.09,8.56C142.86,176.89,143,182.12,143.18,196.34Z"/><path class="cls-10" d="M142.68,160.46c0,1,0,2.07,0,3.11,0,3.6,0,6,.09,8.56-1.57-7.3-3.16-15.53-4.57-22.79-1.36-7-2.79-15.25-8-17-4.39-1.48-7.4,3-14,4-8.72,1.29-18.62-4.3-22.91-9.18a9.64,9.64,0,0,1,1.91-.82,11.39,11.39,0,0,1,6,0c5.53,1.21,12.35.81,26,0l1.69-.1c3.08-.19,5.14-.21,7.31,1.1.72.43,3,2,5,7a30.45,30.45,0,0,1,2,13C142.86,151.71,142.72,156.08,142.68,160.46Z"/><path class="cls-9" d="M125.18,122.34v36a10.5,10.5,0,0,1-3,3c-4.7,3-11.09,1.46-15-1a9.33,9.33,0,0,1-3.51-2.28,5.91,5.91,0,0,1-1.49-2.72c-3-13,1.31-34.19,2-36a19.85,19.85,0,0,1,5-2c.55-.14,1.32-.33,2.23-.49a14,14,0,0,1,9.77,1.49A12.47,12.47,0,0,1,125.18,122.34Z"/><path class="cls-2" d="M138,216.43a12.28,12.28,0,0,1-6.8.91c-5.5-.6-18.12-.54-37,0a7.41,7.41,0,0,1-5-1,8.5,8.5,0,0,1-3-5c-1.15-4.91-1.12-35.78,0-78a23.41,23.41,0,0,1,4-4l.79-.62a179.31,179.31,0,0,1,3.21,24.62c1.33,22.38-3.93,33.08,4,44,4.08,5.61,9.46,8.27,17,12A75.46,75.46,0,0,0,138,216.43Z"/><path class="cls-11" d="M125.18,122.34v36a10.5,10.5,0,0,1-3,3c-4.7,3-11.09,1.46-15-1a9.33,9.33,0,0,1-3.51-2.28c4.34-6,11.9-13.89,11.51-25.72-.22-6.82-3-11.81-3.77-15.49a14,14,0,0,1,9.77,1.49A12.47,12.47,0,0,1,125.18,122.34Z"/></g></g></svg>